<svg width="224" height="73" viewBox="0 0 224 73" fill="none" xmlns="http://www.w3.org/2000/svg">
<rect y="0.5" width="223.5" height="72" rx="12" fill="white"/>
<g clip-path="url(#clip0_2693_1045)">
<path d="M38.1582 20.5H38.3859C38.5685 22.7567 37.7072 24.4429 36.6603 25.664C35.6331 26.8767 34.2266 28.0528 31.9516 27.8743C31.7998 25.65 32.6626 24.0888 33.708 22.8705C34.6776 21.7351 36.4552 20.7248 38.1582 20.5ZM45.045 43.9889V44.0521C44.4056 45.9884 43.4937 47.6479 42.3808 49.188C41.3648 50.5862 40.1199 52.4677 37.8969 52.4677C35.976 52.4677 34.7001 51.2325 32.7315 51.1988C30.649 51.1651 29.5038 52.2316 27.5998 52.5H26.9506C25.5524 52.2977 24.4241 51.1904 23.602 50.1927C21.1781 47.2447 19.305 43.4366 18.9565 38.5635V37.1316C19.1041 33.644 20.7987 30.8083 23.0512 29.4341C24.24 28.7034 25.8742 28.0809 27.6939 28.3591C28.4738 28.48 29.2705 28.747 29.9689 29.0111C30.6307 29.2655 31.4584 29.7165 32.2425 29.6926C32.7736 29.6772 33.302 29.4004 33.8373 29.205C35.4055 28.6388 36.9428 27.9896 38.969 28.2945C41.4042 28.6626 43.1325 29.7446 44.2005 31.414C42.1405 32.725 40.5119 34.7007 40.7901 38.0745C41.0374 41.1392 42.8192 42.9322 45.045 43.9889Z" fill="#1C1C1C"/>
</g>
<path d="M68.846 27.33H64.59L63.806 29.5H62.462L65.99 19.798H67.46L70.974 29.5H69.63L68.846 27.33ZM68.482 26.294L66.718 21.366L64.954 26.294H68.482ZM75.3676 28.324L77.7476 21.828H79.1056L76.0956 29.5H74.6116L71.6016 21.828H72.9736L75.3676 28.324ZM79.8833 25.636C79.8833 24.852 80.0419 24.166 80.3593 23.578C80.6766 22.9807 81.1106 22.5187 81.6613 22.192C82.2213 21.8653 82.8419 21.702 83.5233 21.702C84.1953 21.702 84.7786 21.8467 85.2733 22.136C85.7679 22.4253 86.1366 22.7893 86.3793 23.228V21.828H87.6673V29.5H86.3793V28.072C86.1273 28.52 85.7493 28.8933 85.2453 29.192C84.7506 29.4813 84.1719 29.626 83.5093 29.626C82.8279 29.626 82.2119 29.458 81.6613 29.122C81.1106 28.786 80.6766 28.3147 80.3593 27.708C80.0419 27.1013 79.8833 26.4107 79.8833 25.636ZM86.3793 25.65C86.3793 25.0713 86.2626 24.5673 86.0293 24.138C85.7959 23.7087 85.4786 23.382 85.0773 23.158C84.6853 22.9247 84.2513 22.808 83.7753 22.808C83.2993 22.808 82.8653 22.92 82.4733 23.144C82.0813 23.368 81.7686 23.6947 81.5353 24.124C81.3019 24.5533 81.1853 25.0573 81.1853 25.636C81.1853 26.224 81.3019 26.7373 81.5353 27.176C81.7686 27.6053 82.0813 27.9367 82.4733 28.17C82.8653 28.394 83.2993 28.506 83.7753 28.506C84.2513 28.506 84.6853 28.394 85.0773 28.17C85.4786 27.9367 85.7959 27.6053 86.0293 27.176C86.2626 26.7373 86.3793 26.2287 86.3793 25.65ZM90.4782 20.582C90.2355 20.582 90.0302 20.498 89.8622 20.33C89.6942 20.162 89.6102 19.9567 89.6102 19.714C89.6102 19.4713 89.6942 19.266 89.8622 19.098C90.0302 18.93 90.2355 18.846 90.4782 18.846C90.7115 18.846 90.9075 18.93 91.0662 19.098C91.2342 19.266 91.3182 19.4713 91.3182 19.714C91.3182 19.9567 91.2342 20.162 91.0662 20.33C90.9075 20.498 90.7115 20.582 90.4782 20.582ZM91.0942 21.828V29.5H89.8202V21.828H91.0942ZM94.5395 19.14V29.5H93.2655V19.14H94.5395ZM96.2348 25.636C96.2348 24.852 96.3935 24.166 96.7108 23.578C97.0281 22.9807 97.4621 22.5187 98.0128 22.192C98.5728 21.8653 99.1935 21.702 99.8748 21.702C100.547 21.702 101.13 21.8467 101.625 22.136C102.119 22.4253 102.488 22.7893 102.731 23.228V21.828H104.019V29.5H102.731V28.072C102.479 28.52 102.101 28.8933 101.597 29.192C101.102 29.4813 100.523 29.626 99.8608 29.626C99.1795 29.626 98.5635 29.458 98.0128 29.122C97.4621 28.786 97.0281 28.3147 96.7108 27.708C96.3935 27.1013 96.2348 26.4107 96.2348 25.636ZM102.731 25.65C102.731 25.0713 102.614 24.5673 102.381 24.138C102.147 23.7087 101.83 23.382 101.429 23.158C101.037 22.9247 100.603 22.808 100.127 22.808C99.6508 22.808 99.2168 22.92 98.8248 23.144C98.4328 23.368 98.1201 23.6947 97.8868 24.124C97.6535 24.5533 97.5368 25.0573 97.5368 25.636C97.5368 26.224 97.6535 26.7373 97.8868 27.176C98.1201 27.6053 98.4328 27.9367 98.8248 28.17C99.2168 28.394 99.6508 28.506 100.127 28.506C100.603 28.506 101.037 28.394 101.429 28.17C101.83 27.9367 102.147 27.6053 102.381 27.176C102.614 26.7373 102.731 26.2287 102.731 25.65ZM107.446 23.256C107.707 22.7987 108.09 22.4253 108.594 22.136C109.098 21.8467 109.672 21.702 110.316 21.702C111.006 21.702 111.627 21.8653 112.178 22.192C112.728 22.5187 113.162 22.9807 113.48 23.578C113.797 24.166 113.956 24.852 113.956 25.636C113.956 26.4107 113.797 27.1013 113.48 27.708C113.162 28.3147 112.724 28.786 112.164 29.122C111.613 29.458 110.997 29.626 110.316 29.626C109.653 29.626 109.07 29.4813 108.566 29.192C108.071 28.9027 107.698 28.534 107.446 28.086V29.5H106.172V19.14H107.446V23.256ZM112.654 25.636C112.654 25.0573 112.537 24.5533 112.304 24.124C112.07 23.6947 111.753 23.368 111.352 23.144C110.96 22.92 110.526 22.808 110.05 22.808C109.583 22.808 109.149 22.9247 108.748 23.158C108.356 23.382 108.038 23.7133 107.796 24.152C107.562 24.5813 107.446 25.0807 107.446 25.65C107.446 26.2287 107.562 26.7373 107.796 27.176C108.038 27.6053 108.356 27.9367 108.748 28.17C109.149 28.394 109.583 28.506 110.05 28.506C110.526 28.506 110.96 28.394 111.352 28.17C111.753 27.9367 112.07 27.6053 112.304 27.176C112.537 26.7373 112.654 26.224 112.654 25.636ZM116.907 19.14V29.5H115.633V19.14H116.907ZM126.078 25.37C126.078 25.6127 126.064 25.8693 126.036 26.14H119.904C119.951 26.896 120.207 27.4887 120.674 27.918C121.15 28.338 121.724 28.548 122.396 28.548C122.947 28.548 123.404 28.422 123.768 28.17C124.141 27.9087 124.403 27.5633 124.552 27.134H125.924C125.719 27.8713 125.308 28.4733 124.692 28.94C124.076 29.3973 123.311 29.626 122.396 29.626C121.668 29.626 121.015 29.4627 120.436 29.136C119.867 28.8093 119.419 28.3473 119.092 27.75C118.765 27.1433 118.602 26.4433 118.602 25.65C118.602 24.8567 118.761 24.1613 119.078 23.564C119.395 22.9667 119.839 22.5093 120.408 22.192C120.987 21.8653 121.649 21.702 122.396 21.702C123.124 21.702 123.768 21.8607 124.328 22.178C124.888 22.4953 125.317 22.934 125.616 23.494C125.924 24.0447 126.078 24.67 126.078 25.37ZM124.762 25.104C124.762 24.6187 124.655 24.2033 124.44 23.858C124.225 23.5033 123.931 23.2373 123.558 23.06C123.194 22.8733 122.788 22.78 122.34 22.78C121.696 22.78 121.145 22.9853 120.688 23.396C120.24 23.8067 119.983 24.376 119.918 25.104H124.762ZM135.23 21.688C136.163 21.688 136.919 21.9727 137.498 22.542C138.077 23.102 138.366 23.914 138.366 24.978V29.5H137.106V25.16C137.106 24.3947 136.915 23.8113 136.532 23.41C136.149 22.9993 135.627 22.794 134.964 22.794C134.292 22.794 133.755 23.004 133.354 23.424C132.962 23.844 132.766 24.4553 132.766 25.258V29.5H131.492V21.828H132.766V22.92C133.018 22.528 133.359 22.2247 133.788 22.01C134.227 21.7953 134.707 21.688 135.23 21.688ZM143.793 29.626C143.074 29.626 142.421 29.4627 141.833 29.136C141.254 28.8093 140.797 28.3473 140.461 27.75C140.134 27.1433 139.971 26.4433 139.971 25.65C139.971 24.866 140.139 24.1753 140.475 23.578C140.82 22.9713 141.287 22.5093 141.875 22.192C142.463 21.8653 143.121 21.702 143.849 21.702C144.577 21.702 145.235 21.8653 145.823 22.192C146.411 22.5093 146.873 22.9667 147.209 23.564C147.554 24.1613 147.727 24.8567 147.727 25.65C147.727 26.4433 147.55 27.1433 147.195 27.75C146.85 28.3473 146.378 28.8093 145.781 29.136C145.184 29.4627 144.521 29.626 143.793 29.626ZM143.793 28.506C144.25 28.506 144.68 28.3987 145.081 28.184C145.482 27.9693 145.804 27.6473 146.047 27.218C146.299 26.7887 146.425 26.266 146.425 25.65C146.425 25.034 146.304 24.5113 146.061 24.082C145.818 23.6527 145.501 23.3353 145.109 23.13C144.717 22.9153 144.292 22.808 143.835 22.808C143.368 22.808 142.939 22.9153 142.547 23.13C142.164 23.3353 141.856 23.6527 141.623 24.082C141.39 24.5113 141.273 25.034 141.273 25.65C141.273 26.2753 141.385 26.8027 141.609 27.232C141.842 27.6613 142.15 27.9833 142.533 28.198C142.916 28.4033 143.336 28.506 143.793 28.506ZM159.622 21.828L157.228 29.5H155.912L154.064 23.41L152.216 29.5H150.9L148.492 21.828H149.794L151.558 28.268L153.462 21.828H154.764L156.626 28.282L158.362 21.828H159.622Z" fill="#6C6C6C"/>
<path d="M69.952 50.372H65.504L64.768 52.5H62.416L66.432 41.316H69.04L73.056 52.5H70.688L69.952 50.372ZM69.344 48.58L67.728 43.908L66.112 48.58H69.344ZM76.7971 44.916C77.0851 44.5107 77.4798 44.1747 77.9811 43.908C78.4931 43.6307 79.0745 43.492 79.7251 43.492C80.4825 43.492 81.1651 43.6787 81.7731 44.052C82.3918 44.4253 82.8771 44.9587 83.2291 45.652C83.5918 46.3347 83.7731 47.1293 83.7731 48.036C83.7731 48.9427 83.5918 49.748 83.2291 50.452C82.8771 51.1453 82.3918 51.684 81.7731 52.068C81.1651 52.452 80.4825 52.644 79.7251 52.644C79.0745 52.644 78.4985 52.5107 77.9971 52.244C77.5065 51.9773 77.1065 51.6413 76.7971 51.236V56.724H74.5571V43.636H76.7971V44.916ZM81.4851 48.036C81.4851 47.5027 81.3731 47.044 81.1491 46.66C80.9358 46.2653 80.6478 45.9667 80.2851 45.764C79.9331 45.5613 79.5491 45.46 79.1331 45.46C78.7278 45.46 78.3438 45.5667 77.9811 45.78C77.6291 45.9827 77.3411 46.2813 77.1171 46.676C76.9038 47.0707 76.7971 47.5347 76.7971 48.068C76.7971 48.6013 76.9038 49.0653 77.1171 49.46C77.3411 49.8547 77.6291 50.1587 77.9811 50.372C78.3438 50.5747 78.7278 50.676 79.1331 50.676C79.5491 50.676 79.9331 50.5693 80.2851 50.356C80.6478 50.1427 80.9358 49.8387 81.1491 49.444C81.3731 49.0493 81.4851 48.58 81.4851 48.036ZM87.6409 44.916C87.9289 44.5107 88.3235 44.1747 88.8249 43.908C89.3369 43.6307 89.9182 43.492 90.5689 43.492C91.3262 43.492 92.0089 43.6787 92.6169 44.052C93.2355 44.4253 93.7209 44.9587 94.0729 45.652C94.4355 46.3347 94.6169 47.1293 94.6169 48.036C94.6169 48.9427 94.4355 49.748 94.0729 50.452C93.7209 51.1453 93.2355 51.684 92.6169 52.068C92.0089 52.452 91.3262 52.644 90.5689 52.644C89.9182 52.644 89.3422 52.5107 88.8409 52.244C88.3502 51.9773 87.9502 51.6413 87.6409 51.236V56.724H85.4009V43.636H87.6409V44.916ZM92.3289 48.036C92.3289 47.5027 92.2169 47.044 91.9929 46.66C91.7795 46.2653 91.4915 45.9667 91.1289 45.764C90.7769 45.5613 90.3929 45.46 89.9769 45.46C89.5715 45.46 89.1875 45.5667 88.8249 45.78C88.4729 45.9827 88.1849 46.2813 87.9609 46.676C87.7475 47.0707 87.6409 47.5347 87.6409 48.068C87.6409 48.6013 87.7475 49.0653 87.9609 49.46C88.1849 49.8547 88.4729 50.1587 88.8249 50.372C89.1875 50.5747 89.5715 50.676 89.9769 50.676C90.3929 50.676 90.7769 50.5693 91.1289 50.356C91.4915 50.1427 91.7795 49.8387 91.9929 49.444C92.2169 49.0493 92.3289 48.58 92.3289 48.036ZM103.913 52.612C103.134 52.612 102.43 52.4787 101.801 52.212C101.182 51.9453 100.692 51.5613 100.329 51.06C99.9665 50.5587 99.7798 49.9667 99.7691 49.284H102.169C102.201 49.7427 102.361 50.1053 102.649 50.372C102.948 50.6387 103.353 50.772 103.865 50.772C104.388 50.772 104.798 50.6493 105.097 50.404C105.396 50.148 105.545 49.8173 105.545 49.412C105.545 49.0813 105.444 48.8093 105.241 48.596C105.038 48.3827 104.782 48.2173 104.473 48.1C104.174 47.972 103.758 47.8333 103.225 47.684C102.5 47.4707 101.908 47.2627 101.449 47.06C101.001 46.8467 100.612 46.532 100.281 46.116C99.9611 45.6893 99.8011 45.124 99.8011 44.42C99.8011 43.7587 99.9665 43.1827 100.297 42.692C100.628 42.2013 101.092 41.828 101.689 41.572C102.286 41.3053 102.969 41.172 103.737 41.172C104.889 41.172 105.822 41.4547 106.537 42.02C107.262 42.5747 107.662 43.3533 107.737 44.356H105.273C105.252 43.972 105.086 43.6573 104.777 43.412C104.478 43.156 104.078 43.028 103.577 43.028C103.14 43.028 102.788 43.14 102.521 43.364C102.265 43.588 102.137 43.9133 102.137 44.34C102.137 44.6387 102.233 44.8893 102.425 45.092C102.628 45.284 102.873 45.444 103.161 45.572C103.46 45.6893 103.876 45.828 104.409 45.988C105.134 46.2013 105.726 46.4147 106.185 46.628C106.644 46.8413 107.038 47.1613 107.369 47.588C107.7 48.0147 107.865 48.5747 107.865 49.268C107.865 49.8653 107.71 50.42 107.401 50.932C107.092 51.444 106.638 51.8547 106.041 52.164C105.444 52.4627 104.734 52.612 103.913 52.612ZM112.415 45.476V49.764C112.415 50.0627 112.484 50.2813 112.623 50.42C112.772 50.548 113.018 50.612 113.359 50.612H114.399V52.5H112.991C111.103 52.5 110.159 51.5827 110.159 49.748V45.476H109.103V43.636H110.159V41.444H112.415V43.636H114.399V45.476H112.415ZM119.946 52.644C119.093 52.644 118.325 52.4573 117.642 52.084C116.96 51.7 116.421 51.1613 116.026 50.468C115.642 49.7747 115.45 48.9747 115.45 48.068C115.45 47.1613 115.648 46.3613 116.042 45.668C116.448 44.9747 116.997 44.4413 117.69 44.068C118.384 43.684 119.157 43.492 120.01 43.492C120.864 43.492 121.637 43.684 122.33 44.068C123.024 44.4413 123.568 44.9747 123.962 45.668C124.368 46.3613 124.57 47.1613 124.57 48.068C124.57 48.9747 124.362 49.7747 123.946 50.468C123.541 51.1613 122.986 51.7 122.282 52.084C121.589 52.4573 120.81 52.644 119.946 52.644ZM119.946 50.692C120.352 50.692 120.73 50.596 121.082 50.404C121.445 50.2013 121.733 49.9027 121.946 49.508C122.16 49.1133 122.266 48.6333 122.266 48.068C122.266 47.2253 122.042 46.58 121.594 46.132C121.157 45.6733 120.618 45.444 119.978 45.444C119.338 45.444 118.8 45.6733 118.362 46.132C117.936 46.58 117.722 47.2253 117.722 48.068C117.722 48.9107 117.93 49.5613 118.346 50.02C118.773 50.468 119.306 50.692 119.946 50.692ZM128.453 45.012C128.741 44.5427 129.115 44.1747 129.573 43.908C130.043 43.6413 130.576 43.508 131.173 43.508V45.86H130.581C129.877 45.86 129.344 46.0253 128.981 46.356C128.629 46.6867 128.453 47.2627 128.453 48.084V52.5H126.213V43.636H128.453V45.012ZM140.922 47.876C140.922 48.196 140.901 48.484 140.858 48.74H134.378C134.431 49.38 134.655 49.8813 135.05 50.244C135.445 50.6067 135.93 50.788 136.506 50.788C137.338 50.788 137.93 50.4307 138.282 49.716H140.698C140.442 50.5693 139.951 51.2733 139.226 51.828C138.501 52.372 137.61 52.644 136.554 52.644C135.701 52.644 134.933 52.4573 134.25 52.084C133.578 51.7 133.05 51.1613 132.666 50.468C132.293 49.7747 132.106 48.9747 132.106 48.068C132.106 47.1507 132.293 46.3453 132.666 45.652C133.039 44.9587 133.562 44.4253 134.234 44.052C134.906 43.6787 135.679 43.492 136.554 43.492C137.397 43.492 138.149 43.6733 138.81 44.036C139.482 44.3987 139.999 44.916 140.362 45.588C140.735 46.2493 140.922 47.012 140.922 47.876ZM138.602 47.236C138.591 46.66 138.383 46.2013 137.978 45.86C137.573 45.508 137.077 45.332 136.49 45.332C135.935 45.332 135.466 45.5027 135.082 45.844C134.709 46.1747 134.479 46.6387 134.394 47.236H138.602Z" fill="#1C1C1C"/>
<defs>
<clipPath id="clip0_2693_1045">
<rect width="32" height="32" fill="white" transform="translate(16 20.5)"/>
</clipPath>
</defs>
</svg>
