<svg width="120" height="35" viewBox="0 0 120 35" fill="none" xmlns="http://www.w3.org/2000/svg">
<g clip-path="url(#clip0_2227_8778)">
<path d="M43.2924 11.4649L42.7889 13.1137H41.6934L43.558 7.29297H44.9136L46.8059 13.1137H45.6661L45.1404 11.4649H43.2924ZM44.9634 10.6626L44.5041 9.22953C44.3935 8.87542 44.2994 8.47704 44.2109 8.13952H44.1943C44.1058 8.47704 44.0228 8.88095 43.9176 9.22953L43.4695 10.6626H44.9634Z" fill="white"/>
<path d="M48.3992 8.91016L49.0798 11.0459C49.2015 11.4166 49.2845 11.7541 49.3675 12.0972H49.3952C49.4726 11.7541 49.5667 11.4222 49.6829 11.0459L50.3579 8.91016H51.4701L49.8655 13.1153H48.8198L47.2539 8.91016H48.4048H48.3992Z" fill="white"/>
<path d="M55.7029 12.1069C55.7029 12.4887 55.7195 12.8594 55.7693 13.1195H54.8121L54.7346 12.6547H54.707C54.458 12.9812 54.0153 13.2135 53.462 13.2135C52.6155 13.2135 52.1396 12.5994 52.1396 11.9631C52.1396 10.9118 53.0803 10.364 54.635 10.3751V10.3087C54.635 10.032 54.5244 9.5728 53.7774 9.5728C53.3624 9.5728 52.9309 9.70007 52.6487 9.88266L52.444 9.19103C52.7538 9.0029 53.3016 8.82031 53.9655 8.82031C55.3156 8.82031 55.7029 9.67793 55.7029 10.6019V12.1125V12.1069ZM54.6682 11.0612C53.9158 11.0501 53.202 11.2106 53.202 11.8469C53.202 12.2619 53.4676 12.45 53.8051 12.45C54.2367 12.45 54.541 12.1733 54.6406 11.869C54.6682 11.7916 54.6682 11.7141 54.6682 11.6366V11.0557V11.0612Z" fill="white"/>
<path d="M57.733 8.30712C57.3789 8.30712 57.1465 8.04707 57.1465 7.73722C57.1465 7.41077 57.3899 7.15625 57.7441 7.15625C58.0982 7.15625 58.3306 7.40524 58.3416 7.73722C58.3416 8.04707 58.1092 8.30712 57.7441 8.30712H57.733ZM57.2018 13.1153V8.91022H58.2642V13.1153H57.2018Z" fill="white"/>
<path d="M59.792 6.97852H60.8543V13.1202H59.792V6.97852Z" fill="white"/>
<path d="M65.657 12.1069C65.657 12.4887 65.6736 12.8594 65.7234 13.1195H64.7662L64.6887 12.6547H64.6611C64.4121 12.9812 63.9694 13.2135 63.4161 13.2135C62.5696 13.2135 62.0938 12.5994 62.0938 11.9631C62.0938 10.9118 63.0344 10.364 64.5891 10.3751V10.3087C64.5891 10.032 64.4785 9.5728 63.7371 9.5728C63.3221 9.5728 62.8905 9.70007 62.6083 9.88266L62.4036 9.19103C62.7134 9.0029 63.2612 8.82031 63.9252 8.82031C65.2697 8.82031 65.6626 9.67793 65.6626 10.6019V12.1125L65.657 12.1069ZM64.6223 11.0612C63.8699 11.0501 63.1561 11.2106 63.1561 11.8469C63.1561 12.2619 63.4217 12.45 63.7592 12.45C64.1908 12.45 64.4951 12.1733 64.5947 11.869C64.6223 11.7916 64.6223 11.7141 64.6223 11.6366V11.0557V11.0612Z" fill="white"/>
<path d="M67.1615 6.97852H68.2238V9.49051H68.2404C68.5004 9.0866 68.9597 8.81548 69.5905 8.81548C70.6196 8.81548 71.35 9.6731 71.3444 10.9512C71.3444 12.4618 70.3872 13.2142 69.4355 13.2142C68.8933 13.2142 68.4064 13.004 68.1076 12.4894H68.091L68.0412 13.1202H67.1338C67.1504 12.8325 67.167 12.3677 67.167 11.9472V6.97852H67.1615ZM68.2238 11.3828C68.2238 11.4713 68.2349 11.5543 68.2515 11.6318C68.3621 12.0634 68.7328 12.3732 69.1921 12.3732C69.856 12.3732 70.2655 11.8476 70.2655 10.99C70.2655 10.2485 69.9114 9.6399 69.2031 9.6399C68.7716 9.6399 68.3732 9.94975 68.2625 10.4145C68.2459 10.492 68.2293 10.5861 68.2293 10.6912V11.3717L68.2238 11.3828Z" fill="white"/>
<path d="M72.5898 6.97852H73.6522V13.1202H72.5898V6.97852Z" fill="white"/>
<path d="M75.9429 11.3099C75.9705 12.0679 76.5626 12.3999 77.2376 12.3999C77.73 12.3999 78.0731 12.3224 78.4051 12.2117L78.56 12.9366C78.1948 13.0915 77.6969 13.2021 77.0938 13.2021C75.7271 13.2021 74.9248 12.3667 74.9248 11.0775C74.9248 9.90999 75.633 8.81445 76.9831 8.81445C78.3332 8.81445 78.7979 9.93766 78.7979 10.8617C78.7979 11.0609 78.7813 11.2158 78.7647 11.3099H75.9484H75.9429ZM77.7909 10.5684C77.802 10.1811 77.6249 9.53928 76.9167 9.53928C76.2583 9.53928 75.9816 10.1368 75.9429 10.5684H77.7909Z" fill="white"/>
<path d="M84.0319 13.2132C82.8478 13.2132 81.9238 12.3999 81.9238 11.0443C81.9238 9.68867 82.8312 8.81445 84.0983 8.81445C85.3654 8.81445 86.1898 9.69421 86.1898 10.9723C86.1898 12.5161 85.0998 13.2077 84.0375 13.2077H84.0264L84.0319 13.2132ZM84.0651 12.4441C84.6682 12.4441 85.0943 11.8576 85.0943 11C85.0943 10.3416 84.801 9.58354 84.0762 9.58354C83.3514 9.58354 83.0194 10.3194 83.0194 11.0166C83.0194 11.83 83.4233 12.4441 84.054 12.4441H84.0651Z" fill="white"/>
<path d="M87.4404 10.1648C87.4404 9.68347 87.4238 9.27402 87.4072 8.91437H88.3312L88.381 9.54514H88.4087C88.5968 9.21869 89.0561 8.82031 89.7588 8.82031C90.4615 8.82031 91.2527 9.29615 91.2527 10.6241V13.1195H90.1903V10.7458C90.1903 10.1427 89.9635 9.68347 89.3881 9.68347C88.9675 9.68347 88.6743 9.98778 88.5581 10.3032C88.5249 10.3917 88.5083 10.519 88.5083 10.6407V13.1195H87.446V10.1648H87.4404Z" fill="white"/>
<path d="M96.1433 7.82975V8.90869H97.1559V9.70545H96.1433V11.5535C96.1433 12.0736 96.2816 12.3281 96.6856 12.3281C96.8737 12.3281 96.9788 12.317 97.1005 12.2838L97.1171 13.0861C96.9622 13.147 96.6745 13.1968 96.348 13.1968C95.9497 13.1968 95.6343 13.0695 95.4351 12.8537C95.2027 12.6103 95.0976 12.223 95.0976 11.6697V9.69992H94.5V8.90316H95.0976V8.11747L96.1433 7.82422V7.82975Z" fill="white"/>
<path d="M98.3405 6.97852H99.4028V9.48498H99.4194C99.5467 9.28579 99.7293 9.1198 99.9451 9.00914C100.161 8.88741 100.41 8.82102 100.681 8.82102C101.395 8.82102 102.147 9.29686 102.147 10.6414V13.1202H101.085V10.752C101.085 10.1489 100.858 9.67864 100.272 9.67864C99.8565 9.67864 99.5633 9.95529 99.4416 10.2762C99.4084 10.3703 99.3973 10.4865 99.3973 10.5971V13.1202H98.335V6.97852H98.3405Z" fill="white"/>
<path d="M104.411 11.3099C104.438 12.0679 105.03 12.3999 105.705 12.3999C106.198 12.3999 106.541 12.3224 106.873 12.2117L107.028 12.9366C106.663 13.0915 106.165 13.2021 105.562 13.2021C104.195 13.2021 103.393 12.3667 103.393 11.0775C103.393 9.90999 104.101 8.81445 105.451 8.81445C106.801 8.81445 107.266 9.93766 107.266 10.8617C107.266 11.0609 107.249 11.2158 107.233 11.3099H104.416H104.411ZM106.259 10.5684C106.27 10.1811 106.093 9.53928 105.384 9.53928C104.726 9.53928 104.449 10.1368 104.411 10.5684H106.259Z" fill="white"/>
<path d="M28.309 17.0093C28.2814 14.1266 30.6661 12.7267 30.7768 12.6604C29.4267 10.6906 27.3297 10.4195 26.5938 10.3973C24.8343 10.2148 23.1301 11.4486 22.2337 11.4486C21.3374 11.4486 19.9375 10.4139 18.4547 10.4416C16.5403 10.4748 14.7531 11.5814 13.7682 13.2967C11.7431 16.8046 13.2536 21.9558 15.1957 24.7943C16.1695 26.1831 17.3038 27.7323 18.7867 27.677C20.2363 27.6161 20.7786 26.753 22.5325 26.753C24.2865 26.753 24.7789 27.677 26.295 27.6438C27.8553 27.6161 28.8347 26.2495 29.7697 24.8496C30.8929 23.2561 31.3411 21.6903 31.3633 21.6128C31.3245 21.6017 28.3367 20.4619 28.3035 17.0038" fill="white"/>
<path d="M25.4483 8.53819C26.2284 7.55885 26.7651 6.23092 26.6157 4.88086C25.487 4.93066 24.0706 5.66102 23.2572 6.61823C22.5379 7.45925 21.8905 8.84251 22.0565 10.1372C23.3291 10.2313 24.6294 9.49541 25.4483 8.53266" fill="white"/>
<path d="M48.8645 26.3388H46.9279L45.8656 23.0079H42.1806L41.168 26.3388H39.2812L42.9331 14.9961H45.185L48.8534 26.3388H48.8645ZM45.5502 21.6081L44.593 18.6479C44.4878 18.3436 44.2997 17.6354 44.0175 16.5121H43.9843C43.8737 16.9935 43.6911 17.7073 43.4476 18.6479L42.507 21.6081H45.5557H45.5502Z" fill="white"/>
<path d="M58.2599 22.1433C58.2599 23.5321 57.8837 24.6331 57.1312 25.4409C56.4561 26.1602 55.6206 26.5199 54.6247 26.5199C53.5458 26.5199 52.7711 26.1326 52.3008 25.358H52.2676V29.6682H50.4473V20.8485C50.4473 19.9743 50.4251 19.078 50.3809 18.1539H51.9799L52.0795 19.4487H52.1127C52.7158 18.4749 53.6398 17.9824 54.8737 17.9824C55.8364 17.9824 56.6443 18.3642 57.2861 19.1278C57.9334 19.8913 58.2544 20.8928 58.2544 22.1377M56.4063 22.2097C56.4063 21.4129 56.2293 20.7545 55.8696 20.2399C55.4768 19.7032 54.9511 19.4321 54.2872 19.4321C53.839 19.4321 53.4296 19.5815 53.0644 19.8803C52.6992 20.179 52.4613 20.5663 52.3506 21.0533C52.2953 21.2801 52.2676 21.4627 52.2676 21.6066V22.9732C52.2676 23.5653 52.4502 24.0688 52.8099 24.4782C53.175 24.8876 53.6509 25.0924 54.2318 25.0924C54.9179 25.0924 55.4491 24.8323 55.8309 24.3011C56.2127 23.7755 56.4063 23.0783 56.4063 22.2152" fill="white"/>
<path d="M67.6665 22.1433C67.6665 23.5321 67.2902 24.6331 66.5377 25.4409C65.8627 26.1602 65.0272 26.5199 64.0313 26.5199C62.9523 26.5199 62.1832 26.1326 61.7074 25.358H61.6742V29.6682H59.8594V20.8485C59.8594 19.9743 59.8372 19.078 59.793 18.1539H61.392L61.4916 19.4487H61.5248C62.1279 18.4749 63.0464 17.9824 64.2858 17.9824C65.2485 17.9824 66.0564 18.3642 66.6982 19.1278C67.3456 19.8913 67.6665 20.8928 67.6665 22.1377M65.8129 22.2097C65.8129 21.4129 65.6359 20.7545 65.2707 20.2399C64.8778 19.7032 64.3522 19.4321 63.6882 19.4321C63.24 19.4321 62.8306 19.5815 62.4654 19.8803C62.1002 20.179 61.8623 20.5663 61.7517 21.0533C61.6963 21.2801 61.6687 21.4627 61.6687 21.6066V22.9732C61.6687 23.5653 61.8513 24.0688 62.2164 24.4782C62.5816 24.8876 63.0519 25.0924 63.6384 25.0924C64.319 25.0924 64.8557 24.8323 65.2375 24.3011C65.6193 23.7755 65.8129 23.0783 65.8129 22.2152" fill="white"/>
<path d="M78.1845 23.1566C78.1845 24.1194 77.8525 24.9051 77.1775 25.5137C76.4361 26.1777 75.4124 26.5041 74.0901 26.5041C72.8728 26.5041 71.8879 26.2717 71.1465 25.7959L71.567 24.2798C72.3637 24.7612 73.238 25.0047 74.1952 25.0047C74.8813 25.0047 75.4124 24.8497 75.7942 24.5399C76.176 24.23 76.3641 23.8151 76.3641 23.3005C76.3641 22.8413 76.2092 22.4539 75.8938 22.1386C75.5784 21.8232 75.0583 21.5299 74.328 21.2588C72.3416 20.5174 71.3512 19.4329 71.3512 18.0054C71.3512 17.0703 71.6998 16.3067 72.3969 15.7147C73.0941 15.1171 74.0181 14.8184 75.1745 14.8184C76.2092 14.8184 77.0668 15.0009 77.7474 15.3551L77.2937 16.8379C76.6519 16.4893 75.9326 16.3178 75.1192 16.3178C74.4774 16.3178 73.9794 16.4727 73.6253 16.7881C73.3265 17.0703 73.1716 17.4134 73.1716 17.8173C73.1716 18.2654 73.3431 18.6362 73.6917 18.9294C73.996 19.2005 74.5438 19.4882 75.3405 19.8036C76.3143 20.1965 77.0336 20.6557 77.4929 21.1813C77.9521 21.707 78.1845 22.3654 78.1845 23.1511" fill="white"/>
<path d="M84.1868 19.5223H82.1838V23.495C82.1838 24.502 82.5379 25.0111 83.2461 25.0111C83.5671 25.0111 83.8382 24.9834 84.054 24.9281L84.1038 26.3058C83.7497 26.4386 83.2738 26.505 82.6928 26.505C81.9735 26.505 81.4147 26.2892 81.0108 25.8521C80.6069 25.415 80.4022 24.6791 80.4022 23.6444V19.5223H79.207V18.1556H80.4022V16.6617L82.1838 16.125V18.1612H84.1868V19.5278V19.5223Z" fill="white"/>
<path d="M93.2286 22.1768C93.2286 23.4328 92.869 24.4675 92.1497 25.2753C91.3972 26.1052 90.3957 26.5202 89.1563 26.5202C87.9169 26.5202 86.9984 26.1218 86.2847 25.3251C85.5709 24.5283 85.2168 23.5268 85.2168 22.3151C85.2168 21.0481 85.582 20.0078 86.3179 19.2C87.0538 18.3922 88.0442 17.9883 89.2891 17.9883C90.534 17.9883 91.4525 18.3867 92.1829 19.1834C92.8801 19.958 93.2286 20.954 93.2286 22.1768ZM91.3419 22.2377C91.3419 21.4852 91.1814 20.8378 90.855 20.2956C90.4732 19.6427 89.9309 19.3162 89.2227 19.3162C88.5145 19.3162 87.9391 19.6427 87.5573 20.2956C87.2308 20.8378 87.0704 21.4962 87.0704 22.2709C87.0704 23.0455 87.2308 23.6707 87.5573 24.2129C87.9501 24.8658 88.4979 25.1923 89.2061 25.1923C89.9143 25.1923 90.4455 24.8603 90.8384 24.1963C91.1759 23.643 91.3419 22.9901 91.3419 22.2377Z" fill="white"/>
<path d="M99.1328 19.7533C98.9558 19.7201 98.7621 19.7035 98.5629 19.7035C97.9266 19.7035 97.4286 19.947 97.0801 20.4283C96.7757 20.8544 96.6264 21.3911 96.6264 22.044V26.3376H94.8115L94.8281 20.7327C94.8281 19.7921 94.806 18.9289 94.7617 18.1543H96.3442L96.4106 19.7201H96.4604C96.654 19.1834 96.9583 18.7518 97.3678 18.4254C97.7717 18.1321 98.2088 17.9883 98.6791 17.9883C98.8451 17.9883 99 17.9993 99.1328 18.0215V19.7533Z" fill="white"/>
<path d="M107.261 21.8624C107.261 22.1888 107.239 22.4599 107.194 22.6868H101.744C101.766 23.4946 102.032 24.1143 102.535 24.5404C102.995 24.9221 103.592 25.1103 104.317 25.1103C105.119 25.1103 105.861 24.983 106.519 24.723L106.807 25.9845C106.032 26.322 105.119 26.488 104.063 26.488C102.795 26.488 101.8 26.1117 101.075 25.3703C100.355 24.6234 99.9902 23.6219 99.9902 22.3659C99.9902 21.1099 100.328 20.1029 101.003 19.284C101.705 18.4098 102.663 17.9727 103.863 17.9727C105.064 17.9727 105.933 18.4098 106.541 19.284C107.023 19.9811 107.261 20.8388 107.261 21.8568M105.529 21.3865C105.54 20.8498 105.424 20.3851 105.175 19.9922C104.859 19.4887 104.378 19.2342 103.725 19.2342C103.133 19.2342 102.652 19.4832 102.281 19.9756C101.977 20.3685 101.8 20.8388 101.744 21.3865H105.529Z" fill="white"/>
</g>
<path d="M0.555949 4.82883C0.555949 2.31473 2.59403 0.276652 5.10813 0.276652H114.964C117.478 0.276652 119.516 2.31473 119.516 4.82883V29.7194C119.516 32.2335 117.478 34.2716 114.964 34.2716H5.10813C2.59403 34.2716 0.555949 32.2335 0.555949 29.7194V4.82883Z" stroke="white" stroke-width="0.553303"/>
<defs>
<clipPath id="clip0_2227_8778">
<path d="M0.279297 4.82883C0.279297 2.16194 2.44124 0 5.10813 0H114.964C117.631 0 119.793 2.16194 119.793 4.82883V29.7194C119.793 32.3863 117.631 34.5483 114.964 34.5483H5.10813C2.44124 34.5483 0.279297 32.3863 0.279297 29.7194V4.82883Z" fill="white"/>
</clipPath>
</defs>
</svg>
