<svg width="24" height="24" viewBox="0 0 24 24" fill="none" xmlns="http://www.w3.org/2000/svg">
<g clip-path="url(#clip0_2003_3483)">
<path d="M8.49964 9.50001C8.49964 10.051 8.62764 10.573 8.85564 11.037C8.35022 11.6844 8.05812 12.4726 8.01964 13.293C7.04351 12.272 6.49902 10.9136 6.49964 9.50101C6.50081 8.68057 6.68519 7.87074 7.03931 7.13065C7.39343 6.39056 7.90836 5.7389 8.54649 5.22323C9.18463 4.70757 9.92987 4.34092 10.7278 4.15005C11.5257 3.95919 12.3562 3.94892 13.1586 4.12001C15.2406 4.54801 16.9276 6.22501 17.3716 8.30401C17.5056 8.93201 17.5306 9.54701 17.4626 10.135C17.4309 10.3762 17.312 10.5975 17.1283 10.757C16.9446 10.9165 16.7089 11.0033 16.4656 11.001H16.4206C15.8286 11.001 15.4126 10.474 15.4776 9.88601C15.5752 9.03888 15.3589 8.18537 14.8697 7.48695C14.3804 6.78854 13.6521 6.29368 12.8226 6.09601C12.3076 5.97264 11.7714 5.9675 11.2541 6.08098C10.7369 6.19446 10.252 6.42362 9.83595 6.75124C9.4199 7.07887 9.08344 7.49647 8.85183 7.97271C8.62022 8.44894 8.49947 8.97144 8.49864 9.50101L8.49964 9.50001ZM4.60964 8.20501C4.8855 6.60234 5.67983 5.13454 6.87064 4.02701C8.39964 2.59401 10.4016 1.88601 12.5006 2.01601C16.4536 2.27201 19.5446 5.73501 19.4986 9.88101C19.4796 11.617 18.0256 12.999 16.2906 12.999H13.8846C13.7514 12.5365 13.4553 12.1379 13.0511 11.8766C12.6469 11.6153 12.1618 11.5091 11.6854 11.5774C11.209 11.6458 10.7734 11.8841 10.459 12.2485C10.1445 12.6129 9.97251 13.0787 9.97464 13.56C9.97464 14.0904 10.1854 14.5992 10.5604 14.9742C10.9355 15.3493 11.4442 15.56 11.9746 15.56C12.5126 15.56 12.9996 15.345 13.3586 14.999H16.2906C19.1096 14.999 21.4586 12.754 21.4986 9.93601C21.5726 4.71501 17.6506 0.345011 12.6296 0.0210107C11.3302 -0.0706625 10.0258 0.108472 8.7992 0.547072C7.57257 0.985672 6.45036 1.67418 5.50364 2.56901C4.01128 3.9723 3.01025 5.81868 2.64864 7.83501C2.62447 7.9786 2.63195 8.12574 2.67055 8.26614C2.70916 8.40654 2.77796 8.53682 2.87215 8.64787C2.96634 8.75891 3.08364 8.84805 3.21586 8.90905C3.34808 8.97004 3.49203 9.00143 3.63764 9.00101C4.10964 9.00101 4.53064 8.67201 4.60964 8.20601V8.20501ZM11.9996 17C8.30464 17 5.10764 19.292 4.04464 22.702C4.00545 22.8274 3.99136 22.9593 4.00317 23.0902C4.01498 23.2211 4.05247 23.3483 4.11348 23.4647C4.1745 23.581 4.25785 23.6842 4.35877 23.7684C4.45969 23.8525 4.5762 23.9159 4.70164 23.955C4.95479 24.0322 5.22817 24.0065 5.46253 23.8836C5.69688 23.7606 5.87333 23.5502 5.95364 23.298C6.30464 22.171 7.00564 21.209 7.90564 20.473L9.30664 22.574C9.38846 22.6967 9.49932 22.7974 9.62937 22.867C9.75942 22.9366 9.90464 22.973 10.0521 22.973C10.1996 22.973 10.3449 22.9366 10.4749 22.867C10.605 22.7974 10.7158 22.6967 10.7976 22.574L12.0516 20.692L13.3056 22.574C13.3875 22.6967 13.4983 22.7974 13.6284 22.867C13.7584 22.9366 13.9036 22.973 14.0511 22.973C14.1986 22.973 14.3439 22.9366 14.4739 22.867C14.604 22.7974 14.7148 22.6967 14.7966 22.574L16.1596 20.53C17.0266 21.259 17.7016 22.2 18.0436 23.298C18.0828 23.4234 18.1462 23.5399 18.2304 23.6408C18.3145 23.7417 18.4177 23.825 18.5341 23.886C18.6504 23.947 18.7777 23.9845 18.9085 23.9964C19.0393 24.0082 19.1712 23.9941 19.2966 23.955C19.4221 23.9159 19.5385 23.8524 19.6394 23.7683C19.7403 23.6841 19.8236 23.5809 19.8846 23.4646C19.9457 23.3482 19.9831 23.221 19.995 23.0902C20.0068 22.9593 19.9928 22.8274 19.9536 22.702C18.8906 19.292 15.6936 17 11.9986 17H11.9996Z" fill="#1C1C1C"/>
</g>
<defs>
<clipPath id="clip0_2003_3483">
<rect width="24" height="24" fill="white"/>
</clipPath>
</defs>
</svg>
