<svg width="376" height="376" viewBox="0 0 376 376" fill="none" xmlns="http://www.w3.org/2000/svg">
<path d="M331.382 220.005C334.992 165.909 307.661 114.124 260.303 87.7374C251.437 82.8021 242.064 78.8386 232.347 75.916C156.545 53.0552 128.27 72.3064 108.417 96.3704C88.5645 120.434 107.214 161.343 84.3533 178.188C61.4925 195.033 33.8189 219.097 45.2493 254.591C56.6797 290.086 84.9549 313.548 111.425 311.142C137.896 308.735 165.569 277.452 184.219 297.906C202.868 318.361 262.427 338.214 301.531 303.922C322.43 285.598 329.409 249.574 331.382 220.005Z" fill="#33B55B"/>
<path opacity="0.7" d="M331.382 220.005C334.992 165.909 307.661 114.124 260.303 87.7374C251.437 82.8021 242.064 78.8386 232.347 75.916C156.545 53.0552 128.27 72.3064 108.417 96.3704C88.5645 120.434 107.214 161.343 84.3533 178.188C61.4925 195.033 33.8189 219.097 45.2493 254.591C56.6797 290.086 84.9549 313.548 111.425 311.142C137.896 308.735 165.569 277.452 184.219 297.906C202.868 318.361 262.427 338.214 301.531 303.922C322.43 285.598 329.409 249.574 331.382 220.005Z" fill="white"/>
<path d="M302.836 228.024C300.309 228.452 295.574 231.706 295.568 231.706C295.562 231.706 298.661 234.179 298.877 234.311C301.374 235.827 307.095 237.289 309.568 235.141C309.969 234.774 310.288 234.327 310.504 233.828C310.721 233.33 310.83 232.791 310.825 232.248C310.82 231.704 310.701 231.168 310.475 230.673C310.249 230.179 309.921 229.737 309.513 229.378C307.829 227.796 304.989 227.657 302.836 228.024Z" fill="#33B55B"/>
<path d="M292.066 215.186C289.834 216.221 286.357 220.27 286.081 220.601C283.769 218.608 281.327 216.771 278.771 215.102C277.285 214.121 275.763 213.183 274.223 212.257C274.987 212.575 275.673 212.858 275.775 212.858C278.585 213.658 284.486 213.562 286.309 210.843C286.599 210.383 286.789 209.867 286.867 209.328C286.944 208.79 286.907 208.241 286.758 207.718C286.61 207.195 286.352 206.708 286.004 206.291C285.655 205.874 285.222 205.535 284.733 205.296C282.693 204.213 279.92 204.833 277.935 205.753C275.95 206.674 272.893 210.079 272.099 210.987C271.498 210.638 270.896 210.283 270.295 209.94C267.437 208.274 264.573 206.632 261.818 204.929C260.843 204.327 259.911 203.726 258.972 203.088C259.652 203.365 260.23 203.6 260.32 203.624C263.129 204.43 269.031 204.327 270.848 201.608C271.138 201.148 271.328 200.632 271.405 200.094C271.483 199.555 271.446 199.006 271.297 198.483C271.149 197.96 270.891 197.474 270.542 197.057C270.193 196.639 269.761 196.3 269.272 196.061C267.232 194.979 264.459 195.598 262.48 196.519C260.5 197.439 257.733 200.513 256.789 201.59C255.844 200.922 254.9 200.261 254.021 199.569C253.42 199.088 252.818 198.666 252.259 198.143L250.556 196.657C249.509 195.67 248.426 194.66 247.428 193.649C246.73 192.969 246.08 192.307 245.418 191.64C246.381 192.241 248.282 193.396 248.456 193.475C251.11 194.678 256.957 195.49 259.171 193.078C259.527 192.666 259.793 192.185 259.95 191.664C260.108 191.144 260.154 190.596 260.086 190.056C260.018 189.516 259.837 188.997 259.555 188.532C259.273 188.067 258.896 187.666 258.449 187.356C256.602 185.973 253.763 186.153 251.663 186.755C249.359 187.422 245.448 190.743 244.967 191.164C243.878 190.057 242.831 188.975 241.857 187.934C239.709 185.642 237.844 183.548 236.298 181.749L234.493 182.953C236.136 184.757 238.133 186.935 240.455 189.299C241.55 190.424 242.747 191.61 243.993 192.813C243.041 194.161 242.175 195.568 241.4 197.024C238.993 196.422 234.247 196.994 233.639 197.072C233.338 195.55 233.037 194.064 232.827 192.662C232.328 189.727 231.943 187.086 231.624 184.812L229.681 186.081C230.005 188.144 230.402 190.467 230.884 193.011C231.179 194.557 231.527 196.206 231.894 197.89C231.293 198.119 226.534 200.02 224.862 201.753C223.346 203.317 221.854 205.741 222.203 208.021C222.267 208.561 222.445 209.081 222.724 209.548C223.003 210.014 223.377 210.417 223.822 210.729C224.267 211.041 224.773 211.256 225.307 211.36C225.84 211.463 226.39 211.453 226.919 211.33C230.084 210.506 232.117 204.965 232.285 202.047C232.285 201.873 232.189 199.996 232.105 198.811C232.261 199.497 232.406 200.17 232.574 200.874C232.899 202.276 233.266 203.666 233.651 205.158C233.862 205.874 234.078 206.595 234.295 207.323C234.511 208.051 234.8 208.797 235.047 209.543C235.648 211.258 236.37 212.96 237.122 214.663C235.919 214.952 231.564 216.035 229.813 217.358C228.062 218.682 226.203 220.847 226.233 223.158C226.216 223.701 226.313 224.242 226.518 224.745C226.724 225.248 227.033 225.703 227.426 226.078C227.818 226.454 228.286 226.743 228.798 226.926C229.31 227.109 229.854 227.182 230.396 227.14C233.651 226.803 236.503 221.635 237.11 218.778C237.146 218.597 237.351 216.498 237.435 215.343C237.898 216.365 238.35 217.382 238.849 218.399C240.293 221.335 241.857 224.264 243.367 227.188C243.842 228.085 244.299 228.993 244.757 229.883C244.323 229.98 239.138 231.153 237.182 232.639C235.444 233.962 233.573 236.128 233.603 238.438C233.584 238.982 233.681 239.523 233.886 240.027C234.091 240.531 234.4 240.985 234.793 241.361C235.186 241.737 235.654 242.026 236.166 242.209C236.679 242.391 237.224 242.463 237.766 242.421C241.021 242.084 243.866 236.916 244.474 234.059C244.516 233.842 244.805 230.822 244.841 230.046C245.858 232.025 246.85 234.004 247.753 235.996C249.011 238.69 250.095 241.463 250.995 244.298C250.791 244.346 245.376 245.549 243.373 247.065C241.634 248.389 239.763 250.554 239.763 252.865C239.746 253.408 239.843 253.949 240.048 254.452C240.254 254.955 240.563 255.41 240.956 255.785C241.348 256.161 241.816 256.45 242.328 256.633C242.84 256.816 243.384 256.889 243.926 256.847C247.181 256.51 250.033 251.342 250.64 248.485C250.682 248.262 250.995 245.008 251.007 244.412C251.055 244.574 251.128 244.743 251.176 244.905C251.973 247.758 252.516 250.675 252.8 253.623C252.974 255.253 253.047 256.817 253.089 258.339C252.054 258.459 247.35 259.061 245.394 260.228C243.439 261.395 241.448 263.302 241.183 265.6C241.108 266.138 241.146 266.686 241.296 267.208C241.445 267.73 241.703 268.214 242.052 268.631C242.4 269.047 242.833 269.385 243.32 269.624C243.808 269.862 244.34 269.996 244.883 270.016C248.156 270.016 251.561 265.203 252.475 262.442C252.523 262.292 252.86 260.697 253.077 259.536C253.077 260.222 253.077 260.932 253.077 261.594C253.077 264.066 252.896 266.334 252.728 268.338C252.626 269.475 252.511 270.503 252.391 271.466C251.44 272.116 247.644 274.769 246.471 276.67C245.298 278.571 244.378 281.212 245.22 283.366C245.399 283.879 245.684 284.349 246.056 284.745C246.429 285.141 246.881 285.454 247.383 285.664C247.885 285.873 248.425 285.974 248.969 285.961C249.512 285.948 250.047 285.82 250.538 285.586C253.456 284.094 254.25 278.246 253.781 275.358C253.739 275.106 252.662 271.279 252.614 271.316L252.553 271.352C252.686 270.431 252.818 269.439 252.938 268.344C253.149 266.334 253.366 264.066 253.438 261.588C253.544 258.91 253.494 256.228 253.287 253.556C253.069 250.566 252.586 247.6 251.843 244.695C251.843 244.659 251.843 244.629 251.843 244.593C252.355 245.405 253.859 247.601 253.991 247.781C255.892 250.001 260.873 253.195 263.894 251.908C264.389 251.684 264.832 251.359 265.193 250.952C265.554 250.546 265.825 250.068 265.989 249.55C266.153 249.032 266.206 248.485 266.145 247.945C266.083 247.404 265.909 246.883 265.632 246.415C264.531 244.388 261.872 243.371 259.712 243.046C257.306 242.679 252.144 244.141 251.735 244.25C250.907 241.313 249.884 238.435 248.673 235.635C247.975 233.998 247.223 232.368 246.447 230.75C246.91 231.436 247.331 232.049 247.398 232.127C249.299 234.347 254.28 237.542 257.294 236.254C257.79 236.031 258.233 235.706 258.595 235.3C258.957 234.894 259.229 234.416 259.393 233.898C259.558 233.38 259.611 232.832 259.55 232.292C259.489 231.752 259.315 231.23 259.039 230.762C257.938 228.728 255.279 227.718 253.119 227.387C250.959 227.056 246.501 228.217 245.37 228.536C245.063 227.934 244.769 227.297 244.462 226.683C242.988 223.717 241.508 220.769 240.148 217.827C239.667 216.793 239.234 215.758 238.795 214.717C239.204 215.319 239.559 215.836 239.619 215.92C241.52 218.14 246.501 221.335 249.521 220.053C250.017 219.829 250.46 219.503 250.821 219.096C251.182 218.689 251.453 218.211 251.617 217.692C251.781 217.173 251.834 216.626 251.773 216.085C251.711 215.545 251.536 215.023 251.26 214.555C250.159 212.527 247.5 211.511 245.34 211.186C243.18 210.861 239.18 211.902 237.796 212.281C237.381 211.204 236.96 210.127 236.593 209.068C236.364 208.34 236.094 207.654 235.907 206.908C235.721 206.162 235.51 205.446 235.305 204.724C234.975 203.323 234.632 201.885 234.343 200.513C234.138 199.563 233.958 198.648 233.777 197.728C234.241 198.769 235.197 200.778 235.293 200.934C236.734 203.065 238.695 204.792 240.991 205.952C241.138 206.196 241.31 206.426 241.502 206.638C241.854 207.052 242.29 207.388 242.78 207.622C243.271 207.857 243.805 207.986 244.349 208.001C244.892 208.016 245.433 207.916 245.936 207.708C246.438 207.5 246.891 207.189 247.265 206.794C249.449 204.358 248.089 198.618 246.616 196.092C246.531 195.941 245.412 194.431 244.684 193.493C245.196 193.98 245.683 194.461 246.212 194.955C247.259 195.947 248.33 196.904 249.473 197.963L251.206 199.412C251.777 199.912 252.439 200.363 253.059 200.844C254.521 201.933 256.067 202.968 257.619 203.972C256.753 204.887 253.732 208.184 253.005 210.253C252.277 212.323 251.94 215.138 253.215 217.063C253.501 217.526 253.881 217.923 254.33 218.229C254.779 218.535 255.288 218.743 255.823 218.84C256.358 218.937 256.907 218.921 257.435 218.792C257.963 218.663 258.458 218.424 258.888 218.092C261.421 216.011 260.946 210.127 259.869 207.414C259.803 207.239 258.816 205.38 258.25 204.364C259.195 204.965 260.14 205.567 261.114 206.132C263.936 207.793 266.841 209.375 269.735 210.975C270.619 211.462 271.498 211.962 272.376 212.455C272.069 212.774 268.393 216.618 267.563 218.934C266.841 220.992 266.492 223.819 267.774 225.744C268.059 226.206 268.439 226.603 268.887 226.909C269.336 227.216 269.844 227.424 270.378 227.521C270.913 227.618 271.461 227.601 271.989 227.473C272.517 227.344 273.011 227.105 273.441 226.773C275.974 224.692 275.498 218.808 274.428 216.095C274.343 215.89 272.918 213.207 272.52 212.545C274.458 213.634 276.377 214.735 278.23 215.902C280.734 217.465 283.135 219.187 285.419 221.058C285.274 221.208 281.418 225.197 280.606 227.573C279.884 229.631 279.535 232.458 280.817 234.383C281.102 234.846 281.482 235.243 281.932 235.549C282.381 235.855 282.89 236.063 283.425 236.16C283.96 236.256 284.51 236.239 285.038 236.109C285.566 235.979 286.06 235.74 286.49 235.406C289.016 233.331 288.541 227.447 287.47 224.728C287.386 224.517 285.846 221.635 285.533 221.118L285.942 221.437C288.18 223.377 290.239 225.513 292.097 227.82C293.137 229.083 294.064 230.347 294.936 231.592C294.142 232.26 290.55 235.364 289.564 237.415C288.577 239.467 287.964 242.156 289.028 244.207C289.261 244.699 289.594 245.136 290.007 245.49C290.419 245.844 290.902 246.107 291.423 246.262C291.944 246.417 292.492 246.46 293.031 246.389C293.57 246.318 294.088 246.135 294.551 245.85C297.294 244.045 297.469 238.167 296.699 235.346C296.657 235.19 296.061 233.68 295.61 232.585C295.995 233.156 296.404 233.734 296.765 234.287C298.113 236.363 299.225 238.342 300.194 240.111C300.735 241.115 301.205 242.036 301.638 242.902C301.199 243.967 299.496 248.274 299.568 250.512C299.641 252.75 300.332 255.451 302.215 256.787C302.649 257.116 303.146 257.349 303.676 257.473C304.205 257.597 304.755 257.608 305.289 257.505C305.823 257.402 306.329 257.188 306.775 256.877C307.221 256.566 307.596 256.164 307.876 255.698C309.489 252.852 306.926 247.534 304.941 245.387C304.772 245.2 301.758 242.601 301.74 242.655L301.71 242.722C301.313 241.879 300.874 240.983 300.381 240.008C299.448 238.204 298.377 236.212 297.066 234.101C295.679 231.807 294.158 229.598 292.512 227.483C290.684 225.1 288.646 222.885 286.423 220.865L286.339 220.799C287.212 221.196 289.69 222.219 289.889 222.273C292.698 223.079 298.6 222.977 300.423 220.258C300.713 219.798 300.903 219.282 300.98 218.743C301.057 218.205 301.021 217.656 300.872 217.133C300.723 216.61 300.466 216.124 300.117 215.706C299.768 215.289 299.335 214.95 298.846 214.711C296.825 213.646 294.046 214.284 292.066 215.186Z" fill="#33B55B"/>
<path d="M253.522 258.802C253.461 258.802 254.725 262.568 254.845 262.797C256.09 265.438 260.055 269.812 263.298 269.415C263.832 269.329 264.342 269.133 264.796 268.838C265.25 268.543 265.637 268.157 265.932 267.703C266.227 267.25 266.424 266.74 266.51 266.205C266.597 265.671 266.57 265.125 266.432 264.602C265.903 262.352 263.61 260.667 261.619 259.789C259.267 258.676 253.522 258.802 253.522 258.802Z" fill="#33B55B"/>
<path d="M124.419 129.458C126.223 128.436 128.864 124.645 128.864 124.645C128.864 124.645 125.856 123.641 125.652 123.605C123.354 123.159 118.643 123.647 117.374 125.945C117.174 126.333 117.058 126.758 117.033 127.194C117.009 127.63 117.076 128.066 117.231 128.474C117.386 128.882 117.625 129.253 117.932 129.562C118.24 129.872 118.609 130.113 119.016 130.27C120.725 131.034 122.903 130.343 124.419 129.458Z" fill="#33B55B"/>
<path d="M136.09 136.142C137.479 134.74 138.971 130.728 139.098 130.409C141.39 131.267 143.738 131.97 146.124 132.514C147.514 132.839 148.928 133.116 150.336 133.393C149.674 133.393 149.078 133.345 148.994 133.351C146.654 133.531 142.244 135.246 141.625 137.796C141.535 138.224 141.537 138.665 141.629 139.091C141.721 139.517 141.902 139.92 142.159 140.272C142.417 140.624 142.745 140.918 143.124 141.135C143.502 141.352 143.922 141.488 144.356 141.532C146.191 141.785 148.11 140.546 149.343 139.3C150.576 138.055 151.936 134.644 152.279 133.742L153.909 134.036C156.526 134.488 159.137 134.933 161.688 135.444C162.584 135.625 163.463 135.835 164.341 136.046C163.739 136.046 163.252 136.01 163.174 136.046C160.84 136.22 156.424 137.935 155.81 140.492C155.72 140.918 155.721 141.359 155.812 141.786C155.904 142.212 156.084 142.614 156.341 142.967C156.598 143.319 156.926 143.613 157.304 143.83C157.682 144.048 158.102 144.183 158.535 144.228C160.376 144.474 162.289 143.235 163.529 141.996C164.768 140.756 165.989 137.664 166.398 136.581C167.295 136.822 168.203 137.057 169.045 137.333C169.647 137.532 170.194 137.682 170.766 137.935L172.463 138.585C173.521 139.036 174.622 139.493 175.645 139.962C176.361 140.281 177.035 140.564 177.714 140.913C176.824 140.726 175.073 140.389 174.923 140.377C172.583 140.197 167.963 141.226 166.964 143.656C166.81 144.064 166.744 144.501 166.77 144.937C166.796 145.372 166.913 145.798 167.115 146.185C167.316 146.572 167.597 146.912 167.939 147.184C168.281 147.455 168.677 147.651 169.1 147.759C170.904 148.288 172.956 147.356 174.37 146.315C175.916 145.166 177.937 141.581 178.184 141.129C179.309 141.659 180.398 142.188 181.42 142.7C183.676 143.825 185.632 144.883 187.322 145.804L188.351 144.42C186.606 143.5 184.507 142.435 182.1 141.298C180.963 140.756 179.73 140.197 178.46 139.637C178.799 138.359 179.06 137.061 179.243 135.751C181.21 135.534 184.657 133.784 185.072 133.555C185.716 134.614 186.335 135.655 186.877 136.647C188.08 138.717 189.091 140.6 189.945 142.23L191.052 140.732C190.24 139.27 189.289 137.634 188.212 135.853C187.563 134.776 186.847 133.633 186.095 132.466C186.474 132.129 189.536 129.368 190.306 127.605C191.01 125.999 191.467 123.761 190.565 122.143C190.368 121.753 190.092 121.408 189.753 121.132C189.414 120.856 189.021 120.655 188.599 120.541C188.177 120.428 187.736 120.404 187.304 120.473C186.873 120.542 186.461 120.701 186.095 120.94C183.941 122.444 183.947 127.178 184.639 129.422C184.675 129.555 185.277 130.938 185.668 131.829C185.361 131.353 185.066 130.89 184.741 130.409C184.14 129.44 183.448 128.496 182.744 127.479L181.655 126.029C181.306 125.536 180.867 125.061 180.452 124.567C179.507 123.448 178.503 122.365 177.444 121.289C178.286 120.735 181.252 118.714 182.196 117.228C183.141 115.742 183.929 113.618 183.279 111.874C183.141 111.46 182.918 111.079 182.624 110.757C182.329 110.435 181.97 110.179 181.57 110.005C181.17 109.831 180.738 109.743 180.302 109.746C179.866 109.75 179.435 109.846 179.038 110.027C176.686 111.188 175.976 115.868 176.313 118.19C176.313 118.335 176.764 119.995 177.023 120.867C176.391 120.23 175.765 119.586 175.11 118.96C173.209 117.156 171.229 115.351 169.262 113.6L167.457 111.958C167.758 111.765 171.332 109.437 172.396 107.777C173.335 106.303 174.123 104.167 173.479 102.416C173.34 102.007 173.117 101.631 172.825 101.312C172.532 100.994 172.176 100.74 171.78 100.567C171.384 100.393 170.956 100.305 170.523 100.306C170.091 100.308 169.663 100.399 169.268 100.575C166.91 101.737 166.2 106.417 166.543 108.739C166.543 108.914 167.193 111.266 167.379 111.855C166.061 110.652 164.768 109.449 163.535 108.186C161.893 106.493 160.362 104.697 158.951 102.807C159.089 102.717 162.831 100.305 163.92 98.5962C164.858 97.1223 165.646 94.9866 165.003 93.242C164.864 92.8319 164.642 92.4552 164.349 92.1361C164.057 91.8169 163.701 91.5622 163.305 91.3884C162.909 91.2146 162.48 91.1254 162.048 91.1265C161.615 91.1277 161.187 91.2191 160.791 91.3951C158.433 92.5562 157.729 97.2366 158.066 99.5588C158.066 99.7393 158.764 102.272 158.921 102.723C158.836 102.615 158.74 102.513 158.656 102.398C157.274 100.472 156.066 98.4266 155.046 96.2861C154.445 95.0829 153.969 93.9519 153.518 92.8209C154.258 92.4419 157.633 90.6792 158.782 89.2534C159.931 87.8276 160.9 85.8483 160.449 84.0495C160.357 83.6228 160.177 83.2201 159.92 82.8677C159.663 82.5153 159.334 82.221 158.956 82.0042C158.577 81.7874 158.157 81.6528 157.723 81.6092C157.289 81.5657 156.85 81.6141 156.436 81.7514C153.963 82.6418 152.748 87.22 152.826 89.5722C152.826 89.6986 153.019 90.986 153.169 91.9245C152.971 91.4071 152.76 90.8837 152.568 90.3844C151.894 88.5134 151.364 86.7748 150.955 85.2106C150.721 84.3263 150.516 83.5201 150.354 82.7621C150.889 82.0101 153.013 78.96 153.362 77.1973C153.711 75.4346 153.669 73.1967 152.441 71.7829C152.163 71.4469 151.818 71.1731 151.427 70.9792C151.037 70.7853 150.61 70.6758 150.174 70.6576C149.738 70.6395 149.304 70.7131 148.898 70.8738C148.493 71.0345 148.126 71.2787 147.821 71.5904C146.016 73.5215 147.069 78.1418 148.218 80.1873C148.32 80.3617 150.197 82.9426 150.221 82.9065L150.257 82.8584C150.414 83.5923 150.588 84.3684 150.799 85.2227C151.196 86.7928 151.665 88.5555 152.303 90.4445C152.966 92.4935 153.747 94.5022 154.643 96.4605C155.64 98.6523 156.827 100.752 158.193 102.735L158.247 102.801C157.645 102.332 155.888 101.081 155.744 100.997C153.693 99.8596 149.066 98.8549 147.147 100.642C146.837 100.948 146.594 101.316 146.435 101.722C146.275 102.128 146.203 102.563 146.223 102.999C146.243 103.434 146.354 103.861 146.55 104.251C146.745 104.641 147.021 104.985 147.358 105.262C148.753 106.465 151.04 106.507 152.772 106.152C154.703 105.755 158.187 103.229 158.439 103.024C159.879 105.006 161.451 106.89 163.144 108.661C164.118 109.702 165.141 110.712 166.152 111.717C165.61 111.332 165.123 110.989 165.051 110.947C162.999 109.804 158.373 108.799 156.454 110.592C156.143 110.898 155.9 111.266 155.741 111.672C155.582 112.078 155.51 112.513 155.53 112.949C155.55 113.385 155.661 113.812 155.857 114.201C156.052 114.591 156.327 114.936 156.665 115.212C158.06 116.416 160.346 116.458 162.079 116.103C163.812 115.748 166.807 113.648 167.596 113.095L168.799 114.238C170.73 116.043 172.661 117.847 174.502 119.706C175.158 120.35 175.771 121.012 176.391 121.668C175.91 121.325 175.501 121.036 175.434 121C173.389 119.857 168.757 118.858 166.838 120.645C166.527 120.951 166.285 121.32 166.126 121.726C165.967 122.132 165.896 122.568 165.916 123.003C165.937 123.439 166.049 123.866 166.245 124.255C166.441 124.645 166.716 124.989 167.054 125.265C168.444 126.468 170.73 126.51 172.469 126.156C174.207 125.801 176.908 123.906 177.841 123.238C178.442 123.93 179.044 124.621 179.646 125.325C180.019 125.807 180.416 126.252 180.765 126.763L181.817 128.237C182.455 129.2 183.117 130.186 183.712 131.143C184.134 131.805 184.525 132.442 184.916 133.08C184.278 132.43 182.997 131.185 182.882 131.089C181.204 129.887 179.247 129.134 177.197 128.899C177.01 128.752 176.809 128.625 176.596 128.52C176.215 128.306 175.794 128.175 175.36 128.135C174.926 128.095 174.488 128.147 174.075 128.287C173.662 128.427 173.283 128.653 172.963 128.949C172.642 129.245 172.388 129.605 172.216 130.006C171.247 132.448 173.87 136.389 175.681 137.881C175.789 137.971 177.053 138.795 177.859 139.3C177.341 139.078 176.836 138.849 176.301 138.627C175.242 138.169 174.165 137.748 173.016 137.291L171.307 136.69C170.742 136.473 170.104 136.317 169.503 136.124C168.101 135.715 166.657 135.36 165.201 135.041C165.598 134.109 166.952 130.788 166.922 129.025C166.892 127.262 166.368 125.049 164.87 123.96C164.527 123.691 164.131 123.497 163.708 123.392C163.285 123.286 162.845 123.27 162.415 123.346C161.986 123.421 161.577 123.586 161.215 123.83C160.854 124.073 160.547 124.39 160.316 124.76C158.993 127.028 160.984 131.323 162.548 133.068C162.644 133.182 163.908 134.307 164.612 134.915C163.733 134.728 162.861 134.536 161.965 134.379C159.384 133.916 156.755 133.531 154.144 133.128L151.737 132.749C151.882 132.424 153.578 128.508 153.542 126.541C153.512 124.79 152.989 122.564 151.491 121.475C151.147 121.206 150.751 121.013 150.328 120.907C149.905 120.801 149.465 120.786 149.036 120.861C148.606 120.936 148.197 121.101 147.836 121.345C147.474 121.589 147.168 121.906 146.937 122.275C145.613 124.543 147.604 128.839 149.163 130.589C149.283 130.716 151.1 132.34 151.569 132.731C149.806 132.448 148.056 132.129 146.335 131.786C144.017 131.306 141.732 130.677 139.495 129.903C139.561 129.753 141.354 125.692 141.3 123.659C141.27 121.908 140.746 119.682 139.248 118.593C138.905 118.325 138.509 118.131 138.086 118.025C137.663 117.92 137.222 117.904 136.793 117.979C136.364 118.055 135.955 118.22 135.593 118.463C135.232 118.707 134.925 119.024 134.694 119.394C133.371 121.662 135.362 125.957 136.926 127.708C137.046 127.84 139.008 129.585 139.381 129.873C139.254 129.831 139.116 129.795 138.983 129.747C136.76 128.909 134.616 127.874 132.576 126.655C131.445 125.999 130.399 125.301 129.394 124.609C129.803 123.881 131.65 120.549 131.8 118.732C131.951 116.915 131.686 114.719 130.32 113.468C130.008 113.163 129.635 112.927 129.226 112.775C128.817 112.624 128.38 112.56 127.945 112.587C127.509 112.615 127.084 112.734 126.698 112.937C126.311 113.139 125.971 113.42 125.7 113.763C124.136 115.874 125.646 120.38 127.006 122.269C127.078 122.377 127.95 123.346 128.594 124.074C128.143 123.755 127.673 123.43 127.252 123.111C125.658 121.908 124.274 120.747 123.041 119.688C122.355 119.087 121.742 118.515 121.176 117.986C121.212 117.065 121.296 113.347 120.623 111.681C119.949 110.015 118.673 108.174 116.881 107.698C116.462 107.572 116.022 107.535 115.588 107.59C115.155 107.645 114.738 107.791 114.364 108.018C113.991 108.245 113.669 108.548 113.421 108.908C113.172 109.267 113.002 109.675 112.922 110.105C112.501 112.698 115.93 115.988 118 117.053C118.18 117.144 121.164 118.257 121.17 118.214V118.16C121.706 118.684 122.283 119.237 122.927 119.833C124.13 120.916 125.49 122.137 127.066 123.358C128.745 124.699 130.503 125.938 132.33 127.07C134.368 128.349 136.516 129.444 138.749 130.343L138.827 130.373C138.063 130.313 135.909 130.234 135.747 130.246C133.407 130.427 128.991 132.141 128.377 134.692C128.287 135.119 128.288 135.56 128.379 135.986C128.471 136.412 128.651 136.815 128.908 137.167C129.165 137.519 129.493 137.814 129.871 138.031C130.249 138.248 130.669 138.384 131.103 138.428C132.943 138.627 134.887 137.387 136.09 136.142Z" fill="#33B55B"/>
<path d="M152.995 92.6163C153.037 92.6163 151.033 90.1196 150.889 89.9813C149.217 88.3389 145.017 86.1431 142.707 87.3463C142.327 87.5594 141.995 87.8503 141.734 88.2001C141.474 88.55 141.29 88.9508 141.194 89.3765C141.099 89.8023 141.094 90.2433 141.181 90.671C141.267 91.0986 141.443 91.5031 141.697 91.8583C142.713 93.4044 144.909 94.0361 146.66 94.1443C148.723 94.2947 152.989 92.6223 152.995 92.6163Z" fill="#33B55B"/>
<g opacity="0.1">
<path d="M82.3987 150.953C82.4829 150.31 81.737 149.606 81.737 148.944C81.737 148.282 82.4829 147.572 82.3987 146.935C82.3145 146.297 81.4121 145.786 81.2436 145.13C81.0752 144.474 81.6106 143.62 81.358 143.018C81.1053 142.417 80.1126 142.17 79.7818 141.611C79.4509 141.051 79.7457 140.058 79.3486 139.541C78.9516 139.024 77.9228 139.048 77.4596 138.585C76.9964 138.121 77.0264 137.099 76.503 136.696C75.9796 136.292 75.0051 136.587 74.4335 136.262C73.862 135.938 73.6334 134.939 73.0258 134.686C72.4182 134.434 71.5519 134.969 70.9142 134.8C70.2765 134.632 69.7952 133.73 69.1395 133.645C68.4837 133.561 67.7979 134.307 67.1301 134.307C66.4623 134.307 65.7645 133.591 65.1027 133.669C64.441 133.748 63.9597 134.656 63.334 134.825C62.7084 134.993 61.818 134.458 61.2164 134.71C60.6148 134.963 60.3741 135.956 59.8086 136.286C59.2431 136.617 58.2565 136.323 57.7391 136.72C57.2218 137.117 57.2458 138.145 56.7826 138.609C56.3194 139.072 55.2966 139.042 54.8996 139.565C54.5025 140.089 54.7913 141.063 54.4604 141.635C54.1295 142.206 53.1369 142.435 52.8842 143.042C52.6316 143.65 53.173 144.516 52.9985 145.154C52.8241 145.792 51.9337 146.273 51.8435 146.959C51.7532 147.645 52.5052 148.306 52.5052 148.968C52.5052 149.63 51.7652 150.334 51.8435 150.978C51.9217 151.621 52.8301 152.121 52.9985 152.782C53.167 153.444 52.6376 154.292 52.8842 154.894C53.1309 155.496 54.1356 155.736 54.4604 156.302C54.7853 156.867 54.4965 157.854 54.8996 158.371C55.3027 158.889 56.3194 158.864 56.7826 159.328C57.2458 159.791 57.2218 160.814 57.7391 161.217C58.2565 161.62 59.2431 161.325 59.8086 161.65C60.3741 161.975 60.6148 162.973 61.2224 163.226C61.83 163.479 62.6963 162.943 63.334 163.112C63.9717 163.28 64.447 164.177 65.1027 164.267C65.7585 164.357 66.4503 163.605 67.1121 163.605C67.7738 163.605 68.4837 164.351 69.1214 164.267C69.7591 164.183 70.2705 163.28 70.8961 163.112C71.5218 162.943 72.4061 163.473 73.0077 163.226C73.6093 162.979 73.856 161.975 74.4155 161.65C74.975 161.325 75.9676 161.614 76.485 161.211C77.0024 160.808 76.9783 159.791 77.4415 159.328C77.9048 158.864 78.9335 158.889 79.3306 158.371C79.7276 157.854 79.4388 156.873 79.7697 156.302C80.1006 155.73 81.0932 155.502 81.3399 154.894C81.5866 154.286 81.0572 153.414 81.2256 152.782C81.394 152.151 82.3145 151.609 82.3987 150.953ZM67.1301 160.79C64.7873 160.79 62.4971 160.095 60.5491 158.793C58.6011 157.492 57.0829 155.642 56.1863 153.477C55.2897 151.313 55.0552 148.931 55.5122 146.633C55.9693 144.335 57.0975 142.225 58.7541 140.568C60.4107 138.911 62.5214 137.783 64.8192 137.326C67.117 136.869 69.4987 137.104 71.6632 138C73.8277 138.897 75.6777 140.415 76.9793 142.363C78.2809 144.311 78.9756 146.601 78.9756 148.944C78.974 152.085 77.7255 155.097 75.5044 157.318C73.2833 159.54 70.2712 160.788 67.1301 160.79Z" fill="black"/>
<path d="M73.8314 155.645C77.5317 151.945 77.5317 145.946 73.8314 142.245C70.1311 138.545 64.1317 138.545 60.4314 142.245C56.7311 145.946 56.7311 151.945 60.4314 155.645C64.1317 159.346 70.1311 159.346 73.8314 155.645Z" fill="black"/>
</g>
<g opacity="0.1">
<path d="M317.022 146.514C317.13 145.659 316.138 144.709 316.138 143.831C316.138 142.952 317.13 142.026 317.022 141.147C316.914 140.269 315.705 139.619 315.482 138.783C315.259 137.947 315.969 136.762 315.632 135.962C315.296 135.161 313.966 134.831 313.533 134.079C313.1 133.327 313.479 132.009 312.931 131.317C312.384 130.625 311.03 130.661 310.411 130.042C309.791 129.422 309.809 128.057 309.135 127.521C308.461 126.986 307.132 127.377 306.374 126.92C305.616 126.462 305.303 125.157 304.491 124.82C303.679 124.483 302.524 125.199 301.669 124.97C300.815 124.742 300.183 123.545 299.305 123.43C298.427 123.316 297.5 124.315 296.622 124.315C295.744 124.315 294.817 123.322 293.939 123.43C293.06 123.539 292.411 124.748 291.574 124.97C290.738 125.193 289.559 124.489 288.753 124.82C287.947 125.151 287.628 126.486 286.87 126.926C286.112 127.365 284.8 126.974 284.109 127.527C283.417 128.081 283.483 129.422 282.881 130.06C282.28 130.698 280.896 130.661 280.367 131.335C279.837 132.009 280.222 133.339 279.765 134.097C279.308 134.855 277.996 135.167 277.659 135.98C277.323 136.792 278.044 137.947 277.816 138.801C277.587 139.655 276.39 140.287 276.276 141.165C276.161 142.044 277.154 142.97 277.154 143.849C277.154 144.727 276.161 145.653 276.276 146.532C276.39 147.41 277.593 148.06 277.816 148.896C278.038 149.732 277.329 150.911 277.659 151.717C277.99 152.524 279.326 152.842 279.765 153.601C280.204 154.359 279.819 155.67 280.367 156.362C280.914 157.054 282.268 157.018 282.881 157.637C283.495 158.257 283.483 159.623 284.157 160.152C284.831 160.681 286.16 160.296 286.924 160.754C287.688 161.211 287.995 162.522 288.807 162.859C289.619 163.196 290.774 162.48 291.623 162.703C292.471 162.925 293.115 164.129 293.987 164.243C294.859 164.357 295.792 163.364 296.67 163.364C297.548 163.364 298.475 164.357 299.353 164.243C300.231 164.129 300.881 162.925 301.717 162.703C302.554 162.48 303.739 163.19 304.539 162.859C305.339 162.528 305.67 161.193 306.422 160.754C307.174 160.314 308.491 160.705 309.183 160.152C309.875 159.598 309.839 158.251 310.459 157.637C311.078 157.024 312.444 157.036 312.979 156.362C313.515 155.688 313.124 154.359 313.581 153.601C314.038 152.842 315.344 152.524 315.681 151.717C316.017 150.911 315.302 149.744 315.53 148.896C315.759 148.048 316.908 147.386 317.022 146.514ZM296.64 159.641C293.513 159.641 290.456 158.713 287.856 156.976C285.256 155.239 283.23 152.77 282.033 149.881C280.837 146.992 280.524 143.813 281.134 140.746C281.744 137.679 283.249 134.862 285.461 132.651C287.672 130.44 290.489 128.934 293.556 128.324C296.622 127.714 299.801 128.027 302.69 129.224C305.579 130.421 308.048 132.447 309.785 135.047C311.523 137.647 312.45 140.704 312.45 143.831C312.448 148.023 310.782 152.044 307.818 155.008C304.853 157.973 300.833 159.639 296.64 159.641Z" fill="black"/>
<path d="M303.926 152.822C309.513 148.632 310.646 140.705 306.455 135.118C302.265 129.531 294.338 128.399 288.751 132.589C283.164 136.779 282.032 144.706 286.222 150.293C290.413 155.88 298.339 157.012 303.926 152.822Z" fill="black"/>
</g>
<g opacity="0.1">
<path d="M283.833 275.124C281.215 275.124 278.656 275.9 276.48 277.354C274.303 278.809 272.607 280.876 271.605 283.294C270.603 285.713 270.341 288.374 270.852 290.941C271.363 293.508 272.623 295.867 274.474 297.718C276.325 299.569 278.683 300.829 281.251 301.34C283.818 301.851 286.479 301.588 288.898 300.587C291.316 299.585 293.383 297.889 294.838 295.712C296.292 293.536 297.068 290.977 297.068 288.359C297.068 284.849 295.674 281.482 293.192 279C290.709 276.518 287.343 275.124 283.833 275.124ZM284.687 297.539V298.935H283.003V297.539C280.717 297.227 279.688 295.488 279.688 292.991V291.89H281.607V293.154C281.607 294.808 282.293 295.759 283.767 295.759C285.241 295.759 285.926 294.808 285.926 293.154C285.926 289.051 279.766 288.997 279.766 283.811C279.766 281.284 280.795 279.63 283.003 279.287V277.813H284.687V279.257C286.925 279.576 287.948 281.308 287.948 283.781V284.28H286.029V283.648C286.029 282.018 285.373 281.019 283.899 281.019C282.425 281.019 281.793 282.018 281.793 283.648C281.793 287.781 287.978 287.805 287.978 292.991C287.978 295.464 286.925 297.227 284.687 297.539Z" fill="black"/>
<path d="M283.832 266.701C279.549 266.701 275.362 267.972 271.8 270.351C268.239 272.731 265.463 276.114 263.823 280.071C262.184 284.028 261.755 288.383 262.591 292.584C263.427 296.785 265.489 300.644 268.518 303.673C271.547 306.702 275.406 308.765 279.607 309.6C283.808 310.436 288.163 310.007 292.12 308.368C296.078 306.729 299.46 303.953 301.84 300.391C304.22 296.83 305.49 292.642 305.49 288.359C305.49 282.615 303.208 277.106 299.147 273.045C295.085 268.983 289.576 266.701 283.832 266.701ZM283.832 304.602C280.62 304.602 277.479 303.65 274.808 301.865C272.137 300.08 270.055 297.543 268.826 294.575C267.596 291.607 267.275 288.341 267.901 285.19C268.528 282.039 270.075 279.145 272.347 276.873C274.618 274.602 277.513 273.055 280.664 272.428C283.814 271.801 287.08 272.123 290.048 273.352C293.016 274.582 295.553 276.664 297.338 279.335C299.123 282.006 300.076 285.146 300.076 288.359C300.076 292.667 298.364 296.799 295.318 299.845C292.272 302.891 288.14 304.602 283.832 304.602Z" fill="black"/>
</g>
<g opacity="0.1">
<path d="M232.69 293.9C230.841 293.9 229.033 294.448 227.496 295.475C225.958 296.503 224.76 297.963 224.052 299.671C223.345 301.379 223.16 303.259 223.52 305.073C223.881 306.886 224.772 308.552 226.079 309.859C227.387 311.167 229.052 312.057 230.866 312.418C232.679 312.779 234.559 312.593 236.267 311.886C237.976 311.178 239.436 309.98 240.463 308.443C241.49 306.905 242.039 305.098 242.039 303.249C242.039 302.021 241.797 300.805 241.327 299.671C240.857 298.537 240.168 297.506 239.3 296.638C238.432 295.77 237.402 295.081 236.267 294.611C235.133 294.142 233.917 293.9 232.69 293.9ZM233.291 309.734V310.721H232.088V309.734C230.47 309.511 229.748 308.284 229.748 306.515V305.727H231.144V306.618C231.144 307.785 231.625 308.459 232.666 308.459C233.706 308.459 234.194 307.785 234.194 306.618C234.194 303.718 229.844 303.682 229.844 300C229.844 298.195 230.566 297.046 232.13 296.806V295.765H233.333V296.806C234.91 297.028 235.638 298.255 235.638 300V300.355H234.278V299.91C234.278 298.755 233.815 298.051 232.774 298.051C231.733 298.051 231.288 298.755 231.288 299.91C231.288 302.828 235.656 302.846 235.656 306.527C235.619 308.266 234.873 309.511 233.297 309.734H233.291Z" fill="black"/>
<path d="M232.689 287.95C229.664 287.95 226.706 288.847 224.19 290.528C221.674 292.209 219.713 294.599 218.555 297.394C217.397 300.19 217.094 303.266 217.685 306.233C218.275 309.201 219.732 311.927 221.872 314.066C224.011 316.206 226.737 317.663 229.705 318.253C232.672 318.844 235.748 318.541 238.544 317.383C241.339 316.225 243.729 314.264 245.41 311.748C247.091 309.232 247.988 306.274 247.988 303.249C247.988 299.191 246.376 295.3 243.507 292.431C240.638 289.562 236.747 287.95 232.689 287.95ZM232.689 314.721C230.42 314.721 228.202 314.048 226.316 312.788C224.429 311.527 222.958 309.735 222.09 307.639C221.222 305.543 220.995 303.236 221.437 301.01C221.88 298.785 222.973 296.741 224.577 295.136C226.181 293.532 228.226 292.439 230.451 291.997C232.677 291.554 234.983 291.781 237.08 292.649C239.176 293.518 240.968 294.988 242.228 296.875C243.489 298.761 244.162 300.98 244.162 303.249C244.166 304.758 243.872 306.253 243.297 307.648C242.722 309.044 241.878 310.312 240.812 311.38C239.747 312.449 238.48 313.297 237.087 313.875C235.693 314.453 234.198 314.751 232.689 314.751V314.721Z" fill="black"/>
</g>
<g opacity="0.1">
<path d="M216.531 261.419C214.681 261.419 212.874 261.968 211.337 262.995C209.799 264.022 208.601 265.482 207.893 267.191C207.186 268.899 207.001 270.779 207.361 272.592C207.722 274.406 208.612 276.071 209.92 277.379C211.227 278.686 212.893 279.577 214.707 279.938C216.52 280.298 218.4 280.113 220.108 279.406C221.816 278.698 223.277 277.5 224.304 275.962C225.331 274.425 225.879 272.617 225.879 270.768C225.88 269.54 225.639 268.324 225.169 267.19C224.7 266.055 224.011 265.024 223.143 264.156C222.275 263.288 221.244 262.599 220.109 262.129C218.974 261.66 217.758 261.419 216.531 261.419ZM217.132 277.254V278.234H215.929V277.254C214.317 277.031 213.589 275.804 213.589 274.035V273.241H214.948V274.131C214.948 275.298 215.43 275.972 216.47 275.972C217.511 275.972 217.992 275.298 217.992 274.131C217.992 271.232 213.643 271.195 213.643 267.514C213.643 265.709 214.371 264.56 215.929 264.319V263.278H217.132V264.319C218.714 264.542 219.436 265.769 219.436 267.514V267.869H218.083V267.423C218.083 266.268 217.613 265.564 216.573 265.564C215.532 265.564 215.087 266.268 215.087 267.423C215.087 270.341 219.454 270.359 219.454 274.041C219.454 275.786 218.714 277.031 217.132 277.254Z" fill="black"/>
<path d="M216.531 255.47C213.505 255.468 210.547 256.365 208.03 258.045C205.513 259.725 203.552 262.114 202.393 264.91C201.234 267.705 200.93 270.781 201.52 273.749C202.109 276.717 203.566 279.444 205.705 281.584C207.845 283.724 210.571 285.182 213.538 285.773C216.506 286.363 219.583 286.061 222.378 284.903C225.174 283.745 227.564 281.784 229.245 279.268C230.927 276.752 231.824 273.794 231.824 270.768C231.825 268.76 231.43 266.77 230.662 264.914C229.893 263.058 228.767 261.372 227.347 259.951C225.927 258.53 224.241 257.403 222.385 256.634C220.529 255.865 218.54 255.47 216.531 255.47ZM216.531 282.241C214.262 282.241 212.044 281.568 210.157 280.307C208.271 279.047 206.8 277.255 205.932 275.159C205.064 273.062 204.837 270.756 205.279 268.53C205.722 266.305 206.815 264.26 208.419 262.656C210.023 261.052 212.068 259.959 214.293 259.516C216.519 259.074 218.825 259.301 220.922 260.169C223.018 261.037 224.81 262.508 226.07 264.395C227.331 266.281 228.004 268.499 228.004 270.768C228.007 272.277 227.713 273.771 227.137 275.166C226.562 276.561 225.718 277.828 224.652 278.896C223.586 279.964 222.321 280.811 220.927 281.389C219.534 281.967 218.04 282.265 216.531 282.265V282.241Z" fill="black"/>
</g>
<path opacity="0.1" d="M89.0342 84.3564H97.8837L93.4559 76.698L89.0342 84.3564Z" fill="black"/>
<path opacity="0.1" d="M71.666 84.3564H80.5156L76.0938 76.698L71.666 84.3564Z" fill="black"/>
<path opacity="0.1" d="M84.7744 66.6935C81.3691 66.6935 78.0402 67.7033 75.2087 69.5952C72.3773 71.4871 70.1704 74.1762 68.8673 77.3223C67.5641 80.4685 67.2231 83.9304 67.8875 87.2703C68.5518 90.6102 70.1917 93.6781 72.5996 96.0861C75.0076 98.494 78.0755 100.134 81.4154 100.798C84.7553 101.463 88.2173 101.122 91.3634 99.8184C94.5095 98.5153 97.1986 96.3084 99.0905 93.477C100.982 90.6455 101.992 87.3166 101.992 83.9113C101.987 79.3463 100.172 74.9697 96.944 71.7417C93.7161 68.5138 89.3394 66.6983 84.7744 66.6935ZM96.9508 86.7448H89.9662C89.6255 86.7448 89.2907 86.6552 88.9954 86.4849C88.7002 86.3146 88.455 86.0697 88.2843 85.7747C88.1137 85.4797 88.0236 85.145 88.0232 84.8042C88.0227 84.4634 88.1119 84.1285 88.2818 83.8331L93.3352 75.0738H85.9656V91.7983H88.6969V93.224H92.505V95.2274H77.5191V93.224H80.846V91.7983H84.3533V75.0437H76.2137L81.2671 83.803C81.4446 84.0992 81.5399 84.4373 81.5433 84.7825C81.5467 85.1277 81.4581 85.4677 81.2865 85.7673C81.115 86.0669 80.8667 86.3154 80.5672 86.4872C80.2677 86.659 79.9279 86.7479 79.5826 86.7448H72.5981C72.2573 86.7448 71.9225 86.6552 71.6273 86.4849C71.332 86.3146 71.0868 86.0697 70.9162 85.7747C70.7455 85.4797 70.6554 85.145 70.655 84.8042C70.6545 84.4634 70.7437 84.1285 70.9136 83.8331L75.967 75.0738H75.7625C75.5584 75.0562 75.3683 74.9627 75.2298 74.8118C75.0912 74.6609 75.0144 74.4635 75.0144 74.2586C75.0144 74.0537 75.0912 73.8563 75.2298 73.7054C75.3683 73.5545 75.5584 73.461 75.7625 73.4434H84.3533C84.3709 73.2393 84.4643 73.0492 84.6153 72.9107C84.7662 72.7722 84.9636 72.6954 85.1685 72.6954C85.3734 72.6954 85.5708 72.7722 85.7217 72.9107C85.8726 73.0492 85.9661 73.2393 85.9837 73.4434H94.5324C94.6453 73.4337 94.7591 73.4476 94.8663 73.4841C94.9736 73.5207 95.0722 73.5792 95.1557 73.6558C95.2392 73.7324 95.3059 73.8256 95.3515 73.9294C95.3971 74.0331 95.4207 74.1452 95.4207 74.2586C95.4207 74.372 95.3971 74.4841 95.3515 74.5878C95.3059 74.6916 95.2392 74.7848 95.1557 74.8614C95.0722 74.9381 94.9736 74.9965 94.8663 75.0331C94.7591 75.0696 94.6453 75.0835 94.5324 75.0738H93.5758L98.6353 83.8331C98.8052 84.1285 98.8944 84.4634 98.8939 84.8042C98.8935 85.145 98.8034 85.4797 98.6327 85.7747C98.4621 86.0697 98.2168 86.3146 97.9216 86.4849C97.6264 86.6552 97.2916 86.7448 96.9508 86.7448Z" fill="black"/>
<path opacity="0.1" d="M84.774 64.1968C80.8749 64.1968 77.0633 65.353 73.8213 67.5193C70.5792 69.6855 68.0524 72.7645 66.5603 76.3668C65.0681 79.9692 64.6777 83.9331 65.4384 87.7573C66.1991 91.5815 68.0767 95.0943 70.8338 97.8514C73.5909 100.609 77.1037 102.486 80.9279 103.247C84.7521 104.008 88.7161 103.617 92.3184 102.125C95.9207 100.633 98.9997 98.106 101.166 94.864C103.332 91.6219 104.488 87.8104 104.488 83.9112C104.488 78.6826 102.411 73.6682 98.7142 69.971C95.017 66.2738 90.0026 64.1968 84.774 64.1968ZM84.774 101.731C81.2497 101.731 77.8045 100.686 74.8741 98.7275C71.9437 96.7695 69.6597 93.9865 68.311 90.7304C66.9623 87.4743 66.6094 83.8914 67.297 80.4348C67.9846 76.9782 69.6817 73.8031 72.1738 71.311C74.6659 68.8189 77.841 67.1218 81.2976 66.4342C84.7542 65.7466 88.3371 66.0995 91.5932 67.4482C94.8493 68.7969 97.6323 71.0809 99.5903 74.0113C101.548 76.9417 102.593 80.3869 102.593 83.9112C102.587 88.6352 100.708 93.164 97.3672 96.5044C94.0268 99.8448 89.498 101.724 84.774 101.731Z" fill="black"/>
<path opacity="0.1" d="M102.166 286.169H111.016L106.594 278.505L102.166 286.169Z" fill="black"/>
<path opacity="0.1" d="M84.8047 286.169H93.6542L89.2264 278.505L84.8047 286.169Z" fill="black"/>
<path opacity="0.1" d="M97.9072 268.506C94.5016 268.506 91.1725 269.516 88.3409 271.408C85.5093 273.301 83.3025 275.99 81.9995 279.136C80.6965 282.283 80.3559 285.745 81.0207 289.085C81.6856 292.425 83.326 295.493 85.7346 297.901C88.1431 300.309 91.2116 301.948 94.5519 302.612C97.8922 303.275 101.354 302.934 104.5 301.629C107.646 300.325 110.335 298.118 112.226 295.285C114.117 292.453 115.126 289.124 115.125 285.718C115.12 281.154 113.305 276.778 110.076 273.551C106.848 270.324 102.472 268.509 97.9072 268.506ZM110.09 288.521H103.099C102.758 288.522 102.423 288.433 102.127 288.263C101.832 288.092 101.587 287.847 101.416 287.552C101.246 287.256 101.157 286.921 101.158 286.58C101.158 286.239 101.249 285.904 101.421 285.61L106.474 276.856H99.1044V293.605H101.836V295.031H105.644V297.034H90.652V295.031H93.9788V293.605H97.4681V276.85H89.3465L94.3999 285.604C94.5715 285.898 94.6622 286.233 94.6629 286.574C94.6637 286.915 94.5744 287.25 94.4041 287.546C94.2338 287.841 93.9885 288.086 93.6931 288.257C93.3976 288.427 93.0625 288.516 92.7215 288.515H85.7309C85.3899 288.516 85.0547 288.427 84.7593 288.257C84.4638 288.086 84.2186 287.841 84.0483 287.546C83.878 287.25 83.7887 286.915 83.7894 286.574C83.7901 286.233 83.8808 285.898 84.0524 285.604L89.1058 276.85H88.9013C88.6843 276.85 88.4762 276.764 88.3228 276.611C88.1693 276.457 88.0831 276.249 88.0831 276.032C88.0831 275.815 88.1693 275.607 88.3228 275.454C88.4762 275.3 88.6843 275.214 88.9013 275.214H97.4681C97.4681 274.997 97.5543 274.789 97.7077 274.636C97.8612 274.482 98.0693 274.396 98.2863 274.396C98.5033 274.396 98.7114 274.482 98.8648 274.636C99.0182 274.789 99.1044 274.997 99.1044 275.214H107.671C107.888 275.214 108.096 275.3 108.25 275.454C108.403 275.607 108.489 275.815 108.489 276.032C108.489 276.249 108.403 276.457 108.25 276.611C108.096 276.764 107.888 276.85 107.671 276.85H106.715L111.768 285.604C111.939 285.899 112.03 286.234 112.03 286.575C112.031 286.916 111.941 287.251 111.771 287.547C111.601 287.843 111.356 288.089 111.061 288.26C110.766 288.431 110.431 288.521 110.09 288.521Z" fill="black"/>
<path opacity="0.1" d="M97.9078 266.022C94.0087 266.022 90.1971 267.178 86.9551 269.344C83.713 271.51 81.1862 274.589 79.694 278.192C78.2019 281.794 77.8115 285.758 78.5722 289.582C79.3329 293.406 81.2105 296.919 83.9676 299.676C86.7247 302.433 90.2375 304.311 94.0617 305.072C97.8859 305.832 101.85 305.442 105.452 303.95C109.055 302.458 112.133 299.931 114.3 296.689C116.466 293.447 117.622 289.635 117.622 285.736C117.622 280.507 115.545 275.493 111.848 271.796C108.151 268.099 103.136 266.022 97.9078 266.022ZM97.9078 303.555C94.3835 303.555 90.9383 302.51 88.0079 300.552C85.0775 298.594 82.7935 295.811 81.4448 292.555C80.0961 289.299 79.7432 285.716 80.4308 282.26C81.1184 278.803 82.8155 275.628 85.3076 273.136C87.7997 270.644 90.9748 268.947 94.4314 268.259C97.888 267.571 101.471 267.924 104.727 269.273C107.983 270.622 110.766 272.906 112.724 275.836C114.682 278.766 115.727 282.212 115.727 285.736C115.718 290.457 113.837 294.982 110.496 298.319C107.156 301.656 102.629 303.533 97.9078 303.537V303.555Z" fill="black"/>
<path d="M185.422 334.002C254.199 334.002 309.953 331.848 309.953 329.19C309.953 326.531 254.199 324.377 185.422 324.377C116.645 324.377 60.8906 326.531 60.8906 329.19C60.8906 331.848 116.645 334.002 185.422 334.002Z" fill="#263238"/>
<path d="M273.544 207.468C277.099 208.13 280.98 205.849 283.17 202.186C284.836 199.436 285.419 196.723 286.099 193.613C286.863 190.22 313.286 67.3792 313.562 66.1639H179.742L152.502 192.747L151.395 197.854C151.165 198.917 150.759 199.934 150.192 200.862L149.386 202.204C148.534 203.614 147.312 204.764 145.853 205.529C144.394 206.294 142.753 206.645 141.109 206.544C139.464 206.443 137.879 205.894 136.524 204.956C135.17 204.018 134.098 202.727 133.425 201.223C132.316 198.739 130.519 196.623 128.248 195.125C125.977 193.626 123.326 192.808 120.605 192.765H120.106C116.94 192.824 113.883 193.932 111.415 195.914C108.946 197.897 107.204 200.642 106.462 203.72L95.4102 249.574H229.212L239.367 207.462" fill="white"/>
<path d="M273.544 207.468C277.099 208.13 280.98 205.849 283.17 202.186C284.836 199.436 285.419 196.723 286.099 193.613C286.863 190.22 313.286 67.3792 313.562 66.1639H179.742L152.502 192.747L151.395 197.854C151.165 198.917 150.759 199.934 150.192 200.862L149.386 202.204C148.534 203.614 147.312 204.764 145.853 205.529C144.394 206.294 142.753 206.645 141.109 206.544C139.464 206.443 137.879 205.894 136.524 204.956C135.17 204.018 134.098 202.727 133.425 201.223C132.316 198.739 130.519 196.623 128.248 195.125C125.977 193.626 123.326 192.808 120.605 192.765H120.106C116.94 192.824 113.883 193.932 111.415 195.914C108.946 197.897 107.204 200.642 106.462 203.72L95.4102 249.574H229.212L239.367 207.462" stroke="#263238" stroke-width="0.8" stroke-linecap="round" stroke-linejoin="round"/>
<path d="M222.119 80.4519L221.926 81.4626H220.723L220.928 80.3857C221.126 79.375 220.843 78.7674 219.923 78.7674C219.002 78.7674 218.491 79.369 218.293 80.3857L217.15 86.3356C216.951 87.3462 217.252 87.9539 218.154 87.9539C219.057 87.9539 219.592 87.3523 219.785 86.3356L220.067 84.8737H221.27L221.006 86.2694C220.675 87.9719 219.652 89.0969 217.92 89.0969C216.187 89.0969 215.615 87.9719 215.94 86.2694L217.065 80.4519C217.39 78.7494 218.413 77.6244 220.133 77.6244C221.854 77.6244 222.42 78.7494 222.119 80.4519Z" fill="#263238"/>
<path d="M223.135 80.4519C223.466 78.7313 224.531 77.6244 226.251 77.6244C227.972 77.6244 228.622 78.7313 228.291 80.4519L227.172 86.2694C226.841 87.9719 225.776 89.0969 224.038 89.0969C222.299 89.0969 221.685 87.9719 222.01 86.2694L223.135 80.4519ZM223.237 86.3356C223.039 87.3643 223.358 87.9539 224.26 87.9539C225.163 87.9539 225.704 87.3523 225.903 86.3356L227.052 80.3857C227.244 79.375 226.943 78.7674 226.029 78.7674C225.114 78.7674 224.579 79.369 224.386 80.3857L223.237 86.3356Z" fill="#263238"/>
<path d="M228.947 88.9827H227.822L229.988 77.7207H231.582L232.617 85.8483L234.187 77.7207H235.294L233.122 88.9646H231.823L230.698 79.8744L228.947 88.9827Z" fill="#263238"/>
<path d="M236.035 88.9827L237.984 78.8758H235.908L236.131 77.7388H241.515L241.293 78.8758H239.223L237.274 88.9827H236.035Z" fill="#263238"/>
<path d="M244.872 77.7207C246.641 77.7207 247.206 78.6171 246.887 80.2895L246.707 81.204C246.472 82.4433 245.889 83.2133 244.866 83.5201C245.834 83.8269 246.069 84.6632 245.828 85.8664L245.486 87.617C245.369 88.0587 245.369 88.523 245.486 88.9646H244.21C244.119 88.5113 244.14 88.0425 244.27 87.599L244.607 85.8363C244.854 84.5609 244.336 84.1638 243.29 84.1638H242.405L241.479 88.9766H240.228L242.363 77.7207H244.872ZM243.53 83.0208C243.757 83.0537 243.988 83.0391 244.209 82.978C244.43 82.9169 244.636 82.8106 244.813 82.6658C244.991 82.521 245.136 82.3409 245.241 82.1369C245.345 81.9329 245.406 81.7094 245.419 81.4807L245.624 80.4038C245.822 79.3871 245.552 78.8577 244.619 78.8577H243.416L242.574 83.0388L243.53 83.0208Z" fill="#263238"/>
<path d="M248.234 86.7447L247.386 88.9827H246.183L250.532 77.7207H252.337V88.9646H251.086V86.7447H248.234ZM248.601 85.6678H251.11V79.1766L248.601 85.6678Z" fill="#263238"/>
<path d="M259.905 80.4519L259.712 81.4626H258.509L258.72 80.3857C258.912 79.375 258.629 78.7674 257.715 78.7674C256.801 78.7674 256.277 79.369 256.085 80.3857L254.936 86.3356C254.743 87.3462 255.038 87.9539 255.94 87.9539C256.843 87.9539 257.378 87.3523 257.571 86.3356L257.853 84.8737H259.057L258.816 86.2694C258.485 87.9719 257.468 89.0969 255.73 89.0969C253.991 89.0969 253.402 87.9478 253.72 86.2694L254.845 80.4519C255.17 78.7494 256.193 77.6244 257.914 77.6244C259.634 77.6244 260.236 78.7494 259.905 80.4519Z" fill="#263238"/>
<path d="M261.025 88.9827L262.974 78.8758H260.904L261.121 77.7388H266.505L266.289 78.8758H264.231L262.282 88.9827H261.025Z" fill="#263238"/>
<path d="M183.189 94.4812H301.217" stroke="#263238" stroke-width="0.8" stroke-miterlimit="10"/>
<path d="M269.82 107.56H297.44" stroke="#263238" stroke-width="0.8" stroke-miterlimit="10"/>
<path d="M226.505 107.56H266.914" stroke="#263238" stroke-width="0.8" stroke-miterlimit="10"/>
<path d="M199.469 107.56H224.182" stroke="#263238" stroke-width="0.8" stroke-miterlimit="10"/>
<path d="M179.411 107.56H197.146" stroke="#263238" stroke-width="0.8" stroke-miterlimit="10"/>
<path d="M266.33 114.244H295.983" stroke="#263238" stroke-width="0.8" stroke-miterlimit="10"/>
<path d="M199.181 114.244H263.426" stroke="#263238" stroke-width="0.8" stroke-miterlimit="10"/>
<path d="M177.962 114.244H196.563" stroke="#263238" stroke-width="0.8" stroke-miterlimit="10"/>
<path d="M260.23 120.934H294.534" stroke="#263238" stroke-width="0.8" stroke-miterlimit="10"/>
<path d="M208.775 120.934H257.902" stroke="#263238" stroke-width="0.8" stroke-miterlimit="10"/>
<path d="M176.505 120.934H206.447" stroke="#263238" stroke-width="0.8" stroke-miterlimit="10"/>
<path d="M271.564 127.617H293.078" stroke="#263238" stroke-width="0.8" stroke-miterlimit="10"/>
<path d="M238.717 127.617H268.658" stroke="#263238" stroke-width="0.8" stroke-miterlimit="10"/>
<path d="M207.031 127.617H235.812" stroke="#263238" stroke-width="0.8" stroke-miterlimit="10"/>
<path d="M183.189 127.617H204.414" stroke="#263238" stroke-width="0.8" stroke-miterlimit="10"/>
<path d="M175.05 127.617H180.572" stroke="#263238" stroke-width="0.8" stroke-miterlimit="10"/>
<path d="M286.683 134.307H291.622" stroke="#263238" stroke-width="0.8" stroke-miterlimit="10"/>
<path d="M237.55 134.307H282.904" stroke="#263238" stroke-width="0.8" stroke-miterlimit="10"/>
<path d="M202.958 134.307H234.644" stroke="#263238" stroke-width="0.8" stroke-miterlimit="10"/>
<path d="M173.6 134.307H199.763" stroke="#263238" stroke-width="0.8" stroke-miterlimit="10"/>
<path d="M280.287 140.991H290.171" stroke="#263238" stroke-width="0.8" stroke-miterlimit="10"/>
<path d="M251.507 140.991H277.67" stroke="#263238" stroke-width="0.8" stroke-miterlimit="10"/>
<path d="M242.784 140.991H248.602" stroke="#263238" stroke-width="0.8" stroke-miterlimit="10"/>
<path d="M200.925 140.991H241.334" stroke="#263238" stroke-width="0.8" stroke-miterlimit="10"/>
<path d="M172.145 140.991H198.597" stroke="#263238" stroke-width="0.8" stroke-miterlimit="10"/>
<path d="M170.688 147.675H288.716" stroke="#263238" stroke-width="0.8" stroke-miterlimit="10"/>
<path d="M281.16 154.365H287.266" stroke="#263238" stroke-width="0.8" stroke-miterlimit="10"/>
<path d="M254.413 154.365H277.382" stroke="#263238" stroke-width="0.8" stroke-miterlimit="10"/>
<path d="M216.043 154.365H250.346" stroke="#263238" stroke-width="0.8" stroke-miterlimit="10"/>
<path d="M207.608 154.365H213.426" stroke="#263238" stroke-width="0.8" stroke-miterlimit="10"/>
<path d="M180.867 154.365H204.414" stroke="#263238" stroke-width="0.8" stroke-miterlimit="10"/>
<path d="M169.238 154.365H177.378" stroke="#263238" stroke-width="0.8" stroke-miterlimit="10"/>
<path d="M256.157 161.048H285.81" stroke="#263238" stroke-width="0.8" stroke-miterlimit="10"/>
<path d="M224.76 161.048H252.379" stroke="#263238" stroke-width="0.8" stroke-miterlimit="10"/>
<path d="M200.636 161.048H221.854" stroke="#263238" stroke-width="0.8" stroke-miterlimit="10"/>
<path d="M167.782 161.048H197.724" stroke="#263238" stroke-width="0.8" stroke-miterlimit="10"/>
<path d="M275.054 167.738H284.354" stroke="#263238" stroke-width="0.8" stroke-miterlimit="10"/>
<path d="M244.239 167.738H271.853" stroke="#263238" stroke-width="0.8" stroke-miterlimit="10"/>
<path d="M224.471 167.738H242.206" stroke="#263238" stroke-width="0.8" stroke-miterlimit="10"/>
<path d="M208.481 167.738H221.566" stroke="#263238" stroke-width="0.8" stroke-miterlimit="10"/>
<path d="M193.369 167.738H206.159" stroke="#263238" stroke-width="0.8" stroke-miterlimit="10"/>
<path d="M174.177 167.738H190.167" stroke="#263238" stroke-width="0.8" stroke-miterlimit="10"/>
<path d="M166.333 167.738H171.561" stroke="#263238" stroke-width="0.8" stroke-miterlimit="10"/>
<path d="M267.203 174.422H282.905" stroke="#263238" stroke-width="0.8" stroke-miterlimit="10"/>
<path d="M239.59 174.422H263.714" stroke="#263238" stroke-width="0.8" stroke-miterlimit="10"/>
<path d="M213.715 174.422H236.1" stroke="#263238" stroke-width="0.8" stroke-miterlimit="10"/>
<path d="M183.484 174.422H210.226" stroke="#263238" stroke-width="0.8" stroke-miterlimit="10"/>
<path d="M164.876 174.422H180.572" stroke="#263238" stroke-width="0.8" stroke-miterlimit="10"/>
<path d="M266.33 181.106H281.448" stroke="#263238" stroke-width="0.8" stroke-miterlimit="10"/>
<path d="M240.167 181.106H263.425" stroke="#263238" stroke-width="0.8" stroke-miterlimit="10"/>
<path d="M213.131 181.106H236.1" stroke="#263238" stroke-width="0.8" stroke-miterlimit="10"/>
<path d="M194.529 181.106H210.52" stroke="#263238" stroke-width="0.8" stroke-miterlimit="10"/>
<path d="M175.345 181.106H191.624" stroke="#263238" stroke-width="0.8" stroke-miterlimit="10"/>
<path d="M163.421 181.106H173.6" stroke="#263238" stroke-width="0.8" stroke-miterlimit="10"/>
<path d="M271.275 187.795H279.993" stroke="#263238" stroke-width="0.8" stroke-miterlimit="10"/>
<path d="M241.622 187.795H268.369" stroke="#263238" stroke-width="0.8" stroke-miterlimit="10"/>
<path d="M218.076 187.795H238.134" stroke="#263238" stroke-width="0.8" stroke-miterlimit="10"/>
<path d="M202.669 187.795H214.875" stroke="#263238" stroke-width="0.8" stroke-miterlimit="10"/>
<path d="M177.962 187.795H198.308" stroke="#263238" stroke-width="0.8" stroke-miterlimit="10"/>
<path d="M161.971 187.795H175.922" stroke="#263238" stroke-width="0.8" stroke-miterlimit="10"/>
<path d="M252.987 192.747V192.789C249.99 193.039 247.147 194.228 244.865 196.188C242.583 198.147 240.977 200.777 240.275 203.702L229.212 249.574H95.4102L106.468 203.702C107.21 200.624 108.952 197.878 111.421 195.896C113.889 193.914 116.946 192.806 120.112 192.747H252.987Z" fill="white" stroke="#263238" stroke-width="0.8" stroke-linecap="round" stroke-linejoin="round"/>
<path d="M273.544 207.468H239.367L240.276 203.702C240.983 200.78 242.59 198.154 244.871 196.195C247.153 194.237 249.992 193.045 252.987 192.789C253.378 192.759 253.769 192.741 254.161 192.741C259.575 192.741 265.14 195.706 267.239 201.205C268.719 205.091 271.047 206.999 273.544 207.468Z" fill="#263238" stroke="#263238" stroke-width="0.8" stroke-linecap="round" stroke-linejoin="round"/>
<path d="M231.697 203.545C231.697 203.991 230.608 204.321 230.53 204.749C230.452 205.176 231.336 205.886 231.18 206.289C231.023 206.692 229.886 206.62 229.664 206.999C229.441 207.378 230.043 208.328 229.76 208.665C229.477 209.002 228.43 208.581 228.099 208.876C227.769 209.17 228.099 210.253 227.738 210.506C227.377 210.759 226.463 210.085 226.078 210.289C225.693 210.494 225.753 211.631 225.344 211.793C224.935 211.956 224.189 211.107 223.768 211.228C223.347 211.348 223.166 212.473 222.745 212.551C222.324 212.629 221.746 211.649 221.307 211.691C220.868 211.733 220.495 212.798 220.056 212.798C219.617 212.798 219.226 211.727 218.799 211.691C218.372 211.655 217.788 212.629 217.367 212.551C216.946 212.473 216.765 211.348 216.338 211.228C215.911 211.107 215.165 211.956 214.768 211.793C214.371 211.631 214.407 210.494 214.034 210.289C213.661 210.085 212.722 210.753 212.374 210.506C212.025 210.259 212.325 209.158 212.007 208.876C211.688 208.593 210.623 208.99 210.346 208.665C210.069 208.34 210.665 207.366 210.448 206.993C210.232 206.62 209.089 206.692 208.932 206.289C208.776 205.886 209.66 205.176 209.576 204.749C209.492 204.321 208.415 203.997 208.415 203.545C208.415 203.094 209.498 202.775 209.576 202.342C209.654 201.909 208.776 201.211 208.932 200.802C209.089 200.393 210.22 200.477 210.448 200.098C210.677 199.719 210.063 198.769 210.346 198.432C210.629 198.095 211.682 198.516 212.007 198.221C212.331 197.926 212.007 196.844 212.374 196.591C212.741 196.338 213.643 197.012 214.034 196.801C214.425 196.591 214.359 195.466 214.768 195.297C215.177 195.129 215.917 195.989 216.338 195.869C216.759 195.749 216.94 194.624 217.367 194.545C217.794 194.467 218.359 195.448 218.799 195.406C219.238 195.364 219.611 194.293 220.056 194.293C220.501 194.293 220.88 195.364 221.307 195.406C221.734 195.448 222.324 194.461 222.745 194.545C223.166 194.63 223.347 195.749 223.768 195.869C224.189 195.989 224.971 195.141 225.344 195.297C225.717 195.454 225.699 196.603 226.078 196.801C226.457 197 227.383 196.344 227.738 196.591C228.093 196.837 227.787 197.932 228.099 198.221C228.412 198.51 229.489 198.101 229.76 198.432C230.031 198.763 229.441 199.731 229.664 200.098C229.886 200.465 231.023 200.405 231.18 200.808C231.336 201.211 230.446 201.915 230.53 202.342C230.614 202.769 231.697 203.106 231.697 203.545Z" fill="#33B55B"/>
<path d="M220.055 210.476C224.936 210.476 228.893 207.373 228.893 203.545C228.893 199.718 224.936 196.615 220.055 196.615C215.174 196.615 211.218 199.718 211.218 203.545C211.218 207.373 215.174 210.476 220.055 210.476Z" fill="white"/>
<path d="M220.055 209.158C224.006 209.158 227.208 206.645 227.208 203.545C227.208 200.445 224.006 197.932 220.055 197.932C216.105 197.932 212.902 200.445 212.902 203.545C212.902 206.645 216.105 209.158 220.055 209.158Z" fill="#33B55B"/>
<path d="M225.091 237.319H166.988" stroke="#263238" stroke-width="0.8" stroke-linecap="round" stroke-linejoin="round"/>
<path d="M148.507 237.319H106.876" stroke="#263238" stroke-width="0.8" stroke-linecap="round" stroke-linejoin="round"/>
<path d="M179.592 236.092C179.592 236.092 190.559 223.946 193.687 212.028C196.816 200.11 189.121 206.571 186.047 219.789C182.973 233.006 182.973 236.393 186.047 233.932C188.513 231.816 190.641 229.334 192.358 226.575C192.791 225.889 193.152 225.251 193.429 224.71C194.632 222.249 190.661 223.789 189.735 228.704C188.808 233.619 194.349 226.557 195.883 224.096C197.417 221.635 200.497 220.408 198.037 226.863C195.576 233.319 191.888 232.085 195.269 227.784C198.65 223.482 202.344 214.549 202.651 219.482C202.958 224.415 201.725 229.926 199.258 231.478C196.792 233.03 203.866 224.409 206.02 225.022C208.174 225.636 209.094 228.097 206.941 229.944C204.787 231.79 204.787 225.636 221.084 226.25" stroke="#263238" stroke-width="0.8" stroke-linecap="round" stroke-linejoin="round"/>
<path d="M218.425 219.127L227.449 226.346C227.547 226.427 227.615 226.539 227.642 226.663C227.668 226.788 227.651 226.918 227.593 227.031C227.536 227.145 227.441 227.235 227.325 227.288C227.21 227.341 227.079 227.352 226.956 227.321L215.525 224.355L218.425 219.127Z" fill="white" stroke="#263238" stroke-width="0.8" stroke-linecap="round" stroke-linejoin="round"/>
<path d="M216.963 216.317L164.239 185.1L158.35 195.123L212.939 224.692C213.074 224.786 213.219 224.865 213.372 224.926C215.177 225.684 217.457 224.373 218.449 221.99C219.442 219.608 218.774 217.069 216.963 216.317Z" fill="#8C8C8C" stroke="#263238" stroke-width="0.8" stroke-linecap="round" stroke-linejoin="round"/>
<path d="M165.629 191.495C164.089 195.183 160.563 197.223 157.754 196.049C157.484 195.934 157.226 195.793 156.984 195.628L102.942 165.512L98.5385 163.052L97.9971 162.757L98.1354 162.426L104.332 147.591L104.597 146.989L105.313 147.422L111.485 151.182L163.331 182.718C166.17 183.867 167.169 187.814 165.629 191.495Z" fill="white" stroke="#263238" stroke-width="0.8" stroke-linecap="round" stroke-linejoin="round"/>
<path d="M162.813 182.399L111.485 151.176L105.313 147.416L104.597 146.983L104.332 147.585L98.1354 162.42L97.9971 162.751L98.5385 163.046L102.942 165.506L155.745 194.931C158.56 195.767 161.905 193.727 163.409 190.118C164.612 187.212 164.293 184.204 162.813 182.399Z" fill="#8C8C8C" stroke="#263238" stroke-width="0.8" stroke-linecap="round" stroke-linejoin="round"/>
<path d="M102.942 165.512C106.149 165.645 109.56 163.154 111.233 159.183C112.375 156.645 112.465 153.757 111.485 151.152L105.313 147.392C104.982 147.434 104.654 147.501 104.332 147.591C101.787 148.307 99.3569 150.526 98.0454 153.673C96.734 156.819 96.8422 160.116 98.1357 162.426C98.2555 162.636 98.3902 162.837 98.5388 163.028" fill="white"/>
<path d="M102.942 165.512C106.149 165.645 109.56 163.154 111.233 159.183C112.375 156.645 112.465 153.757 111.485 151.152L105.313 147.392C104.982 147.434 104.654 147.501 104.332 147.591C101.787 148.307 99.3569 150.526 98.0454 153.673C96.734 156.819 96.8422 160.116 98.1357 162.426C98.2555 162.636 98.3902 162.837 98.5388 163.028" stroke="#263238" stroke-width="0.8" stroke-linecap="round" stroke-linejoin="round"/>
<path d="M107.755 156.422L147.845 182.514C148.089 182.677 148.264 182.924 148.338 183.207C148.412 183.491 148.381 183.792 148.249 184.054C148.172 184.194 148.068 184.318 147.943 184.418C147.818 184.518 147.674 184.592 147.52 184.636C147.366 184.68 147.205 184.692 147.046 184.673C146.887 184.653 146.733 184.602 146.594 184.523L105.354 160.14L107.755 156.422Z" fill="white" stroke="#263238" stroke-width="0.8" stroke-linecap="round" stroke-linejoin="round"/>
<path d="M107.315 157.373C105.51 161.734 101.299 164.147 97.9964 162.757C94.6936 161.367 93.4603 156.705 95.2771 152.319C97.094 147.934 101.293 145.545 104.596 146.935C107.899 148.325 109.138 153.011 107.315 157.373Z" fill="#8C8C8C" stroke="#263238" stroke-width="0.8" stroke-linecap="round" stroke-linejoin="round"/>
<path d="M106.011 156.831C104.585 160.248 101.313 162.143 98.7076 161.042C96.1027 159.941 87.1448 151.375 88.5646 147.958C89.9844 144.541 101.27 147.573 103.875 148.661C106.48 149.75 107.449 153.408 106.011 156.831Z" fill="white" stroke="#263238" stroke-width="0.8" stroke-linecap="round" stroke-linejoin="round"/>
<path d="M190.433 213.55L193.688 212.034C194.429 212.001 195.158 212.231 195.745 212.684C196.72 213.442 198.561 214.633 198.561 214.633C198.561 214.633 202.243 214.85 202.351 215.391C202.459 215.932 200.185 216.594 199.86 216.594H197.454C197.454 216.594 200.811 218.333 201.136 218.549C201.461 218.766 206.123 220.174 205.473 220.607C204.823 221.04 200.486 220.932 199.511 221.148C198.544 221.297 197.566 221.369 196.588 221.365L192.906 218.008L190.301 215.186C190.301 215.186 189.459 214.2 190.433 213.55Z" fill="white" stroke="#263238" stroke-width="0.8" stroke-linecap="round" stroke-linejoin="round"/>
<path d="M108.741 174.657C108.741 174.657 108.525 171.727 108.525 170.319C108.525 168.911 107.767 166.204 107.442 165.988C107.117 165.771 103.76 164.472 102.785 163.581C101.811 162.691 100.614 163.906 101.047 164.664C101.48 165.422 103.977 166.83 103.977 166.83L103.327 167.804L100.921 165.747C100.921 165.747 98.4299 161.849 97.7802 162.173C97.1305 162.498 97.347 163.04 97.7802 163.798C98.2133 164.556 97.9968 169.429 99.1879 170.415C100.379 171.402 103.959 172.587 103.959 172.587L104.283 175.294C104.283 175.294 107.64 175.511 108.074 175.619C108.507 175.727 108.741 174.657 108.741 174.657Z" fill="white" stroke="#263238" stroke-width="0.8" stroke-linecap="round" stroke-linejoin="round"/>
<path d="M101.589 178.79L102.022 175.866C102.022 175.866 101.914 174.891 104.428 174.458C105.869 174.19 107.353 174.264 108.76 174.675C108.914 174.735 109.047 174.839 109.143 174.973C109.239 175.108 109.294 175.268 109.301 175.433C109.282 176.487 109.173 177.537 108.977 178.573C108.977 178.573 105.06 177.039 101.589 178.79Z" fill="white" stroke="#263238" stroke-width="0.8" stroke-linecap="round" stroke-linejoin="round"/>
<path d="M145.048 322.572V330.393C145.048 330.393 146.853 331.301 152.117 331.301C156.829 331.197 161.489 330.277 165.887 328.582C168.42 327.499 169.328 325.141 168.42 324.78C167.512 324.419 163.006 324.233 162.079 323.511C161.153 322.789 157.369 320.43 157.369 320.43C157.369 320.43 148.309 323.12 145.048 322.572Z" fill="#33B55B" stroke="#263238" stroke-width="0.8" stroke-linecap="round" stroke-linejoin="round"/>
<path d="M168.751 325.466C164.946 327.251 160.887 328.436 156.719 328.979C150.463 329.785 146.606 329.093 145.036 328.684V330.393C145.036 330.393 146.841 331.301 152.105 331.301C156.818 331.197 161.477 330.277 165.876 328.582C167.704 327.776 168.679 326.344 168.751 325.466Z" fill="white" stroke="#263238" stroke-width="0.8" stroke-linecap="round" stroke-linejoin="round"/>
<path d="M147.767 247.751L148.676 250.29C148.676 250.29 152.478 257.509 155.197 262.791C157.916 268.073 160.81 279.275 161.719 280.364C162.627 281.453 162.44 282.896 161.899 284.527C161.358 286.157 157.008 314.607 157.008 315.329C157.008 316.051 156.647 316.051 157.189 316.959C157.73 317.868 157.916 320.761 157.916 320.761C156.724 321.915 155.205 322.675 153.567 322.939C150.667 323.48 145.048 323.48 145.048 323.48C145.048 323.48 144.326 320.039 144.507 319.498C144.687 318.956 145.235 315.509 145.235 315.509C145.235 315.509 147.04 306.63 146.679 302.106C146.318 297.582 147.226 287.427 147.587 286.344C147.838 285.157 147.959 283.947 147.948 282.734L146.865 280.743V279.257C146.865 279.257 138.166 270.377 134.725 266.936C131.284 263.495 127.842 259.326 127.842 259.326C127.842 259.326 123.854 277.085 122.765 280.887C121.676 284.689 121.135 286.302 120.413 287.408C119.691 288.515 112.261 298.279 109.542 302.268C106.823 306.257 102.66 313.319 102.66 313.319C102.649 314.349 102.709 315.378 102.84 316.4C103.02 317.121 101.035 319.841 101.035 319.841L100.307 320.563C100.307 320.563 95.9577 316.213 94.3273 315.852C92.697 315.491 89.2559 316.033 89.2559 316.033C89.2559 316.033 91.4336 310.059 91.9751 308.813C92.5165 307.568 97.588 294.682 99.0379 292.143C100.488 289.604 101.577 284.533 104.115 282.517C106.654 280.502 109.53 278.168 109.53 278.168L109.169 257.882L108.808 252.263C108.452 250.84 108.268 249.38 108.26 247.913V244.304C108.26 244.304 124.75 248.106 132.926 247.745C141.102 247.384 145.969 245.212 145.969 245.212L147.767 247.751Z" fill="#263238" stroke="#263238" stroke-width="0.8" stroke-linecap="round" stroke-linejoin="round"/>
<path d="M152.298 191.122C152.298 191.122 142.871 187.007 137.889 187.007C132.908 187.007 130.195 187.116 124.883 187.332C119.571 187.549 116.46 189.173 116.46 189.173L108.64 191.772L109.283 177.586C107.698 177.149 106.04 177.039 104.41 177.261C103.033 177.518 101.77 178.199 100.801 179.211C100.801 179.211 97.8771 198.498 97.9854 200.231C98.0936 201.963 100.392 202.288 100.392 202.288L118.055 201.963L116.755 221.684L103.52 244.653C103.52 244.653 103.628 248.226 114.463 251.806C125.298 255.385 138.623 254.212 142.738 253.105C146.853 251.998 153.441 247.149 153.982 246.391C154.524 245.633 153.982 241.729 153.982 240.105C153.982 238.48 151.275 223.091 151.708 222.333C152.141 221.575 154.524 211.39 154.524 211.39C154.524 211.39 176.518 225.69 177.818 225.474C179.117 225.257 192.334 218.76 192.665 218.543C192.996 218.327 193.868 217.135 192.557 215.18C192.074 214.506 191.444 213.951 190.714 213.557C189.984 213.163 189.174 212.94 188.346 212.906C187.696 212.906 178.81 213.664 178.81 213.664C178.81 213.664 167.681 203.798 167.374 203.257C167.067 202.715 165.316 198.167 164.558 196.976C163.8 195.785 152.298 191.122 152.298 191.122Z" fill="#33B55B" stroke="#263238" stroke-width="0.8" stroke-linecap="round" stroke-linejoin="round"/>
<path d="M178.84 213.682C178.84 213.682 182.401 215.71 183.111 216.955L178.84 213.682Z" fill="#33B55B"/>
<path d="M178.84 213.682C178.84 213.682 182.401 215.71 183.111 216.955" stroke="#263238" stroke-width="0.8" stroke-linecap="round" stroke-linejoin="round"/>
<path d="M164.539 196.976C164.539 196.976 161.285 197.235 157.922 200.784L164.539 196.976Z" fill="#33B55B"/>
<path d="M164.539 196.976C164.539 196.976 161.285 197.235 157.922 200.784" stroke="#263238" stroke-width="0.8" stroke-linecap="round" stroke-linejoin="round"/>
<path d="M157.206 198.48C156.224 199.029 155.379 199.793 154.734 200.715C154.089 201.637 153.661 202.693 153.482 203.804" fill="#33B55B"/>
<path d="M157.206 198.48C156.224 199.029 155.379 199.793 154.734 200.715C154.089 201.637 153.661 202.693 153.482 203.804" stroke="#263238" stroke-width="0.8" stroke-linecap="round" stroke-linejoin="round"/>
<path d="M118.06 201.957L117.735 193.83L118.06 201.957Z" stroke="#263238" stroke-width="0.8" stroke-linecap="round" stroke-linejoin="round"/>
<path d="M149.44 214.868L154.572 211.384L146.228 213.983" stroke="#263238" stroke-width="0.8" stroke-linecap="round" stroke-linejoin="round"/>
<path d="M145.794 217.346L147.569 216.143" stroke="#263238" stroke-width="0.8" stroke-linecap="round" stroke-linejoin="round"/>
<path d="M145.289 192.356C143.285 193.073 141.436 194.163 139.838 195.568C135.627 199.358 133.335 199.033 133.335 199.033" stroke="#263238" stroke-width="0.8" stroke-linecap="round" stroke-linejoin="round"/>
<path d="M149.482 191.339C148.838 191.406 148.199 191.517 147.569 191.67" stroke="#263238" stroke-width="0.8" stroke-linecap="round" stroke-linejoin="round"/>
<path d="M139.188 194.046C139.188 194.046 135.717 197.301 132.035 198.817" stroke="#263238" stroke-width="0.8" stroke-linecap="round" stroke-linejoin="round"/>
<path d="M101.029 193.733C100.674 194.16 100.464 194.689 100.428 195.243" stroke="#263238" stroke-width="0.8" stroke-linecap="round" stroke-linejoin="round"/>
<path d="M108.633 191.772L107.117 191.88C107.117 191.88 105.168 191.014 104.193 191.122C103.509 191.345 102.889 191.731 102.389 192.247" stroke="#263238" stroke-width="0.8" stroke-linecap="round" stroke-linejoin="round"/>
<path d="M102.022 191.339C102.022 191.339 100.073 192.097 99.748 193.83" stroke="#263238" stroke-width="0.8" stroke-linecap="round" stroke-linejoin="round"/>
<path d="M151.732 222.327C151.732 222.327 150.198 232.735 149.513 235.948C148.827 239.16 147.906 247.071 147.906 247.071C149.054 246.635 150.246 246.328 151.462 246.157C153.267 245.928 153.982 246.385 153.982 246.385C153.982 246.385 155.36 243.059 153.982 237.319C152.605 231.58 151.732 222.327 151.732 222.327Z" fill="#33B55B" stroke="#263238" stroke-width="0.8" stroke-linecap="round" stroke-linejoin="round"/>
<path d="M100.302 320.581C100.302 320.581 101.03 324.022 101.751 324.389C102.473 324.756 105.921 325.472 106.281 326.38C106.642 327.288 103.021 328.913 100.663 329.28C98.3043 329.647 94.1412 328.732 93.5998 328.371C93.0583 328.01 91.795 326.2 90.1586 325.652C88.5223 325.105 86.549 324.389 86.898 322.211C87.2469 320.033 89.2502 316.051 89.2502 316.051C91.6813 315.307 94.2879 315.37 96.68 316.231C100.663 317.681 100.302 320.581 100.302 320.581Z" fill="#33B55B" stroke="#263238" stroke-width="0.8" stroke-linecap="round" stroke-linejoin="round"/>
<path d="M100.662 329.28C103.02 328.913 106.642 327.283 106.281 326.38C106.243 326.297 106.19 326.222 106.125 326.158C104.362 326.759 102.196 327.09 100.205 325.989C97.7625 324.63 96.9443 321.64 93.6837 320.575C91.7886 319.943 89.2499 320.051 87.4571 320.244C87.215 320.891 87.0278 321.557 86.8976 322.235C86.5306 324.413 88.5279 325.135 90.1583 325.676C91.7886 326.218 93.058 328.035 93.5994 328.396C94.1409 328.756 98.31 329.641 100.662 329.28Z" fill="white" stroke="#263238" stroke-width="0.8" stroke-linecap="round" stroke-linejoin="round"/>
<path d="M99.5793 327.986C97.582 327.078 95.7711 324.726 92.8714 322.915C90.2244 321.255 87.457 323.077 86.9697 323.402C87.3848 324.666 88.8768 325.207 90.1582 325.628C91.7885 326.176 93.0579 327.986 93.5994 328.347C94.1408 328.708 98.3099 329.617 100.662 329.256C101.142 329.177 101.616 329.068 102.082 328.931C101.23 328.664 100.395 328.348 99.5793 327.986Z" fill="#263238" stroke="#263238" stroke-width="0.8" stroke-linecap="round" stroke-linejoin="round"/>
<path d="M154.138 188.199L150.89 190.473C150.89 190.473 146.679 187.657 143.737 187.116C140.795 186.574 139.297 186.466 139.297 186.466L141.571 182.453C143.234 181.255 144.513 179.6 145.253 177.689C146.227 174.765 147.202 173.574 149.374 174.681C151.545 175.788 152.382 180.095 152.382 182.802C152.382 185.509 154.138 188.199 154.138 188.199Z" fill="white" stroke="#263238" stroke-width="0.8" stroke-linecap="round" stroke-linejoin="round"/>
<path d="M155.979 168.262C155.979 168.262 157.82 170.969 158.036 171.949C158.253 172.93 157.278 174.873 157.278 174.873C157.278 174.873 159.45 178.014 159.559 178.772C159.667 179.53 158.253 180.937 158.253 180.937C158.253 180.937 158.578 184.084 159.017 184.842C159.456 185.6 159.883 186.683 159.342 187.657C158.8 188.632 158.036 189.282 155.732 189.606C153.428 189.931 151.617 188.848 151.184 186.598C150.751 184.348 150.751 179.445 150.426 178.778C150.101 178.11 148.585 176.612 147.827 177.803C147.069 178.994 147.611 180.209 148.152 181.268C148.484 181.922 149.015 182.453 149.668 182.784L147.262 183.987C145.822 184.61 144.206 184.687 142.714 184.204C142.182 184.002 141.695 183.696 141.282 183.305C140.869 182.914 140.538 182.444 140.307 181.924C140.199 181.599 139.104 178.916 138.791 178.35C138.478 177.785 136.186 174.56 136.078 170.764C135.97 166.968 140.524 162.643 146.371 161.451C152.219 160.26 154.932 162.859 156.232 162.968C157.531 163.076 156.232 161.885 157.315 162.643C158.397 163.401 158.686 167.612 155.979 168.262Z" fill="white" stroke="#263238" stroke-width="0.8" stroke-linecap="round" stroke-linejoin="round"/>
<path d="M158.252 180.937C158.252 180.937 158.373 180.817 158.541 180.63C158.102 180.691 156.785 180.871 155.978 181.046C155.004 181.262 154.571 184.192 153.704 183.452C152.838 182.712 152.405 176.299 152.188 175.974C151.972 175.649 152.934 174.578 152.934 174.578C152.934 174.578 154.45 172.521 154.45 171.649C154.45 170.776 152.934 169.808 153.476 169.591C154.017 169.374 155.966 168.292 155.966 168.292C158.674 167.642 158.457 163.419 157.374 162.661C156.291 161.903 157.591 163.094 156.291 162.985C154.992 162.877 152.285 160.272 146.431 161.469C140.577 162.667 136.029 166.992 136.138 170.782C136.246 174.572 138.544 177.827 138.851 178.368C139.158 178.91 140.259 181.617 140.367 181.942C140.597 182.462 140.929 182.932 141.342 183.323C141.755 183.714 142.241 184.02 142.773 184.222C144.265 184.705 145.882 184.628 147.321 184.005L149.728 182.802C149.074 182.471 148.543 181.94 148.212 181.286C147.67 180.203 147.123 179.012 147.887 177.821C148.651 176.63 150.161 178.146 150.486 178.796C150.811 179.445 150.811 184.324 151.244 186.616C151.677 188.908 153.518 189.973 155.792 189.624C158.066 189.275 158.8 188.65 159.402 187.675C160.003 186.701 159.51 185.618 159.077 184.86C158.643 184.102 158.252 180.937 158.252 180.937Z" fill="#263238" stroke="#263238" stroke-width="0.8" stroke-linecap="round" stroke-linejoin="round"/>
<path d="M157.712 172.924C157.42 172.922 157.133 173.002 156.884 173.155C156.635 173.308 156.434 173.528 156.305 173.79" stroke="#263238" stroke-width="0.8" stroke-linecap="round" stroke-linejoin="round"/>
<path d="M156.845 176.606C157.084 176.606 157.278 176.072 157.278 175.415C157.278 174.757 157.084 174.223 156.845 174.223C156.606 174.223 156.412 174.757 156.412 175.415C156.412 176.072 156.606 176.606 156.845 176.606Z" fill="#263238"/>
<path d="M158.469 183.651C158.469 183.651 156.628 184.3 155.87 182.995" stroke="white" stroke-width="0.8" stroke-linecap="round" stroke-linejoin="round"/>
<path d="M137.895 187.007C142.876 187.007 152.303 191.122 152.303 191.122L152.664 191.273C152.568 190.786 152.362 190.327 152.062 189.931C151.738 189.715 150.005 187.224 146.75 185.925C144.619 185.043 142.342 184.566 140.037 184.517C139.272 184.517 137.089 186.526 136.571 187.007H137.895Z" fill="#33B55B" stroke="#263238" stroke-width="0.8" stroke-linecap="round" stroke-linejoin="round"/>
</svg>
