<svg width="60" height="60" viewBox="0 0 60 60" fill="none" xmlns="http://www.w3.org/2000/svg">
<path d="M15.3688 0H35.4443L52.4381 17.7299V52.1947C52.4381 56.5058 48.9439 60 44.6328 60H15.3688C11.0576 60 7.56348 56.5058 7.56348 52.1947V7.80531C7.56348 3.49423 11.0576 0 15.3688 0Z" fill="#33B55B"/>
<path opacity="0.302" fill-rule="evenodd" clip-rule="evenodd" d="M35.4199 0V17.5842H52.438L35.4199 0Z" fill="white"/>
<path d="M14.8105 42.812V32.8794H18.329C19.0327 32.8794 19.6879 32.9845 20.2946 33.1787C20.9012 33.3809 21.4512 33.672 21.9446 34.0603C22.438 34.4486 22.8263 34.9663 23.1094 35.6133C23.3924 36.2603 23.5381 37.0045 23.5381 37.8457C23.5381 38.6869 23.3924 39.431 23.1094 40.078C22.8263 40.7251 22.438 41.2428 21.9446 41.631C21.4513 42.0192 20.9012 42.3104 20.2946 42.5127C19.6879 42.7068 19.0328 42.812 18.329 42.812H14.8105ZM17.2937 40.6524H18.0297C18.4261 40.6524 18.7981 40.6039 19.1297 40.5149C19.4694 40.4178 19.7768 40.2642 20.068 40.0619C20.3591 39.8596 20.5856 39.5685 20.7474 39.1883C20.9173 38.8163 20.9981 38.3633 20.9981 37.8457C20.9981 37.328 20.9172 36.8751 20.7474 36.4949C20.5856 36.1228 20.3591 35.8316 20.068 35.6294C19.7768 35.4192 19.4694 35.2736 19.1297 35.1765C18.7981 35.0875 18.4261 35.039 18.0297 35.039H17.2937V40.6524ZM29.5639 42.9252C28.0676 42.9252 26.83 42.4399 25.8513 41.4774C24.8726 40.5149 24.3873 39.3016 24.3873 37.8458C24.3873 36.3898 24.8726 35.1766 25.8513 34.2141C26.83 33.2515 28.0676 32.7663 29.5639 32.7663C31.036 32.7663 32.2573 33.2516 33.2361 34.2141C34.2066 35.1766 34.692 36.3899 34.692 37.8458C34.692 39.3016 34.2066 40.5149 33.2361 41.4774C32.2573 42.4399 31.036 42.9252 29.5639 42.9252ZM27.655 39.9406C28.1484 40.4906 28.7793 40.7656 29.5477 40.7656C30.3161 40.7656 30.9389 40.4906 31.4323 39.9406C31.9257 39.3825 32.1683 38.6869 32.1683 37.8457C32.1683 37.0045 31.9257 36.3089 31.4323 35.7507C30.9389 35.2007 30.3161 34.9257 29.5477 34.9257C28.7793 34.9257 28.1484 35.2007 27.655 35.7507C27.1616 36.3089 26.9109 37.0045 26.9109 37.8457C26.9109 38.6869 27.1616 39.3825 27.655 39.9406ZM40.5965 42.9252C39.1487 42.9252 37.9435 42.4723 36.9891 41.5826C36.0265 40.6848 35.5494 39.4391 35.5494 37.8457C35.5494 36.2603 36.0347 35.0147 37.0053 34.1169C37.984 33.2191 39.173 32.7661 40.5966 32.7661C41.8826 32.7661 42.9341 33.0816 43.7672 33.7206C44.5923 34.3514 45.0695 35.1926 45.1908 36.2441L42.6834 36.7537C42.5782 36.2037 42.3275 35.7589 41.9392 35.4272C41.551 35.0955 41.0981 34.9257 40.5804 34.9257C39.8686 34.9257 39.2781 35.1765 38.8009 35.686C38.3236 36.2036 38.081 36.9154 38.081 37.8456C38.081 38.7758 38.3236 39.4876 38.7928 39.9972C39.27 40.5148 39.8605 40.7656 40.5803 40.7656C41.0979 40.7656 41.5428 40.62 41.9068 40.3288C42.2708 40.0376 42.4973 39.6494 42.5943 39.1641L45.1584 39.7465C44.9238 40.7494 44.4061 41.5259 43.5973 42.084C42.7966 42.6422 41.7936 42.9252 40.5965 42.9252Z" fill="white"/>
</svg>
