<svg width="24" height="24" viewBox="0 0 24 24" fill="none" xmlns="http://www.w3.org/2000/svg">
<path d="M21.45 5.53603L17.965 2.05103C17.3166 1.39867 16.5453 0.881475 15.6956 0.529408C14.8459 0.177341 13.9347 -0.00259426 13.015 2.8259e-05H8.5C7.39463 -7.21352e-05 6.32038 0.366122 5.44522 1.04135C4.57006 1.71659 3.94332 2.66279 3.663 3.73203C3.60477 3.98544 3.64754 4.25157 3.78223 4.47398C3.91692 4.69639 4.13294 4.8576 4.38449 4.92341C4.63604 4.98922 4.90333 4.95447 5.12969 4.82652C5.35604 4.69857 5.52366 4.48749 5.597 4.23803C5.76576 3.59675 6.1421 3.02939 6.66727 2.62452C7.19244 2.21965 7.83689 2.00006 8.5 2.00003H13.015C13.18 2.00003 13.338 2.03203 13.5 2.04703V7.00003C13.5 8.65403 14.846 10 16.5 10H21.451C21.467 10.162 21.5 10.322 21.5 10.485V19C21.5 20.654 20.154 22 18.5 22H8.5C7.81 22 7.162 21.772 6.625 21.343C6.41759 21.183 6.15566 21.1107 5.89553 21.1418C5.6354 21.1728 5.39785 21.3047 5.23395 21.5091C5.07006 21.7135 4.99291 21.974 5.0191 22.2347C5.04529 22.4954 5.17272 22.7353 5.374 22.903C6.26134 23.6121 7.36315 23.9989 8.499 24H18.499C21.256 24 23.499 21.757 23.499 19V10.485C23.5015 9.56555 23.3215 8.65471 22.9697 7.80522C22.6178 6.95573 22.1009 6.18445 21.449 5.53603H21.45ZM16.5 8.00003C15.949 8.00003 15.5 7.55203 15.5 7.00003V2.68303C15.876 2.90003 16.235 3.14903 16.55 3.46403L20.035 6.94903C20.346 7.26003 20.594 7.62103 20.811 7.99903H16.499L16.5 8.00003ZM9.5 15.985H17.5C17.7652 15.985 18.0196 16.0904 18.2071 16.2779C18.3946 16.4655 18.5 16.7198 18.5 16.985C18.5 17.2502 18.3946 17.5046 18.2071 17.6921C18.0196 17.8797 17.7652 17.985 17.5 17.985H9.5C9.23478 17.985 8.98043 17.8797 8.79289 17.6921C8.60536 17.5046 8.5 17.2502 8.5 16.985C8.5 16.7198 8.60536 16.4655 8.79289 16.2779C8.98043 16.0904 9.23478 15.985 9.5 15.985ZM6.5 18.832V14.082C7.407 13.348 8 12.24 8 10.985C8 8.77903 6.206 6.98503 4 6.98503C1.794 6.98503 0 8.77903 0 10.985C0 12.24 0.593 13.348 1.5 14.082V18.832C1.5 19.455 2.291 19.722 2.669 19.227L4 17.484L5.331 19.227C5.709 19.722 6.5 19.455 6.5 18.832ZM4 8.98503C5.103 8.98503 6 9.88203 6 10.985C6 12.088 5.103 12.985 4 12.985C2.897 12.985 2 12.088 2 10.985C2 9.88203 2.897 8.98503 4 8.98503ZM10.5 13.985C10.2348 13.985 9.98043 13.8797 9.79289 13.6921C9.60536 13.5046 9.5 13.2502 9.5 12.985C9.5 12.7198 9.60536 12.4655 9.79289 12.2779C9.98043 12.0904 10.2348 11.985 10.5 11.985H17.5C17.7652 11.985 18.0196 12.0904 18.2071 12.2779C18.3946 12.4655 18.5 12.7198 18.5 12.985C18.5 13.2502 18.3946 13.5046 18.2071 13.6921C18.0196 13.8797 17.7652 13.985 17.5 13.985H10.5Z" fill="#1C1C1C"/>
</svg>
