<svg width="18" height="18" viewBox="0 0 18 18" fill="none" xmlns="http://www.w3.org/2000/svg">
<g clip-path="url(#clip0_1693_2156)">
<path d="M12.75 10.5C12.75 10.6989 12.671 10.8897 12.5303 11.0303C12.3897 11.171 12.1989 11.25 12 11.25H6C5.80109 11.25 5.61032 11.171 5.46967 11.0303C5.32902 10.8897 5.25 10.6989 5.25 10.5C5.25 10.3011 5.32902 10.1103 5.46967 9.96966C5.61032 9.829 5.80109 9.74999 6 9.74999H12C12.1989 9.74999 12.3897 9.829 12.5303 9.96966C12.671 10.1103 12.75 10.3011 12.75 10.5ZM9.75 12.75H6C5.80109 12.75 5.61032 12.829 5.46967 12.9697C5.32902 13.1103 5.25 13.3011 5.25 13.5C5.25 13.6989 5.32902 13.8897 5.46967 14.0303C5.61032 14.171 5.80109 14.25 6 14.25H9.75C9.94891 14.25 10.1397 14.171 10.2803 14.0303C10.421 13.8897 10.5 13.6989 10.5 13.5C10.5 13.3011 10.421 13.1103 10.2803 12.9697C10.1397 12.829 9.94891 12.75 9.75 12.75ZM16.5 7.86374V14.25C16.4988 15.2442 16.1033 16.1973 15.4003 16.9003C14.6973 17.6033 13.7442 17.9988 12.75 18H5.25C4.2558 17.9988 3.30267 17.6033 2.59966 16.9003C1.89666 16.1973 1.50119 15.2442 1.5 14.25V3.74999C1.50119 2.75579 1.89666 1.80266 2.59966 1.09965C3.30267 0.396648 4.2558 0.00117766 5.25 -1.32311e-05H8.63625C9.32596 -0.00178843 10.0092 0.133178 10.6464 0.397081C11.2836 0.660985 11.8622 1.04859 12.3488 1.53749L14.9618 4.15199C15.4509 4.63817 15.8388 5.21658 16.1028 5.85372C16.3669 6.49086 16.5019 7.17405 16.5 7.86374ZM11.2882 2.59799C11.0522 2.36936 10.7872 2.17268 10.5 2.01299V5.24999C10.5 5.4489 10.579 5.63966 10.7197 5.78032C10.8603 5.92097 11.0511 5.99999 11.25 5.99999H14.487C14.3272 5.71288 14.1303 5.4481 13.9012 5.21249L11.2882 2.59799ZM15 7.86374C15 7.73999 14.976 7.62149 14.9647 7.49999H11.25C10.6533 7.49999 10.081 7.26293 9.65901 6.84098C9.23705 6.41902 9 5.84672 9 5.24999V1.53524C8.8785 1.52399 8.75925 1.49999 8.63625 1.49999H5.25C4.65326 1.49999 4.08097 1.73704 3.65901 2.159C3.23705 2.58095 3 3.15325 3 3.74999V14.25C3 14.8467 3.23705 15.419 3.65901 15.841C4.08097 16.2629 4.65326 16.5 5.25 16.5H12.75C13.3467 16.5 13.919 16.2629 14.341 15.841C14.7629 15.419 15 14.8467 15 14.25V7.86374Z" fill="#1C1C1C"/>
</g>
<defs>
<clipPath id="clip0_1693_2156">
<rect width="18" height="18" fill="white"/>
</clipPath>
</defs>
</svg>
