<svg width="376" height="376" viewBox="0 0 376 376" fill="none" xmlns="http://www.w3.org/2000/svg">
<path d="M239.599 83.3945C217.941 80.0557 195.592 83.6953 178.891 97.2313C162.648 110.4 155.279 132.443 138.338 144.686C112.174 163.63 75.0132 157.337 59.8348 191.346C54.4204 203.486 53.0247 217.052 53.2172 230.341C53.4398 246.988 56.153 263.832 63.3421 278.842C70.5312 293.852 82.5031 306.949 97.8198 313.458C120.428 323.084 146.628 317.327 169.32 307.936C178.681 304.067 188.078 299.513 198.197 298.996C210.939 298.328 223.001 304.073 235.105 308.11C249.628 312.965 265.714 315.408 280.135 310.246C291.421 306.209 300.697 297.841 308.139 288.444C321.435 271.586 329.61 251.265 331.692 229.896C337.461 169.351 306.22 93.6518 239.599 83.3945Z" fill="#33B55B"/>
<path opacity="0.6" d="M239.599 83.3945C217.941 80.0557 195.592 83.6953 178.891 97.2313C162.648 110.4 155.279 132.443 138.338 144.686C112.174 163.63 75.0132 157.337 59.8348 191.346C54.4204 203.486 53.0247 217.052 53.2172 230.341C53.4398 246.988 56.153 263.832 63.3421 278.842C70.5312 293.852 82.5031 306.949 97.8198 313.458C120.428 323.084 146.628 317.327 169.32 307.936C178.681 304.067 188.078 299.513 198.197 298.996C210.939 298.328 223.001 304.073 235.105 308.11C249.628 312.965 265.714 315.408 280.135 310.246C291.421 306.209 300.697 297.841 308.139 288.444C321.435 271.586 329.61 251.265 331.692 229.896C337.461 169.351 306.22 93.6518 239.599 83.3945Z" fill="white"/>
<path d="M208.46 178.472C205.055 179.723 196.951 179.073 196.945 179.073C196.939 179.073 199.009 173.863 199.183 173.55C201.187 169.941 207.191 164.123 211.733 165.02C215.011 165.663 216.648 169.081 215.715 172.143C214.783 175.205 211.36 177.407 208.46 178.472Z" fill="#33B55B"/>
<path d="M103.817 144.439C108.444 144.222 113.527 150.852 114.983 154.72C115.103 155.057 116.469 160.52 116.385 160.514H116.283C117.095 161.554 117.955 162.679 118.863 163.931C120.53 166.247 122.389 168.882 124.218 171.884C126.229 175.097 128.049 178.425 129.668 181.852C131.503 185.679 132.993 189.661 134.12 193.752L134.156 193.902C134.21 192.549 134.499 188.765 134.553 188.488C135.335 184.427 139.222 177.058 143.818 176.456C147.133 176.047 149.75 178.778 149.834 181.979C149.918 185.179 147.349 188.362 144.925 190.281C142.193 192.441 134.854 194.245 134.27 194.39C135.316 198.581 136.079 202.838 136.556 207.132C136.851 209.634 137.068 212.161 137.248 214.7C137.339 213.497 137.423 212.48 137.453 212.336C138.229 208.275 142.121 200.905 146.718 200.304C150.032 199.894 152.649 202.632 152.734 205.832C152.818 209.033 150.249 212.209 147.83 214.128C145.412 216.047 139.149 217.738 137.495 218.159C137.555 219.134 137.627 220.102 137.681 221.077C137.958 225.751 138.211 230.42 138.602 234.986C138.74 236.592 138.933 238.174 139.119 239.756C139.198 238.716 139.276 237.843 139.3 237.711C140.076 233.65 143.968 226.281 148.564 225.679C151.873 225.27 154.496 228.001 154.58 231.202C154.665 234.402 152.096 237.585 149.671 239.504C147.247 241.423 141.598 242.951 139.637 243.456C139.877 245.069 140.118 246.687 140.425 248.239C140.653 249.298 140.81 250.327 141.099 251.379C141.387 252.432 141.634 253.455 141.899 254.478C142.5 256.427 143.066 258.442 143.673 260.331C144.095 261.649 144.516 262.894 144.937 264.151C144.78 262.551 144.546 259.411 144.552 259.146C144.824 255.518 146.019 252.021 148.023 248.985C148.037 248.58 148.087 248.178 148.173 247.782C148.871 244.653 151.975 242.488 155.146 243.541C159.544 245.002 161.902 253.016 161.866 257.149C161.866 257.395 161.541 260.036 161.312 261.703C161.601 260.746 161.86 259.814 162.167 258.827C162.768 256.878 163.37 254.953 164.08 252.877L165.193 249.869C165.542 248.859 166.035 247.842 166.462 246.813C167.491 244.449 168.646 242.103 169.867 239.768C168.159 239.251 162.137 237.32 159.79 235.287C157.444 233.253 155.05 230.035 155.266 226.774C155.483 223.513 158.226 220.968 161.517 221.528C166.083 222.304 169.632 229.866 170.222 233.957C170.258 234.216 170.348 237.2 170.372 238.842C171.112 237.44 171.846 236.045 172.646 234.631C174.951 230.612 177.405 226.624 179.866 222.629C180.612 221.426 181.34 220.18 182.074 218.959C181.472 218.779 174.253 216.643 171.63 214.363C169.296 212.336 166.883 209.111 167.106 205.85C167.328 202.59 170.06 200.045 173.35 200.604C177.916 201.38 181.466 208.942 182.055 213.033C182.104 213.346 182.23 217.642 182.206 218.731C183.824 216.035 185.406 213.316 186.862 210.597C188.847 206.92 190.589 203.118 192.078 199.215C191.795 199.13 184.257 196.935 181.568 194.6C179.234 192.579 176.828 189.348 177.044 186.088C177.261 182.827 180.004 180.282 183.295 180.842C187.861 181.618 191.404 189.18 192 193.277C192.042 193.596 192.18 198.216 192.144 199.058C192.229 198.83 192.343 198.607 192.427 198.378C193.811 194.423 194.842 190.352 195.507 186.214C195.904 183.934 196.151 181.732 196.35 179.596C194.906 179.332 188.312 178.044 185.659 176.209C183.114 174.453 180.365 171.511 180.245 168.244C180.124 164.978 182.549 162.15 185.876 162.343C190.502 162.613 194.858 169.742 195.892 173.773C195.952 173.99 196.277 176.264 196.494 177.93C196.566 176.955 196.662 175.957 196.716 175.024C196.921 171.529 196.891 168.316 196.843 165.465C196.801 163.847 196.735 162.385 196.656 161.019C195.375 160.014 190.255 155.917 188.769 153.126C187.283 150.335 186.243 146.508 187.62 143.549C188.998 140.589 192.475 139.205 195.339 140.908C199.321 143.314 199.905 151.616 198.979 155.647C198.894 155.996 197.023 161.296 196.951 161.248L196.873 161.187C196.975 162.499 197.071 163.913 197.144 165.459C197.252 168.31 197.354 171.529 197.222 175.042C197.124 178.832 196.807 182.612 196.271 186.364C195.688 190.57 194.732 194.715 193.414 198.751C193.399 198.799 193.381 198.845 193.36 198.89C194.154 197.795 196.488 194.793 196.692 194.582C199.58 191.628 206.92 187.604 211.047 189.667C214.055 191.159 214.716 194.883 213.002 197.59C211.287 200.297 207.413 201.543 204.333 201.801C200.862 202.096 193.745 199.558 193.179 199.353C191.712 203.431 189.973 207.407 187.975 211.253C186.844 213.497 185.629 215.723 184.366 217.942C185.082 217.016 185.737 216.192 185.84 216.083C188.727 213.124 196.067 209.105 200.194 211.168C203.202 212.654 203.857 216.378 202.155 219.091C200.452 221.805 196.56 223.044 193.48 223.303C190.4 223.561 184.245 221.528 182.651 220.962C182.164 221.811 181.689 222.659 181.195 223.507C178.849 227.556 176.485 231.587 174.289 235.611C173.519 237.025 172.809 238.451 172.087 239.877C172.731 239.053 173.29 238.367 173.368 238.264C176.256 235.311 183.596 231.286 187.729 233.349C190.737 234.841 191.392 238.565 189.684 241.272C187.975 243.98 184.089 245.225 181.015 245.484C178.007 245.736 172.376 243.901 170.457 243.246C169.771 244.726 169.079 246.206 168.477 247.667C168.086 248.678 167.641 249.623 167.31 250.675C166.979 251.728 166.612 252.703 166.27 253.683C165.668 255.633 165.066 257.636 164.519 259.549C164.14 260.879 163.803 262.154 163.46 263.435C164.212 262.01 165.752 259.26 165.903 259.05C168.309 255.687 174.927 250.627 179.354 252.011C182.531 253.034 183.764 256.607 182.483 259.543C181.201 262.479 177.556 264.302 174.554 265.024C171.245 265.818 164.11 264.482 163.219 264.308C162.66 266.431 162.137 268.519 161.673 270.456C161.571 270.877 161.487 271.256 161.391 271.659H158.497C158.653 271.058 158.81 270.42 158.978 269.782C159.538 267.623 160.181 265.33 160.861 262.984C158.751 261.983 156.701 260.862 154.719 259.627C152.198 262.034 145.953 264.681 145.147 265.042C145.851 267.117 146.555 269.133 147.247 271.022L147.494 271.683H144.6C143.902 269.644 143.204 267.472 142.506 265.228C141.622 265.355 134.421 266.371 131.148 265.427C128.182 264.566 124.639 262.641 123.472 259.585C122.305 256.529 123.73 253.076 126.949 252.21C131.419 251.006 137.808 256.379 140.064 259.85C140.196 260.054 141.387 262.437 142.115 263.953C141.82 262.996 141.514 262.07 141.237 261.083C140.635 259.134 140.13 257.173 139.558 255.067C139.312 254.038 139.071 252.998 138.825 251.951C138.578 250.904 138.409 249.791 138.193 248.696C137.748 246.157 137.423 243.565 137.146 240.948C135.444 241.453 129.325 243.168 126.275 242.752C123.225 242.337 119.423 240.99 117.805 238.144C116.186 235.299 117.071 231.671 120.121 230.323C124.332 228.452 131.491 232.802 134.24 235.894C134.415 236.087 136.135 238.523 137.056 239.883C136.905 238.307 136.749 236.73 136.647 235.13C136.352 230.516 136.202 225.829 136.045 221.155C135.997 219.723 135.925 218.297 135.865 216.872C135.263 217.058 128.044 219.278 124.615 218.803C121.553 218.406 117.763 217.04 116.144 214.194C114.526 211.349 115.41 207.721 118.46 206.374C122.702 204.503 129.831 208.852 132.58 211.944C132.79 212.179 135.263 215.686 135.853 216.613C135.708 213.467 135.54 210.338 135.251 207.258C134.879 203.097 134.234 198.965 133.32 194.889C133.043 194.979 125.541 197.296 122.01 196.838C118.948 196.435 115.158 195.076 113.545 192.23C111.933 189.384 112.805 185.757 115.861 184.409C120.073 182.538 127.226 186.888 129.981 189.98C130.192 190.221 132.857 193.999 133.29 194.721C133.236 194.486 133.206 194.233 133.145 193.999C132.122 189.935 130.737 185.97 129.006 182.153C128.08 180.036 127.075 178.056 126.053 176.137C124.699 176.739 118.49 179.284 115.272 179.217C112.18 179.151 108.263 178.213 106.344 175.566C104.425 172.919 104.906 169.213 107.788 167.54C111.795 165.212 119.363 168.744 122.437 171.523C122.599 171.673 124.133 173.394 125.228 174.657C124.753 173.809 124.278 172.925 123.809 172.119C122.052 169.111 120.253 166.421 118.647 164.075C117.72 162.746 116.842 161.566 116.03 160.466C114.412 160.339 107.884 159.744 105.099 158.234C102.313 156.724 99.3475 154.113 98.8602 150.882C98.3729 147.651 100.485 144.577 103.817 144.439Z" fill="#33B55B"/>
<path d="M126.269 175.307C126.197 175.349 125.12 169.826 125.066 169.472C124.741 165.345 126.546 157.187 130.829 155.43C133.915 154.161 137.164 156.104 138.048 159.172C138.933 162.24 137.338 165.988 135.51 168.473C133.404 171.397 126.275 175.301 126.269 175.307Z" fill="#33B55B"/>
<path d="M123.706 261.601C123.706 261.601 105.466 261.372 101.2 254.55H53.5537C53.5537 254.55 57.428 261.54 63.444 261.601H123.706Z" fill="white" stroke="#263238" stroke-width="0.8" stroke-miterlimit="10"/>
<path d="M99.8172 256.8H61.002C61.002 256.8 61.7239 258.376 59.7446 259.242C60.9923 260.395 62.5583 261.146 64.2386 261.396H113.654C113.654 261.396 107.361 260.794 103.95 258.809C103.95 258.809 99.9977 259.387 99.8172 256.8Z" fill="white" stroke="#263238" stroke-width="0.8" stroke-miterlimit="10"/>
<path d="M116.511 316.136H226.015V302.588H116.511V316.136Z" fill="#263238" stroke="#263238" stroke-width="0.8" stroke-miterlimit="10"/>
<path d="M56.2492 316.136H165.752V302.588H56.2492V316.136Z" fill="white" stroke="#263238" stroke-width="0.8" stroke-miterlimit="10"/>
<path d="M164.994 306.203H138.253" stroke="#263238" stroke-width="0.8" stroke-miterlimit="10"/>
<path d="M159.718 309.217H120.927" stroke="#263238" stroke-width="0.8" stroke-miterlimit="10"/>
<path d="M144.275 311.924H151.055" stroke="#263238" stroke-width="0.8" stroke-miterlimit="10"/>
<path d="M153.696 311.924H164.615" stroke="#263238" stroke-width="0.8" stroke-miterlimit="10"/>
<path d="M56.8931 311.323H91.1662" stroke="#263238" stroke-width="0.8" stroke-miterlimit="10"/>
<path d="M59.9067 309.518H64.4248" stroke="#263238" stroke-width="0.8" stroke-miterlimit="10"/>
<path d="M85.5167 309.217H70.4526" stroke="#263238" stroke-width="0.8" stroke-miterlimit="10"/>
<path d="M56.8931 305.602H70.0741" stroke="#263238" stroke-width="0.8" stroke-miterlimit="10"/>
<path d="M224.505 308.309H217.725" stroke="#8A8A8A" stroke-width="0.8" stroke-miterlimit="10"/>
<path d="M226.015 311.323H204.923" stroke="#8A8A8A" stroke-width="0.8" stroke-miterlimit="10"/>
<path d="M166.877 313.128H177.05" stroke="#8A8A8A" stroke-width="0.8" stroke-miterlimit="10"/>
<path d="M165.747 308.309H193.246" stroke="#8A8A8A" stroke-width="0.8" stroke-miterlimit="10"/>
<path d="M216.973 304.398H201.157" stroke="#8A8A8A" stroke-width="0.8" stroke-miterlimit="10"/>
<path d="M106.23 315.835H119.038V302.588H106.23V315.835Z" fill="white" stroke="#263238" stroke-width="0.8" stroke-miterlimit="10"/>
<path d="M115.104 302.479H224.607V288.931H115.104V302.479Z" fill="#263238" stroke="#263238" stroke-width="0.8" stroke-miterlimit="10"/>
<path d="M54.8415 302.479H164.345V288.931H54.8415V302.479Z" fill="white" stroke="#263238" stroke-width="0.8" stroke-miterlimit="10"/>
<path d="M163.586 292.541H136.845" stroke="#263238" stroke-width="0.8" stroke-miterlimit="10"/>
<path d="M158.317 295.549H119.52" stroke="#263238" stroke-width="0.8" stroke-miterlimit="10"/>
<path d="M142.874 298.262H149.654" stroke="#263238" stroke-width="0.8" stroke-miterlimit="10"/>
<path d="M152.289 298.262H163.214" stroke="#263238" stroke-width="0.8" stroke-miterlimit="10"/>
<path d="M55.4854 297.66H89.7645" stroke="#263238" stroke-width="0.8" stroke-miterlimit="10"/>
<path d="M58.4995 295.85H63.0175" stroke="#263238" stroke-width="0.8" stroke-miterlimit="10"/>
<path d="M84.115 295.549H69.0449" stroke="#263238" stroke-width="0.8" stroke-miterlimit="10"/>
<path d="M55.4854 291.939H68.6724" stroke="#263238" stroke-width="0.8" stroke-miterlimit="10"/>
<path d="M223.103 294.646H216.323" stroke="#8A8A8A" stroke-width="0.8" stroke-miterlimit="10"/>
<path d="M224.607 297.66H203.515" stroke="#8A8A8A" stroke-width="0.8" stroke-miterlimit="10"/>
<path d="M165.476 299.465H175.643" stroke="#8A8A8A" stroke-width="0.8" stroke-miterlimit="10"/>
<path d="M164.345 294.646H191.838" stroke="#8A8A8A" stroke-width="0.8" stroke-miterlimit="10"/>
<path d="M215.571 290.736H199.749" stroke="#8A8A8A" stroke-width="0.8" stroke-miterlimit="10"/>
<path d="M104.828 302.178H117.636V288.931H104.828V302.178Z" fill="white" stroke="#263238" stroke-width="0.8" stroke-miterlimit="10"/>
<path d="M119.555 288.817H229.059V275.269H119.555V288.817Z" fill="#263238" stroke="#263238" stroke-width="0.8" stroke-miterlimit="10"/>
<path d="M59.2932 288.817H168.796V275.269H59.2932V288.817Z" fill="white" stroke="#263238" stroke-width="0.8" stroke-miterlimit="10"/>
<path d="M168.038 278.879H141.297" stroke="#263238" stroke-width="0.8" stroke-miterlimit="10"/>
<path d="M162.762 281.886H123.971" stroke="#263238" stroke-width="0.8" stroke-miterlimit="10"/>
<path d="M147.319 284.6H154.099" stroke="#263238" stroke-width="0.8" stroke-miterlimit="10"/>
<path d="M156.74 284.6H167.659" stroke="#263238" stroke-width="0.8" stroke-miterlimit="10"/>
<path d="M59.937 283.998H94.2102" stroke="#263238" stroke-width="0.8" stroke-miterlimit="10"/>
<path d="M62.9507 282.187H67.4687" stroke="#263238" stroke-width="0.8" stroke-miterlimit="10"/>
<path d="M88.5611 281.886H73.4971" stroke="#263238" stroke-width="0.8" stroke-miterlimit="10"/>
<path d="M59.937 278.277H73.1181" stroke="#263238" stroke-width="0.8" stroke-miterlimit="10"/>
<path d="M227.549 280.984H220.769" stroke="#8A8A8A" stroke-width="0.8" stroke-miterlimit="10"/>
<path d="M229.059 283.998H207.967" stroke="#8A8A8A" stroke-width="0.8" stroke-miterlimit="10"/>
<path d="M169.921 285.803H180.094" stroke="#8A8A8A" stroke-width="0.8" stroke-miterlimit="10"/>
<path d="M168.791 280.984H196.29" stroke="#8A8A8A" stroke-width="0.8" stroke-miterlimit="10"/>
<path d="M220.017 277.074H204.201" stroke="#8A8A8A" stroke-width="0.8" stroke-miterlimit="10"/>
<path d="M109.274 288.516H122.082V275.269H109.274V288.516Z" fill="white" stroke="#263238" stroke-width="0.8" stroke-miterlimit="10"/>
<path d="M116.156 275.149H225.66V261.601H116.156V275.149Z" fill="#263238" stroke="#263238" stroke-width="0.8" stroke-miterlimit="10"/>
<path d="M55.8942 275.149H165.397V261.601H55.8942V275.149Z" fill="white" stroke="#263238" stroke-width="0.8" stroke-miterlimit="10"/>
<path d="M164.646 265.216H137.898" stroke="#263238" stroke-width="0.8" stroke-miterlimit="10"/>
<path d="M159.369 268.224H120.572" stroke="#263238" stroke-width="0.8" stroke-miterlimit="10"/>
<path d="M143.926 270.931H150.706" stroke="#263238" stroke-width="0.8" stroke-miterlimit="10"/>
<path d="M153.341 270.931H164.266" stroke="#263238" stroke-width="0.8" stroke-miterlimit="10"/>
<path d="M56.5381 270.33H90.8173" stroke="#263238" stroke-width="0.8" stroke-miterlimit="10"/>
<path d="M59.5522 268.525H64.0763" stroke="#263238" stroke-width="0.8" stroke-miterlimit="10"/>
<path d="M85.1682 268.224H70.0981" stroke="#263238" stroke-width="0.8" stroke-miterlimit="10"/>
<path d="M56.5381 264.615H69.7252" stroke="#263238" stroke-width="0.8" stroke-miterlimit="10"/>
<path d="M224.156 267.322H217.376" stroke="#8A8A8A" stroke-width="0.8" stroke-miterlimit="10"/>
<path d="M225.659 270.33H204.567" stroke="#8A8A8A" stroke-width="0.8" stroke-miterlimit="10"/>
<path d="M166.529 272.141H176.696" stroke="#8A8A8A" stroke-width="0.8" stroke-miterlimit="10"/>
<path d="M165.397 267.322H192.891" stroke="#8A8A8A" stroke-width="0.8" stroke-miterlimit="10"/>
<path d="M216.624 263.405H200.802" stroke="#8A8A8A" stroke-width="0.8" stroke-miterlimit="10"/>
<path d="M105.881 274.848H118.689V261.601H105.881V274.848Z" fill="white" stroke="#263238" stroke-width="0.8" stroke-miterlimit="10"/>
<path d="M312.82 108.854H207.997V316.142H312.82V108.854Z" fill="#263238" stroke="#263238" stroke-width="0.8" stroke-miterlimit="10"/>
<path d="M301.485 109.799V145.684" stroke="#8A8A8A" stroke-width="0.8" stroke-miterlimit="10"/>
<path d="M308.097 118.769V133.881" stroke="#8A8A8A" stroke-width="0.8" stroke-miterlimit="10"/>
<path d="M304.794 115.466V169.291" stroke="#8A8A8A" stroke-width="0.8" stroke-miterlimit="10"/>
<path d="M310.461 108.854V179.211" stroke="#8A8A8A" stroke-width="0.8" stroke-miterlimit="10"/>
<path d="M302.43 315.666V278.836" stroke="#8A8A8A" stroke-width="0.8" stroke-miterlimit="10"/>
<path d="M306.208 316.141V308.11" stroke="#8A8A8A" stroke-width="0.8" stroke-miterlimit="10"/>
<path d="M307.152 305.277V272.7" stroke="#8A8A8A" stroke-width="0.8" stroke-miterlimit="10"/>
<path d="M302.905 274.114V220.758" stroke="#8A8A8A" stroke-width="0.8" stroke-miterlimit="10"/>
<path d="M298.183 108.854H193.36V316.142H298.183V108.854Z" fill="#33B55B" stroke="#263238" stroke-width="0.8" stroke-miterlimit="10"/>
<path d="M289.213 123.521C287.164 123.517 285.195 122.728 283.709 121.317C282.224 119.907 281.334 117.981 281.224 115.935H210.331C210.223 117.984 209.333 119.913 207.844 121.325C206.355 122.736 204.381 123.523 202.33 123.521C201.855 123.52 201.382 123.476 200.916 123.389V297.384C201.383 297.3 201.856 297.256 202.33 297.251C203.716 297.251 205.078 297.61 206.284 298.293C207.49 298.976 208.499 299.96 209.212 301.148C209.925 302.337 210.318 303.69 210.353 305.075C210.388 306.461 210.063 307.832 209.411 309.055H282.132C281.478 307.832 281.152 306.461 281.185 305.074C281.219 303.688 281.612 302.334 282.326 301.145C283.039 299.956 284.048 298.972 285.256 298.29C286.463 297.607 287.826 297.249 289.213 297.251C289.687 297.256 290.16 297.3 290.627 297.384V123.359C290.161 123.456 289.688 123.51 289.213 123.521ZM243.648 243.895C227.086 243.895 213.664 229.313 213.664 211.319C213.664 193.325 227.086 178.736 243.648 178.736C260.21 178.736 273.631 193.325 273.631 211.319C273.631 229.313 260.204 243.895 243.648 243.895Z" fill="white" stroke="#263238" stroke-width="0.8" stroke-miterlimit="10"/>
<path d="M312.627 199.985H193.829V221.233H312.627V199.985Z" fill="white" stroke="#263238" stroke-width="0.8" stroke-miterlimit="10"/>
<path d="M312.627 199.985H298.412V221.233H312.627V199.985Z" fill="#3D3D3D" stroke="#8A8A8A" stroke-width="0.8" stroke-miterlimit="10"/>
<path d="M78.8937 303.249L75.3924 308.501L68.5522 313.916V316.147H91.9485L91.1483 308.327V304.825C91.1483 304.825 81.6009 300.698 78.8937 303.249Z" fill="#263238" stroke="#263238" stroke-width="0.8" stroke-miterlimit="10"/>
<path d="M91.7379 314.072H68.5522V316.142H91.9485L91.7379 314.072Z" fill="white" stroke="#263238" stroke-width="0.8" stroke-miterlimit="10"/>
<path d="M117.528 303.249L121.258 308.501L128.555 313.916V316.147H103.619L104.467 308.327V304.825C104.467 304.825 114.646 300.698 117.528 303.249Z" fill="#263238" stroke="#263238" stroke-width="0.8" stroke-miterlimit="10"/>
<path d="M103.842 314.072H128.555V316.142H103.619L103.842 314.072Z" fill="white" stroke="#263238" stroke-width="0.8" stroke-miterlimit="10"/>
<path d="M68.4556 194.318C68.4556 194.318 73.9181 255.97 74.3091 267.677C74.7002 279.384 78.406 295.188 78.406 295.188L76.6794 297.919L78.4361 303.965C78.4361 303.965 82.533 302.991 84.6807 303.773C86.8284 304.555 90.6967 305.529 90.6967 305.529C90.6967 305.529 92.6519 300.259 92.8444 297.919C93.0369 295.579 90.5162 289.918 90.5162 289.918L90.1252 219.488H93.6385L102.602 294.015L102.211 298.503L103.968 305.529C103.968 305.529 114.31 303.382 115.086 303.183C115.678 303.094 116.284 303.162 116.842 303.382C116.842 303.382 118.045 300.843 118.045 300.061C118.045 299.279 116.481 294.797 116.481 294.797L116.09 259.874V193.734L68.4856 192.759L68.4556 194.318Z" fill="#33B55B" stroke="#263238" stroke-width="0.8" stroke-miterlimit="10"/>
<path d="M114.412 221.546L115.477 244.87L110.935 245.279V248.173L114.237 248.377" stroke="#263238" stroke-width="0.8" stroke-linecap="round" stroke-linejoin="round"/>
<path d="M113.618 204.196L114.31 219.26" stroke="#263238" stroke-width="0.8" stroke-linecap="round" stroke-linejoin="round"/>
<path d="M111.632 262.016C111.783 266.185 112.114 269.8 112.793 270.053C114.448 270.654 114.857 271.292 114.857 271.292" stroke="#263238" stroke-width="0.8" stroke-linecap="round" stroke-linejoin="round"/>
<path d="M111.573 248.997C111.573 248.997 111.464 254.267 111.573 259.537" stroke="#263238" stroke-width="0.8" stroke-linecap="round" stroke-linejoin="round"/>
<path d="M85.3364 217.407L93.5904 218.027" stroke="#263238" stroke-width="0.8" stroke-linecap="round" stroke-linejoin="round"/>
<path d="M88.0195 197.59L88.2241 209.147L91.942 211.836" stroke="#263238" stroke-width="0.8" stroke-linecap="round" stroke-linejoin="round"/>
<path d="M91.9424 201.717L92.562 215.963" stroke="#263238" stroke-width="0.8" stroke-linecap="round" stroke-linejoin="round"/>
<path d="M89.3916 267.791L89.6683 282.031" stroke="#263238" stroke-width="0.8" stroke-linecap="round" stroke-linejoin="round"/>
<path d="M88.4287 218.231L89.3251 264.272" stroke="#263238" stroke-width="0.8" stroke-linecap="round" stroke-linejoin="round"/>
<path d="M105.153 203.576C105.153 203.576 108.047 209.562 113.413 207.703" stroke="#263238" stroke-width="0.8" stroke-linecap="round" stroke-linejoin="round"/>
<path d="M76.2522 203.576C76.2522 203.576 74.1827 208.118 70.8799 208.738" stroke="#263238" stroke-width="0.8" stroke-linecap="round" stroke-linejoin="round"/>
<path d="M88.5131 125.525L82.3106 127.402L77.1128 194.059L104.528 194.498L105.972 125.958L88.5131 125.525Z" fill="white" stroke="#263238" stroke-width="0.8" stroke-miterlimit="10"/>
<path d="M86.3051 122.92H84.8492L84.1152 124.821L84.41 140.913L93.4821 135.066L102.404 143.548L103.577 124.382C103.577 124.382 104.016 123.503 102.699 122.92C101.381 122.336 100.942 122.186 100.942 122.186L86.3051 122.92Z" fill="white" stroke="#263238" stroke-width="0.8" stroke-miterlimit="10"/>
<path d="M85.4331 118.227L85.8723 124.845C85.8723 124.845 90.0835 134.061 92.893 135.379C95.7024 136.696 102.115 124.406 102.115 124.406L101.676 117.09H85.2827L85.4331 118.227Z" fill="white" stroke="#263238" stroke-width="0.8" stroke-miterlimit="10"/>
<path d="M85.4331 118.227C85.4331 118.227 90.6971 129.658 93.7713 130.085C96.8455 130.512 101.821 119.545 101.821 118.522C101.821 117.499 85.4331 118.227 85.4331 118.227Z" fill="#263238" stroke="#263238" stroke-width="0.8" stroke-miterlimit="10"/>
<path d="M82.6536 108.433C82.6536 108.433 80.1148 106.352 79.7659 109.239C79.417 112.127 83.1168 114.786 83.1168 114.786L82.6536 108.433Z" fill="white" stroke="#263238" stroke-width="0.8" stroke-miterlimit="10"/>
<path d="M103.288 108.433C103.288 108.433 105.833 106.352 106.182 109.239C106.531 112.127 102.831 114.786 102.831 114.786L103.288 108.433Z" fill="white" stroke="#263238" stroke-width="0.8" stroke-miterlimit="10"/>
<path d="M82.1901 108.776C82.1901 108.776 83.5798 116.867 84.7349 118.365C85.89 119.863 89.4695 125.067 92.8204 125.994C96.1713 126.92 101.375 120.447 102.41 118.251C103.445 116.055 103.8 106.352 103.8 106.352L103.685 101.154C103.685 101.154 103.336 97.3395 101.832 95.258C100.328 93.1765 93.8612 91.7928 89.5898 93.4412C85.3184 95.0896 81.7329 102.537 81.7329 104.041C81.7329 105.545 82.1901 108.776 82.1901 108.776Z" fill="white" stroke="#263238" stroke-width="0.8" stroke-miterlimit="10"/>
<path d="M89.8184 99.764C89.8184 99.764 86.2089 103.927 84.6206 104.733C83.8989 105.066 83.2032 105.452 82.5391 105.888L82.7677 110.743L80.9208 104.126C80.9208 104.126 78.6106 97.1049 79.0859 93.9887C79.5612 90.8724 90.0591 87.8644 93.7589 86.7093C97.4588 85.5542 98.8425 87.8644 101.267 89.7173C103.691 91.5702 106.236 92.9539 105.893 96.0762C105.594 98.248 105.052 100.379 104.275 102.429C104.275 102.429 103.673 111.092 103.673 111.453C103.673 111.814 102.633 102.904 102.633 102.904C102.043 102.749 101.51 102.426 101.1 101.975C100.69 101.523 100.42 100.962 100.322 100.36C100.015 98.8353 99.8142 97.2915 99.7208 95.7393C99.7208 95.7393 98.2168 98.8616 96.7128 100.36C95.2088 101.858 91.515 103.247 90.9374 103.133C90.3599 103.019 91.539 100.245 91.539 100.245L89.4575 102.213L89.8184 99.764Z" fill="#263238" stroke="#263238" stroke-width="0.8" stroke-miterlimit="10"/>
<path d="M90.7451 115.941C91.3173 116.45 91.9836 116.843 92.7063 117.096C93.6328 117.325 95.2511 115.941 95.7143 115.592" stroke="#263238" stroke-width="0.8" stroke-miterlimit="10"/>
<path d="M90.396 119.178C90.396 119.178 93.0551 121.253 96.6346 118.829L90.396 119.178Z" fill="white"/>
<path d="M90.396 119.178C90.396 119.178 93.0551 121.253 96.6346 118.829" stroke="#263238" stroke-width="0.8" stroke-miterlimit="10"/>
<path d="M88.6031 111.778C89.0184 111.778 89.3551 111.21 89.3551 110.509C89.3551 109.808 89.0184 109.239 88.6031 109.239C88.1878 109.239 87.8511 109.808 87.8511 110.509C87.8511 111.21 88.1878 111.778 88.6031 111.778Z" fill="#263238"/>
<path d="M97.3868 111.778C97.8021 111.778 98.1388 111.21 98.1388 110.509C98.1388 109.808 97.8021 109.239 97.3868 109.239C96.9714 109.239 96.6348 109.808 96.6348 110.509C96.6348 111.21 96.9714 111.778 97.3868 111.778Z" fill="#263238"/>
<path d="M95.5938 106.466C96.3386 106.076 97.1882 105.932 98.0198 106.057C98.8514 106.181 99.6219 106.567 100.22 107.158" stroke="#263238" stroke-width="0.8" stroke-miterlimit="10"/>
<path d="M89.4697 106.352C88.8811 106.003 88.1888 105.872 87.5136 105.982C86.8385 106.092 86.2234 106.436 85.7759 106.953" stroke="#263238" stroke-width="0.8" stroke-miterlimit="10"/>
<path d="M97.6753 112.704L100.22 112.127" stroke="#263238" stroke-width="0.8" stroke-miterlimit="10"/>
<path d="M86.0044 112.013L88.0859 112.704" stroke="#263238" stroke-width="0.8" stroke-miterlimit="10"/>
<path d="M84.2598 139.764L82.9423 202.932L67.9023 202.204L66.9939 200.466C66.9939 200.466 64.9484 200.466 64.6537 198.854C64.3589 197.241 66.6991 161.837 66.6991 161.837L53.8188 160.664L62.4518 143.819C62.4518 143.819 65.0868 132.112 65.6704 131.234C66.2539 130.355 84.5486 124.063 84.5486 124.063L84.2598 139.764Z" fill="#263238" stroke="#263238" stroke-width="0.8" stroke-miterlimit="10"/>
<path d="M102.993 123.69L100.846 203.101L120.157 202.902L120.939 199.979L122.888 198.613V192.368C122.888 189.246 119.182 166.614 119.182 166.614C119.182 166.614 128.94 165.248 129.133 163.299C129.325 161.35 125.036 131.89 122.696 129.742C120.356 127.594 102.993 123.69 102.993 123.69Z" fill="#263238" stroke="#263238" stroke-width="0.8" stroke-miterlimit="10"/>
<path d="M107.836 168.972L110.405 176.372C110.405 176.372 111.891 172.798 111.669 170.548C111.446 168.298 111.44 167.618 110.766 167.504C110.092 167.39 107.963 166.945 107.836 168.972Z" fill="white" stroke="#263238" stroke-width="0.8" stroke-miterlimit="10"/>
<path d="M82.166 149.745L90.3899 166.084L99.065 161.801L91.7435 144.565L82.166 149.745Z" fill="#33B55B" stroke="#263238" stroke-width="0.8" stroke-miterlimit="10"/>
<path d="M96.4301 161.145C96.3317 160.885 96.3396 160.597 96.4521 160.342C96.5647 160.088 96.7729 159.888 97.0317 159.786C97.0797 159.78 97.1281 159.78 97.1761 159.786L91.7617 147.098C91.7124 147.216 91.6371 147.322 91.5413 147.408C91.4454 147.493 91.3316 147.556 91.2082 147.591C91.0232 147.634 90.8296 147.621 90.6525 147.552C90.4754 147.483 90.3231 147.363 90.2156 147.206L84.5004 150.28C84.5741 150.391 84.629 150.513 84.6628 150.641C84.7426 150.872 84.7446 151.122 84.6685 151.353C84.5924 151.585 84.4425 151.785 84.2417 151.923L89.9509 163.227C90.0529 163.114 90.184 163.03 90.3299 162.986C90.5721 162.94 90.8227 162.982 91.0367 163.105C91.2507 163.227 91.4139 163.422 91.497 163.654L96.4482 161.211L96.4301 161.145ZM91.5451 158.221C90.4923 158.516 89.3553 157.74 89.0004 156.483C88.6454 155.226 89.2049 153.962 90.2517 153.667C91.2985 153.373 92.4415 154.149 92.7965 155.406C93.1514 156.663 92.5919 157.921 91.5451 158.221Z" fill="white" stroke="#263238" stroke-width="0.8" stroke-miterlimit="10"/>
<path d="M85.6855 147.736L90.0772 165.489L99.4863 163.239L96.1714 144.812L85.6855 147.736Z" fill="#33B55B" stroke="#263238" stroke-width="0.8" stroke-miterlimit="10"/>
<path d="M97.0616 162.024C97.0412 161.886 97.0482 161.745 97.0822 161.61C97.1162 161.475 97.1766 161.348 97.2599 161.236C97.3432 161.124 97.4477 161.03 97.5675 160.958C97.6873 160.887 97.82 160.84 97.958 160.82C98.0059 160.815 98.0544 160.815 98.1024 160.82L95.696 147.254C95.6207 147.358 95.5234 147.445 95.4112 147.507C95.2989 147.569 95.1743 147.606 95.0462 147.615C94.855 147.614 94.6684 147.556 94.51 147.449C94.3515 147.342 94.2283 147.191 94.1559 147.014L87.8631 148.788C87.9128 148.913 87.9413 149.045 87.9474 149.179C87.9736 149.422 87.9196 149.666 87.7935 149.875C87.6674 150.083 87.4763 150.245 87.2495 150.335L90.2876 162.625C90.4116 162.538 90.5576 162.488 90.7087 162.481C90.9545 162.487 91.1898 162.581 91.3712 162.747C91.5526 162.913 91.6678 163.139 91.6953 163.383L97.0676 162.102L97.0616 162.024ZM92.9226 158.077C91.8337 158.137 90.8952 157.127 90.829 155.821C90.7629 154.516 91.587 153.415 92.6759 153.355C93.7648 153.294 94.6973 154.311 94.7695 155.617C94.8417 156.922 94.0356 158.023 92.9226 158.077Z" fill="white" stroke="#263238" stroke-width="0.8" stroke-miterlimit="10"/>
<path d="M90.8891 146.364L89.8784 164.623L99.5341 165.236L101.772 146.641L90.8891 146.364Z" fill="#33B55B" stroke="#263238" stroke-width="0.8" stroke-miterlimit="10"/>
<path d="M97.573 163.353C97.6174 163.078 97.7687 162.831 97.994 162.667C98.2193 162.502 98.5004 162.433 98.7762 162.475C98.8264 162.487 98.875 162.505 98.9206 162.529L100.569 148.837C100.467 148.916 100.349 148.971 100.223 148.998C100.097 149.025 99.9663 149.023 99.841 148.993C99.6584 148.938 99.4965 148.83 99.3763 148.682C99.2562 148.534 99.1833 148.353 99.1672 148.163L92.6639 148C92.6755 148.132 92.6633 148.264 92.6278 148.391C92.5824 148.631 92.4595 148.849 92.278 149.012C92.0965 149.175 91.8664 149.274 91.6231 149.294L90.9253 161.927C91.0727 161.885 91.2291 161.885 91.3765 161.927C91.61 162.007 91.8067 162.169 91.9306 162.382C92.0544 162.595 92.0969 162.846 92.0503 163.088L97.567 163.437C97.5618 163.409 97.5639 163.38 97.573 163.353ZM94.7936 158.378C93.7408 158.113 93.1392 156.874 93.458 155.605C93.7769 154.335 94.8898 153.523 95.9487 153.8C97.0075 154.077 97.597 155.31 97.2842 156.579C96.9714 157.849 95.8524 158.643 94.7936 158.378Z" fill="white" stroke="#263238" stroke-width="0.8" stroke-miterlimit="10"/>
<path d="M110.766 164.237C109.703 164.078 108.65 163.853 107.614 163.564C107.163 163.341 103.896 162.21 101.303 160.862C98.7101 159.515 96.5744 160.862 92.8806 161.536C89.1868 162.21 88.146 162.439 88.146 163.341C88.146 164.243 90.0651 164.466 90.0651 164.466C90.0651 164.466 88.2603 164.689 89.1627 165.928C89.6943 166.664 90.4433 167.216 91.3044 167.504C91.8033 168.331 92.4521 169.057 93.2175 169.646C94.3425 170.434 95.1306 171.114 95.1306 171.114C95.836 171.992 96.774 172.655 97.8378 173.027C99.414 173.478 108.312 170.771 108.312 170.771C108.312 170.771 111.013 171.559 111.693 170.097C112.372 168.635 110.766 164.237 110.766 164.237Z" fill="white" stroke="#263238" stroke-width="0.8" stroke-linecap="round" stroke-linejoin="round"/>
<path d="M90.041 164.466C90.041 164.466 96.797 164.238 98.9387 163.564" stroke="#263238" stroke-width="0.8" stroke-linecap="round" stroke-linejoin="round"/>
<path d="M91.2808 167.504C93.143 167.802 95.0258 167.953 96.9117 167.955C98.0222 167.933 99.1082 167.624 100.064 167.059" stroke="#263238" stroke-width="0.8" stroke-linecap="round" stroke-linejoin="round"/>
<path d="M94.126 170.326C94.126 170.326 98.0665 171.529 100.744 170.663" stroke="#263238" stroke-width="0.8" stroke-linecap="round" stroke-linejoin="round"/>
<path d="M114.111 144.956L116.259 161.735L110.207 163.491C110.207 163.491 111.187 168.563 110.808 170.909C110.554 172.719 110.423 174.544 110.417 176.372C110.417 176.372 117.035 174.224 121.342 173.833C125.65 173.442 129.343 171.493 130.511 168.37C131.678 165.248 127.978 154.534 127.978 154.534" fill="#263238"/>
<path d="M114.111 144.956L116.259 161.735L110.207 163.491C110.207 163.491 111.187 168.563 110.808 170.909C110.554 172.719 110.423 174.544 110.417 176.372C110.417 176.372 117.035 174.224 121.342 173.833C125.65 173.442 129.343 171.493 130.511 168.37C131.678 165.248 127.978 154.534 127.978 154.534" stroke="#263238" stroke-width="0.8" stroke-miterlimit="10"/>
<path d="M113.311 162.998L116.259 161.735L123.719 159.732" stroke="#6B6B6B" stroke-width="0.8" stroke-miterlimit="10"/>
<path d="M116.259 161.735L113.942 141.918" stroke="#6B6B6B" stroke-width="0.8" stroke-miterlimit="10"/>
<path d="M78.1113 161.35C78.1113 161.35 76.7637 155.382 76.1982 154.251C75.6327 153.12 72.5886 156.284 72.366 157.295C72.1434 158.306 77.2089 161.464 78.1113 161.35Z" fill="white" stroke="#263238" stroke-width="0.8" stroke-miterlimit="10"/>
<path d="M75.1696 148.788L72.2578 152.206C72.2578 152.206 73.07 157.211 73.7197 157.409C74.3694 157.608 79.0138 154.028 79.0138 154.028L75.1696 148.788Z" fill="white" stroke="#263238" stroke-width="0.8" stroke-miterlimit="10"/>
<path d="M80.578 141.936C80.578 141.936 75.5065 146.893 75.1636 148.806C74.8206 150.72 78.4302 154.329 78.8814 154.666C79.3326 155.003 82.5993 152.41 82.7076 151.959C82.8159 151.508 80.5719 148.018 80.5719 148.018C81.6056 148.525 82.6099 149.089 83.5799 149.709C83.9168 150.046 86.0585 153.09 86.8466 152.861C87.6347 152.633 87.2978 151.171 86.8466 149.823C86.3954 148.476 81.5525 143.964 81.5525 143.964L84.8192 144.752C84.8192 144.752 88.6514 148.47 89.5538 148.47C90.4562 148.47 90.005 147.567 89.4395 146.779C88.874 145.991 86.1728 142.839 85.499 142.05C84.8253 141.262 82.2324 140.811 81.8894 140.811C81.5465 140.811 80.578 141.936 80.578 141.936Z" fill="white" stroke="#263238" stroke-width="0.8" stroke-linecap="round" stroke-linejoin="round"/>
<path d="M80.5777 148.018L79.0015 146.442" stroke="#263238" stroke-width="0.8" stroke-linecap="round" stroke-linejoin="round"/>
<path d="M76.9741 148.355L81.0289 153.312" stroke="#263238" stroke-width="0.8" stroke-linecap="round" stroke-linejoin="round"/>
<path d="M72.1432 151.664C72.1432 151.664 72.9313 154.365 73.3825 156.056C73.8337 157.746 78.1111 161.35 78.1111 161.35C78.1111 161.35 72.0289 167.769 66.6205 170.584C61.2121 173.4 54.8592 171.986 52.9461 169.736C51.033 167.486 51.8211 160.953 53.3973 159.599C54.9735 158.246 64.1419 156.507 66.3979 155.268C68.6539 154.028 72.1432 151.664 72.1432 151.664Z" fill="#263238" stroke="#263238" stroke-width="0.8" stroke-miterlimit="10"/>
<path d="M72.1432 151.664L57.3198 158.907" stroke="#6B6B6B" stroke-width="0.8" stroke-miterlimit="10"/>
<path d="M70.2183 152.615V145.696" stroke="#6B6B6B" stroke-width="0.8" stroke-miterlimit="10"/>
<path d="M168.869 304.783C168.869 304.783 167.064 305.295 162.251 301.727C157.438 298.16 151.807 293.064 151.807 293.064C151.807 293.064 157.366 292.318 159.935 290.965C162.762 289.467 166.071 285.929 166.071 285.929C166.071 285.929 177.279 301.216 191.296 300.199C191.053 301.502 190.484 302.723 189.643 303.747C188.801 304.772 187.714 305.567 186.483 306.059C182.116 307.839 168.869 304.783 168.869 304.783Z" fill="#33B55B" stroke="#263238" stroke-width="0.8" stroke-linejoin="round"/>
<path d="M187.055 301.95C187.055 301.95 175.155 298.828 168.724 291.999C168.414 292.084 168.089 292.098 167.773 292.042C167.457 291.986 167.157 291.859 166.896 291.673C166.634 291.486 166.418 291.244 166.262 290.963C166.105 290.683 166.014 290.371 165.993 290.05C163.744 292.161 160.862 293.47 157.793 293.774C157.793 293.774 157.985 295.14 157.402 295.531C157.402 295.531 166.57 303.532 171.84 304.507C175.498 305.238 179.242 305.441 182.958 305.108C184.562 304.939 186.069 304.255 187.253 303.159C187.253 303.159 185.298 302.732 187.055 301.95ZM175.817 301.511C175.39 302.563 173.266 302.714 171.07 301.799C168.874 300.885 167.461 299.339 167.858 298.292C168.255 297.245 170.408 297.089 172.604 298.003C174.8 298.918 176.238 300.464 175.817 301.511Z" fill="white" stroke="#263238" stroke-width="0.8" stroke-miterlimit="10"/>
<path d="M167.063 304.465C167.063 304.465 173.2 306.991 178.043 306.991C180.877 307.007 183.703 306.694 186.465 306.059C186.465 306.059 184.811 306.961 182.122 305.235C180.587 304.248 179.601 302.052 179.601 302.052C175.554 303.433 171.334 304.245 167.063 304.465Z" fill="#33B55B" stroke="#263238" stroke-width="0.8" stroke-linejoin="round"/>
<path d="M235.995 278.77C235.995 278.77 247.167 275.094 253.7 270.733L260.649 282.163C260.649 282.163 244.032 295.104 239.671 291.699L235.995 278.77Z" fill="#33B55B" stroke="#263238" stroke-width="0.8" stroke-linejoin="round"/>
<path d="M255.884 281.495C255.898 281.166 256.019 280.85 256.229 280.595C256.438 280.34 256.725 280.16 257.045 280.082L253.959 274.962C253.701 275.05 253.431 275.095 253.159 275.094C252.828 275.112 252.498 275.049 252.198 274.911C251.897 274.772 251.634 274.563 251.432 274.3C245.663 278.337 236.813 280.407 236.813 280.407L238.582 287.355C238.582 287.355 238.311 291.169 243.076 290.213C246.77 289.473 253.718 284.798 256.672 282.759C256.44 282.638 256.245 282.457 256.106 282.234C255.968 282.012 255.891 281.757 255.884 281.495ZM243.979 286.609C241.891 287.084 239.948 286.374 239.635 285.021C239.322 283.667 240.766 282.175 242.854 281.694C244.941 281.213 246.89 281.929 247.203 283.282C247.516 284.636 246.072 286.128 243.979 286.609Z" fill="white" stroke="#263238" stroke-width="0.8" stroke-miterlimit="10"/>
<path d="M234.359 273.596L241.987 288.715C241.987 288.715 239.4 290.074 239.671 291.723L232.319 277.284C232.319 277.284 231.363 274.956 234.359 273.596Z" fill="#33B55B" stroke="#263238" stroke-width="0.8" stroke-linejoin="round"/>
<path d="M232.969 278.554L238.636 289.671C238.877 289.137 239.305 288.709 239.839 288.468L233.54 277.411L232.969 278.554Z" fill="white" stroke="#263238" stroke-width="0.8" stroke-miterlimit="10"/>
<path d="M151.572 194.384L151.693 223.363L166.817 223.297L166.865 193.728L151.572 194.384Z" fill="#33B55B" stroke="#263238" stroke-width="0.8" stroke-miterlimit="10"/>
<path d="M163.502 220.517C163.515 220.301 163.571 220.089 163.667 219.895C163.762 219.7 163.896 219.527 164.06 219.384C164.223 219.242 164.413 219.134 164.619 219.066C164.825 218.998 165.043 218.972 165.259 218.989C165.335 219.005 165.409 219.027 165.481 219.055L165.451 196.995C165.318 197.116 165.158 197.205 164.986 197.256C164.813 197.307 164.631 197.318 164.453 197.29C164.188 197.224 163.947 197.083 163.761 196.883C163.575 196.683 163.452 196.434 163.406 196.165L154.286 196.556C154.315 196.743 154.315 196.934 154.286 197.121C154.255 197.464 154.112 197.786 153.877 198.038C153.643 198.29 153.332 198.456 152.992 198.511V218.965C153.213 218.876 153.455 218.849 153.69 218.887C154.065 218.996 154.39 219.232 154.61 219.555C154.83 219.878 154.93 220.267 154.893 220.656L163.532 220.62C163.502 220.571 163.496 220.541 163.502 220.517ZM158.497 212.901C156.818 212.594 155.711 210.687 156.024 208.636C156.337 206.584 157.967 205.17 159.634 205.483C161.3 205.796 162.425 207.697 162.106 209.749C161.788 211.8 160.157 213.214 158.497 212.901Z" fill="white" stroke="#263238" stroke-width="0.8" stroke-miterlimit="10"/>
<path d="M292.991 71.7656L271.898 92.8577L282.908 103.867L304.553 82.4741L292.991 71.7656Z" fill="#33B55B" stroke="#263238" stroke-width="0.8" stroke-miterlimit="10"/>
<path d="M282.535 99.4573C282.703 99.3073 282.899 99.1925 283.112 99.1199C283.325 99.0472 283.551 99.0182 283.775 99.0344C284 99.0507 284.219 99.112 284.419 99.2146C284.619 99.3172 284.797 99.4591 284.941 99.6318C284.987 99.6999 285.025 99.7725 285.056 99.8483L301.149 83.8157C300.962 83.8061 300.781 83.7546 300.617 83.665C300.454 83.5754 300.312 83.4501 300.204 83.2983C300.06 83.0568 299.989 82.7784 300.001 82.4973C300.013 82.2163 300.106 81.9447 300.27 81.7161L293.364 75.3091C293.246 75.4663 293.106 75.6061 292.949 75.7242C292.676 75.9511 292.335 76.0798 291.981 76.0896C291.626 76.0994 291.278 75.9898 290.994 75.7783L276.032 90.5777C276.256 90.6708 276.45 90.8251 276.591 91.0229C276.789 91.3753 276.856 91.786 276.781 92.1831C276.707 92.5802 276.494 92.9383 276.182 93.1946L282.469 99.4874L282.535 99.4573ZM284.46 90.2649C283.462 88.815 284.057 86.6192 285.784 85.3618C287.51 84.1045 289.724 84.2729 290.717 85.7228C291.709 87.1726 291.114 89.3745 289.387 90.6258C287.661 91.8771 285.435 91.6906 284.46 90.2348V90.2649Z" fill="white" stroke="#263238" stroke-width="0.8" stroke-miterlimit="10"/>
<path d="M147.668 160.183L177.014 148.578L170.956 133.261L140.942 144.926L147.668 160.183Z" fill="#33B55B" stroke="#263238" stroke-width="0.8" stroke-miterlimit="10"/>
<path d="M169.446 137.725C168.381 137.96 167.376 137.436 167.202 136.522C167.196 136.436 167.196 136.349 167.202 136.263L144.828 145.035C145.005 145.123 145.16 145.25 145.281 145.406C145.401 145.562 145.485 145.744 145.526 145.937C145.564 146.231 145.515 146.53 145.386 146.797C145.257 147.064 145.053 147.288 144.798 147.441L148.799 156.609C148.988 156.506 149.19 156.431 149.401 156.387C149.76 156.281 150.144 156.299 150.492 156.437C150.84 156.576 151.132 156.827 151.32 157.151L172.069 149.077C171.889 148.894 171.765 148.662 171.714 148.409C171.667 147.983 171.773 147.555 172.013 147.2C172.254 146.845 172.612 146.587 173.025 146.472L169.56 137.719L169.446 137.725ZM163.719 145.841C164.074 147.645 162.576 149.553 160.368 150.052C158.16 150.551 156.09 149.45 155.735 147.645C155.38 145.841 156.878 143.94 159.086 143.434C161.294 142.929 163.364 144.012 163.719 145.841Z" fill="white" stroke="#263238" stroke-width="0.8" stroke-miterlimit="10"/>
<path d="M251.246 71.6693C251.246 71.6693 253.051 72.1446 255.373 77.6853C257.695 83.2261 259.921 90.4693 259.921 90.4693C259.921 90.4693 254.759 88.2675 251.859 88.1171C248.659 87.9547 244.008 89.3203 244.008 89.3203C244.008 89.3203 242.204 70.4481 229.636 64.1614C230.511 63.1556 231.627 62.3889 232.879 61.9332C234.131 61.4775 235.479 61.3478 236.795 61.5564C241.428 62.2663 251.246 71.6693 251.246 71.6693Z" fill="#33B55B" stroke="#263238" stroke-width="0.8" stroke-linejoin="round"/>
<path d="M234.172 64.7991C234.172 64.7991 242.799 73.5885 244.839 82.7268C245.148 82.8138 245.434 82.9682 245.676 83.1789C245.918 83.3896 246.11 83.6513 246.239 83.9453C246.368 84.2393 246.43 84.5582 246.421 84.8791C246.412 85.1999 246.332 85.5148 246.186 85.8009C249.198 85.1474 252.34 85.5069 255.126 86.8237C255.126 86.8237 255.656 85.5483 256.359 85.5122C256.359 85.5122 252.569 73.9494 248.539 70.418C245.764 67.9212 242.646 65.8346 239.28 64.2215C237.814 63.5512 236.171 63.3698 234.593 63.7042C234.593 63.7042 236.103 65.0277 234.172 64.7991ZM243.605 70.9234C244.502 70.2436 246.397 71.2182 247.817 73.1072C249.236 74.9962 249.682 77.0777 248.779 77.7636C247.877 78.4494 245.988 77.4688 244.568 75.5798C243.148 73.6907 242.721 71.6092 243.605 70.9234Z" fill="white" stroke="#263238" stroke-width="0.8" stroke-miterlimit="10"/>
<path d="M252.635 72.8666C252.635 72.8666 248.652 67.5725 244.489 65.0759C242.069 63.6105 239.487 62.4296 236.795 61.5565C236.795 61.5565 238.678 61.6287 240.104 64.4863C240.916 66.1227 240.645 68.511 240.645 68.511C244.824 69.4018 248.859 70.8676 252.635 72.8666Z" fill="#33B55B" stroke="#263238" stroke-width="0.8" stroke-linejoin="round"/>
<path d="M95.5636 56.5031L98.4693 67.1514C98.4693 67.1514 83.9467 77.908 62.0063 74.894L63.2095 63.3854C63.2095 63.3854 71.8124 65.1059 79.6633 63.4936C87.5142 61.8814 95.5636 56.5031 95.5636 56.5031Z" fill="#33B55B" stroke="#263238" stroke-width="0.8" stroke-miterlimit="10"/>
<path d="M93.9036 66.6822C93.9339 66.4203 94.0434 66.174 94.2176 65.9762C94.3918 65.7783 94.6223 65.6385 94.8781 65.5752L93.1636 60.8406C92.9134 60.9244 92.6513 60.967 92.3875 60.967C91.9336 60.9744 91.4891 60.8375 91.1181 60.5759C88.7117 61.8393 84.1937 64.0411 79.6877 64.9736C75.5833 65.7101 71.3973 65.8801 67.2467 65.479C67.0859 65.6512 66.8881 65.7846 66.6682 65.869C66.4482 65.9534 66.212 65.9867 65.9773 65.9663L65.4058 72.4154C65.5501 72.4154 65.7005 72.4154 65.8509 72.4154C67.0541 72.4154 67.9987 72.7764 67.9987 73.2216C67.9911 73.293 67.9671 73.3617 67.9285 73.4223C67.8899 73.4828 67.8377 73.5336 67.7761 73.5705C81.7151 74.0999 91.4731 69.2811 94.433 67.5966C94.2759 67.5 94.1452 67.3658 94.0528 67.2062C93.9604 67.0466 93.9091 66.8665 93.9036 66.6822ZM80.1089 70.0451C77.9792 70.4722 76.1142 70.1113 75.9398 69.239C75.7653 68.3666 77.3475 67.3199 79.4772 66.8927C81.6069 66.4656 83.4718 66.8266 83.6463 67.6989C83.8207 68.5712 82.2385 69.618 80.1089 70.0451Z" fill="white" stroke="#263238" stroke-width="0.8" stroke-miterlimit="10"/>
<path d="M291.499 293.636L294.399 304.284C294.399 304.284 279.882 315.041 257.936 312.027L259.139 300.518C259.139 300.518 267.742 302.239 275.599 300.626C283.455 299.014 291.499 293.636 291.499 293.636Z" fill="#33B55B" stroke="#263238" stroke-width="0.8" stroke-miterlimit="10"/>
<path d="M289.832 303.821C289.861 303.558 289.971 303.31 290.145 303.111C290.319 302.912 290.55 302.771 290.807 302.708L289.092 297.985C288.841 298.064 288.58 298.105 288.316 298.106C287.853 298.118 287.398 297.983 287.017 297.721C284.665 298.978 280.122 301.18 275.623 302.112C271.518 302.849 267.332 303.019 263.181 302.618C263.021 302.79 262.823 302.923 262.603 303.008C262.383 303.092 262.147 303.125 261.912 303.105L261.371 309.554C261.515 309.554 261.665 309.554 261.822 309.554C263.025 309.554 263.964 309.909 263.964 310.354C263.956 310.426 263.932 310.494 263.893 310.555C263.855 310.615 263.803 310.666 263.741 310.703C277.68 311.239 287.438 306.42 290.404 304.729C290.24 304.638 290.101 304.507 290.001 304.348C289.901 304.19 289.843 304.008 289.832 303.821ZM276.038 307.178C273.908 307.605 272.043 307.244 271.869 306.378C271.694 305.511 273.276 304.452 275.406 304.025C277.536 303.598 279.401 303.965 279.575 304.831C279.749 305.698 278.167 306.757 276.038 307.178Z" fill="white" stroke="#263238" stroke-width="0.8" stroke-miterlimit="10"/>
<path d="M139.39 70.0751C139.39 70.0751 150.556 66.3993 157.095 62.0377L164.044 73.4681C164.044 73.4681 147.428 86.4206 143.066 83.0155L139.39 70.0751Z" fill="#33B55B" stroke="#263238" stroke-width="0.8" stroke-linejoin="round"/>
<path d="M159.273 72.8004C159.288 72.4702 159.41 72.1539 159.621 71.899C159.831 71.6441 160.119 71.4643 160.44 71.3866L157.348 66.267C157.092 66.3554 156.824 66.4001 156.553 66.3993C156.223 66.4171 155.893 66.354 155.592 66.2157C155.291 66.0773 155.029 65.8678 154.827 65.6052C149.058 69.642 140.208 71.7115 140.208 71.7115L141.977 78.6599C141.977 78.6599 141.706 82.4741 146.471 81.5175C150.158 80.7776 157.107 76.1031 160.067 74.0637C159.834 73.9434 159.637 73.7627 159.497 73.5405C159.358 73.3183 159.28 73.0627 159.273 72.8004ZM147.373 77.914C145.286 78.3892 143.336 77.6793 143.03 76.3257C142.723 74.9721 144.161 73.4802 146.248 72.9989C148.336 72.5176 150.285 73.2335 150.598 74.5931C150.91 75.9527 149.473 77.4327 147.373 77.914Z" fill="white" stroke="#263238" stroke-width="0.8" stroke-miterlimit="10"/>
<path d="M137.754 64.9014L145.382 80.0196C145.382 80.0196 142.795 81.3792 143.066 83.0276L135.708 68.5892C135.708 68.5892 134.758 66.261 137.754 64.9014Z" fill="#33B55B" stroke="#263238" stroke-width="0.8" stroke-linejoin="round"/>
<path d="M136.364 69.8586L142.025 80.9762C142.266 80.442 142.694 80.0141 143.229 79.773L136.936 68.7156L136.364 69.8586Z" fill="white" stroke="#263238" stroke-width="0.8" stroke-miterlimit="10"/>
<path d="M232.801 137.13L211.708 158.222L222.718 169.225L244.369 147.832L232.801 137.13Z" fill="#33B55B" stroke="#263238" stroke-width="0.8" stroke-miterlimit="10"/>
<path d="M222.351 164.791C222.518 164.641 222.715 164.526 222.928 164.454C223.141 164.381 223.366 164.352 223.591 164.368C223.815 164.384 224.034 164.446 224.235 164.548C224.435 164.651 224.613 164.793 224.757 164.965C224.8 165.034 224.837 165.106 224.865 165.182L240.976 149.167C240.79 149.16 240.609 149.109 240.446 149.019C240.283 148.929 240.143 148.803 240.038 148.65C239.892 148.409 239.821 148.131 239.832 147.85C239.842 147.569 239.935 147.297 240.098 147.068L233.191 140.673C233.075 140.83 232.935 140.968 232.776 141.082C232.505 141.311 232.164 141.441 231.809 141.452C231.454 141.463 231.106 141.354 230.821 141.142L215.859 155.935C216.084 156.031 216.278 156.188 216.419 156.387C216.617 156.739 216.684 157.15 216.609 157.547C216.534 157.944 216.322 158.302 216.01 158.558L222.266 164.845L222.351 164.791ZM224.27 155.599C223.277 154.143 223.873 151.953 225.599 150.696C227.326 149.438 229.534 149.607 230.526 151.056C231.519 152.506 230.929 154.702 229.197 155.96C227.464 157.217 225.274 157.048 224.27 155.599Z" fill="white" stroke="#263238" stroke-width="0.8" stroke-miterlimit="10"/>
<path d="M271.357 188.59L300.18 191.598L301.744 176.558L272.356 173.316L271.357 188.59Z" fill="#33B55B" stroke="#263238" stroke-width="0.8" stroke-miterlimit="10"/>
<path d="M298.622 179.548C298.409 179.512 298.205 179.434 298.022 179.318C297.839 179.202 297.681 179.051 297.558 178.873C297.434 178.696 297.347 178.495 297.301 178.284C297.256 178.072 297.253 177.854 297.292 177.641C297.318 177.566 297.351 177.494 297.389 177.425L275.448 175.072C275.555 175.219 275.627 175.387 275.659 175.565C275.691 175.744 275.683 175.927 275.635 176.101C275.544 176.353 275.382 176.574 275.168 176.736C274.955 176.898 274.699 176.995 274.432 177.016L273.83 186.142C274.02 186.135 274.211 186.156 274.396 186.202C274.734 186.27 275.039 186.449 275.264 186.711C275.488 186.972 275.619 187.301 275.635 187.646L295.951 189.878C295.885 189.65 295.885 189.408 295.951 189.18C296.096 188.815 296.364 188.512 296.71 188.325C297.055 188.138 297.455 188.079 297.84 188.157L298.73 179.566L298.622 179.548ZM290.512 183.759C290.025 185.396 288.01 186.292 286.006 185.757C284.003 185.221 282.77 183.453 283.257 181.816C283.744 180.18 285.766 179.284 287.769 179.819C289.772 180.354 291 182.087 290.512 183.729V183.759Z" fill="white" stroke="#263238" stroke-width="0.8" stroke-miterlimit="10"/>
<path d="M304.193 215.825C304.193 215.825 305.998 216.3 308.32 221.841C310.642 227.381 312.862 234.625 312.862 234.625C312.862 234.625 307.706 232.423 304.8 232.273C301.606 232.11 296.98 233.476 296.98 233.476C296.98 233.476 295.175 214.604 282.607 208.317C283.485 207.319 284.602 206.561 285.853 206.112C287.104 205.664 288.449 205.541 289.76 205.754C294.369 206.422 304.193 215.825 304.193 215.825Z" fill="#33B55B" stroke="#263238" stroke-width="0.8" stroke-linejoin="round"/>
<path d="M287.113 208.949C287.113 208.949 295.746 217.72 297.785 226.882C298.095 226.967 298.381 227.121 298.624 227.331C298.867 227.541 299.06 227.802 299.189 228.096C299.318 228.39 299.38 228.709 299.37 229.029C299.36 229.35 299.279 229.665 299.133 229.95C302.141 229.293 305.281 229.648 308.067 230.961C308.067 230.961 308.602 229.686 309.3 229.65C309.3 229.65 305.516 218.087 301.479 214.555C298.71 212.054 295.596 209.963 292.232 208.347C290.766 207.677 289.123 207.495 287.546 207.83C287.546 207.83 289.044 209.183 287.113 208.949ZM296.546 215.073C297.448 214.393 299.337 215.368 300.757 217.257C302.177 219.146 302.622 221.227 301.72 221.913C300.817 222.599 298.928 221.618 297.508 219.729C296.089 217.84 295.662 215.765 296.546 215.079V215.073Z" fill="white" stroke="#263238" stroke-width="0.8" stroke-miterlimit="10"/>
<path d="M305.576 217.022C305.576 217.022 301.594 211.71 297.437 209.231C295.013 207.773 292.429 206.6 289.736 205.736C289.736 205.736 291.625 205.808 293.045 208.666C293.863 210.302 293.587 212.69 293.587 212.69C297.764 213.573 301.799 215.03 305.576 217.022Z" fill="#33B55B" stroke="#263238" stroke-width="0.8" stroke-linejoin="round"/>
<path d="M290.247 146.28C290.247 146.28 280.507 152.867 275.406 158.847L265.582 149.739C265.582 149.739 278.029 132.75 283.154 134.837L290.247 146.28Z" fill="#33B55B" stroke="#263238" stroke-width="0.8" stroke-linejoin="round"/>
<path d="M270.395 149.095C270.471 149.416 270.44 149.753 270.308 150.054C270.175 150.356 269.948 150.607 269.661 150.768L274.028 154.853C274.253 154.699 274.501 154.583 274.762 154.51C275.075 154.402 275.409 154.372 275.736 154.422C276.063 154.473 276.373 154.602 276.639 154.798C281.091 149.342 289.038 144.932 289.038 144.932L285.429 138.73C285.429 138.73 284.647 134.988 280.321 137.208C276.976 138.928 271.562 145.299 269.282 148.097C269.54 148.148 269.78 148.267 269.976 148.443C270.171 148.619 270.316 148.844 270.395 149.095ZM280.447 140.926C282.324 139.891 284.394 140.047 285.062 141.262C285.729 142.478 284.749 144.313 282.872 145.341C280.995 146.37 278.925 146.22 278.252 144.998C277.578 143.777 278.546 141.954 280.429 140.926H280.447Z" fill="white" stroke="#263238" stroke-width="0.8" stroke-miterlimit="10"/>
<path d="M293.255 150.81L281.789 138.351C281.789 138.351 283.906 136.335 283.196 134.837L294.218 146.713C294.218 146.713 295.746 148.68 293.255 150.81Z" fill="#33B55B" stroke="#263238" stroke-width="0.8" stroke-linejoin="round"/>
<path d="M293.219 145.66L284.737 136.516C284.659 137.097 284.375 137.631 283.937 138.02L292.961 146.918L293.219 145.66Z" fill="white" stroke="#263238" stroke-width="0.8" stroke-miterlimit="10"/>
<path d="M43.3867 316.142H331.156" stroke="#263238" stroke-width="0.8" stroke-linecap="round" stroke-linejoin="round"/>
</svg>
