<svg width="18" height="18" viewBox="0 0 18 18" fill="none" xmlns="http://www.w3.org/2000/svg">
<path fill-rule="evenodd" clip-rule="evenodd" d="M12.3644 2.11857C13.3105 1.17247 14.8444 1.17247 15.7905 2.11857C16.7366 3.06467 16.7366 4.5986 15.7905 5.5447L5.88491 15.4503C5.86963 15.4656 5.85449 15.4807 5.8395 15.4958C5.6117 15.724 5.41504 15.9209 5.1782 16.0661C4.97 16.1937 4.74302 16.2877 4.50558 16.3447C4.23548 16.4095 3.95713 16.4093 3.63469 16.409C3.61346 16.409 3.59205 16.409 3.57043 16.409H2.25007C1.83586 16.409 1.50007 16.0732 1.50007 15.659V14.3386C1.50007 14.317 1.50005 14.2956 1.50004 14.2744C1.49976 13.952 1.49952 13.6736 1.56437 13.4035C1.62137 13.1661 1.71539 12.9391 1.84298 12.7309C1.98812 12.494 2.18511 12.2974 2.4133 12.0696C2.42832 12.0546 2.44348 12.0395 2.45876 12.0242L12.3644 2.11857ZM14.7299 3.17923C14.3695 2.81892 13.7854 2.81892 13.425 3.17923L3.51942 13.0848C3.22144 13.3828 3.16229 13.4488 3.12194 13.5146C3.07659 13.5886 3.04318 13.6693 3.02292 13.7537C3.00489 13.8288 3.00007 13.9172 3.00007 14.3386V14.909H3.57043C3.99185 14.909 4.08031 14.9042 4.15541 14.8861C4.23979 14.8659 4.32046 14.8325 4.39445 14.7871C4.4603 14.7468 4.52627 14.6876 4.82425 14.3896L14.7299 4.48404C15.0902 4.12373 15.0902 3.53954 14.7299 3.17923ZM16.9489 13.5285C17.2546 13.8079 17.2759 14.2823 16.9964 14.588L16.2079 15.4507L16.2078 15.4508C15.6552 16.0551 14.8906 16.409 14.0775 16.409C13.2647 16.409 12.5004 16.0554 11.9479 15.4514C11.6635 15.1416 11.2935 14.9819 10.9236 14.9819C10.5536 14.9819 10.1835 15.1417 9.8991 15.4517C9.61907 15.7569 9.14463 15.7773 8.83942 15.4973C8.53421 15.2173 8.5138 14.7428 8.79383 14.4376C9.34702 13.8347 10.1112 13.4819 10.9236 13.4819C11.736 13.4819 12.5002 13.8347 13.0534 14.4376L13.0542 14.4386C13.3381 14.749 13.7079 14.909 14.0775 14.909C14.4472 14.909 14.8169 14.749 15.1007 14.4386C15.1008 14.4386 15.1008 14.4386 15.1008 14.4386L15.8893 13.576C16.1688 13.2703 16.6432 13.249 16.9489 13.5285Z" fill="#1C1C1C"/>
</svg>
