<svg width="376" height="376" viewBox="0 0 376 376" fill="none" xmlns="http://www.w3.org/2000/svg">
<path d="M117.442 110.2C117.442 110.2 88.4023 137.717 93.9431 175.894C99.4838 214.072 133.462 243.556 160.203 268.09C186.944 292.623 224.905 295.992 252.29 277.216C279.675 258.44 264.882 234.695 280.355 200.843C295.828 166.991 305.917 159.82 297.615 124.788C289.313 89.7572 239.614 67.6243 190.145 76.883C140.675 86.1416 117.442 110.2 117.442 110.2Z" fill="#008000"/>
<path opacity="0.7" d="M117.442 110.2C117.442 110.2 88.4023 137.717 93.9431 175.894C99.4838 214.072 133.462 243.556 160.203 268.09C186.944 292.623 224.905 295.992 252.29 277.216C279.675 258.44 264.882 234.695 280.355 200.843C295.828 166.991 305.917 159.82 297.615 124.788C289.313 89.7572 239.614 67.6243 190.145 76.883C140.675 86.1416 117.442 110.2 117.442 110.2Z" fill="white"/>
<path d="M242.568 104.316H199.12L199.559 97.9811H243.007L242.568 104.316Z" fill="#CCCCCC"/>
<path d="M242.568 113.189H199.12L199.559 106.855H243.007L242.568 113.189Z" fill="#CCCCCC"/>
<path d="M242.568 122.069H199.12L199.559 115.728H243.007L242.568 122.069Z" fill="#CCCCCC"/>
<path d="M242.568 130.943H199.12L199.559 124.602H243.007L242.568 130.943Z" fill="#CCCCCC"/>
<path d="M242.568 139.816H199.12L199.559 133.475H243.007L242.568 139.816Z" fill="#CCCCCC"/>
<path d="M242.568 148.69H199.12L199.559 142.355H243.007L242.568 148.69Z" fill="#CCCCCC"/>
<path d="M242.568 157.563H199.12L199.559 151.229H243.007L242.568 157.563Z" fill="#CCCCCC"/>
<path d="M242.568 166.443H199.12L199.559 160.102H243.007L242.568 166.443Z" fill="#CCCCCC"/>
<path d="M242.568 175.317H199.12L199.559 168.976H243.007L242.568 175.317Z" fill="#CCCCCC"/>
<path d="M242.568 184.19H199.12L199.559 177.849H243.007L242.568 184.19Z" fill="#CCCCCC"/>
<path d="M242.568 193.064H199.12L199.559 186.723H243.007L242.568 193.064Z" fill="#CCCCCC"/>
<path d="M288.512 104.316H245.059L245.498 97.9811H288.951L288.512 104.316Z" fill="#CCCCCC"/>
<path d="M288.512 113.19H245.059L245.498 106.855H288.951L288.512 113.19Z" fill="#CCCCCC"/>
<path d="M288.512 122.069H245.059L245.498 115.728H288.951L288.512 122.069Z" fill="#CCCCCC"/>
<path d="M288.512 130.943H245.059L245.498 124.602H288.951L288.512 130.943Z" fill="#CCCCCC"/>
<path d="M288.512 139.816H245.059L245.498 133.475H288.951L288.512 139.816Z" fill="#CCCCCC"/>
<path d="M288.512 148.69H245.059L245.498 142.355H288.951L288.512 148.69Z" fill="#CCCCCC"/>
<path d="M288.512 157.564H245.059L245.498 151.229H288.951L288.512 157.564Z" fill="#CCCCCC"/>
<path d="M288.512 166.443H245.059L245.498 160.102H288.951L288.512 166.443Z" fill="#CCCCCC"/>
<path d="M288.512 175.317H245.059L245.498 168.976H288.951L288.512 175.317Z" fill="#CCCCCC"/>
<path d="M288.512 184.19H245.059L245.498 177.849H288.951L288.512 184.19Z" fill="#CCCCCC"/>
<path d="M288.512 193.064H245.059L245.498 186.723H288.951L288.512 193.064Z" fill="#CCCCCC"/>
<path d="M193.027 97.6321H103.256V174.649H193.027V97.6321Z" fill="#008000"/>
<path d="M188.533 101.482H107.744V170.799H188.533V101.482Z" fill="white"/>
<mask id="mask0_2541_4951" style="mask-type:luminance" maskUnits="userSpaceOnUse" x="107" y="101" width="82" height="70">
<path d="M188.533 101.482H107.744V170.799H188.533V101.482Z" fill="white"/>
</mask>
<g mask="url(#mask0_2541_4951)">
<path d="M188.533 122.496C174.004 132.832 153.195 139.69 129.053 150.465C121.446 153.805 114.287 158.086 107.744 163.206V170.805H188.533V122.496Z" fill="#008000"/>
<path d="M188.533 101.482H156.113C152.503 104.569 148.238 108.016 143.196 111.709C124.745 125.239 132.741 138.782 154.885 128.927C166.25 123.88 178.901 112.191 188.533 102.006V101.482Z" fill="#008000"/>
<path d="M121.7 109.255C121.7 103.606 114.668 108.052 107.773 113.731V127.995C114.481 121.413 121.7 114.308 121.7 109.255Z" fill="#008000"/>
<path d="M128.439 131.707C128.439 132.985 128.06 134.234 127.35 135.296C126.64 136.359 125.631 137.187 124.45 137.676C123.27 138.165 121.971 138.293 120.717 138.044C119.464 137.794 118.313 137.179 117.409 136.275C116.505 135.372 115.89 134.221 115.641 132.967C115.391 131.714 115.519 130.415 116.008 129.234C116.497 128.053 117.326 127.044 118.388 126.334C119.451 125.624 120.7 125.245 121.978 125.245C123.691 125.245 125.335 125.926 126.547 127.138C127.758 128.35 128.439 129.993 128.439 131.707Z" fill="#008000"/>
<path opacity="0.75" d="M188.533 122.496C174.004 132.832 153.195 139.69 129.053 150.465C121.446 153.805 114.287 158.086 107.744 163.206V170.805H188.533V122.496Z" fill="white"/>
<path opacity="0.75" d="M188.533 101.482H156.113C152.503 104.569 148.238 108.016 143.196 111.709C124.745 125.239 132.741 138.782 154.885 128.927C166.25 123.88 178.901 112.191 188.533 102.006V101.482Z" fill="white"/>
<g opacity="0.75">
<path d="M121.701 109.255C121.701 103.606 114.669 108.052 107.774 113.731V127.995C114.482 121.413 121.701 114.308 121.701 109.255Z" fill="white"/>
</g>
<path opacity="0.75" d="M128.439 131.707C128.439 132.985 128.06 134.234 127.35 135.296C126.64 136.359 125.631 137.187 124.45 137.676C123.27 138.165 121.971 138.293 120.717 138.044C119.464 137.794 118.313 137.179 117.409 136.275C116.505 135.372 115.89 134.221 115.641 132.967C115.391 131.714 115.519 130.415 116.008 129.234C116.497 128.053 117.326 127.044 118.388 126.334C119.451 125.624 120.7 125.245 121.978 125.245C123.691 125.245 125.335 125.926 126.547 127.138C127.758 128.35 128.439 129.993 128.439 131.707Z" fill="white"/>
</g>
<path d="M174.57 152.312C174.57 154.016 174.064 155.682 173.117 157.098C172.17 158.515 170.825 159.619 169.25 160.271C167.676 160.923 165.943 161.093 164.272 160.761C162.601 160.428 161.066 159.607 159.861 158.401C158.656 157.196 157.836 155.66 157.505 153.989C157.173 152.317 157.344 150.585 157.997 149.011C158.65 147.437 159.755 146.091 161.173 145.146C162.59 144.2 164.257 143.695 165.961 143.697C167.092 143.697 168.212 143.92 169.257 144.353C170.302 144.786 171.251 145.42 172.05 146.22C172.85 147.02 173.484 147.97 173.916 149.015C174.348 150.06 174.57 151.181 174.57 152.312Z" fill="white"/>
<path d="M296.008 256.382C294.447 258.193 293.393 260.385 292.952 262.735L286.822 266.17V249.927L286.942 250.09L296.706 242.943C297.94 243.135 302.68 243.677 307 241.348C312.017 238.647 315.681 229.395 315.681 229.395C315.681 229.395 303.721 228.041 299.672 233.058C296.387 237.125 296.273 241.066 296.351 242.407L286.822 249.38V237.378C288.607 236.547 290.184 235.329 291.44 233.813C292.696 232.297 293.599 230.521 294.083 228.613C295.816 221.863 286.563 208.561 286.563 208.561C286.563 208.561 276.938 222.254 278.845 229.196C280.481 235.074 284.861 236.939 286.178 237.372V263.391L279.32 257.658C279.476 256.286 279.603 251.997 275.783 247.701C271.15 242.492 258.812 242.889 258.812 242.889C258.812 242.889 264.015 253.302 268.437 256.773C272.311 259.781 277.66 258.578 278.947 258.211L286.166 264.227V272.138H275.428L279.813 299.547H292.97L297.368 272.144H286.822V266.91L293.56 263.132C295.196 263.59 299.774 264.528 304.106 262.362C309.52 259.661 313.942 253.874 313.942 253.874C313.942 253.874 301.026 250.595 296.008 256.382Z" fill="#008000"/>
<path opacity="0.5" d="M296.008 256.382C294.447 258.193 293.393 260.385 292.952 262.735L286.822 266.17V249.927L286.942 250.09L296.706 242.943C297.94 243.135 302.68 243.677 307 241.348C312.017 238.647 315.681 229.395 315.681 229.395C315.681 229.395 303.721 228.041 299.672 233.058C296.387 237.125 296.273 241.066 296.351 242.407L286.822 249.38V237.378C288.607 236.547 290.184 235.329 291.44 233.813C292.696 232.297 293.599 230.521 294.083 228.613C295.816 221.863 286.563 208.561 286.563 208.561C286.563 208.561 276.938 222.254 278.845 229.196C280.481 235.074 284.861 236.939 286.178 237.372V263.391L279.32 257.658C279.476 256.286 279.603 251.997 275.783 247.701C271.15 242.492 258.812 242.889 258.812 242.889C258.812 242.889 264.015 253.302 268.437 256.773C272.311 259.781 277.66 258.578 278.947 258.211L286.166 264.227V272.138H275.428L279.813 299.547H292.97L297.368 272.144H286.822V266.91L293.56 263.132C295.196 263.59 299.774 264.528 304.106 262.362C309.52 259.661 313.942 253.874 313.942 253.874C313.942 253.874 301.026 250.595 296.008 256.382Z" fill="white"/>
<path d="M283.849 173.572L266.144 173.723C266.144 173.723 264.941 173.572 264.682 174.45C264.682 174.45 261.608 182.211 261.464 184.991C261.319 187.77 262.065 187.331 260.862 191.007C259.659 194.682 256.326 203.297 254.425 210.324C251.868 219.763 251.201 229.786 251.038 239.532C251.038 241.096 250.076 254.572 252.512 254.572C254.533 254.572 273.165 257.044 273.388 253.453C274.284 239.135 271.697 225.147 276.666 211.226C278.597 205.812 280.811 200.109 282.454 194.454C284.096 188.799 284.379 182.915 285.462 177.128C286.19 173.133 283.849 173.572 283.849 173.572Z" fill="#263238"/>
<path d="M285.588 175.329C285.413 173.283 283.849 173.572 283.849 173.572L266.144 173.723C266.144 173.723 264.941 173.572 264.682 174.451C264.682 174.451 261.608 182.211 261.464 184.991C261.42 185.725 261.44 186.462 261.524 187.192L261.897 187.794C261.897 187.794 262.498 192.914 269.507 193.208C276.516 193.503 280.486 190.279 281.948 187.192C283.41 184.106 284 179.143 285.167 176.213C285.292 175.912 285.433 175.616 285.588 175.329Z" fill="#008000"/>
<path d="M281.479 181.044C280.276 185.321 281.004 186.507 279.819 193.87C278.634 201.234 274.356 209.512 272.69 217.146C271.023 224.78 271.745 251.582 271.98 252.773C272.073 253.404 272.107 254.042 272.082 254.68C272.882 254.379 273.364 253.97 273.4 253.41C274.296 239.092 271.709 225.105 276.679 211.184C278.61 205.77 280.824 200.067 282.466 194.412C284.108 188.757 284.391 182.873 285.474 177.085C285.925 174.679 285.215 173.891 284.596 173.656C283.25 175.978 282.203 178.46 281.479 181.044Z" fill="#008000"/>
<path d="M247.279 289.11L247.158 289.013V272.481H249.535V262.031H240.751V272.481H243.121V289.296L222.102 295.998V297.658C222.102 298.162 222.302 298.646 222.658 299.003C223.015 299.359 223.498 299.559 224.003 299.559C224.507 299.559 224.99 299.359 225.347 299.003C225.703 298.646 225.904 298.162 225.904 297.658V297.424L243.482 295.378V297.899C243.482 298.339 243.657 298.762 243.969 299.073C244.28 299.384 244.702 299.559 245.143 299.559C245.583 299.559 246.006 299.384 246.317 299.073C246.628 298.762 246.803 298.339 246.803 297.899V295.294L265.092 297.424V297.658C265.092 298.162 265.292 298.646 265.649 299.003C266.005 299.359 266.489 299.559 266.993 299.559C267.497 299.559 267.981 299.359 268.337 299.003C268.694 298.646 268.894 298.162 268.894 297.658V295.998L247.279 289.11Z" fill="#263238"/>
<path d="M272.341 251.84H220.14C218.811 251.84 217.733 252.918 217.733 254.247V261.556C217.733 262.885 218.811 263.963 220.14 263.963H272.341C273.67 263.963 274.747 262.885 274.747 261.556V254.247C274.747 252.918 273.67 251.84 272.341 251.84Z" fill="#263238"/>
<path d="M66.8588 173.572L84.5639 173.723C84.5639 173.723 85.7671 173.572 86.0318 174.45C86.0318 174.45 89.106 182.211 89.2504 184.991C89.3948 187.77 88.6488 187.331 89.852 191.007C91.0552 194.682 94.388 203.297 96.2891 210.324C98.8519 219.763 99.5137 229.786 99.6761 239.532C99.6761 241.096 100.639 254.572 98.2022 254.572C96.1868 254.572 77.5553 257.044 77.3267 253.453C76.4363 239.135 79.0172 225.147 74.0479 211.226C72.1168 205.812 69.9029 200.109 68.2666 194.454C66.6302 188.799 66.3414 182.915 65.2586 177.128C64.5487 173.133 66.8588 173.572 66.8588 173.572Z" fill="#263238"/>
<path d="M65.1504 175.329C65.3249 173.283 66.883 173.572 66.883 173.572L84.5881 173.723C84.5881 173.723 85.7913 173.572 86.056 174.451C86.056 174.451 89.1302 182.211 89.2745 184.991C89.3137 185.725 89.2916 186.462 89.2084 187.192L88.8354 187.794C88.8354 187.794 88.2338 192.914 81.2251 193.208C74.2165 193.503 70.2279 190.279 68.76 187.186C67.2921 184.094 66.7146 179.137 65.5414 176.207C65.4282 175.907 65.2977 175.614 65.1504 175.329Z" fill="#008000"/>
<path d="M69.2286 181.044C70.4318 185.321 69.7039 186.507 70.889 193.87C72.0742 201.234 76.3576 209.512 78.018 217.146C79.6784 224.78 78.9866 251.582 78.7279 252.773C78.6377 253.404 78.6035 254.042 78.6256 254.68C77.8315 254.379 77.3442 253.97 77.3081 253.41C76.4177 239.092 78.9986 225.105 74.0294 211.184C72.0983 205.77 69.8844 200.067 68.248 194.412C66.6117 188.757 66.3229 182.873 65.24 177.085C64.7948 174.679 65.5047 173.891 66.1184 173.656C67.4647 175.977 68.5098 178.459 69.2286 181.044Z" fill="#008000"/>
<path d="M103.43 289.11L103.55 289.013V272.481H101.144V262.031H109.933V272.481H107.557V289.296L128.577 295.998V297.658C128.577 298.162 128.377 298.646 128.02 299.003C127.664 299.359 127.18 299.559 126.676 299.559C126.172 299.559 125.688 299.359 125.332 299.003C124.975 298.646 124.775 298.162 124.775 297.658V297.424L107.262 295.378V297.899C107.237 298.323 107.051 298.721 106.741 299.012C106.432 299.303 106.024 299.465 105.599 299.465C105.174 299.465 104.766 299.303 104.457 299.012C104.147 298.721 103.961 298.323 103.936 297.899V295.294L85.6048 297.424V297.658C85.6193 297.916 85.581 298.175 85.4922 298.418C85.4034 298.661 85.2659 298.883 85.0882 299.071C84.9106 299.259 84.6964 299.409 84.4589 299.511C84.2213 299.613 83.9654 299.666 83.7067 299.666C83.4481 299.666 83.1921 299.613 82.9546 299.511C82.717 299.409 82.5029 299.259 82.3252 299.071C82.1475 298.883 82.0101 298.661 81.9212 298.418C81.8324 298.175 81.7941 297.916 81.8087 297.658V295.998L103.43 289.11Z" fill="#263238"/>
<path d="M78.3674 263.957H130.568C131.897 263.957 132.975 262.879 132.975 261.55V254.241C132.975 252.912 131.897 251.834 130.568 251.834H78.3674C77.0384 251.834 75.961 252.912 75.961 254.241V261.55C75.961 262.879 77.0384 263.957 78.3674 263.957Z" fill="#263238"/>
<path d="M261.873 217.796H118.933V299.95H261.873V217.796Z" fill="#CCCCCC"/>
<path d="M261.766 219.769H119.006V222.043H261.766V219.769Z" fill="#263238"/>
<path d="M262.932 216.448H115.751V220.04H262.932V216.448Z" fill="#CCCCCC"/>
<path d="M156.991 209.313C156.991 209.313 158.675 216.839 158.579 218.939C158.483 221.038 154.518 226.663 154.416 225.376C154.45 224.285 154.686 223.21 155.114 222.206C155.114 222.206 153.724 224.089 153.231 224.01C152.737 223.932 153.628 221.333 153.628 221.333C153.628 221.333 152.142 222.819 151.643 222.536C151.143 222.254 152.731 220.058 152.731 220.058C152.731 220.058 150.927 221.941 150.854 221.345C150.782 220.75 152.437 218.277 152.437 218.277C152.437 218.277 150.752 214.71 150.632 213.224C150.643 212.186 150.989 211.179 151.618 210.354L156.991 209.313Z" fill="white"/>
<mask id="mask1_2541_4951" style="mask-type:luminance" maskUnits="userSpaceOnUse" x="150" y="209" width="9" height="17">
<path d="M156.99 209.313C156.99 209.313 158.674 216.839 158.578 218.939C158.482 221.038 154.517 226.663 154.415 225.376C154.449 224.285 154.685 223.21 155.113 222.205C155.113 222.205 153.723 224.088 153.23 224.01C152.736 223.932 153.627 221.333 153.627 221.333C153.627 221.333 152.141 222.819 151.642 222.536C151.142 222.254 152.73 220.058 152.73 220.058C152.73 220.058 150.926 221.941 150.853 221.345C150.781 220.75 152.436 218.277 152.436 218.277C152.436 218.277 150.751 214.709 150.631 213.224C150.642 212.186 150.988 211.179 151.617 210.354L156.99 209.313Z" fill="white"/>
</mask>
<g mask="url(#mask1_2541_4951)">
<path d="M156.99 209.313C156.99 209.313 158.674 216.839 158.578 218.939C158.482 221.038 154.517 226.663 154.415 225.376C154.449 224.285 154.685 223.21 155.113 222.205C155.113 222.205 153.723 224.088 153.23 224.01C152.736 223.932 153.627 221.333 153.627 221.333C153.627 221.333 152.141 222.819 151.642 222.536C151.142 222.254 152.73 220.058 152.73 220.058C152.73 220.058 150.926 221.941 150.853 221.345C150.781 220.75 152.436 218.277 152.436 218.277C152.436 218.277 150.751 214.709 150.631 213.224C150.642 212.186 150.988 211.179 151.617 210.354L156.99 209.313Z" fill="#D9D9D9"/>
</g>
<path d="M156.991 209.313C156.991 209.313 158.675 216.839 158.579 218.939C158.483 221.038 154.518 226.663 154.416 225.376C154.45 224.285 154.686 223.21 155.114 222.206C155.114 222.206 153.724 224.089 153.231 224.01C152.737 223.932 153.628 221.333 153.628 221.333C153.628 221.333 152.142 222.819 151.643 222.536C151.143 222.254 152.731 220.058 152.731 220.058C152.731 220.058 150.927 221.941 150.854 221.345C150.782 220.75 152.437 218.277 152.437 218.277C152.437 218.277 150.752 214.71 150.632 213.224C150.643 212.186 150.989 211.179 151.618 210.354L156.991 209.313Z" stroke="#263238" stroke-width="0.8" stroke-linecap="round" stroke-linejoin="round"/>
<path d="M156.593 209.313C156.593 209.313 157.797 214.565 157.688 216.051C157.58 217.537 156.1 221.893 155.011 221.099C153.922 220.304 155.703 217.339 155.703 217.339C155.703 217.339 152.647 215.191 151.943 213.175C151.239 211.16 151.642 210.306 151.642 210.306L156.593 209.313Z" fill="white"/>
<mask id="mask2_2541_4951" style="mask-type:luminance" maskUnits="userSpaceOnUse" x="151" y="209" width="7" height="13">
<path d="M156.593 209.313C156.593 209.313 157.797 214.565 157.688 216.051C157.58 217.537 156.1 221.893 155.011 221.099C153.922 220.304 155.703 217.339 155.703 217.339C155.703 217.339 152.647 215.191 151.943 213.175C151.239 211.16 151.642 210.306 151.642 210.306L156.593 209.313Z" fill="white"/>
</mask>
<g mask="url(#mask2_2541_4951)">
<path d="M156.593 209.313C156.593 209.313 157.797 214.565 157.688 216.051C157.58 217.537 156.1 221.893 155.011 221.099C153.922 220.304 155.703 217.339 155.703 217.339C155.703 217.339 152.647 215.191 151.943 213.175C151.239 211.16 151.642 210.306 151.642 210.306L156.593 209.313Z" fill="#D9D9D9"/>
</g>
<path d="M156.593 209.313C156.593 209.313 157.797 214.565 157.688 216.051C157.58 217.537 156.1 221.893 155.011 221.099C153.922 220.304 155.703 217.339 155.703 217.339C155.703 217.339 152.647 215.191 151.943 213.175C151.239 211.16 151.642 210.306 151.642 210.306L156.593 209.313Z" stroke="#263238" stroke-width="0.8" stroke-linecap="round" stroke-linejoin="round"/>
<path d="M152.966 184.702L157.184 209.818L151.24 211.16L145.296 191.795L152.966 184.702Z" fill="#263238" stroke="#263238" stroke-width="0.8" stroke-linecap="round" stroke-linejoin="round"/>
<path d="M151.239 196.974C151.239 196.974 151.624 226.886 152.195 234.941C152.767 242.997 150.661 253.735 148.748 256.803C146.835 259.872 138.388 279.063 138.774 280.2C139.159 281.337 140.885 284.802 140.885 285.758V289.783C140.885 289.783 150.469 296.112 151.239 296.112C152.009 296.112 152.965 297.646 151.046 298.801C149.127 299.956 127.65 299.95 126.693 299.18C126.062 298.614 125.598 297.886 125.352 297.075C125.352 297.075 122.284 298.224 122.476 295.348C122.669 292.472 126.116 280.2 126.116 280.2C126.116 280.2 124.01 266.772 124.774 258.145C125.538 249.518 128.227 239.159 128.227 237.053C128.227 234.947 125.544 220.942 125.159 218.644C124.774 216.346 119.215 209.818 121.706 204.645C124.197 199.471 126.116 191.217 126.886 190.645C127.656 190.074 138.009 189.683 142.227 190.645C146.444 191.608 151.046 191.602 151.239 196.974Z" fill="#263238" stroke="#263238" stroke-width="0.8" stroke-linecap="round" stroke-linejoin="round"/>
<path d="M132.228 136.682C132.228 136.682 128.95 139.618 128.384 140.634C127.819 141.651 120.936 151.463 120.822 158.478C120.708 165.493 125.912 186.705 125.912 186.705L118.091 206.6L120.353 207.502L122.609 205.018V208.748C122.609 208.748 125.208 211.118 131.982 213.374C138.756 215.63 147.455 213.037 147.455 213.037L150.048 196.529V212.814L153.098 210.781L153.345 183.661C153.345 183.661 155.829 169.096 155.829 165.011C155.829 160.926 148.941 148.167 145.891 144.461C142.841 140.755 137.757 137.687 136.265 136.556C134.773 135.425 132.228 136.682 132.228 136.682Z" fill="#263238"/>
<mask id="mask3_2541_4951" style="mask-type:luminance" maskUnits="userSpaceOnUse" x="118" y="136" width="38" height="79">
<path d="M132.228 136.682C132.228 136.682 128.95 139.618 128.384 140.634C127.819 141.651 120.936 151.463 120.822 158.478C120.708 165.493 125.912 186.705 125.912 186.705L118.091 206.6L120.353 207.502L122.609 205.018V208.748C122.609 208.748 125.208 211.118 131.982 213.374C138.756 215.63 147.455 213.037 147.455 213.037L150.048 196.529V212.814L153.098 210.781L153.345 183.661C153.345 183.661 155.829 169.096 155.829 165.011C155.829 160.926 148.941 148.167 145.891 144.461C142.841 140.755 137.757 137.687 136.265 136.556C134.773 135.425 132.228 136.682 132.228 136.682Z" fill="white"/>
</mask>
<g mask="url(#mask3_2541_4951)">
<path opacity="0.17" d="M132.228 136.682C132.228 136.682 128.95 139.618 128.384 140.634C127.819 141.651 120.936 151.463 120.822 158.478C120.708 165.493 125.912 186.705 125.912 186.705L118.091 206.6L120.353 207.502L122.609 205.018V208.748C122.609 208.748 125.208 211.118 131.982 213.374C138.756 215.63 147.455 213.037 147.455 213.037L150.048 196.529V212.814L153.098 210.781L153.345 183.661C153.345 183.661 155.829 169.096 155.829 165.011C155.829 160.926 148.941 148.167 145.891 144.461C142.841 140.755 137.757 137.687 136.265 136.556C134.773 135.425 132.228 136.682 132.228 136.682Z" fill="white"/>
<path d="M122.579 160.728C122.579 160.728 126.682 163.634 129.413 164.656" stroke="#263238" stroke-width="0.8" stroke-linecap="round" stroke-linejoin="round"/>
<path d="M123.776 163.808C123.776 163.808 128.391 165.011 130.779 165.011" stroke="#263238" stroke-width="0.8" stroke-linecap="round" stroke-linejoin="round"/>
<path d="M130.441 191.133L143.424 192.673L142.57 195.404L130.61 194.039" stroke="#263238" stroke-width="0.8" stroke-linecap="round" stroke-linejoin="round"/>
</g>
<path d="M132.228 136.682C132.228 136.682 128.95 139.618 128.384 140.634C127.819 141.651 120.936 151.463 120.822 158.478C120.708 165.493 125.912 186.705 125.912 186.705L118.091 206.6L120.353 207.502L122.609 205.018V208.748C122.609 208.748 125.208 211.118 131.982 213.374C138.756 215.63 147.455 213.037 147.455 213.037L150.048 196.529V212.814L153.098 210.781L153.345 183.661C153.345 183.661 155.829 169.096 155.829 165.011C155.829 160.926 148.941 148.167 145.891 144.461C142.841 140.755 137.757 137.687 136.265 136.556C134.773 135.425 132.228 136.682 132.228 136.682Z" stroke="#263238" stroke-width="0.8" stroke-linecap="round" stroke-linejoin="round"/>
<path d="M131.549 137.338L144.086 150.892L151.426 164.897C151.426 164.897 149.843 154.507 148.49 151.662C147.136 148.816 141.036 141.766 140.35 140.183C139.664 138.601 131.549 137.338 131.549 137.338Z" fill="white" stroke="#263238" stroke-width="0.8" stroke-linecap="round" stroke-linejoin="round"/>
<path d="M147.954 158.291L151.425 164.909C151.425 164.909 150.349 157.828 149.206 153.767L148.49 151.692C147.529 150.006 146.438 148.397 145.229 146.879L143.262 146.488L144.086 150.916L146.625 152.991L147.954 158.291Z" fill="#263238" stroke="#263238" stroke-width="0.8" stroke-linecap="round" stroke-linejoin="round"/>
<path d="M144.609 142.445L145.259 143.197L147.298 145.604L148.501 151.716L143.273 146.5C143.273 146.5 143.959 143.354 144.609 142.445Z" fill="white" stroke="#263238" stroke-width="0.8" stroke-linecap="round" stroke-linejoin="round"/>
<path d="M150.523 117.256C150.523 117.256 153.266 119.362 153.609 121.395C153.952 123.429 152.929 125.691 153.043 126.479C153.158 127.267 155.185 129.078 155.077 129.98C154.968 130.883 153.272 131.219 153.272 131.219C153.272 131.219 151.431 137.921 150.98 139.04C150.529 140.159 148.267 139.828 146.576 139.606L143.526 148.63L133.467 136.796L135.049 132.05C135.049 132.05 130.76 126.858 130.417 121.323C130.074 115.788 134.484 111.95 140.807 111.162C147.13 110.374 152.442 113.418 153.115 114.663C153.789 115.909 150.523 117.256 150.523 117.256Z" fill="white"/>
<mask id="mask4_2541_4951" style="mask-type:luminance" maskUnits="userSpaceOnUse" x="130" y="111" width="26" height="38">
<path d="M150.524 117.256C150.524 117.256 153.267 119.362 153.61 121.395C153.953 123.429 152.93 125.691 153.044 126.479C153.159 127.267 155.186 129.078 155.078 129.98C154.969 130.883 153.273 131.22 153.273 131.22C153.273 131.22 151.432 137.921 150.981 139.04C150.53 140.159 148.268 139.828 146.577 139.606L143.527 148.63L133.468 136.796L135.05 132.05C135.05 132.05 130.761 126.858 130.418 121.323C130.075 115.788 134.485 111.95 140.808 111.162C147.131 110.374 152.443 113.418 153.116 114.664C153.79 115.909 150.524 117.256 150.524 117.256Z" fill="white"/>
</mask>
<g mask="url(#mask4_2541_4951)">
<path d="M150.523 117.256C150.523 117.256 153.266 119.362 153.609 121.395C153.952 123.429 152.929 125.691 153.043 126.479C153.158 127.267 155.185 129.078 155.077 129.98C154.968 130.883 153.272 131.22 153.272 131.22C153.272 131.22 151.431 137.921 150.98 139.04C150.529 140.159 148.267 139.828 146.576 139.606L143.526 148.63L133.467 136.796L135.049 132.05C135.049 132.05 130.76 126.858 130.417 121.323C130.074 115.788 134.484 111.95 140.807 111.162C147.13 110.374 152.442 113.418 153.115 114.664C153.789 115.909 150.523 117.256 150.523 117.256Z" fill="#D9D9D9"/>
<path d="M138.804 143.089C140.5 142.746 143.346 142.157 145.909 141.579L146.57 139.618C147.978 139.804 149.783 140.069 150.601 139.498C148.676 138.703 143.911 137.314 142.937 135.527C141.733 133.307 145.945 126.846 145.945 123.615C145.945 120.385 141.908 116.751 141.908 116.751C139.965 114.904 136.421 114.345 133.275 114.345C132.285 115.209 131.509 116.293 131.01 117.51C130.511 118.726 130.302 120.042 130.399 121.353C130.742 126.888 135.032 132.08 135.032 132.08L133.449 136.826L138.804 143.089Z" fill="#B8B8B8"/>
</g>
<path d="M150.523 117.256C150.523 117.256 153.266 119.362 153.609 121.395C153.952 123.429 152.929 125.691 153.043 126.479C153.158 127.267 155.185 129.078 155.077 129.98C154.968 130.883 153.272 131.219 153.272 131.219C153.272 131.219 151.431 137.921 150.98 139.04C150.529 140.159 148.267 139.828 146.576 139.606L143.526 148.63L133.467 136.796L135.049 132.05C135.049 132.05 130.76 126.858 130.417 121.323C130.074 115.788 134.484 111.95 140.807 111.162C147.13 110.374 152.442 113.418 153.115 114.663C153.789 115.909 150.523 117.256 150.523 117.256Z" stroke="#263238" stroke-width="0.8" stroke-linecap="round" stroke-linejoin="round"/>
<path d="M150.523 117.256C150.523 117.256 153.796 115.903 153.116 114.663C152.436 113.424 147.13 110.368 140.807 111.162C134.484 111.956 130.081 115.788 130.417 121.323C130.754 126.858 135.05 132.05 135.05 132.05L134.809 132.772C137.149 133.915 139.568 132.05 139.568 132.05C139.126 132.272 138.625 132.349 138.137 132.268C137.65 132.186 137.2 131.952 136.855 131.598C135.501 130.359 135.387 126.407 137.083 126.064C138.78 125.721 139.905 126.407 139.905 127.646C139.905 128.885 140.242 128.097 141.15 127.983C142.058 127.869 141.258 125.161 141.824 124.71C142.738 124.144 143.541 123.417 144.194 122.562C145.211 121.209 142.275 120.084 141.938 118.839C141.601 117.593 150.523 117.256 150.523 117.256Z" fill="#263238" stroke="#263238" stroke-width="0.8" stroke-linecap="round" stroke-linejoin="round"/>
<path d="M151.329 126.076L149.235 126.774H151.13" stroke="#263238" stroke-width="0.8" stroke-linecap="round" stroke-linejoin="round"/>
<path d="M152.13 123.982C152.13 123.982 151.233 122.689 150.235 123.284C149.236 123.88 149.14 124.283 149.14 124.283" stroke="#263238" stroke-width="0.8" stroke-linecap="round" stroke-linejoin="round"/>
<path d="M149.976 133.054C150.588 133.473 151.336 133.645 152.069 133.536" stroke="#263238" stroke-width="0.8" stroke-linecap="round" stroke-linejoin="round"/>
<path d="M133.016 134.649L145.661 147.072L144.536 152.378L131.097 137.921L133.016 134.649Z" fill="white" stroke="#263238" stroke-width="0.8" stroke-linecap="round" stroke-linejoin="round"/>
<path d="M181.595 182.145C181.595 182.145 177.144 179.498 176.422 179.738C175.7 179.979 168.721 185.033 169.202 186.236C169.684 187.439 173.414 189.003 175.579 189.845C177.745 190.688 182.197 188.883 182.197 188.883L181.595 182.145Z" fill="white" stroke="#263238" stroke-width="0.8" stroke-linecap="round" stroke-linejoin="round"/>
<path d="M168.625 181.182C168.625 181.182 172.475 179.017 173.076 179.017C173.678 179.017 177.167 182.145 177.167 182.145L175.724 184.311C175.724 184.311 180.296 186.597 179.814 187.439C179.333 188.281 177.528 189.605 175.603 189.845C173.678 190.086 168.264 186.597 168.264 186.597L168.625 181.182Z" fill="white"/>
<mask id="mask5_2541_4951" style="mask-type:luminance" maskUnits="userSpaceOnUse" x="168" y="179" width="12" height="11">
<path d="M168.626 181.182C168.626 181.182 172.476 179.017 173.077 179.017C173.679 179.017 177.168 182.145 177.168 182.145L175.724 184.311C175.724 184.311 180.297 186.597 179.815 187.439C179.334 188.281 177.529 189.605 175.604 189.845C173.679 190.086 168.265 186.597 168.265 186.597L168.626 181.182Z" fill="white"/>
</mask>
<g mask="url(#mask5_2541_4951)">
<path d="M168.626 181.182C168.626 181.182 172.476 179.017 173.077 179.017C173.679 179.017 177.168 182.145 177.168 182.145L175.724 184.311C175.724 184.311 180.297 186.597 179.815 187.439C179.334 188.281 177.529 189.605 175.604 189.845C173.679 190.086 168.265 186.597 168.265 186.597L168.626 181.182Z" fill="#D9D9D9"/>
</g>
<path d="M168.625 181.182C168.625 181.182 172.475 179.017 173.076 179.017C173.678 179.017 177.167 182.145 177.167 182.145L175.724 184.311C175.724 184.311 180.296 186.597 179.814 187.439C179.333 188.281 177.528 189.605 175.603 189.845C173.678 190.086 168.264 186.597 168.264 186.597L168.625 181.182Z" stroke="#263238" stroke-width="0.8" stroke-linecap="round" stroke-linejoin="round"/>
<path d="M165.954 180.22L169.323 180.821L168.24 186.597L165.353 185.634L165.954 180.22Z" fill="white" stroke="#263238" stroke-width="0.8" stroke-linecap="round" stroke-linejoin="round"/>
<path d="M126.856 146.651C126.856 146.651 123.607 152.907 123.247 156.035C122.886 159.164 136.121 184.07 137.083 184.912C138.046 185.755 166.195 186.597 166.195 186.597L167.398 180.46L143.334 173.602L135.152 148.455" fill="#263238"/>
<mask id="mask6_2541_4951" style="mask-type:luminance" maskUnits="userSpaceOnUse" x="123" y="146" width="45" height="41">
<path d="M126.856 146.651C126.856 146.651 123.607 152.907 123.247 156.035C122.886 159.164 136.121 184.07 137.083 184.912C138.046 185.755 166.195 186.597 166.195 186.597L167.398 180.46L143.334 173.602L135.152 148.455" fill="white"/>
</mask>
<g mask="url(#mask6_2541_4951)">
<path opacity="0.17" d="M126.856 146.651C126.856 146.651 123.607 152.907 123.247 156.035C122.886 159.164 136.121 184.07 137.083 184.912C138.046 185.755 166.195 186.597 166.195 186.597L167.398 180.46L143.334 173.602L135.152 148.455" fill="white"/>
</g>
<path d="M126.856 146.651C126.856 146.651 123.607 152.907 123.247 156.035C122.886 159.164 136.121 184.07 137.083 184.912C138.046 185.755 166.195 186.597 166.195 186.597L167.398 180.46L143.334 173.602L135.152 148.455" stroke="#263238" stroke-width="0.8" stroke-linecap="round" stroke-linejoin="round"/>
<path d="M177.384 180.34C177.384 180.34 175.699 178.896 175.098 180.581C174.496 182.265 170.766 186.356 172.451 186.476C174.135 186.597 177.264 183.107 177.264 183.107" fill="white"/>
<path d="M177.384 180.34C177.384 180.34 175.699 178.896 175.098 180.581C174.496 182.265 170.766 186.356 172.451 186.476C174.135 186.597 177.264 183.107 177.264 183.107" stroke="#263238" stroke-width="0.8" stroke-linecap="round" stroke-linejoin="round"/>
<path d="M169.925 187.078C169.925 187.078 169.492 189.105 170.527 189.966C171.254 190.567 171.664 188.883 171.489 187.68C171.315 186.476 170.286 186.115 169.925 187.078Z" fill="white" stroke="#263238" stroke-width="0.8" stroke-linecap="round" stroke-linejoin="round"/>
<path d="M171.633 187.559C171.633 187.559 171.2 189.587 172.235 190.447C172.962 191.049 173.372 189.364 173.197 188.161C173.023 186.958 171.97 186.597 171.633 187.559Z" fill="white" stroke="#263238" stroke-width="0.8" stroke-linecap="round" stroke-linejoin="round"/>
<path d="M173.293 188.281C173.293 188.281 172.86 190.309 173.895 191.169C174.623 191.77 175.032 190.086 174.857 188.883C174.683 187.68 173.654 187.319 173.293 188.281Z" fill="white" stroke="#263238" stroke-width="0.8" stroke-linecap="round" stroke-linejoin="round"/>
<path d="M174.96 189.262C174.96 189.262 174.563 190.628 175.514 191.205C176.181 191.614 176.56 190.477 176.398 189.665C176.236 188.853 175.291 188.612 174.96 189.262Z" fill="white" stroke="#263238" stroke-width="0.8" stroke-linecap="round" stroke-linejoin="round"/>
<path d="M181.596 182.145L181.957 189.845L184.604 189.123L184.002 182.025L181.596 182.145Z" stroke="#263238" stroke-width="0.8" stroke-linecap="round" stroke-linejoin="round"/>
<path d="M183.4 181.423L184.604 190.567L204.697 188.402L205.178 176.49L183.4 181.423Z" fill="#263238" stroke="#263238" stroke-width="0.8" stroke-linecap="round" stroke-linejoin="round"/>
<path d="M148.17 217.874C148.17 217.874 144.525 242.227 144.525 250.475C144.525 258.723 138.966 272.529 138.773 280.2" stroke="white" stroke-width="0.8" stroke-linecap="round" stroke-linejoin="round"/>
<path d="M126.693 299.168C127.65 299.938 149.127 299.938 151.046 298.789C152.965 297.64 152.002 296.1 151.238 296.1C150.474 296.1 140.885 289.771 140.885 289.771C140.885 289.771 135.705 293.802 132.829 294.759C129.954 295.715 125.352 295.908 125.352 295.908V297.063C125.598 297.874 126.062 298.602 126.693 299.168Z" fill="white" stroke="#263238" stroke-width="0.8" stroke-linecap="round" stroke-linejoin="round"/>
<path d="M151.046 298.801C152.057 298.2 152.25 297.478 152.129 296.942C149.309 297.5 146.443 297.8 143.569 297.839C137.775 297.995 128.661 297.64 125.521 297.508C125.781 298.154 126.193 298.728 126.724 299.18C127.65 299.95 149.127 299.95 151.046 298.801Z" fill="white" stroke="#263238" stroke-width="0.8" stroke-linecap="round" stroke-linejoin="round"/>
<path d="M124.793 297.225L125.353 295.92L126.117 280.2C126.117 280.2 122.663 292.472 122.477 295.348C122.333 297.442 123.921 297.399 124.793 297.225Z" fill="#263238" stroke="#263238" stroke-width="0.8" stroke-linecap="round" stroke-linejoin="round"/>
<path d="M207.615 213.079C207.615 213.079 205.702 241.655 207.615 253.158C209.528 264.66 214.347 284.609 215.093 287.1C215.563 288.587 215.767 290.145 215.694 291.702L226.433 293.236C226.433 293.236 223.172 255.462 223.172 251.052C223.172 246.642 226.818 213.657 226.818 213.657L207.615 213.079Z" fill="#263238" stroke="#263238" stroke-width="0.8" stroke-linecap="round" stroke-linejoin="round"/>
<path d="M215.67 291.702C215.67 291.702 203.975 296.69 202.627 297.646C201.28 298.603 205.509 299.95 210.683 299.95C215.856 299.95 221.042 299.349 221.042 299.349L223.148 298.2L223.34 299.541H228.899C228.899 299.541 229.862 294.939 229.501 293.79C229.227 293.004 228.908 292.234 228.544 291.486L215.67 291.702Z" fill="#263238" stroke="#263238" stroke-width="0.8" stroke-linecap="round" stroke-linejoin="round"/>
<path d="M205.889 210.781C205.889 210.781 206.851 238.202 209.149 247.984C211.447 257.766 215.478 281.541 215.478 284.032C215.493 285.456 215.301 286.874 214.907 288.243L214.137 290.746C214.268 291.343 214.47 291.923 214.738 292.472C214.738 292.472 219.719 293.621 222.98 293.621C225.018 293.603 227.044 293.297 228.996 292.713C228.996 292.713 229.098 286.697 229.291 283.839C229.483 280.982 228.527 262.555 228.527 258.145C228.527 253.735 227.372 251.239 227.372 245.872C227.372 240.506 226.415 226.122 226.608 223.818C226.8 221.514 229.483 219.005 230.061 216.147C230.638 213.29 231.21 210.203 231.21 210.203L205.889 210.781Z" fill="#263238" stroke="#263238" stroke-width="0.8" stroke-linecap="round" stroke-linejoin="round"/>
<path d="M208.187 239.61C208.187 239.61 213.547 276.795 214.888 279.141C215.689 280.638 215.903 282.379 215.49 284.026" stroke="white" stroke-width="0.8" stroke-linecap="round" stroke-linejoin="round"/>
<path d="M201.286 189.111C201.286 189.111 200.57 196.445 200.57 202.052C200.57 205.18 200.54 209.271 200.51 212.231C200.501 213.449 200.917 214.632 201.685 215.577C202.454 216.522 203.527 217.171 204.721 217.411C205.981 217.688 207.264 217.843 208.553 217.874L204.047 189.972C204.047 189.972 202.008 186.525 201.286 189.111Z" fill="#263238" stroke="#263238" stroke-width="0.8" stroke-linecap="round" stroke-linejoin="round"/>
<path d="M222.577 139.143C223.676 139.721 224.678 140.466 225.549 141.35C226.317 142.36 226.997 143.432 227.582 144.557C227.582 144.557 235.734 153.954 235.927 154.911C236.119 155.867 231.324 186.073 231.324 186.073L236.787 214.643C236.787 214.643 227.967 219.534 221.254 219.823C216.531 220.028 209.426 218.518 205.612 217.603C204.853 217.423 204.17 217.009 203.659 216.42C203.149 215.83 202.836 215.095 202.766 214.319C202.393 210.3 201.696 202.287 201.286 194.7C200.817 185.887 202.153 168.428 203.091 162.292C204.03 156.156 207.026 147.818 209.324 144.364C211.622 140.911 217.957 137.338 222.577 139.143Z" fill="#263238" stroke="#263238" stroke-width="0.8" stroke-linecap="round" stroke-linejoin="round"/>
<path d="M227.582 144.557C227.002 143.448 226.33 142.389 225.573 141.392C224.702 140.508 223.699 139.763 222.601 139.185C218.774 137.675 213.769 139.864 210.863 142.632C210.478 143.486 207.446 150.404 206.009 156.059C204.474 162.075 204.667 169.68 204.667 169.68C204.667 169.68 209.75 163.158 216.651 155.488C220.096 151.654 223.86 148.118 227.901 144.918L227.582 144.557Z" fill="#263238"/>
<mask id="mask7_2541_4951" style="mask-type:luminance" maskUnits="userSpaceOnUse" x="204" y="138" width="24" height="32">
<path d="M227.583 144.557C227.003 143.448 226.331 142.389 225.574 141.393C224.703 140.508 223.7 139.763 222.602 139.185C218.775 137.675 213.77 139.864 210.864 142.632C210.479 143.486 207.447 150.405 206.009 156.06C204.475 162.076 204.668 169.68 204.668 169.68C204.668 169.68 209.751 163.158 216.652 155.488C220.097 151.654 223.861 148.118 227.902 144.918L227.583 144.557Z" fill="white"/>
</mask>
<g mask="url(#mask7_2541_4951)">
<path opacity="0.17" d="M227.583 144.557C227.003 143.448 226.331 142.389 225.574 141.393C224.703 140.508 223.7 139.763 222.602 139.185C218.775 137.675 213.77 139.864 210.864 142.632C210.479 143.486 207.447 150.405 206.009 156.06C204.475 162.076 204.668 169.68 204.668 169.68C204.668 169.68 209.751 163.158 216.652 155.488C220.097 151.654 223.861 148.118 227.902 144.918L227.583 144.557Z" fill="white"/>
</g>
<path d="M227.582 144.557C227.002 143.448 226.33 142.389 225.573 141.392C224.702 140.508 223.699 139.763 222.601 139.185C218.774 137.675 213.769 139.864 210.863 142.632C210.478 143.486 207.446 150.404 206.009 156.059C204.474 162.075 204.667 169.68 204.667 169.68C204.667 169.68 209.75 163.158 216.651 155.488C220.096 151.654 223.86 148.118 227.901 144.918L227.582 144.557Z" stroke="#263238" stroke-width="0.8" stroke-linecap="round" stroke-linejoin="round"/>
<path d="M210.207 147.042C210.207 147.042 207.614 155.169 206.826 157.467C206.038 159.765 205.96 163.369 205.96 163.369C205.96 163.369 215.67 148.84 218.04 146.398C220.41 143.955 223.509 140.141 223.509 140.141L221.421 139.54L210.207 147.042Z" fill="white" stroke="#263238" stroke-width="0.8" stroke-linecap="round" stroke-linejoin="round"/>
<path d="M210.924 144.094C210.924 144.094 209.775 147.475 209.775 147.703C209.775 147.932 209.486 151.157 209.486 151.157L213.583 145.616L210.924 144.094Z" fill="white" stroke="#263238" stroke-width="0.8" stroke-linecap="round" stroke-linejoin="round"/>
<path d="M221.35 137.338L210.136 146.47L211.862 151.499L223.365 139.78L221.35 137.338Z" fill="white" stroke="#263238" stroke-width="0.8" stroke-linecap="round" stroke-linejoin="round"/>
<path d="M219.9 209.77C219.9 209.77 218.306 213.735 217.831 215.034C217.355 216.334 217.596 221.423 217.656 221.959C217.716 222.494 218.661 222.609 218.661 222.609C218.661 222.609 218.956 226.687 219.311 226.82C219.68 226.912 220.056 226.97 220.436 226.994C220.436 226.994 221.085 229.07 221.916 228.889C222.165 228.813 222.387 228.666 222.555 228.467C222.722 228.267 222.828 228.023 222.86 227.764C223.133 227.79 223.408 227.743 223.657 227.629C223.906 227.515 224.121 227.338 224.28 227.115C224.618 226.617 224.897 226.082 225.11 225.52C225.11 225.52 226.53 224.81 226.644 224.275C226.758 223.74 227.119 221.869 227.119 221.869C227.119 221.869 227.535 221.748 227.535 220.509C227.535 219.27 226.59 211.635 226.59 211.635L219.9 209.77Z" fill="white" stroke="#263238" stroke-width="0.8" stroke-linecap="round" stroke-linejoin="round"/>
<path d="M218.66 222.609L218.835 219.011" stroke="#263238" stroke-width="0.8" stroke-linecap="round" stroke-linejoin="round"/>
<path d="M220.436 226.982L220.821 221.658" stroke="#263238" stroke-width="0.8" stroke-linecap="round" stroke-linejoin="round"/>
<path d="M222.859 227.752L223.136 221.989" stroke="#263238" stroke-width="0.8" stroke-linecap="round" stroke-linejoin="round"/>
<path d="M225.109 225.508L225.452 221.496" stroke="#263238" stroke-width="0.8" stroke-linecap="round" stroke-linejoin="round"/>
<path d="M231.589 152.294L235.902 154.88L234.465 184.702L226.794 212.887L219.509 210.974L221.807 188.714L220.658 166.281C220.658 166.281 222.288 161.053 226.024 158.177" fill="#263238"/>
<path d="M231.589 152.294L235.902 154.88L234.465 184.702L226.794 212.887L219.509 210.974L221.807 188.714L220.658 166.281C220.658 166.281 222.288 161.053 226.024 158.177" stroke="#263238" stroke-width="0.8" stroke-linecap="round" stroke-linejoin="round"/>
<path d="M222.715 157.329C222.715 157.329 220.753 162.31 220.657 166.293" stroke="white" stroke-width="0.8" stroke-linecap="round" stroke-linejoin="round"/>
<path d="M224.351 159.699C224.351 159.699 220.994 165.18 220.994 167.658C220.994 170.137 221.878 190.82 221.878 190.82L219.58 208.675" stroke="white" stroke-width="0.8" stroke-linecap="round" stroke-linejoin="round"/>
<path d="M203.518 119.067C203.518 119.067 201.214 125.612 201.43 126.551C201.647 127.489 201.864 128.921 201.864 128.921C201.864 128.921 198.254 133.379 198.699 133.884C199.144 134.39 201.142 134.961 201.142 134.961C201.142 134.961 202.796 141.868 203.446 142.511C204.096 143.155 208.12 141.723 208.12 141.723L212.434 147.186L221.277 138.703L220.2 134.245C220.2 134.245 224.875 126.046 224.803 122.159C224.73 118.273 216.753 113.099 211.068 113.171C205.383 113.244 200.065 115.331 201.142 116.841C201.776 117.735 202.584 118.493 203.518 119.067Z" fill="white"/>
<mask id="mask8_2541_4951" style="mask-type:luminance" maskUnits="userSpaceOnUse" x="198" y="113" width="27" height="35">
<path d="M203.518 119.067C203.518 119.067 201.214 125.612 201.43 126.551C201.647 127.489 201.864 128.921 201.864 128.921C201.864 128.921 198.254 133.379 198.699 133.884C199.144 134.39 201.142 134.961 201.142 134.961C201.142 134.961 202.796 141.868 203.446 142.511C204.096 143.155 208.12 141.723 208.12 141.723L212.434 147.186L221.277 138.703L220.2 134.245C220.2 134.245 224.875 126.046 224.803 122.159C224.73 118.273 216.753 113.099 211.068 113.171C205.383 113.244 200.065 115.331 201.142 116.841C201.776 117.735 202.584 118.493 203.518 119.067Z" fill="white"/>
</mask>
<g mask="url(#mask8_2541_4951)">
<path d="M222.011 117.665C220.915 117.825 219.845 118.129 218.828 118.568L210.352 122.003C210.352 122.003 206.315 125.432 206.742 128.055C207.169 130.678 210.779 134.312 209.973 136.935C209.167 139.558 204.119 142.385 204.119 142.385L205.701 142.445C206.905 142.163 208.144 141.723 208.144 141.723L208.806 142.56L216.975 142.854L221.301 138.703L220.224 134.245C220.224 134.245 224.898 126.046 224.826 122.159C224.778 120.728 223.671 119.121 222.011 117.665Z" fill="#B8B8B8"/>
</g>
<path d="M203.518 119.067C203.518 119.067 201.214 125.612 201.43 126.551C201.647 127.489 201.864 128.921 201.864 128.921C201.864 128.921 198.254 133.379 198.699 133.884C199.144 134.39 201.142 134.961 201.142 134.961C201.142 134.961 202.796 141.868 203.446 142.511C204.096 143.155 208.12 141.723 208.12 141.723L212.434 147.186L221.277 138.703L220.2 134.245C220.2 134.245 224.875 126.046 224.803 122.159C224.73 118.273 216.753 113.099 211.068 113.171C205.383 113.244 200.065 115.331 201.142 116.841C201.776 117.735 202.584 118.493 203.518 119.067Z" stroke="#263238" stroke-width="0.8" stroke-linecap="round" stroke-linejoin="round"/>
<path d="M220.2 134.245C220.2 134.245 224.875 126.046 224.803 122.159C224.731 118.273 216.753 113.099 211.068 113.171C205.383 113.244 200.065 115.331 201.142 116.841C201.776 117.735 202.584 118.493 203.518 119.067C203.518 119.067 207.043 120.721 207.043 121.155C207.043 121.588 204.956 123.886 205.678 124.897C206.4 125.907 209.847 127.123 209.847 127.123C209.847 127.123 209.245 129.066 210.136 129.282C211.026 129.499 211.429 128.633 212.001 128.079C212.572 127.526 214.594 126.707 214.882 129.156C215.052 130.912 214.592 132.671 213.583 134.119C213.3 134.33 217.253 136.995 218.997 136.201C219.448 135.996 219.978 135.725 220.507 135.443L220.2 134.245Z" fill="#263238" stroke="#263238" stroke-width="0.8" stroke-linecap="round" stroke-linejoin="round"/>
<path d="M202.941 130.72C203.22 130.72 203.446 129.85 203.446 128.777C203.446 127.704 203.22 126.834 202.941 126.834C202.662 126.834 202.436 127.704 202.436 128.777C202.436 129.85 202.662 130.72 202.941 130.72Z" stroke="#263238" stroke-width="0.8" stroke-linecap="round" stroke-linejoin="round"/>
<path d="M203.519 127.989L212.001 128.061" stroke="#263238" stroke-width="0.8" stroke-linecap="round" stroke-linejoin="round"/>
<path d="M202.122 125.649C202.122 125.649 202.928 124.361 203.734 125.967" stroke="#263238" stroke-width="0.8" stroke-linecap="round" stroke-linejoin="round"/>
<path d="M201.96 136.135C202.832 135.779 203.644 135.29 204.366 134.685" stroke="#263238" stroke-width="0.8" stroke-linecap="round" stroke-linejoin="round"/>
<path d="M70.126 299.95H306.898" stroke="#263238" stroke-width="1.6" stroke-miterlimit="10"/>
</svg>
