<svg width="24" height="24" viewBox="0 0 24 24" fill="none" xmlns="http://www.w3.org/2000/svg">
<path d="M11.9037 16C12.1007 16.0001 12.2958 16.0389 12.4778 16.1144C12.6599 16.1899 12.8252 16.3005 12.9645 16.4398C13.1038 16.5792 13.2143 16.7447 13.2896 16.9267C13.365 17.1088 13.4037 17.3039 13.4037 17.501C13.4036 17.698 13.3647 17.8931 13.2892 18.0752C13.2138 18.2572 13.1032 18.4226 12.9638 18.5619C12.8244 18.7011 12.659 18.8116 12.4769 18.887C12.2948 18.9623 12.0997 19.0011 11.9026 19.001C11.5047 19.0009 11.1231 18.8426 10.8418 18.5612C10.5605 18.2797 10.4025 17.898 10.4026 17.5C10.4028 17.102 10.561 16.7204 10.8425 16.4391C11.124 16.1578 11.5057 15.9999 11.9037 16ZM12.9037 14C12.9037 13.439 13.3116 12.775 13.8316 12.488C14.565 12.0814 15.153 11.4558 15.5132 10.6986C15.8734 9.94137 15.9879 9.09049 15.8406 8.26499C15.5576 6.65199 14.2337 5.32699 12.6196 5.04399C12.0409 4.94124 11.4466 4.96622 10.8785 5.11719C10.3103 5.26816 9.78208 5.54147 9.33065 5.91799C8.88325 6.29317 8.52353 6.76186 8.27681 7.29106C8.0301 7.82026 7.90238 8.39711 7.90265 8.98099C7.90265 9.24621 8.00801 9.50056 8.19554 9.6881C8.38308 9.87564 8.63743 9.98099 8.90265 9.98099C9.16787 9.98099 9.42222 9.87564 9.60976 9.6881C9.79729 9.50056 9.90265 9.24621 9.90265 8.98099C9.90275 8.68688 9.96766 8.39641 10.0927 8.13022C10.2178 7.86404 10.4 7.62868 10.6264 7.44089C10.8527 7.25311 11.1177 7.1175 11.4024 7.04372C11.6871 6.96993 11.9846 6.95978 12.2737 7.01399C13.0606 7.15199 13.7317 7.82399 13.8696 8.60999C13.9488 9.02487 13.8942 9.45415 13.7138 9.83603C13.5334 10.2179 13.2364 10.5327 12.8657 10.735C11.7097 11.372 10.9026 12.714 10.9026 13.999C10.9026 14.2642 11.008 14.5186 11.1955 14.7061C11.3831 14.8936 11.6374 14.999 11.9026 14.999C12.1679 14.999 12.4222 14.8936 12.6098 14.7061C12.7973 14.5186 12.9026 14.2642 12.9026 13.999L12.9037 14ZM23.9996 19V12.34C23.9996 5.86099 19.0956 0.453993 12.8357 0.0279935C11.1218 -0.0884001 9.40294 0.163062 7.79428 0.765511C6.18563 1.36796 4.72441 2.30746 3.50865 3.52099C2.29562 4.73777 1.35744 6.20039 0.757316 7.81032C0.157194 9.42025 -0.0909326 11.1401 0.0296499 12.854C0.46965 19.208 6.08165 24 13.0836 24H19.0006C21.7576 24 23.9996 21.757 23.9996 19ZM12.7007 2.02399C17.9156 2.37799 21.9996 6.90899 21.9996 12.339V18.999C21.9996 20.653 20.6536 21.999 18.9996 21.999H13.0827C7.04765 21.999 2.39665 18.095 2.02365 12.715C1.92263 11.2862 2.12913 9.85231 2.62922 8.51007C3.1293 7.16782 3.91136 5.94839 4.92265 4.93399C5.93538 3.92086 7.15366 3.13675 8.49526 2.63457C9.83687 2.1324 11.2706 1.92385 12.6996 2.02299L12.7007 2.02399Z" fill="#1C1C1C"/>
</svg>
