<svg width="258" height="258" viewBox="0 0 258 258" fill="none" xmlns="http://www.w3.org/2000/svg">
<path d="M66.1119 223.687C73.785 218.328 75.5269 208.39 75.2209 199.43C75.1716 197.949 75.3344 196.36 74.6239 195.053C73.9133 193.745 72.2603 192.847 70.923 193.474C69.8128 193.997 69.3292 195.289 68.7075 196.355C67.8779 197.776 66.6656 198.936 65.2089 199.701C64.2566 200.194 63.0772 200.495 62.1397 199.977C60.8518 199.267 60.6988 197.485 60.7087 196C60.7284 193.23 60.7465 190.462 60.763 187.695C60.8525 186.21 60.7008 184.721 60.3139 183.284C59.8501 181.878 58.8336 180.565 57.4174 180.17C56.0012 179.776 54.2594 180.59 53.9633 182.045C53.9081 182.659 53.8949 183.276 53.9238 183.891C53.8794 184.508 53.5932 185.194 53.0109 185.371C52.4287 185.549 51.8217 185.125 51.3776 184.69C49.843 183.21 48.8068 181.261 47.8347 179.341C46.8626 177.422 45.9152 175.453 44.5237 173.815C43.1321 172.176 41.2126 170.884 39.0958 170.765C36.9789 170.647 34.6992 171.954 34.1613 174.047C33.6234 176.139 34.8472 178.261 36.1746 179.968C38.1498 182.481 40.4764 184.696 43.0828 186.546C43.5903 186.827 43.9948 187.262 44.2375 187.789C44.5582 188.776 43.6207 189.763 42.6436 190.089C41.5383 190.454 40.3343 190.34 39.1895 190.478C38.0447 190.617 36.7766 191.125 36.3374 192.22C35.7305 193.735 36.9986 195.329 38.247 196.37C40.7447 198.456 43.5822 200.096 46.6356 201.221C47.7311 201.62 48.8808 201.971 49.7591 202.741C50.6375 203.51 51.1753 204.843 50.6424 205.889C50.1095 206.935 48.7426 207.27 47.5978 207.058C46.453 206.846 45.4168 206.214 44.3164 205.795C42.2736 205.02 39.6386 205.163 38.3309 206.925C37.9325 207.533 37.6805 208.225 37.5949 208.947C37.5092 209.669 37.5923 210.4 37.8375 211.085C38.3349 212.446 39.0999 213.695 40.0876 214.756C43.323 218.639 47.5303 221.595 52.2806 223.322C57.0128 224.965 61.3995 225.409 66.0971 223.687" fill="#F5F5F5"/>
<path d="M66.2302 230.319C65.8144 226.172 65.0014 222.074 63.8025 218.082C62.3155 213.215 60.551 208.437 58.5176 203.772L56.9436 200.086C56.4205 198.882 55.9073 197.683 55.33 196.543C54.2177 194.354 52.9838 192.228 51.6341 190.177C50.361 188.203 49.083 186.388 47.874 184.695C46.6651 183.003 45.5005 181.448 44.3854 180.076C42.633 177.9 40.709 175.867 38.6318 173.997C37.9015 173.336 37.3143 172.838 36.9146 172.517L36.4557 172.147C36.407 172.1 36.3522 172.06 36.2928 172.028L36.4409 172.166C36.5494 172.265 36.6925 172.398 36.88 172.561C37.2699 172.907 37.8423 173.415 38.5627 174.086C40.6031 175.984 42.4999 178.031 44.2373 180.21C45.3426 181.586 46.4874 183.146 47.6914 184.838C48.8955 186.531 50.1587 188.361 51.4268 190.325C52.7618 192.372 53.9841 194.491 55.0882 196.671C55.6606 197.806 56.1738 198.995 56.6919 200.209L58.2709 203.89C60.298 208.558 62.0639 213.336 63.5607 218.2C64.7625 222.177 65.5885 226.257 66.0279 230.388" fill="#E0E0E0"/>
<path d="M55.2512 196.513C55.3189 196.306 55.3668 196.093 55.3943 195.877C55.4732 195.467 55.567 194.89 55.6706 194.13C55.8828 192.65 56.0999 190.597 56.3368 188.337C56.5736 186.077 56.8302 184.029 57.0523 182.559C57.1658 181.823 57.2644 181.226 57.3335 180.817C57.3876 180.606 57.4158 180.388 57.4174 180.17C57.3315 180.37 57.2686 180.578 57.2299 180.792C57.1263 181.197 56.998 181.779 56.8598 182.524C56.5786 184.004 56.2973 186.042 56.0654 188.307C55.8335 190.572 55.6361 192.561 55.4782 194.105C55.4042 194.801 55.34 195.388 55.2907 195.862C55.2523 196.077 55.239 196.295 55.2512 196.513Z" fill="#E0E0E0"/>
<path d="M36.1547 192.94C36.4058 192.998 36.662 193.029 36.9195 193.034C37.4129 193.078 38.1186 193.138 38.992 193.236C40.7388 193.424 43.1468 193.769 45.7818 194.268C48.4168 194.766 50.7903 195.329 52.4927 195.778C53.3463 196 54.0322 196.192 54.5059 196.325C54.7483 196.41 54.9976 196.472 55.251 196.513C55.023 196.393 54.7833 196.297 54.5355 196.227C54.0717 196.059 53.3907 195.837 52.5617 195.59C50.8692 195.097 48.5007 194.5 45.8558 193.996C43.5972 193.562 41.3178 193.244 39.0265 193.044C38.1482 192.965 37.4376 192.935 36.9442 192.926C36.6811 192.907 36.4169 192.912 36.1547 192.94Z" fill="#E0E0E0"/>
<path d="M63.5607 217.726C63.5607 217.726 63.6149 217.652 63.6939 217.494L64.0196 216.804C64.3008 216.202 64.6857 215.323 65.1446 214.228C66.0674 212.042 67.2418 208.983 68.4951 205.583C69.7485 202.183 70.8982 199.119 71.7716 196.918C72.2009 195.847 72.5513 194.944 72.8177 194.307L73.094 193.597C73.1321 193.515 73.1603 193.429 73.1779 193.34C73.124 193.414 73.0793 193.493 73.0447 193.577C72.9559 193.76 72.8473 193.992 72.719 194.268C72.4378 194.865 72.0529 195.748 71.594 196.839C70.6712 199.03 69.4968 202.089 68.2435 205.489C66.9901 208.889 65.8404 211.953 64.967 214.154L63.9209 216.764L63.6446 217.475C63.6078 217.555 63.5797 217.64 63.5607 217.726Z" fill="#E0E0E0"/>
<path d="M38.1929 209.55C38.2719 209.595 38.3565 209.63 38.4445 209.653L39.1847 209.9L41.8987 210.783C44.1932 211.529 47.3512 212.589 50.8399 213.769C54.3286 214.948 57.4965 215.989 59.8058 216.685C60.9605 217.035 61.898 217.307 62.5494 217.479L63.2994 217.677C63.385 217.707 63.475 217.724 63.5659 217.726C63.4862 217.682 63.4017 217.647 63.3142 217.623L62.579 217.376L59.8601 216.498C57.5656 215.752 54.4322 214.692 50.9238 213.507C47.4154 212.323 44.2672 211.292 41.9579 210.596C40.8032 210.246 39.8657 209.974 39.2143 209.797L38.4593 209.599C38.373 209.571 38.2834 209.555 38.1929 209.55Z" fill="#E0E0E0"/>
<path d="M197.102 170.701V152.276H202.022V170.825L197.102 170.701Z" fill="#EBEBEB"/>
<path d="M202.11 170.701V152.276H207.025V170.825L202.11 170.701Z" fill="#E0E0E0"/>
<path d="M210.425 170.829V157.62H213.948V170.918L210.425 170.829Z" fill="#EBEBEB"/>
<path d="M214.017 170.829V157.62H217.541V170.918L214.017 170.829Z" fill="#E0E0E0"/>
<path d="M219.12 170.775H139.798V207.359H219.12V170.775Z" fill="#F5F5F5"/>
<path d="M217.235 205.632H141.614V172.7H217.235V205.632ZM142.107 205.139H216.741V173.193H142.107V205.139Z" fill="#E0E0E0"/>
<path d="M238.502 170.775H219.125V207.359H238.502V170.775Z" fill="#E0E0E0"/>
<path d="M141.861 182.889H216.988C217.014 182.889 217.039 182.879 217.058 182.86C217.076 182.842 217.087 182.817 217.087 182.791C217.087 182.764 217.076 182.739 217.058 182.721C217.039 182.702 217.014 182.692 216.988 182.692H141.861C141.835 182.692 141.809 182.702 141.791 182.721C141.772 182.739 141.762 182.764 141.762 182.791C141.762 182.817 141.772 182.842 141.791 182.86C141.809 182.879 141.835 182.889 141.861 182.889Z" fill="#E0E0E0"/>
<path d="M179.669 182.791C179.878 179.482 179.888 176.163 179.698 172.853C179.693 172.83 179.68 172.809 179.662 172.794C179.643 172.78 179.621 172.771 179.597 172.771C179.573 172.771 179.551 172.78 179.532 172.794C179.514 172.809 179.501 172.83 179.496 172.853C179.302 176.163 179.31 179.482 179.521 182.791C179.521 182.81 179.528 182.829 179.542 182.843C179.556 182.857 179.575 182.865 179.595 182.865C179.614 182.865 179.633 182.857 179.647 182.843C179.661 182.829 179.669 182.81 179.669 182.791Z" fill="#E0E0E0"/>
<path d="M199.89 177.822C199.89 178.024 199.83 178.221 199.718 178.389C199.606 178.557 199.446 178.688 199.259 178.765C199.073 178.843 198.867 178.863 198.669 178.824C198.471 178.784 198.289 178.687 198.146 178.544C198.003 178.401 197.906 178.219 197.867 178.021C197.827 177.823 197.848 177.617 197.925 177.431C198.002 177.244 198.133 177.085 198.301 176.972C198.469 176.86 198.667 176.8 198.869 176.8C199.139 176.8 199.399 176.908 199.591 177.099C199.782 177.291 199.89 177.551 199.89 177.822Z" fill="#E0E0E0"/>
<path d="M160.464 177.822C160.464 178.024 160.404 178.221 160.291 178.389C160.179 178.557 160.02 178.688 159.833 178.765C159.646 178.843 159.441 178.863 159.243 178.824C159.045 178.784 158.863 178.687 158.72 178.544C158.577 178.401 158.48 178.219 158.44 178.021C158.401 177.823 158.421 177.617 158.499 177.431C158.576 177.244 158.707 177.085 158.875 176.972C159.043 176.86 159.24 176.8 159.442 176.8C159.713 176.8 159.973 176.908 160.164 177.099C160.356 177.291 160.464 177.551 160.464 177.822Z" fill="#E0E0E0"/>
<path d="M180.448 189.166C180.449 189.369 180.39 189.569 180.277 189.738C180.165 189.908 180.005 190.04 179.817 190.118C179.629 190.196 179.422 190.217 179.223 190.178C179.023 190.138 178.84 190.04 178.696 189.897C178.552 189.753 178.454 189.569 178.415 189.37C178.376 189.17 178.396 188.964 178.475 188.776C178.553 188.588 178.685 188.428 178.855 188.315C179.024 188.203 179.223 188.144 179.427 188.145C179.698 188.145 179.958 188.252 180.149 188.444C180.341 188.635 180.448 188.895 180.448 189.166Z" fill="#E0E0E0"/>
<path d="M149.282 207.359L145.201 230.324H147.496L155.026 207.359H149.282Z" fill="#E0E0E0"/>
<path d="M213.509 207.359L216.929 230.364H214.629L207.77 207.359H213.509Z" fill="#E0E0E0"/>
<path d="M228.845 207.359L232.714 230.364H230.419L223.102 207.359H228.845Z" fill="#E0E0E0"/>
<path d="M180.379 199.519C180.38 199.722 180.321 199.921 180.208 200.091C180.096 200.26 179.936 200.392 179.748 200.471C179.56 200.549 179.353 200.57 179.154 200.53C178.954 200.491 178.771 200.393 178.627 200.249C178.483 200.105 178.385 199.922 178.346 199.722C178.307 199.523 178.327 199.316 178.406 199.128C178.484 198.941 178.616 198.78 178.786 198.668C178.955 198.556 179.154 198.496 179.358 198.497C179.628 198.498 179.887 198.606 180.079 198.798C180.27 198.989 180.378 199.248 180.379 199.519Z" fill="#E0E0E0"/>
<path d="M141.861 194.219H216.988C217.014 194.219 217.039 194.208 217.058 194.19C217.076 194.171 217.087 194.146 217.087 194.12C217.087 194.094 217.076 194.069 217.058 194.05C217.039 194.032 217.014 194.021 216.988 194.021H141.861C141.835 194.021 141.809 194.032 141.791 194.05C141.772 194.069 141.762 194.094 141.762 194.12C141.762 194.146 141.772 194.171 141.791 194.19C141.809 194.208 141.835 194.219 141.861 194.219Z" fill="#E0E0E0"/>
<path d="M223.037 35.6204H169.558V131.694H223.037V35.6204Z" fill="#EBEBEB"/>
<path d="M220.348 38.4084H171.694V128.832H220.348V38.4084Z" fill="#FAFAFA"/>
<path d="M220.353 39.4743L171.694 101.362V38.4084H220.353V39.4743Z" fill="#F5F5F5"/>
<path d="M221.404 64.4226H171.694V65.3848H221.404V64.4226Z" fill="#EBEBEB"/>
<path d="M221.404 85.9565H171.694V86.9188H221.404V85.9565Z" fill="#EBEBEB"/>
<path d="M221.404 107.486H171.694V108.448H221.404V107.486Z" fill="#EBEBEB"/>
<path d="M194.798 64.8968V131.394H197.255V64.8968H194.798Z" fill="#EBEBEB"/>
<path d="M182.18 38.4084H181.065V64.9016H182.18V38.4084Z" fill="#EBEBEB"/>
<path d="M191.788 38.4084H190.672V64.9016H191.788V38.4084Z" fill="#EBEBEB"/>
<path d="M201.39 38.4084H200.275V64.9016H201.39V38.4084Z" fill="#EBEBEB"/>
<path d="M210.993 38.4084H209.877V64.9016H210.993V38.4084Z" fill="#EBEBEB"/>
<path d="M169.558 33.9919H167.298V132.286H169.558V33.9919Z" fill="#F5F5F5"/>
<path d="M225.302 132.563L223.037 131.694V33.9919H225.302V132.563Z" fill="#E0E0E0"/>
<path d="M225.302 33H167.298V35.6202H225.302V33Z" fill="#E0E0E0"/>
<path d="M226.832 132.883H165.694V135.326H226.832V132.883Z" fill="#E0E0E0"/>
<path d="M223.038 131.694L226.832 132.884H165.694L169.558 131.694H223.038Z" fill="#EBEBEB"/>
<path d="M85.4993 37.2485H32.0197V133.322H85.4993V37.2485Z" fill="#EBEBEB"/>
<path d="M82.8101 40.0317H34.1564V130.456H82.8101V40.0317Z" fill="#FAFAFA"/>
<path d="M82.8101 41.0976L34.1564 102.99V40.0317H82.8101V41.0976Z" fill="#F5F5F5"/>
<path d="M83.8661 66.0461H34.1564V67.0084H83.8661V66.0461Z" fill="#EBEBEB"/>
<path d="M83.8661 87.5801H34.1564V88.5423H83.8661V87.5801Z" fill="#EBEBEB"/>
<path d="M83.8661 109.114H34.1564V110.076H83.8661V109.114Z" fill="#EBEBEB"/>
<path d="M57.2545 66.5247L57.2545 133.021H59.7119L59.7119 66.5247H57.2545Z" fill="#EBEBEB"/>
<path d="M44.642 40.0317H43.5269V66.5248H44.642V40.0317Z" fill="#EBEBEB"/>
<path d="M54.2445 40.0317H53.1293V66.5248H54.2445V40.0317Z" fill="#EBEBEB"/>
<path d="M63.8519 40.0317H62.7367V66.5248H63.8519V40.0317Z" fill="#EBEBEB"/>
<path d="M73.4543 40.0317H72.3391V66.5248H73.4543V40.0317Z" fill="#EBEBEB"/>
<path d="M32.0147 35.6204H29.7548V133.915H32.0147V35.6204Z" fill="#F5F5F5"/>
<path d="M87.7592 134.186L85.4993 133.323V35.6204H87.7592V134.186Z" fill="#E0E0E0"/>
<path d="M87.7593 34.6284H29.7548V37.2486H87.7593V34.6284Z" fill="#E0E0E0"/>
<path d="M89.2891 134.512H28.1511V136.955H89.2891V134.512Z" fill="#E0E0E0"/>
<path d="M85.4994 133.323L89.294 134.512H28.1511L32.0197 133.323H85.4994Z" fill="#EBEBEB"/>
<path d="M233.439 230.364C233.439 230.438 188.092 230.492 132.17 230.492C76.2473 230.492 30.8898 230.438 30.8898 230.364C30.8898 230.29 76.2226 230.235 132.17 230.235C188.116 230.235 233.439 230.295 233.439 230.364Z" fill="#263238"/>
<path d="M158.213 103.252C157.908 103.622 157.893 106.706 157.893 106.706C157.893 106.706 150.664 119.042 149.657 119.21C148.651 119.378 144.269 110.654 144.269 110.654L139.764 114.799C139.764 114.799 142.112 125.822 149.455 127.712C152.909 128.605 158.968 117.616 163.005 108.468C163.069 108.325 165.161 103.351 165.161 103.351L158.213 103.252Z" fill="#A56959"/>
<path d="M153.209 72.823L151.075 73.5183L166.019 119.405L168.154 118.71L153.209 72.823Z" fill="#263238"/>
<path d="M152.084 73.0511L149.951 73.7471L164.911 119.593L167.044 118.897L152.084 73.0511Z" fill="#455A64"/>
<path d="M161.469 45.3898L130.662 55.4233L138.763 80.295L169.57 70.2615L161.469 45.3898Z" fill="#33B55B"/>
<g opacity="0.3">
<path d="M161.469 45.3898L130.662 55.4233L138.763 80.295L169.57 70.2615L161.469 45.3898Z" fill="black"/>
</g>
<path d="M160.362 45.7487L129.555 55.7822L137.656 80.6539L168.463 70.6203L160.362 45.7487Z" fill="#33B55B"/>
<path d="M145.389 62.5227L146.43 62.1625L147.604 58.215L146.879 56.1277C146.879 56.1277 148.458 55.4665 149.218 58.2643C149.978 61.0621 149.943 60.2924 149.943 60.2924C149.943 60.2924 153.373 59.113 153.763 59.3055C154.044 59.4486 155.322 62.8188 156.003 64.6544C156.18 65.0922 156.206 65.5767 156.077 66.031C155.947 66.4852 155.669 66.883 155.287 67.1611C155.177 67.2329 155.06 67.2925 154.937 67.3388C154.078 67.6348 149.47 68.4638 149.47 68.4638L147.669 69.0905L145.389 62.5227Z" fill="white"/>
<path d="M142.201 62.9917L145.33 69.9098L147.116 69.2881L144.678 62.291L142.201 62.9917Z" fill="white"/>
<path d="M165.734 102.68C165.733 102.718 165.723 102.755 165.704 102.788C165.492 103.282 164.495 104.678 164.155 104.609C163.814 104.54 163.252 104.609 163.41 103.711C163.743 103.039 164.127 102.394 164.559 101.782C164.559 101.782 164.826 101.456 165.581 101.747C166.045 101.93 165.734 102.68 165.734 102.68Z" fill="#A56959"/>
<path d="M164.752 101.17C164.75 101.211 164.738 101.252 164.717 101.288C164.471 101.861 163.123 104.18 162.783 104.12C162.443 104.061 161.702 103.42 161.821 103.079C161.939 102.739 163.602 100.212 163.602 100.212C163.602 100.212 163.893 99.8275 164.648 100.119C165.112 100.296 164.752 101.17 164.752 101.17Z" fill="#A56959"/>
<path d="M163.612 99.9754C163.612 99.9754 163.612 100.03 163.577 100.099C163.336 100.666 161.984 102.99 161.643 102.926C161.303 102.862 160.562 102.23 160.681 101.89C160.799 101.549 162.467 99.0181 162.467 99.0181C162.467 99.0181 162.753 98.6382 163.508 98.9244C163.977 99.1069 163.612 99.9754 163.612 99.9754Z" fill="#A56959"/>
<path d="M162.467 98.8159C162.467 98.8159 162.467 98.8653 162.432 98.9343C162.186 99.5018 160.839 101.826 160.498 101.767C160.158 101.708 159.417 101.066 159.536 100.726C159.654 100.385 161.317 97.8586 161.317 97.8586C161.317 97.8586 161.608 97.4737 162.363 97.7649C162.832 97.9425 162.467 98.8159 162.467 98.8159Z" fill="#A56959"/>
<path d="M163.123 104.022C163.419 103.696 163.671 103.333 163.873 102.941C164.118 102.586 164.319 102.201 164.471 101.797C164.174 102.12 163.922 102.482 163.72 102.872C163.475 103.23 163.274 103.616 163.123 104.022Z" fill="#7C4435"/>
<path d="M161.757 103.252C162.153 102.772 162.501 102.255 162.798 101.708C163.147 101.19 163.448 100.642 163.696 100.069C163.306 100.556 162.958 101.074 162.655 101.619C162.308 102.136 162.008 102.682 161.757 103.252Z" fill="#7C4435"/>
<g opacity="0.78">
<path d="M160.617 101.831C160.972 101.436 161.285 101.004 161.549 100.543C161.862 100.114 162.126 99.6528 162.339 99.1665C161.985 99.5649 161.673 99.998 161.406 100.459C161.094 100.887 160.83 101.347 160.617 101.831Z" fill="#7C4435"/>
</g>
<path d="M158.648 107.303L158.154 105.137C157.941 104.191 158.1 103.2 158.598 102.369L158.978 101.732L163.913 104.224C163.913 104.224 162.536 105.655 161.347 104.747C162.151 105.734 162.161 107.56 161.648 108.986L158.648 107.303Z" fill="#A56959"/>
<path d="M161.781 106.78C161.752 106.78 161.781 106.533 161.737 106.109C161.639 105.53 161.338 105.005 160.888 104.629L160.434 104.268L160.987 104.446L162.21 104.841H162.186C162.453 104.887 162.728 104.856 162.979 104.752C163.229 104.648 163.445 104.475 163.602 104.254C163.627 104.214 163.646 104.17 163.661 104.145L163.725 104.303C162.363 103.686 161.14 103.109 160.271 102.64C159.793 102.415 159.342 102.139 158.924 101.816C159.413 102.008 159.889 102.23 160.35 102.482C161.228 102.906 162.457 103.469 163.804 104.071L163.913 104.12L163.873 104.229C163.85 104.283 163.824 104.336 163.794 104.387C163.615 104.67 163.346 104.884 163.03 104.994C162.741 105.092 162.434 105.123 162.131 105.083H162.107L160.888 104.658L160.992 104.476C161.473 104.888 161.774 105.473 161.83 106.104C161.874 106.33 161.857 106.563 161.781 106.78Z" fill="#7C4435"/>
<path d="M163.553 103.479C163.602 103.479 163.484 103.736 163.513 104.091C163.517 104.183 163.55 104.272 163.606 104.346C163.663 104.419 163.741 104.473 163.829 104.5C163.949 104.507 164.069 104.483 164.176 104.429C164.283 104.375 164.375 104.294 164.441 104.194C164.801 103.726 165.161 103.306 165.383 102.995C165.606 102.684 165.729 102.467 165.768 102.502C165.808 102.536 165.729 102.754 165.536 103.109C165.263 103.551 164.962 103.974 164.633 104.377C164.539 104.511 164.409 104.616 164.258 104.681C164.108 104.745 163.942 104.767 163.78 104.742C163.646 104.703 163.529 104.62 163.447 104.506C163.366 104.392 163.325 104.255 163.331 104.115C163.329 103.944 163.37 103.774 163.449 103.622C163.498 103.518 163.538 103.469 163.553 103.479Z" fill="#7C4435"/>
<path d="M100.076 104.486C100.076 104.486 106.9 117.898 107.907 118.09C108.913 118.282 113.108 109.993 113.108 109.993L119.468 115.04C119.468 115.04 115.318 124.86 108.869 127.806C105.612 129.286 99.3603 117.705 95.319 108.562L93.1676 103.474" fill="#A56959"/>
<path d="M100.92 107.061C100.92 107.061 100.747 106.38 100.081 104.485L100.15 99.6645C100.15 99.6645 99.316 99.0724 99.1631 101.278C99.1302 101.53 99.0096 101.763 98.8223 101.935C98.635 102.107 98.3931 102.207 98.1391 102.218C97.8851 102.229 97.6353 102.151 97.4336 101.996C97.2319 101.841 97.0912 101.62 97.0363 101.372C96.9447 101.041 96.9533 100.69 97.0612 100.363C97.1691 100.037 97.3713 99.7502 97.6423 99.5389C97.9133 99.3276 98.2409 99.2014 98.5836 99.1763C98.9264 99.1513 99.2688 99.2284 99.5677 99.398C99.5677 99.398 100.229 99.1513 100.061 98.6233C99.8934 98.0953 97.8752 97.5772 96.8389 98.5296C96.4129 98.926 96.0764 99.4088 95.8521 99.9458C95.8521 99.9458 94.1201 95.7663 93.7746 95.8896C93.4292 96.013 93.0937 96.4867 95.028 101.051C95.028 101.051 93.1677 97.597 92.8766 97.2022C92.5854 96.8075 91.8354 96.7828 92.314 97.9424L93.8437 101.628C93.8437 101.628 92.3288 99.5411 92.1956 99.3783C91.8453 98.9539 91.3962 99.2401 91.6676 99.8964L92.7285 102.531L95.5609 109.03H95.5165" fill="#A56959"/>
<path d="M94.9094 103.835C94.9094 103.835 95.0723 103.874 95.319 103.968C95.6471 104.09 95.9366 104.298 96.1578 104.57L96.2319 104.654L96.2615 104.545C96.3014 104.42 96.3492 104.298 96.4046 104.18C96.6023 103.782 96.8998 103.442 97.2681 103.193C97.5494 103.006 97.7615 102.941 97.7615 102.922C97.5724 102.945 97.3915 103.012 97.2336 103.119C96.8349 103.351 96.5124 103.694 96.3059 104.106C96.2458 104.232 96.1963 104.362 96.1578 104.496L96.2615 104.471C96.0234 104.188 95.7078 103.98 95.3535 103.874C95.2104 103.827 95.0585 103.814 94.9094 103.835Z" fill="#7C4435"/>
<path d="M124.748 79.0139C124.319 78.2698 123.671 77.6765 122.892 77.3152C122.113 76.9539 121.241 76.8423 120.396 76.9957C119.556 77.1724 118.77 77.5441 118.101 78.0807C117.431 78.6172 116.897 79.3037 116.542 80.0846C115.848 81.664 115.675 83.4236 116.049 85.1079C116.369 86.7955 117.095 88.5621 116.518 90.1707C116.101 91.1375 115.416 91.9646 114.544 92.554C113.675 93.135 112.85 93.7799 112.076 94.4834C111.687 94.8376 111.379 95.2721 111.174 95.7568C110.969 96.2415 110.871 96.765 110.887 97.2911C110.991 98.3372 111.943 99.3192 112.984 99.181C111.504 100.316 111.178 102.517 111.874 104.229C112.57 105.941 114.124 107.19 115.822 107.94C117.213 108.552 118.817 108.867 120.263 108.374C120.981 108.09 121.631 107.659 122.171 107.107C122.711 106.555 123.128 105.895 123.396 105.171C123.926 103.72 124.177 102.181 124.136 100.637C124.171 98.1349 123.899 95.5344 122.612 93.3929C122.755 94.2416 123.86 94.6906 124.64 94.3255C125.017 94.1159 125.323 93.798 125.519 93.4128C125.714 93.0276 125.789 92.5927 125.735 92.1642C125.607 91.3075 125.218 90.5112 124.62 89.8845C124.057 89.2282 123.396 88.6706 122.829 88.0242C121.699 86.7363 120.954 85.0043 121.225 83.3167C121.496 81.6291 123.011 80.0995 124.719 80.1833" fill="#263238"/>
<path d="M112.308 92.6233C112.308 92.6233 112.358 92.5345 112.402 92.347C112.455 92.0775 112.411 91.798 112.279 91.5575C112.183 91.3677 112.033 91.2108 111.847 91.107C111.662 91.0033 111.449 90.9574 111.238 90.9752C110.962 90.9982 110.699 91.1051 110.486 91.2815C110.272 91.4579 110.118 91.6954 110.043 91.9621C109.974 92.2947 110.008 92.6405 110.14 92.9534C110.273 93.2663 110.497 93.5315 110.784 93.7138C111.121 93.9183 111.504 94.0346 111.898 94.0518C112.293 94.0691 112.685 93.9868 113.039 93.8125C113.839 93.4259 114.49 92.7882 114.894 91.9966C115.339 91.1464 115.563 90.1978 115.545 89.2383C115.498 88.2738 115.317 87.3206 115.007 86.4059C114.717 85.529 114.572 84.6106 114.578 83.687C114.691 82.108 115.383 80.6265 116.522 79.5273C117.272 78.7947 118.144 78.1986 119.098 77.7657C119.434 77.6127 119.705 77.514 119.888 77.4449C119.979 77.4066 120.076 77.3801 120.174 77.366C120.088 77.4148 119.999 77.4577 119.907 77.4943C119.73 77.5732 119.468 77.6867 119.143 77.8545C118.228 78.3177 117.395 78.926 116.675 79.6556C115.594 80.7354 114.941 82.1717 114.84 83.6969C114.842 84.5945 114.988 85.4859 115.274 86.3368C115.593 87.2717 115.779 88.2467 115.827 89.2333C115.845 90.2364 115.609 91.2277 115.141 92.1151C114.709 92.9515 114.016 93.6239 113.167 94.0296C112.777 94.2152 112.347 94.2999 111.916 94.2757C111.485 94.2516 111.066 94.1194 110.7 93.8915C110.381 93.6833 110.134 93.3827 109.991 93.0299C109.848 92.677 109.816 92.2889 109.9 91.9177C109.982 91.6133 110.158 91.3424 110.402 91.1432C110.647 90.944 110.948 90.8265 111.262 90.8074C111.521 90.7901 111.778 90.8596 111.993 91.0048C112.168 91.1321 112.309 91.3019 112.402 91.4983C112.536 91.7604 112.566 92.0636 112.486 92.347C112.452 92.4533 112.391 92.5486 112.308 92.6233Z" fill="#263238"/>
<path d="M93.0836 224.906L92.7382 226.219C92.7382 226.219 87.9863 233.951 88.5488 234.672C88.9287 235.158 89.4475 235.517 90.0362 235.701C90.625 235.885 91.2559 235.886 91.8451 235.703C93.4981 235.288 100.475 228.656 100.475 228.656L100.875 227.6L93.0836 224.906Z" fill="#33B55B"/>
<g opacity="0.3">
<path d="M89.0226 232.92C89.0226 232.92 91.0802 232.012 92.2645 234.667C92.2645 234.667 93.1576 234.336 95.6249 232.268C98.0921 230.201 100.475 228.183 100.475 228.183C100.475 228.183 100.732 227.98 100.653 228.183C100.574 228.385 100.475 228.745 100.475 228.745L95.7137 232.944C95.7137 232.944 92.8566 235.412 92.1412 235.584C91.4257 235.757 90.7052 236.024 89.7973 235.614C89.2158 235.403 88.7326 234.985 88.4403 234.44C88.4403 234.341 89.0226 232.92 89.0226 232.92Z" fill="black"/>
</g>
<path d="M92.5409 235.54C92.5409 235.54 92.4669 235.273 92.2892 234.879C92.0626 234.367 91.7256 233.912 91.3023 233.546C90.8715 233.189 90.3654 232.935 89.822 232.801C89.4026 232.698 89.1262 232.698 89.1312 232.668C89.3692 232.629 89.6126 232.64 89.8467 232.698C90.4205 232.803 90.9576 233.054 91.4059 233.428C91.8488 233.807 92.1883 234.293 92.3928 234.839C92.4933 235.059 92.5438 235.298 92.5409 235.54Z" fill="#263238"/>
<path d="M100.875 227.847C100.842 227.889 100.804 227.927 100.762 227.96L100.431 228.256L99.1925 229.327L95.0623 232.826C94.3221 233.494 93.5264 234.098 92.6839 234.632C91.9779 235.071 91.1483 235.268 90.3203 235.194C89.7564 235.125 89.2335 234.864 88.84 234.454C88.6976 234.307 88.5897 234.13 88.5242 233.936C88.6258 234.113 88.7466 234.279 88.8844 234.429C89.2707 234.811 89.7754 235.049 90.3154 235.105C91.1173 235.16 91.9156 234.957 92.5951 234.528C93.4259 233.991 94.2114 233.387 94.9439 232.722L99.1037 229.268L100.372 228.237L100.722 227.96C100.821 227.881 100.872 227.844 100.875 227.847Z" fill="#263238"/>
<path d="M93.3452 231.099C93.0347 230.946 92.7405 230.763 92.4668 230.551C92.1638 230.385 91.8779 230.19 91.6132 229.969C91.9529 230.056 92.2716 230.21 92.5507 230.423C92.8565 230.595 93.1262 230.824 93.3452 231.099Z" fill="#263238"/>
<path d="M94.3667 229.989C93.9949 229.869 93.6335 229.719 93.286 229.54C92.9202 229.403 92.5655 229.238 92.2251 229.046C93.0002 229.197 93.7318 229.519 94.3667 229.989Z" fill="#263238"/>
<path d="M95.3092 229.032C95.2796 229.066 94.8503 228.691 94.2236 228.385C93.597 228.079 93.0443 227.966 93.0492 227.921C93.485 227.92 93.9137 228.032 94.2927 228.247C94.6932 228.417 95.0433 228.687 95.3092 229.032Z" fill="#263238"/>
<path d="M95.8618 227.896C95.8322 227.936 95.4325 227.645 94.8749 227.403C94.3173 227.161 93.8387 227.053 93.8485 227.008C94.6051 227.042 95.3208 227.362 95.8519 227.901L95.8618 227.896Z" fill="#263238"/>
<path d="M95.6348 226.826C95.4165 226.732 95.2175 226.598 95.0476 226.431C94.8527 226.263 94.6727 226.078 94.5098 225.879C94.4136 225.762 94.3246 225.641 94.2433 225.513C94.1905 225.445 94.1489 225.368 94.12 225.286C94.1002 225.236 94.0944 225.181 94.103 225.127C94.1117 225.073 94.1346 225.023 94.1693 224.981C94.2434 224.919 94.3338 224.881 94.4294 224.871C94.5249 224.86 94.6215 224.878 94.7072 224.921C94.8583 224.979 94.9936 225.072 95.1019 225.193C95.2823 225.388 95.4067 225.628 95.4621 225.888C95.499 226.059 95.5155 226.233 95.5115 226.407C95.5115 226.53 95.5115 226.594 95.4819 226.594C95.4523 226.594 95.4819 226.323 95.3536 225.913C95.2906 225.679 95.1682 225.465 94.9983 225.291C94.8996 225.192 94.7822 225.113 94.6529 225.059C94.5947 225.03 94.5296 225.016 94.4644 225.021C94.3992 225.025 94.3364 225.047 94.2828 225.084C94.2088 225.163 94.2828 225.306 94.3667 225.43C94.4458 225.554 94.5315 225.674 94.6233 225.79C94.7734 225.989 94.9384 226.177 95.1167 226.352C95.4177 226.648 95.6348 226.806 95.6348 226.826Z" fill="#263238"/>
<path d="M95.5164 226.688C95.5218 226.622 95.5403 226.558 95.5707 226.5C95.6441 226.337 95.7387 226.184 95.8519 226.046C96.0266 225.842 96.2395 225.675 96.4786 225.553C96.6193 225.479 96.7685 225.423 96.9227 225.385C97.0137 225.365 97.108 225.365 97.199 225.385C97.2536 225.398 97.3036 225.425 97.3436 225.464C97.3836 225.503 97.4121 225.553 97.426 225.607C97.4294 225.699 97.4126 225.791 97.3768 225.877C97.341 225.962 97.2871 226.038 97.2188 226.1C97.112 226.22 96.991 226.326 96.8585 226.416C96.6359 226.566 96.3833 226.665 96.1184 226.707C95.942 226.737 95.7619 226.737 95.5855 226.707C95.4621 226.707 95.3979 226.658 95.3979 226.648C95.6327 226.653 95.8674 226.635 96.0986 226.594C96.3437 226.541 96.5754 226.438 96.7796 226.293C96.8997 226.208 97.009 226.108 97.1053 225.997C97.1579 225.951 97.2001 225.894 97.229 225.83C97.2579 225.766 97.273 225.697 97.273 225.627C97.273 225.513 97.0954 225.489 96.9523 225.518C96.809 225.552 96.67 225.602 96.5378 225.666C96.3124 225.775 96.1085 225.924 95.9358 226.105C95.7846 226.291 95.6446 226.485 95.5164 226.688Z" fill="#263238"/>
<path d="M99.5231 227.226C99.3001 227.177 99.0677 227.19 98.852 227.265C98.3409 227.483 97.9184 227.868 97.6529 228.356C97.3843 228.841 97.2739 229.398 97.3371 229.95C97.3865 230.379 97.5 230.626 97.4753 230.635C97.3372 230.438 97.2522 230.209 97.2286 229.969C97.1287 229.388 97.2315 228.791 97.5197 228.277C97.799 227.757 98.2615 227.359 98.8175 227.162C98.9313 227.113 99.0552 227.094 99.1783 227.105C99.3014 227.116 99.4199 227.158 99.5231 227.226Z" fill="#263238"/>
<path d="M96.7055 230.344C96.2056 230.903 95.6311 231.391 94.9982 231.794C95.2301 231.498 95.5006 231.234 95.8025 231.01C96.0702 230.746 96.3743 230.522 96.7055 230.344Z" fill="#263238"/>
<path d="M97.648 229.841C97.6924 229.841 97.7467 229.94 97.7763 230.068C97.8059 230.196 97.7763 230.31 97.7516 230.324C97.7269 230.339 97.6529 230.236 97.6233 230.097C97.5937 229.959 97.6085 229.846 97.648 229.841Z" fill="#263238"/>
<path d="M97.7666 228.869C97.811 228.869 97.8159 228.997 97.7666 229.125C97.7172 229.254 97.6778 229.352 97.6383 229.347C97.5988 229.342 97.584 229.229 97.6383 229.091C97.6926 228.953 97.7271 228.854 97.7666 228.869Z" fill="#263238"/>
<path d="M98.2894 228.039C98.324 228.074 98.2894 228.163 98.1907 228.271C98.0921 228.38 98.018 228.444 97.9835 228.424C97.949 228.404 97.9835 228.291 98.0674 228.177C98.1513 228.064 98.2648 228.01 98.2894 228.039Z" fill="#263238"/>
<path d="M99.1234 227.526C99.1234 227.565 99.0543 227.644 98.9359 227.699C98.8175 227.753 98.704 227.773 98.6793 227.738C98.6546 227.704 98.7434 227.62 98.8717 227.56C99 227.501 99.1135 227.486 99.1234 227.526Z" fill="#263238"/>
<path d="M100.101 227.433C100.101 227.472 99.9821 227.512 99.8538 227.512C99.7255 227.512 99.612 227.477 99.6071 227.433C99.6022 227.388 99.7107 227.359 99.8538 227.354C99.9969 227.349 100.105 227.369 100.101 227.433Z" fill="#263238"/>
<path d="M155.189 227.59L155.154 226.658L145.695 226.929L145.774 230.008H146.361C148.966 230.072 159.6 230.166 161.322 229.628C163.237 229.051 155.189 227.59 155.189 227.59Z" fill="#33B55B"/>
<g opacity="0.3">
<path d="M149.188 229.851C149.017 229.101 148.567 228.445 147.93 228.015C147.282 227.566 146.495 227.361 145.71 227.438L145.784 229.905L149.188 229.851Z" fill="black"/>
</g>
<g opacity="0.3">
<path d="M159.131 228.419C159.131 228.419 161.959 229.095 161.623 229.535C161.288 229.974 150.531 230.255 145.774 229.994V229.796L158.322 229.569C158.322 229.569 158.584 228.469 159.131 228.419Z" fill="black"/>
</g>
<path d="M145.636 229.811H145.798H146.267L147.979 229.836C149.425 229.836 151.434 229.836 153.634 229.781C155.835 229.727 157.839 229.633 159.284 229.549L160.997 229.436L161.46 229.396H161.618H161.456H160.992L159.279 229.47C157.834 229.54 155.825 229.619 153.629 229.673C151.434 229.727 149.425 229.752 147.979 229.762H146.267H145.798L145.636 229.811Z" fill="#263238"/>
<path d="M158.332 229.717C158.438 229.163 158.746 228.667 159.196 228.326C158.912 228.43 158.675 228.633 158.529 228.898C158.36 229.135 158.29 229.429 158.332 229.717Z" fill="#263238"/>
<path d="M155.514 228.479C155.544 228.479 155.672 228.341 155.801 228.138C155.929 227.936 156.018 227.754 155.988 227.739C155.958 227.724 155.835 227.877 155.702 228.084C155.569 228.291 155.49 228.464 155.514 228.479Z" fill="#263238"/>
<path d="M154.74 228.128C154.764 228.128 154.908 228.049 155.065 227.911C155.223 227.773 155.337 227.64 155.312 227.62C155.287 227.6 155.144 227.694 154.986 227.832C154.829 227.97 154.72 228.103 154.74 228.128Z" fill="#263238"/>
<path d="M154.232 227.314C154.557 227.387 154.893 227.387 155.218 227.314C155.058 227.268 154.891 227.253 154.725 227.27C154.559 227.25 154.391 227.265 154.232 227.314Z" fill="#263238"/>
<path d="M154.049 226.732C154.215 226.831 154.408 226.879 154.601 226.87C154.795 226.897 154.993 226.866 155.169 226.781C154.982 226.766 154.794 226.766 154.606 226.781C154.422 226.751 154.236 226.734 154.049 226.732Z" fill="#263238"/>
<path d="M155.835 227.709C156.036 227.742 156.241 227.742 156.442 227.709C156.658 227.678 156.871 227.629 157.079 227.561C157.206 227.524 157.328 227.473 157.444 227.408C157.513 227.369 157.565 227.306 157.592 227.231C157.599 227.188 157.593 227.144 157.576 227.105C157.558 227.066 157.529 227.032 157.493 227.009C157.26 226.909 157 226.887 156.754 226.948C156.507 227.008 156.287 227.147 156.126 227.344C156.037 227.457 155.974 227.589 155.944 227.729C155.931 227.778 155.931 227.829 155.944 227.877C156.002 227.699 156.091 227.532 156.205 227.384C156.335 227.23 156.507 227.117 156.699 227.058C156.932 226.969 157.19 226.969 157.424 227.058C157.523 227.122 157.488 227.226 157.38 227.29C157.274 227.351 157.161 227.399 157.044 227.433C156.843 227.503 156.637 227.559 156.427 227.601C156.042 227.685 155.835 227.69 155.835 227.709Z" fill="#263238"/>
<path d="M155.969 227.734C156.039 227.615 156.06 227.473 156.028 227.339C155.997 227.192 155.931 227.055 155.835 226.939C155.78 226.858 155.707 226.791 155.621 226.743C155.536 226.695 155.44 226.668 155.342 226.663C155.283 226.675 155.231 226.71 155.198 226.76C155.165 226.81 155.153 226.871 155.164 226.93C155.179 227.02 155.216 227.105 155.273 227.176C155.356 227.301 155.456 227.414 155.569 227.512C155.668 227.612 155.79 227.686 155.924 227.729C155.924 227.729 155.801 227.63 155.628 227.458C155.526 227.359 155.436 227.248 155.362 227.127C155.278 227.008 155.214 226.796 155.362 226.767C155.443 226.773 155.521 226.797 155.592 226.837C155.663 226.877 155.724 226.932 155.771 226.999C155.858 227.104 155.92 227.227 155.954 227.359C155.97 227.483 155.974 227.609 155.969 227.734Z" fill="#263238"/>
<path d="M145.759 227.433C145.759 227.433 146.026 227.398 146.455 227.433C147.004 227.481 147.532 227.668 147.989 227.975C148.425 228.284 148.767 228.708 148.976 229.199C149.129 229.569 149.154 229.821 149.174 229.821C149.184 229.762 149.184 229.702 149.174 229.643C149.151 229.483 149.111 229.326 149.055 229.174C148.865 228.656 148.52 228.209 148.068 227.891C147.596 227.568 147.042 227.383 146.47 227.359C146.296 227.353 146.123 227.363 145.952 227.388C145.818 227.383 145.754 227.403 145.759 227.433Z" fill="#263238"/>
<path d="M150.348 228.962C150.801 229.052 151.264 229.083 151.725 229.056C152.187 229.062 152.649 229.016 153.101 228.918C153.101 228.883 152.485 228.918 151.725 228.947C150.965 228.977 150.353 228.913 150.348 228.962Z" fill="#263238"/>
<path d="M148.503 229.011C148.478 229.011 148.557 229.13 148.621 229.258C148.685 229.386 148.73 229.505 148.759 229.5C148.789 229.495 148.804 229.362 148.725 229.214C148.646 229.066 148.522 228.987 148.503 229.011Z" fill="#263238"/>
<path d="M147.782 228.222C147.782 228.222 147.822 228.335 147.925 228.424C148.029 228.513 148.123 228.567 148.147 228.547C148.172 228.528 148.103 228.434 148.004 228.345C147.905 228.256 147.802 228.202 147.782 228.222Z" fill="#263238"/>
<path d="M146.776 227.882C146.776 227.911 146.909 227.882 147.047 227.951C147.185 228.02 147.289 228.054 147.313 228.035C147.338 228.015 147.254 227.897 147.081 227.847C146.909 227.798 146.766 227.857 146.776 227.882Z" fill="#263238"/>
<path d="M146.06 227.728C146.06 227.728 146.104 227.798 146.183 227.822C146.262 227.847 146.336 227.822 146.346 227.822C146.356 227.822 146.302 227.748 146.223 227.723C146.144 227.699 146.07 227.699 146.06 227.728Z" fill="#263238"/>
<path d="M155.835 226.939L144.718 146.276L144.402 141.08L116.552 139.757L115.373 144.134C111.465 157.911 91.7168 224.531 91.7168 224.531L101.364 227.576L130.082 151.24L143.45 226.796L155.835 226.939Z" fill="#263238"/>
<path d="M143.006 140.291C142.932 140.291 142.858 140.138 142.838 139.935C142.818 139.733 142.863 139.56 142.932 139.555C143.001 139.55 143.075 139.708 143.094 139.911C143.114 140.113 143.055 140.286 143.006 140.291Z" fill="#455A64"/>
<path d="M143.277 143.226C143.203 143.226 143.114 142.91 143.075 142.506C143.035 142.101 143.075 141.765 143.129 141.756C143.183 141.746 143.287 142.071 143.331 142.481C143.376 142.891 143.346 143.216 143.277 143.226Z" fill="#455A64"/>
<path d="M143.578 146.157C143.509 146.157 143.42 145.846 143.376 145.442C143.331 145.037 143.376 144.701 143.425 144.692C143.474 144.682 143.588 145.007 143.632 145.412C143.677 145.817 143.652 146.152 143.578 146.157Z" fill="#455A64"/>
<path d="M143.899 149.093C143.825 149.093 143.731 148.777 143.686 148.373C143.642 147.968 143.686 147.632 143.736 147.627C143.785 147.623 143.899 147.938 143.943 148.343C143.987 148.748 143.992 149.083 143.899 149.093Z" fill="#455A64"/>
<path d="M144.224 152.024C144.155 152.024 144.061 151.708 144.012 151.304C143.963 150.899 143.987 150.564 144.057 150.559C144.126 150.554 144.224 150.87 144.269 151.274C144.313 151.679 144.293 152.014 144.224 152.024Z" fill="#455A64"/>
<path d="M144.56 154.955C144.491 154.955 144.397 154.64 144.348 154.235C144.298 153.83 144.323 153.495 144.392 153.49C144.461 153.485 144.555 153.801 144.604 154.205C144.654 154.61 144.634 154.945 144.56 154.955Z" fill="#455A64"/>
<path d="M144.91 157.881C144.836 157.881 144.743 157.57 144.693 157.166C144.644 156.761 144.664 156.426 144.733 156.416C144.802 156.406 144.9 156.732 144.95 157.136C144.999 157.541 144.979 157.857 144.91 157.881Z" fill="#455A64"/>
<path d="M145.266 160.817C145.192 160.817 145.098 160.502 145.049 160.097C144.999 159.692 145.014 159.362 145.083 159.352C145.152 159.342 145.251 159.663 145.3 160.067C145.35 160.472 145.335 160.817 145.266 160.817Z" fill="#455A64"/>
<path d="M145.626 163.739C145.557 163.739 145.458 163.428 145.409 163.023C145.359 162.619 145.374 162.283 145.443 162.273C145.512 162.263 145.611 162.584 145.665 162.989C145.719 163.393 145.7 163.729 145.626 163.739Z" fill="#455A64"/>
<path d="M145.996 166.665C145.927 166.665 145.828 166.354 145.779 165.949C145.729 165.545 145.739 165.209 145.813 165.199C145.887 165.19 145.981 165.515 146.03 165.915C146.08 166.315 146.07 166.655 145.996 166.665Z" fill="#455A64"/>
<path d="M146.376 169.591C146.302 169.591 146.203 169.28 146.154 168.875C146.105 168.471 146.114 168.135 146.183 168.125C146.253 168.115 146.356 168.436 146.406 168.841C146.455 169.245 146.46 169.581 146.376 169.591Z" fill="#455A64"/>
<path d="M146.756 172.517C146.687 172.517 146.588 172.206 146.534 171.802C146.479 171.397 146.494 171.061 146.563 171.051C146.632 171.042 146.736 171.362 146.79 171.767C146.845 172.172 146.825 172.507 146.756 172.517Z" fill="#455A64"/>
<path d="M147.141 175.438C147.072 175.438 146.973 175.127 146.919 174.727C146.864 174.328 146.879 173.987 146.948 173.977C147.017 173.967 147.121 174.288 147.175 174.693C147.23 175.097 147.215 175.428 147.141 175.438Z" fill="#455A64"/>
<path d="M147.53 178.364C147.461 178.364 147.363 178.054 147.308 177.649C147.254 177.244 147.269 176.909 147.338 176.904C147.407 176.899 147.506 177.21 147.56 177.614C147.614 178.019 147.604 178.355 147.53 178.364Z" fill="#455A64"/>
<path d="M147.94 181.286C147.871 181.286 147.767 180.98 147.713 180.575C147.659 180.17 147.674 179.835 147.743 179.825C147.812 179.815 147.915 180.136 147.97 180.54C148.024 180.945 147.994 181.276 147.94 181.286Z" fill="#455A64"/>
<path d="M148.32 184.211C148.251 184.211 148.147 183.9 148.093 183.496C148.039 183.091 148.054 182.761 148.123 182.751C148.192 182.741 148.295 183.057 148.35 183.461C148.404 183.866 148.389 184.201 148.32 184.211Z" fill="#455A64"/>
<path d="M148.715 187.133C148.646 187.133 148.547 186.822 148.488 186.422C148.429 186.022 148.448 185.682 148.517 185.672C148.587 185.662 148.69 185.983 148.744 186.388C148.799 186.792 148.789 187.123 148.715 187.133Z" fill="#455A64"/>
<path d="M149.124 190.054C149.05 190.054 148.947 189.743 148.892 189.339C148.838 188.934 148.843 188.603 148.892 188.593C148.942 188.584 149.07 188.904 149.124 189.304C149.179 189.704 149.193 190.044 149.124 190.054Z" fill="#455A64"/>
<path d="M149.554 192.966C149.485 192.966 149.376 192.66 149.317 192.26C149.258 191.86 149.267 191.52 149.317 191.51C149.366 191.5 149.494 191.816 149.554 192.221C149.613 192.625 149.623 192.956 149.554 192.966Z" fill="#455A64"/>
<path d="M149.993 195.882C149.924 195.882 149.815 195.576 149.756 195.171C149.697 194.766 149.702 194.436 149.756 194.426C149.81 194.416 149.934 194.732 149.993 195.132C150.052 195.531 150.062 195.852 149.993 195.882Z" fill="#455A64"/>
<path d="M150.432 198.813C150.363 198.813 150.254 198.507 150.195 198.102C150.136 197.698 150.141 197.367 150.195 197.357C150.249 197.347 150.373 197.663 150.437 198.063C150.501 198.462 150.501 198.813 150.432 198.813Z" fill="#455A64"/>
<path d="M150.901 201.709C150.827 201.709 150.723 201.403 150.664 200.999C150.605 200.594 150.61 200.264 150.664 200.254C150.718 200.244 150.841 200.56 150.901 200.964C150.96 201.369 150.945 201.699 150.901 201.709Z" fill="#455A64"/>
<path d="M151.315 204.621C151.246 204.621 151.142 204.315 151.078 203.915C151.014 203.516 151.024 203.175 151.078 203.165C151.133 203.155 151.251 203.471 151.315 203.876C151.379 204.28 151.394 204.611 151.315 204.621Z" fill="#455A64"/>
<path d="M151.759 207.537C151.69 207.537 151.582 207.231 151.522 206.826C151.463 206.422 151.468 206.091 151.522 206.081C151.577 206.071 151.7 206.387 151.764 206.787C151.828 207.187 151.828 207.527 151.759 207.537Z" fill="#455A64"/>
<path d="M152.203 210.453C152.134 210.453 152.026 210.147 151.967 209.742C151.907 209.338 151.912 209.007 151.967 208.997C152.021 208.987 152.144 209.303 152.208 209.708C152.272 210.112 152.272 210.443 152.203 210.453Z" fill="#455A64"/>
<path d="M152.647 213.369C152.578 213.369 152.47 213.064 152.411 212.664C152.351 212.264 152.356 211.924 152.411 211.914C152.465 211.904 152.588 212.22 152.647 212.624C152.707 213.029 152.717 213.36 152.647 213.369Z" fill="#455A64"/>
<path d="M153.092 216.285C153.023 216.285 152.914 215.98 152.855 215.58C152.796 215.18 152.801 214.84 152.855 214.83C152.909 214.82 153.032 215.136 153.092 215.54C153.151 215.945 153.161 216.276 153.092 216.285Z" fill="#455A64"/>
<path d="M153.531 219.207C153.462 219.207 153.358 218.896 153.294 218.496C153.23 218.097 153.24 217.756 153.294 217.746C153.348 217.736 153.467 218.052 153.531 218.457C153.595 218.862 153.605 219.192 153.531 219.207Z" fill="#455A64"/>
<path d="M153.97 222.123C153.901 222.123 153.797 221.817 153.733 221.412C153.669 221.008 153.684 220.672 153.733 220.662C153.782 220.652 153.911 220.973 153.97 221.373C154.029 221.773 154.044 222.113 153.97 222.123Z" fill="#455A64"/>
<path d="M154.409 225.044C154.335 225.044 154.232 224.733 154.172 224.334C154.113 223.934 154.118 223.594 154.172 223.584C154.227 223.574 154.345 223.89 154.404 224.294C154.463 224.699 154.478 225.034 154.409 225.044Z" fill="#455A64"/>
<path d="M154.725 227.25C154.656 227.25 154.572 227.107 154.547 226.904C154.523 226.702 154.547 226.529 154.621 226.519C154.695 226.51 154.774 226.668 154.799 226.87C154.824 227.072 154.794 227.24 154.725 227.25Z" fill="#455A64"/>
<path d="M100.698 225.458C100.762 225.458 100.772 225.656 100.698 225.848C100.624 226.041 100.53 226.184 100.466 226.164C100.402 226.144 100.392 225.967 100.466 225.769C100.54 225.572 100.629 225.458 100.698 225.458Z" fill="#455A64"/>
<path d="M101.606 222.612C101.675 222.612 101.606 222.972 101.502 223.367C101.398 223.761 101.216 224.062 101.152 224.038C101.087 224.013 101.152 223.683 101.255 223.288C101.359 222.893 101.556 222.592 101.606 222.612Z" fill="#455A64"/>
<path d="M102.543 219.76C102.612 219.784 102.543 220.12 102.434 220.515C102.326 220.909 102.148 221.205 102.079 221.186C102.01 221.166 102.079 220.826 102.188 220.436C102.296 220.046 102.469 219.74 102.543 219.76Z" fill="#455A64"/>
<path d="M103.476 216.913C103.545 216.937 103.476 217.273 103.362 217.668C103.249 218.062 103.071 218.358 103.002 218.339C102.933 218.319 103.002 217.978 103.115 217.584C103.229 217.189 103.407 216.893 103.476 216.913Z" fill="#455A64"/>
<path d="M104.433 214.07C104.497 214.095 104.433 214.43 104.314 214.825C104.196 215.22 104.018 215.516 103.954 215.491C103.89 215.467 103.954 215.131 104.068 214.741C104.181 214.352 104.364 214.051 104.433 214.07Z" fill="#455A64"/>
<path d="M105.4 211.233C105.469 211.258 105.4 211.593 105.277 211.983C105.153 212.373 104.981 212.674 104.917 212.654C104.852 212.634 104.917 212.294 105.035 211.899C105.153 211.504 105.331 211.208 105.4 211.233Z" fill="#455A64"/>
<path d="M106.382 208.4C106.451 208.4 106.382 208.761 106.259 209.15C106.135 209.54 105.958 209.841 105.889 209.817C105.82 209.792 105.889 209.456 106.017 209.066C106.145 208.677 106.313 208.376 106.382 208.4Z" fill="#455A64"/>
<path d="M107.374 205.568C107.443 205.593 107.374 205.929 107.25 206.318C107.127 206.708 106.945 207.009 106.875 206.984C106.806 206.96 106.875 206.624 107.004 206.234C107.132 205.845 107.31 205.544 107.374 205.568Z" fill="#455A64"/>
<path d="M108.38 202.76C108.449 202.785 108.38 203.121 108.252 203.511C108.124 203.9 107.946 204.196 107.877 204.172C107.808 204.147 107.877 203.816 108.01 203.427C108.144 203.037 108.316 202.716 108.38 202.76Z" fill="#455A64"/>
<path d="M109.397 199.918C109.461 199.943 109.397 200.278 109.264 200.668C109.131 201.058 108.953 201.354 108.889 201.329C108.825 201.305 108.889 200.969 109.022 200.579C109.155 200.189 109.328 199.893 109.397 199.918Z" fill="#455A64"/>
<path d="M110.438 197.096C110.502 197.12 110.438 197.456 110.3 197.846C110.162 198.236 109.989 198.532 109.925 198.507C109.861 198.482 109.925 198.147 110.058 197.757C110.192 197.367 110.354 197.071 110.438 197.096Z" fill="#455A64"/>
<path d="M111.46 194.278C111.524 194.302 111.46 194.638 111.317 195.028C111.173 195.418 111.006 195.714 110.937 195.689C110.867 195.664 110.937 195.329 111.08 194.939C111.223 194.549 111.391 194.253 111.46 194.278Z" fill="#455A64"/>
<path d="M112.501 191.465C112.57 191.49 112.501 191.826 112.358 192.215C112.215 192.605 112.047 192.896 111.978 192.872C111.909 192.847 111.978 192.511 112.121 192.127C112.264 191.742 112.437 191.441 112.501 191.465Z" fill="#455A64"/>
<path d="M113.552 188.653C113.621 188.653 113.552 189.013 113.409 189.403C113.266 189.793 113.093 190.084 113.024 190.059C112.955 190.034 113.024 189.699 113.167 189.314C113.31 188.929 113.488 188.628 113.552 188.653Z" fill="#455A64"/>
<path d="M114.613 185.845C114.677 185.845 114.613 186.205 114.465 186.595C114.317 186.985 114.149 187.276 114.08 187.252C114.011 187.227 114.08 186.891 114.228 186.501C114.376 186.112 114.544 185.821 114.613 185.845Z" fill="#455A64"/>
<path d="M115.678 183.022C115.743 183.047 115.678 183.383 115.53 183.772C115.382 184.162 115.21 184.453 115.141 184.429C115.071 184.404 115.141 184.069 115.289 183.679C115.437 183.289 115.609 183.022 115.678 183.022Z" fill="#455A64"/>
<path d="M116.749 180.235C116.813 180.235 116.749 180.595 116.601 180.98C116.453 181.365 116.276 181.661 116.211 181.636C116.147 181.612 116.211 181.276 116.359 180.891C116.508 180.506 116.68 180.21 116.749 180.235Z" fill="#455A64"/>
<path d="M117.84 177.432C117.904 177.456 117.84 177.792 117.687 178.177C117.534 178.562 117.366 178.858 117.302 178.833C117.238 178.808 117.302 178.473 117.45 178.088C117.598 177.703 117.756 177.407 117.84 177.432Z" fill="#455A64"/>
<path d="M118.906 174.634C118.97 174.663 118.906 174.994 118.753 175.384C118.6 175.774 118.432 176.06 118.363 176.035C118.294 176.011 118.363 175.675 118.516 175.29C118.669 174.905 118.827 174.604 118.906 174.634Z" fill="#455A64"/>
<path d="M119.991 171.831C120.055 171.856 119.991 172.191 119.838 172.576C119.685 172.961 119.513 173.257 119.449 173.232C119.384 173.208 119.449 172.872 119.597 172.487C119.745 172.102 119.922 171.806 119.991 171.831Z" fill="#455A64"/>
<path d="M121.077 169.033C121.141 169.063 121.077 169.393 120.924 169.778C120.771 170.163 120.598 170.459 120.534 170.435C120.47 170.41 120.534 170.074 120.687 169.689C120.84 169.305 121.013 169.009 121.077 169.033Z" fill="#455A64"/>
<path d="M122.167 166.245C122.232 166.27 122.167 166.606 122.014 166.99C121.861 167.375 121.689 167.666 121.625 167.642C121.56 167.617 121.625 167.282 121.778 166.897C121.93 166.512 122.103 166.211 122.167 166.245Z" fill="#455A64"/>
<path d="M123.268 163.442C123.337 163.467 123.268 163.803 123.115 164.187C122.962 164.572 122.789 164.868 122.725 164.839C122.661 164.809 122.725 164.484 122.878 164.094C123.031 163.704 123.194 163.418 123.268 163.442Z" fill="#455A64"/>
<path d="M124.353 160.65C124.418 160.65 124.353 161.01 124.2 161.395C124.047 161.78 123.875 162.071 123.806 162.046C123.737 162.022 123.806 161.686 123.959 161.301C124.112 160.916 124.289 160.625 124.353 160.65Z" fill="#455A64"/>
<path d="M125.498 157.857C125.562 157.887 125.498 158.217 125.325 158.597C125.153 158.977 124.98 159.263 124.916 159.239C124.852 159.214 124.916 158.878 125.089 158.498C125.261 158.118 125.434 157.857 125.498 157.857Z" fill="#455A64"/>
<path d="M126.786 155.168C126.845 155.202 126.747 155.528 126.564 155.898C126.381 156.268 126.179 156.539 126.115 156.51C126.051 156.48 126.15 156.154 126.337 155.779C126.525 155.404 126.722 155.133 126.786 155.168Z" fill="#455A64"/>
<path d="M128.38 152.626C128.434 152.675 128.291 152.981 128.059 153.317C127.827 153.652 127.566 153.899 127.526 153.859C127.487 153.82 127.61 153.514 127.847 153.169C128.084 152.823 128.326 152.581 128.38 152.626Z" fill="#455A64"/>
<path d="M130.097 151.24C130.097 151.309 129.984 151.407 129.816 151.496C129.648 151.585 129.485 151.634 129.441 151.575C129.396 151.516 129.505 151.368 129.697 151.269C129.89 151.17 130.077 151.17 130.097 151.24Z" fill="#455A64"/>
<path d="M142.512 136.239C142.512 136.239 141.032 131.201 140.232 128.418C139.913 127.292 139.724 126.133 139.67 124.964L139.552 122.442L139.971 120.31L141.333 121.89L147.98 114.947C148.103 115.115 144.97 110.565 141.797 106.114C139.586 103.015 137.425 102.166 136.028 102.048C135.373 101.861 134.688 101.801 134.01 101.87L122.572 101.772C120.077 101.793 117.666 102.677 115.748 104.274C115.22 104.708 110.838 110.535 107.853 116.294L117.055 122.936L118.57 120.271V120.429C118.689 121.376 118.98 122.896 119.202 123.834C119.937 126.77 120.307 130.643 118.827 133.184C117.792 135.761 116.912 138.398 116.192 141.08H144.412C144.412 141.08 143.499 138.612 142.512 136.239Z" fill="#33B55B"/>
<path d="M123.342 105.492C123.342 105.492 123.406 105.527 123.475 105.645C123.565 105.825 123.59 106.031 123.544 106.227C123.47 106.534 123.296 106.808 123.051 107.007C122.774 107.244 122.444 107.466 122.064 107.733C121.334 108.265 120.485 108.887 119.542 109.568C119.061 109.972 118.518 110.295 117.934 110.525C117.597 110.624 117.239 110.624 116.902 110.525C116.723 110.471 116.558 110.379 116.418 110.254C116.279 110.13 116.168 109.977 116.093 109.805C115.969 109.474 115.937 109.115 116.001 108.767C116.066 108.42 116.224 108.096 116.458 107.831C116.883 107.368 117.384 106.981 117.939 106.686L119.37 105.838C119.782 105.576 120.208 105.339 120.648 105.127C121.021 104.969 121.403 104.834 121.792 104.722C122.107 104.683 122.426 104.736 122.71 104.875C123.204 105.102 123.283 105.418 123.263 105.413C123.11 105.213 122.905 105.058 122.671 104.964C122.403 104.853 122.109 104.819 121.822 104.866C121.448 104.987 121.08 105.128 120.722 105.29C120.327 105.468 119.932 105.754 119.478 106.02L118.062 106.889C117.533 107.173 117.056 107.545 116.651 107.989C116.445 108.219 116.307 108.5 116.249 108.802C116.192 109.105 116.218 109.418 116.325 109.706C116.382 109.845 116.47 109.97 116.582 110.07C116.694 110.17 116.827 110.243 116.972 110.284C117.26 110.37 117.567 110.37 117.855 110.284C118.415 110.063 118.938 109.757 119.404 109.376L121.955 107.584C122.316 107.328 122.661 107.091 122.942 106.894C123.178 106.724 123.351 106.481 123.436 106.203C123.472 106.085 123.482 105.96 123.466 105.837C123.45 105.715 123.407 105.597 123.342 105.492Z" fill="#E0E0E0"/>
<path d="M145.053 114.803C145.074 114.871 145.074 114.943 145.053 115.011C144.999 115.21 144.877 115.385 144.708 115.504C144.444 115.677 144.13 115.759 143.815 115.736C143.45 115.736 143.055 115.667 142.616 115.623L139.517 115.257C138.89 115.228 138.271 115.096 137.686 114.868C137.367 114.719 137.098 114.481 136.912 114.182C136.817 114.022 136.759 113.843 136.741 113.658C136.723 113.473 136.746 113.286 136.808 113.111C136.94 112.782 137.16 112.495 137.444 112.282C137.727 112.069 138.064 111.938 138.417 111.902C139.045 111.851 139.677 111.906 140.287 112.065L141.915 112.415C142.395 112.501 142.87 112.615 143.336 112.756C143.718 112.897 144.09 113.061 144.451 113.249C144.712 113.429 144.911 113.686 145.019 113.984C145.082 114.102 145.118 114.231 145.126 114.364C145.134 114.497 145.112 114.63 145.063 114.754C145.082 114.503 145.036 114.252 144.93 114.024C144.813 113.758 144.621 113.532 144.377 113.373C144.019 113.208 143.651 113.063 143.277 112.938C142.814 112.811 142.345 112.709 141.871 112.632L140.237 112.307C139.654 112.161 139.051 112.111 138.451 112.159C138.145 112.19 137.853 112.304 137.606 112.489C137.36 112.673 137.167 112.92 137.05 113.205C136.998 113.345 136.978 113.495 136.993 113.644C137.007 113.792 137.056 113.936 137.134 114.063C137.294 114.319 137.523 114.524 137.795 114.655C138.356 114.872 138.947 115 139.547 115.035L142.636 115.45C143.075 115.504 143.474 115.578 143.82 115.603C144.109 115.635 144.401 115.575 144.654 115.43C144.762 115.361 144.854 115.269 144.923 115.161C144.992 115.053 145.037 114.931 145.053 114.803Z" fill="#E0E0E0"/>
<path d="M139.552 105.018C139.552 105.018 139.616 105.053 139.685 105.171C139.775 105.352 139.799 105.558 139.754 105.754C139.68 106.061 139.507 106.335 139.26 106.533C138.984 106.77 138.653 106.997 138.298 107.264L135.782 109.099C135.297 109.5 134.752 109.823 134.168 110.057C133.831 110.155 133.473 110.155 133.137 110.057C132.958 110.004 132.793 109.913 132.654 109.789C132.515 109.665 132.405 109.512 132.332 109.341C132.207 109.01 132.175 108.652 132.238 108.304C132.302 107.956 132.459 107.632 132.693 107.367C133.117 106.904 133.618 106.517 134.173 106.222L135.604 105.369C136.017 105.109 136.444 104.872 136.882 104.658C137.257 104.501 137.641 104.368 138.032 104.259C138.344 104.215 138.662 104.266 138.945 104.407C139.438 104.639 139.517 104.954 139.502 104.949C139.346 104.75 139.14 104.595 138.905 104.5C138.638 104.384 138.343 104.348 138.056 104.397C137.746 104.495 137.351 104.653 136.956 104.826C136.531 105.046 136.118 105.288 135.717 105.551L134.296 106.425C133.767 106.709 133.29 107.081 132.885 107.525C132.68 107.755 132.541 108.036 132.483 108.338C132.426 108.641 132.452 108.954 132.559 109.242C132.619 109.379 132.708 109.501 132.819 109.6C132.931 109.699 133.063 109.772 133.206 109.815C133.496 109.901 133.804 109.901 134.094 109.815C134.651 109.591 135.172 109.285 135.639 108.907C136.586 108.236 137.449 107.634 138.19 107.116C138.55 106.859 138.895 106.622 139.177 106.425C139.409 106.252 139.581 106.01 139.67 105.734C139.701 105.613 139.707 105.487 139.687 105.364C139.666 105.24 139.62 105.123 139.552 105.018Z" fill="#E0E0E0"/>
<path d="M113.725 112.203C113.725 112.203 113.774 112.144 113.907 112.104C114.102 112.054 114.309 112.075 114.489 112.164C114.773 112.305 115.002 112.536 115.141 112.82C115.313 113.141 115.457 113.511 115.634 113.915L116.878 116.772C117.163 117.332 117.36 117.933 117.46 118.554C117.492 118.904 117.42 119.256 117.253 119.565C117.162 119.728 117.037 119.869 116.886 119.979C116.735 120.088 116.562 120.162 116.379 120.197C116.028 120.249 115.669 120.203 115.342 120.064C115.015 119.926 114.732 119.701 114.524 119.412C114.164 118.896 113.895 118.322 113.729 117.715C113.547 117.162 113.374 116.629 113.211 116.131C113.046 115.672 112.908 115.204 112.797 114.73C112.72 114.332 112.671 113.93 112.649 113.526C112.678 113.21 112.8 112.909 112.999 112.662C113.325 112.252 113.651 112.223 113.646 112.238C113.415 112.348 113.219 112.518 113.078 112.731C112.909 112.967 112.809 113.246 112.792 113.535C112.822 113.866 112.891 114.281 112.974 114.705C113.095 115.168 113.242 115.625 113.414 116.072C113.581 116.565 113.764 117.098 113.956 117.651C114.118 118.229 114.377 118.777 114.721 119.269C114.903 119.518 115.148 119.713 115.431 119.834C115.714 119.955 116.025 119.997 116.33 119.955C116.476 119.931 116.615 119.874 116.737 119.788C116.858 119.703 116.958 119.591 117.031 119.462C117.173 119.196 117.234 118.894 117.208 118.593C117.114 117.999 116.93 117.424 116.661 116.886C116.211 115.815 115.812 114.838 115.466 114.004C115.294 113.6 115.156 113.215 115.003 112.909C114.887 112.641 114.688 112.418 114.435 112.272C114.329 112.21 114.21 112.172 114.087 112.16C113.965 112.148 113.841 112.163 113.725 112.203Z" fill="#E0E0E0"/>
<path d="M126.771 111.167C126.847 111.154 126.925 111.166 126.993 111.201C127.198 111.292 127.361 111.456 127.452 111.66C127.483 111.728 127.508 111.799 127.526 111.872C127.554 111.933 127.598 111.984 127.654 112.02C127.803 112.117 127.958 112.203 128.118 112.277C128.531 112.449 128.932 112.648 129.317 112.874C129.379 112.912 129.433 112.963 129.475 113.022C129.493 113.041 129.506 113.064 129.515 113.089C129.523 113.113 129.526 113.139 129.525 113.165C129.525 113.229 129.525 113.239 129.5 113.279C129.466 113.413 129.414 113.542 129.347 113.664C129.211 113.915 129.046 114.148 128.854 114.359C128.464 114.803 128 115.213 127.541 115.667C127.034 116.092 126.674 116.665 126.51 117.305C126.437 117.668 126.317 118.019 126.154 118.351C125.977 118.709 125.69 119.001 125.335 119.185C125.152 119.28 124.949 119.329 124.743 119.329C124.537 119.329 124.334 119.28 124.151 119.185C123.813 118.991 123.544 118.696 123.381 118.341C123.137 117.67 123.137 116.935 123.381 116.264C123.761 115.011 124.121 113.915 124.442 112.973C124.619 112.564 124.822 112.167 125.049 111.784C125.238 111.486 125.527 111.266 125.863 111.162C125.996 111.099 126.141 111.066 126.288 111.066C126.434 111.066 126.579 111.099 126.712 111.162C126.438 111.109 126.155 111.138 125.898 111.246C125.596 111.356 125.341 111.567 125.177 111.843C124.965 112.226 124.776 112.621 124.61 113.027C124.324 113.95 123.968 115.085 123.623 116.318C123.404 116.936 123.404 117.61 123.623 118.228C123.764 118.532 123.997 118.784 124.289 118.948C124.435 119.025 124.598 119.065 124.763 119.065C124.928 119.065 125.09 119.025 125.237 118.948C125.542 118.789 125.789 118.537 125.942 118.228C126.095 117.914 126.209 117.583 126.283 117.241C126.317 117.062 126.37 116.886 126.441 116.718C126.518 116.555 126.61 116.4 126.717 116.254C126.92 115.982 127.146 115.728 127.393 115.494C127.857 115.035 128.326 114.636 128.706 114.216C128.894 114.019 129.06 113.8 129.199 113.565C129.26 113.456 129.308 113.34 129.342 113.219C129.342 113.219 129.372 113.15 129.342 113.15V113.126C129.31 113.084 129.272 113.047 129.229 113.017C128.856 112.791 128.47 112.586 128.074 112.405C127.902 112.324 127.736 112.228 127.58 112.119C127.503 112.066 127.445 111.987 127.418 111.897C127.404 111.83 127.384 111.764 127.358 111.7C127.289 111.508 127.152 111.348 126.974 111.251C126.908 111.218 126.84 111.19 126.771 111.167Z" fill="#E0E0E0"/>
<path d="M131.656 115.914C131.656 115.914 131.686 115.845 131.804 115.776C131.98 115.679 132.185 115.648 132.382 115.687C132.694 115.758 132.974 115.931 133.176 116.18C133.423 116.447 133.67 116.767 133.931 117.118L135.841 119.585C136.253 120.055 136.586 120.588 136.828 121.164C136.943 121.498 136.96 121.857 136.877 122.2C136.828 122.38 136.741 122.547 136.621 122.69C136.5 122.832 136.35 122.946 136.181 123.024C135.855 123.154 135.5 123.193 135.153 123.14C134.806 123.086 134.48 122.94 134.207 122.718C133.733 122.306 133.332 121.816 133.023 121.268L132.15 119.861C131.877 119.456 131.627 119.036 131.4 118.603C131.233 118.234 131.088 117.855 130.966 117.468C130.913 117.157 130.956 116.837 131.089 116.55C131.306 116.057 131.617 115.963 131.612 115.978C131.42 116.143 131.272 116.353 131.183 116.59C131.078 116.86 131.051 117.154 131.104 117.439C131.212 117.749 131.38 118.134 131.563 118.524C131.797 118.943 132.052 119.35 132.327 119.743L133.24 121.139C133.541 121.66 133.926 122.127 134.38 122.521C134.617 122.717 134.903 122.846 135.206 122.894C135.51 122.942 135.822 122.907 136.107 122.792C136.242 122.729 136.362 122.637 136.458 122.523C136.555 122.409 136.625 122.275 136.665 122.131C136.736 121.837 136.722 121.529 136.625 121.243C136.386 120.693 136.065 120.182 135.673 119.728L133.808 117.226C133.541 116.876 133.314 116.536 133.087 116.274C132.912 116.037 132.664 115.864 132.382 115.781C132.259 115.745 132.129 115.739 132.003 115.762C131.878 115.785 131.759 115.837 131.656 115.914Z" fill="#E0E0E0"/>
<path d="M120.988 125.058C120.982 124.988 120.996 124.918 121.028 124.855C121.115 124.675 121.261 124.529 121.442 124.441C121.732 124.312 122.056 124.283 122.365 124.357C122.72 124.426 123.1 124.545 123.529 124.663L126.53 125.517C127.143 125.65 127.733 125.878 128.276 126.193C128.567 126.392 128.793 126.671 128.928 126.997C128.996 127.17 129.025 127.357 129.013 127.543C129.001 127.728 128.948 127.909 128.859 128.073C128.675 128.376 128.412 128.623 128.098 128.788C127.784 128.952 127.431 129.028 127.077 129.005C126.45 128.958 125.836 128.802 125.261 128.546L123.707 127.939C123.248 127.776 122.798 127.587 122.36 127.372C122.004 127.175 121.662 126.956 121.334 126.716C121.107 126.495 120.952 126.212 120.889 125.902C120.846 125.776 120.83 125.642 120.845 125.51C120.859 125.377 120.903 125.25 120.973 125.137C120.906 125.379 120.906 125.635 120.973 125.877C121.049 126.156 121.201 126.409 121.413 126.607C121.74 126.826 122.08 127.027 122.429 127.209C122.863 127.415 123.308 127.597 123.761 127.757L125.326 128.339C125.877 128.577 126.464 128.722 127.062 128.768C127.369 128.788 127.676 128.723 127.949 128.581C128.222 128.44 128.451 128.226 128.612 127.964C128.685 127.834 128.728 127.69 128.737 127.541C128.747 127.392 128.723 127.243 128.666 127.106C128.553 126.825 128.359 126.585 128.109 126.415C127.59 126.111 127.027 125.889 126.441 125.758L123.48 124.851C123.056 124.727 122.671 124.589 122.335 124.51C122.056 124.432 121.759 124.444 121.487 124.545C121.372 124.591 121.269 124.66 121.183 124.748C121.097 124.837 121.031 124.942 120.988 125.058Z" fill="#E0E0E0"/>
<path d="M137.084 136.352C137.025 136.388 136.956 136.403 136.887 136.397C136.685 136.394 136.49 136.319 136.339 136.184C136.103 135.972 135.945 135.688 135.89 135.375C135.806 135.025 135.767 134.625 135.698 134.186C135.574 133.293 135.426 132.252 135.268 131.097C135.142 130.482 135.114 129.851 135.185 129.227C135.256 128.879 135.427 128.56 135.678 128.309C135.806 128.179 135.96 128.079 136.131 128.014C136.301 127.949 136.483 127.922 136.665 127.934C137.016 127.983 137.348 128.126 137.625 128.347C137.902 128.568 138.114 128.86 138.239 129.192C138.444 129.786 138.549 130.41 138.55 131.038C138.55 131.625 138.599 132.178 138.624 132.706C138.651 133.199 138.651 133.693 138.624 134.186C138.589 134.589 138.528 134.99 138.441 135.385C138.33 135.682 138.133 135.938 137.874 136.12C137.776 136.21 137.659 136.278 137.532 136.319C137.405 136.36 137.271 136.373 137.139 136.357C137.387 136.311 137.62 136.203 137.815 136.041C138.042 135.859 138.213 135.616 138.308 135.341C138.377 134.954 138.425 134.563 138.451 134.171C138.457 133.692 138.437 133.212 138.392 132.735C138.362 132.212 138.333 131.655 138.298 131.072C138.294 130.471 138.191 129.874 137.992 129.306C137.885 129.017 137.702 128.763 137.462 128.57C137.222 128.378 136.935 128.253 136.63 128.21C136.481 128.197 136.33 128.217 136.189 128.269C136.049 128.322 135.921 128.404 135.816 128.511C135.609 128.728 135.468 129.001 135.412 129.296C135.345 129.893 135.37 130.497 135.486 131.087C135.624 132.242 135.752 133.288 135.861 134.186C135.915 134.625 135.944 135.03 136.009 135.365C136.049 135.654 136.18 135.922 136.384 136.13C136.477 136.215 136.589 136.28 136.71 136.318C136.831 136.356 136.958 136.368 137.084 136.352Z" fill="#E0E0E0"/>
<path d="M121.98 138.494C121.98 138.494 121.916 138.45 121.861 138.327C121.792 138.137 121.792 137.929 121.861 137.739C121.965 137.44 122.167 137.185 122.434 137.014C122.725 136.802 123.075 136.609 123.455 136.377L126.135 134.784C126.656 134.431 127.228 134.161 127.832 133.984C128.175 133.912 128.531 133.939 128.859 134.063C129.032 134.133 129.187 134.239 129.314 134.376C129.441 134.512 129.537 134.675 129.594 134.853C129.689 135.195 129.688 135.557 129.592 135.899C129.495 136.241 129.306 136.55 129.046 136.792C128.579 137.21 128.043 137.544 127.462 137.779L125.957 138.494C125.517 138.723 125.064 138.928 124.6 139.106C124.215 139.228 123.823 139.325 123.426 139.397C123.109 139.413 122.795 139.33 122.528 139.16C122.079 138.889 122.01 138.568 122.034 138.573C122.174 138.782 122.364 138.952 122.587 139.067C122.843 139.203 123.132 139.265 123.421 139.244C123.805 139.16 124.184 139.053 124.556 138.924C125 138.744 125.435 138.541 125.858 138.317L127.339 137.581C127.892 137.347 128.403 137.022 128.849 136.619C129.075 136.41 129.241 136.142 129.328 135.846C129.415 135.55 129.42 135.235 129.342 134.937C129.296 134.795 129.22 134.665 129.118 134.556C129.017 134.447 128.893 134.361 128.755 134.305C128.471 134.198 128.163 134.174 127.867 134.236C127.291 134.403 126.745 134.659 126.248 134.996L123.534 136.54C123.154 136.762 122.789 136.945 122.503 137.137C122.253 137.285 122.057 137.51 121.945 137.779C121.901 137.894 121.88 138.017 121.886 138.14C121.892 138.263 121.924 138.384 121.98 138.494Z" fill="#E0E0E0"/>
<path d="M121.965 114.646C121.246 116.08 120.45 117.476 119.582 118.825C118.785 120.217 117.915 121.566 116.976 122.867C117.695 121.433 118.491 120.04 119.36 118.692C120.155 117.297 121.024 115.947 121.965 114.646Z" fill="#263238"/>
<path d="M122.838 112.243C122.824 111.678 122.768 111.116 122.671 110.56C122.355 109.239 121.794 107.988 121.018 106.874C120.604 106.257 120.078 105.723 119.468 105.3C118.967 104.964 118.4 104.737 117.805 104.634C117.25 104.554 116.685 104.586 116.142 104.727C116.271 104.635 116.417 104.572 116.572 104.54C116.983 104.431 117.412 104.402 117.835 104.456C118.464 104.539 119.067 104.759 119.601 105.102C120.244 105.533 120.797 106.085 121.23 106.726C122.028 107.866 122.579 109.16 122.848 110.525C122.923 110.942 122.946 111.366 122.917 111.789C122.92 111.944 122.894 112.098 122.838 112.243Z" fill="#263238"/>
<path d="M133.29 101.683C133.29 101.683 133.319 101.737 133.349 101.846C133.393 102.007 133.424 102.172 133.443 102.339C133.51 102.948 133.46 103.565 133.294 104.155C133.046 105.037 132.559 105.835 131.888 106.459C131.037 107.206 129.956 107.638 128.825 107.682C127.694 107.726 126.582 107.38 125.676 106.701C124.958 106.129 124.41 105.371 124.092 104.51C123.879 103.935 123.782 103.323 123.806 102.709C123.81 102.544 123.828 102.378 123.86 102.216C123.884 102.102 123.899 102.043 123.909 102.048C123.855 102.862 123.976 103.678 124.264 104.441C124.589 105.256 125.126 105.97 125.819 106.509C126.686 107.146 127.744 107.47 128.82 107.427C129.896 107.385 130.925 106.98 131.74 106.277C132.391 105.687 132.874 104.934 133.137 104.096C133.359 103.312 133.411 102.489 133.29 101.683Z" fill="#263238"/>
<path d="M137.627 113.18C137.963 113.534 138.253 113.929 138.491 114.355C139.127 115.352 139.6 116.445 139.892 117.592C140.183 118.747 140.212 119.952 139.976 121.12C139.902 121.471 139.795 121.815 139.655 122.146C139.615 122.272 139.552 122.39 139.468 122.491C139.423 122.491 139.65 121.964 139.798 121.085C139.98 119.935 139.926 118.76 139.64 117.631C139.35 116.511 138.912 115.434 138.338 114.429C138.08 114.025 137.842 113.608 137.627 113.18Z" fill="#263238"/>
<path d="M147.994 114.967C147.715 115.349 147.403 115.708 147.062 116.037L144.738 118.549C143.82 119.536 142.976 120.394 142.349 121.016C142.028 121.366 141.672 121.683 141.288 121.964C141.569 121.58 141.881 121.22 142.221 120.888L144.55 118.381C145.463 117.394 146.307 116.536 146.933 115.914C147.255 115.564 147.61 115.247 147.994 114.967Z" fill="#263238"/>
<path d="M142.828 120.389C142.784 120.448 142.522 120.31 142.246 120.083C141.969 119.856 141.782 119.634 141.826 119.59C141.871 119.545 142.132 119.674 142.408 119.896C142.685 120.118 142.872 120.355 142.828 120.389Z" fill="#263238"/>
<path d="M144.353 118.781C144.303 118.835 144.052 118.722 143.78 118.524C143.509 118.327 143.326 118.124 143.366 118.065C143.405 118.006 143.657 118.12 143.933 118.317C144.21 118.514 144.397 118.726 144.353 118.781Z" fill="#263238"/>
<path d="M146.312 116.659C146.267 116.713 146.026 116.59 145.774 116.378C145.522 116.165 145.359 115.953 145.404 115.884C145.448 115.815 145.69 115.953 145.942 116.165C146.193 116.378 146.361 116.605 146.312 116.659Z" fill="#263238"/>
<path d="M129.569 109.065C129.505 109.094 129.278 108.764 129.174 108.29C129.071 107.816 129.14 107.417 129.209 107.422C129.278 107.427 129.327 107.792 129.426 108.236C129.525 108.68 129.633 109.03 129.569 109.065Z" fill="#263238"/>
<path d="M132.421 107.708C132.367 107.752 132.135 107.54 131.928 107.214C131.721 106.889 131.563 106.627 131.622 106.583C131.681 106.538 131.908 106.755 132.115 107.076C132.323 107.397 132.48 107.668 132.421 107.708Z" fill="#263238"/>
<path d="M134.237 105.374C134.203 105.438 133.916 105.344 133.601 105.171C133.285 104.999 133.053 104.801 133.107 104.742C133.161 104.683 133.428 104.772 133.744 104.945C134.06 105.117 134.272 105.315 134.237 105.374Z" fill="#263238"/>
<path d="M134.73 103.084C134.73 103.158 134.454 103.203 134.123 103.188C133.793 103.173 133.526 103.099 133.526 103.03C133.526 102.961 133.803 102.917 134.133 102.931C134.464 102.946 134.73 103.025 134.73 103.084Z" fill="#263238"/>
<path d="M125.612 108.364C125.552 108.33 125.671 108.014 125.878 107.659C126.085 107.303 126.302 107.047 126.372 107.081C126.441 107.116 126.317 107.432 126.11 107.787C125.903 108.142 125.676 108.399 125.612 108.364Z" fill="#263238"/>
<path d="M123.529 106.119C123.505 106.05 123.771 105.887 124.092 105.7C124.413 105.512 124.689 105.354 124.738 105.409C124.788 105.463 124.57 105.714 124.245 105.902C123.919 106.089 123.554 106.183 123.529 106.119Z" fill="#263238"/>
<path d="M123.963 103.247C123.963 103.316 123.667 103.44 123.268 103.519C122.868 103.597 122.537 103.602 122.523 103.519C122.508 103.435 122.819 103.331 123.218 103.252C123.618 103.173 123.954 103.178 123.963 103.247Z" fill="#263238"/>
<path d="M117.065 122.955C116.922 122.911 116.785 122.847 116.661 122.763C116.409 122.625 116.059 122.408 115.629 122.126C114.776 121.569 113.656 120.73 112.407 119.777C111.159 118.825 110.068 117.962 109.239 117.369C108.41 116.777 107.892 116.422 107.912 116.383C108.054 116.426 108.189 116.491 108.311 116.575C108.563 116.713 108.918 116.93 109.343 117.212C110.201 117.769 111.317 118.608 112.565 119.56C113.813 120.513 114.909 121.376 115.733 121.968C116.194 122.274 116.639 122.603 117.065 122.955Z" fill="#263238"/>
<path d="M109.846 115.766C109.91 115.8 109.797 116.151 109.594 116.555C109.392 116.96 109.175 117.256 109.101 117.221C109.027 117.187 109.15 116.841 109.353 116.437C109.555 116.032 109.787 115.736 109.846 115.766Z" fill="#263238"/>
<path d="M112.091 117.34C112.15 117.374 112.022 117.735 111.805 118.144C111.588 118.554 111.356 118.855 111.312 118.82C111.267 118.786 111.376 118.43 111.593 118.021C111.81 117.611 112.027 117.31 112.091 117.34Z" fill="#263238"/>
<path d="M114.524 119.279C114.583 119.319 114.43 119.644 114.178 120.005C113.927 120.365 113.685 120.621 113.616 120.582C113.547 120.542 113.715 120.217 113.966 119.856C114.218 119.496 114.47 119.24 114.524 119.279Z" fill="#263238"/>
<path d="M116.685 120.222C116.749 120.256 116.542 120.715 116.231 121.263C115.92 121.81 115.609 122.21 115.55 122.176C115.624 121.799 115.781 121.443 116.009 121.134C116.32 120.597 116.626 120.187 116.685 120.222Z" fill="#263238"/>
<path d="M128.321 107.471C128.929 107.518 129.54 107.442 130.118 107.247C130.696 107.052 131.228 106.743 131.684 106.337C132.14 105.932 132.509 105.439 132.769 104.888C133.03 104.336 133.177 103.738 133.201 103.129C133.295 100.661 133.378 98.1645 133.378 98.1645C133.378 98.1645 137.114 97.8142 137.385 94.1133C137.657 90.4125 137.533 81.8709 137.533 81.8709C135.483 80.8385 133.194 80.3719 130.903 80.5193C128.612 80.6668 126.402 81.423 124.501 82.7098L123.929 83.0996L124.136 103C124.148 104.134 124.584 105.222 125.359 106.05C126.133 106.877 127.19 107.385 128.321 107.471Z" fill="#A56959"/>
<path d="M135.772 88.3845C135.695 88.3088 135.643 88.2121 135.622 88.1067C135.601 88.0013 135.611 87.8919 135.652 87.7925C135.693 87.6931 135.763 87.6081 135.852 87.5483C135.942 87.4885 136.047 87.4565 136.154 87.4565C136.262 87.4565 136.367 87.4885 136.456 87.5483C136.545 87.6081 136.615 87.6931 136.656 87.7925C136.697 87.8919 136.707 88.0013 136.686 88.1067C136.665 88.2121 136.613 88.3088 136.537 88.3845C136.435 88.4855 136.297 88.5421 136.154 88.5421C136.011 88.5421 135.873 88.4855 135.772 88.3845Z" fill="#263238"/>
<path d="M137.217 87.7579C137.153 87.8171 136.808 87.5161 136.3 87.4815C135.791 87.447 135.402 87.6888 135.347 87.6197C135.293 87.5506 135.387 87.4766 135.559 87.368C135.785 87.2216 136.052 87.1539 136.319 87.1756C136.589 87.1932 136.846 87.2989 137.05 87.4766C137.198 87.6098 137.247 87.7332 137.217 87.7579Z" fill="#263238"/>
<path d="M130.936 87.6839C130.994 87.7244 131.043 87.776 131.081 87.8356C131.12 87.8952 131.146 87.9617 131.158 88.0314C131.17 88.101 131.169 88.1724 131.154 88.2415C131.138 88.3106 131.11 88.376 131.069 88.434C131.029 88.492 130.977 88.5414 130.918 88.5795C130.858 88.6176 130.791 88.6436 130.722 88.6559C130.652 88.6683 130.581 88.6668 130.512 88.6516C130.443 88.6364 130.377 88.6077 130.319 88.5672C130.202 88.4854 130.122 88.3604 130.097 88.2198C130.072 88.0791 130.104 87.9343 130.186 87.8172C130.268 87.7 130.393 87.6202 130.533 87.5952C130.674 87.5702 130.819 87.6021 130.936 87.6839Z" fill="#263238"/>
<path d="M131.656 87.8765C131.536 87.7613 131.39 87.6762 131.231 87.6282C131.071 87.5802 130.903 87.5706 130.739 87.6002C130.245 87.5607 129.841 87.8074 129.791 87.7383C129.742 87.6692 129.831 87.5952 129.998 87.4817C130.227 87.3393 130.495 87.2736 130.763 87.2942C131.031 87.3129 131.286 87.4186 131.489 87.5952C131.656 87.7285 131.681 87.8518 131.656 87.8765Z" fill="#263238"/>
<path d="M133.462 91.8389C133.732 91.748 134.016 91.7046 134.301 91.7106C134.434 91.7106 134.543 91.681 134.553 91.6119C134.567 91.478 134.544 91.3428 134.484 91.2221C134.37 90.8767 134.262 90.5263 134.143 90.1612C133.65 88.6512 133.359 87.4077 133.438 87.3831C133.852 88.2474 134.183 89.1496 134.425 90.0773C134.533 90.4474 134.642 90.7977 134.745 91.1431C134.819 91.3196 134.833 91.5155 134.785 91.7007C134.762 91.7513 134.728 91.796 134.685 91.8311C134.643 91.8663 134.592 91.8909 134.538 91.903C134.463 91.9121 134.386 91.9121 134.311 91.903C134.027 91.9273 133.74 91.9057 133.462 91.8389Z" fill="#263238"/>
<path d="M133.383 98.1102C131.673 98.0391 130.022 97.4602 128.641 96.4473C128.641 96.4473 129.628 99.181 133.334 99.0724L133.383 98.1102Z" fill="#7C4435"/>
<path d="M127.304 80.5883C127.393 81.3517 127.731 82.0645 128.267 82.6159C128.802 83.1674 129.504 83.5266 130.265 83.6378C131.178 83.7463 132.16 83.4947 132.979 83.9092C133.536 84.2771 134.01 84.7579 134.37 85.3204C134.552 85.5976 134.793 85.8303 135.077 86.0011C135.36 86.172 135.679 86.2767 136.009 86.3073C136.325 86.2668 136.636 86.1924 136.936 86.0853C137.087 86.0356 137.248 86.0186 137.406 86.0357C137.564 86.0527 137.717 86.1032 137.854 86.184C138.32 85.0956 138.508 83.9088 138.402 82.7298C138.339 82.1431 138.115 81.5852 137.755 81.1182C137.394 80.6513 136.911 80.2936 136.359 80.085C135.619 79.8678 134.824 80.006 134.069 79.8777C133.452 79.7343 132.855 79.5138 132.293 79.2214C131.36 78.7172 130.301 78.4911 129.243 78.5701C128.202 78.728 127.196 79.5915 127.22 80.6426" fill="#263238"/>
<path d="M124.186 90.7186C125.528 91.7943 127.146 89.0014 127.862 87.2645C128.519 85.4704 128.871 83.5791 128.903 81.6688C129.003 81.0473 128.888 80.4103 128.577 79.8628C128.192 79.3693 128.025 79.9812 127.59 79.4927C126.766 78.5354 125.247 79.0535 124.497 79.3792C123.248 79.922 122.469 81.3135 122.222 82.7297C122.05 84.1618 122.103 85.612 122.38 87.0276C122.469 87.679 122.562 88.3254 122.656 88.9767C122.686 89.4389 122.817 89.8888 123.041 90.2942C123.147 90.4894 123.318 90.6406 123.525 90.721C123.732 90.8015 123.961 90.8058 124.171 90.7334" fill="#263238"/>
<path d="M124.136 87.6741C124.138 87.5295 124.083 87.3901 123.984 87.2851C123.884 87.1802 123.748 87.118 123.603 87.1116C122.913 87.1116 121.783 87.3682 121.679 89.2778C121.526 92.0016 124.146 91.3207 124.146 91.2516C124.146 91.1825 124.146 88.7301 124.136 87.6741Z" fill="#A56959"/>
<path d="M123.554 90.1708C123.554 90.1708 123.505 90.2004 123.421 90.2349C123.309 90.2812 123.183 90.2812 123.07 90.2349C122.898 90.1164 122.761 89.9532 122.674 89.7629C122.587 89.5726 122.554 89.3622 122.577 89.1543C122.583 88.9203 122.642 88.6908 122.75 88.4832C122.778 88.3988 122.828 88.323 122.893 88.2627C122.959 88.2024 123.038 88.1594 123.125 88.1378C123.18 88.1255 123.237 88.1332 123.287 88.1594C123.336 88.1856 123.375 88.2287 123.396 88.2809C123.431 88.3598 123.396 88.4141 123.426 88.419C123.455 88.424 123.485 88.3746 123.47 88.2611C123.457 88.1944 123.422 88.1338 123.371 88.0884C123.336 88.0582 123.296 88.0352 123.252 88.0208C123.208 88.0064 123.161 88.0008 123.115 88.0045C123.001 88.0192 122.893 88.0633 122.801 88.1325C122.709 88.2018 122.637 88.2937 122.592 88.3993C122.463 88.6286 122.394 88.8864 122.39 89.1493C122.362 89.391 122.407 89.6353 122.519 89.8514C122.63 90.0675 122.803 90.2456 123.016 90.3632C123.089 90.3879 123.165 90.3962 123.241 90.3877C123.317 90.3792 123.39 90.3539 123.455 90.3138C123.544 90.2546 123.564 90.1757 123.554 90.1708Z" fill="#7C4435"/>
<path d="M132.15 92.4901C132.05 92.6541 132.018 92.8504 132.061 93.0375C132.103 93.2246 132.217 93.388 132.377 93.4931C132.538 93.5982 132.733 93.6369 132.921 93.6011C133.11 93.5652 133.277 93.4575 133.387 93.3008C133.498 93.1441 133.543 92.9505 133.514 92.7609C133.485 92.5713 133.383 92.4005 133.23 92.2844C133.077 92.1684 132.886 92.1163 132.695 92.139C132.505 92.1617 132.33 92.2575 132.209 92.4062" fill="#7C4435"/>
<path d="M133.862 93.023C133.677 93.097 133.479 93.1318 133.28 93.125C133.082 93.1182 132.886 93.07 132.707 92.9835C132.081 92.7615 131.72 92.3223 131.789 92.2828C131.859 92.2433 132.229 92.5443 132.776 92.7417C133.324 92.9391 133.857 92.949 133.862 93.023Z" fill="#263238"/>
<path d="M125.32 78.7719C125.32 78.8508 124.728 79.0285 124.111 79.4775C123.758 79.7382 123.428 80.0288 123.125 80.3459L122.907 80.5384L123.046 80.3065C123.075 80.2522 123.1 80.2325 123.115 80.2374C123.13 80.2423 123.115 80.2719 123.115 80.3361L123.036 80.2966C123.236 79.8805 123.544 79.5259 123.929 79.2702C124.316 78.9395 124.811 78.7622 125.32 78.7719Z" fill="#33B55B"/>
<path d="M131.163 86.0555C131.079 86.2529 130.669 86.2825 130.255 86.3713C129.841 86.4602 129.441 86.5687 129.268 86.4158C129.199 86.3368 129.224 86.1838 129.367 86.0161C129.555 85.8055 129.809 85.6646 130.087 85.6164C130.364 85.557 130.652 85.5918 130.906 85.7151C131.094 85.8137 131.163 85.9568 131.163 86.0555Z" fill="#263238"/>
<path d="M71.5396 211.395C70.6662 212.644 68.9687 212.229 68.1792 211.465C67.3897 210.7 67.0591 209.599 66.7532 208.548C66.0623 206.14 65.3666 203.614 65.8798 201.147C66.0054 200.404 66.3312 199.709 66.8222 199.138C67.0717 198.858 67.3904 198.649 67.7464 198.531C68.1024 198.413 68.4831 198.391 68.8503 198.467C69.7089 198.689 70.2418 199.528 70.6267 200.327C71.759 202.684 72.3524 205.263 72.3636 207.877C72.446 209.1 72.1589 210.319 71.5396 211.376" fill="#33B55B"/>
<g opacity="0.2">
<path d="M71.5396 211.395C70.6662 212.644 68.9687 212.229 68.1792 211.465C67.3897 210.7 67.0591 209.599 66.7532 208.548C66.0623 206.14 65.3666 203.614 65.8798 201.147C66.0054 200.404 66.3312 199.709 66.8222 199.138C67.0717 198.858 67.3904 198.649 67.7464 198.531C68.1024 198.413 68.4831 198.391 68.8503 198.467C69.7089 198.689 70.2418 199.528 70.6267 200.327C71.759 202.684 72.3524 205.263 72.3636 207.877C72.446 209.1 72.1589 210.319 71.5396 211.376" fill="black"/>
</g>
<path d="M68.2631 217.717C66.7991 217.027 65.1523 216.827 63.5655 217.144C62.6978 217.219 61.8805 217.584 61.2463 218.181C60.6641 218.822 60.5555 219.947 61.2463 220.5C61.6809 220.793 62.2051 220.924 62.7267 220.87C63.9702 220.87 65.3469 220.638 66.3436 221.363C66.9062 221.788 67.2861 222.498 67.9621 222.71C68.3011 222.788 68.656 222.753 68.9735 222.611C69.2911 222.47 69.5543 222.229 69.7237 221.926C70.0449 221.303 70.1155 220.581 69.9211 219.908C69.8333 219.439 69.6378 218.997 69.35 218.617C69.0623 218.237 68.6903 217.929 68.2631 217.717Z" fill="#33B55B"/>
<path d="M73.923 213.187C73.4754 212.598 73.1773 211.91 73.0544 211.181C72.9315 210.452 72.9874 209.705 73.2174 209.002C73.6955 207.603 74.549 206.362 75.6847 205.415C76.9802 204.262 78.4889 203.373 80.1257 202.799C80.7516 202.546 81.4247 202.43 82.0994 202.459C82.4396 202.479 82.7697 202.581 83.0612 202.757C83.3528 202.934 83.5968 203.179 83.7722 203.471C84.241 204.359 83.7722 205.444 83.3084 206.323C82.456 207.877 81.4825 209.362 80.3971 210.764C79.5237 211.889 78.5269 212.999 77.1946 213.507C75.8623 214.016 74.4856 213.956 73.78 213.014" fill="#33B55B"/>
<path d="M71.5988 230.225C71.5528 230.04 71.5264 229.849 71.5198 229.658C71.4803 229.244 71.431 228.725 71.3668 228.109C71.2907 227.347 71.1754 226.589 71.0214 225.839C70.8173 224.925 70.5418 224.029 70.1974 223.159C69.8563 222.29 69.3945 221.472 68.8256 220.732C68.3635 220.131 67.7735 219.64 67.0985 219.296C66.6329 219.065 66.1329 218.912 65.6182 218.842C65.4281 218.835 65.2394 218.807 65.0557 218.758C65.246 218.74 65.4377 218.74 65.6281 218.758C66.1546 218.795 66.6698 218.929 67.1479 219.153C67.8603 219.489 68.4852 219.985 68.9736 220.603C69.5666 221.351 70.0456 222.182 70.3948 223.07C70.7441 223.954 71.0181 224.865 71.2139 225.794C71.3571 226.555 71.4576 227.322 71.5149 228.094C71.5642 228.75 71.584 229.283 71.5889 229.653C71.612 229.843 71.6153 230.035 71.5988 230.225Z" fill="#263238"/>
<path d="M71.4903 229.031C71.4839 228.944 71.4839 228.857 71.4903 228.77C71.4903 228.573 71.4903 228.321 71.4903 228.015C71.4903 227.364 71.4903 226.416 71.4558 225.252C71.3965 222.918 71.1942 219.695 70.8093 216.153C70.4245 212.61 69.8965 209.422 69.4277 207.137C69.3142 206.565 69.2007 206.047 69.0971 205.593C68.9935 205.139 68.9096 204.754 68.8257 204.438C68.7418 204.122 68.6974 203.895 68.648 203.703C68.6234 203.619 68.6085 203.533 68.6036 203.446C68.6458 203.524 68.6773 203.607 68.6974 203.693C68.7517 203.881 68.8257 204.122 68.9145 204.413C69.0033 204.705 69.1119 205.114 69.2254 205.563C69.3389 206.012 69.4672 206.55 69.5856 207.103C70.2323 210.083 70.7182 213.096 71.0413 216.128C71.4311 219.676 71.6038 222.908 71.6186 225.247C71.6186 226.416 71.6186 227.364 71.5791 228.02C71.5791 228.326 71.5446 228.573 71.5347 228.77C71.5317 228.859 71.5168 228.947 71.4903 229.031Z" fill="#263238"/>
<path d="M71.4559 222.799C71.4354 222.538 71.4354 222.276 71.4559 222.015C71.4855 221.521 71.5546 220.776 71.6977 219.883C71.8701 218.836 72.1007 217.8 72.3885 216.779C72.7352 215.527 73.1688 214.3 73.6862 213.108C74.5898 210.92 75.8821 208.914 77.5006 207.187C77.7827 206.892 78.0808 206.614 78.3937 206.353C78.5319 206.239 78.6552 206.121 78.7786 206.032L79.1289 205.79C79.3367 205.63 79.558 205.488 79.7902 205.366C79.0282 205.966 78.3032 206.612 77.619 207.3C76.0516 209.047 74.7949 211.05 73.9034 213.221C73.3876 214.403 72.9508 215.618 72.5957 216.858C72.2602 217.998 72.0332 219.049 71.8605 219.932C71.6878 220.816 71.6039 221.541 71.5496 222.039C71.5361 222.294 71.5048 222.548 71.4559 222.799Z" fill="#263238"/>
<path d="M104.221 77.7854L104.26 77.894L104.364 78.2048L104.768 79.4286L106.293 84.1114V84.1755H106.224L99.7155 82.9863H99.6711V82.9419L99.7599 82.9863C96.921 85.1124 93.4674 86.2573 89.9206 86.248C89.1176 86.2337 88.3165 86.1661 87.5224 86.0457C86.698 85.9233 85.8833 85.7419 85.0848 85.5029C84.6901 85.3549 84.2904 85.2068 83.8857 85.0637C83.6807 84.9909 83.4812 84.9035 83.2887 84.8022L82.7015 84.521C81.0921 83.7108 79.6241 82.646 78.3542 81.3678C77.0226 80.0202 75.9415 78.4462 75.1616 76.7196C74.0003 74.1894 73.5071 71.4038 73.7291 68.6287C73.9511 65.8536 74.8808 63.1818 76.4295 60.8684C77.9782 58.555 80.0941 56.6773 82.5752 55.4146C85.0564 54.1519 87.8198 53.5464 90.6015 53.6559C94.6347 53.8005 98.4695 55.4417 101.359 58.2596C104.248 61.0775 105.984 64.8702 106.229 68.8985C106.416 71.6313 105.894 74.366 104.714 76.838C104.556 77.1637 104.428 77.4104 104.339 77.5683L104.196 77.815L104.319 77.5683C104.408 77.3956 104.532 77.1538 104.684 76.8232C105.123 75.8716 105.47 74.8802 105.721 73.8625C106.124 72.2508 106.264 70.5845 106.135 68.9281C105.977 66.4918 105.27 64.123 104.066 61.9993C102.862 59.8755 101.192 58.0522 99.1826 56.6659C96.5119 54.8359 93.3552 53.8459 90.1178 53.8231C86.8805 53.8002 83.7101 54.7455 81.0139 56.5376C77.8233 58.6672 75.4964 61.8645 74.4509 65.5553C73.4055 69.246 73.7099 73.1886 75.3097 76.6752C76.0821 78.3857 77.1513 79.9461 78.4677 81.284C79.7412 82.5258 81.2056 83.5554 82.8051 84.3334L83.3874 84.6147C83.5756 84.7164 83.772 84.8022 83.9746 84.8713L85.1638 85.3105C85.9539 85.5493 86.7604 85.7308 87.5767 85.8533C88.3641 85.9737 89.1587 86.0413 89.9551 86.0556C90.7208 86.0632 91.486 86.0154 92.2447 85.9125C94.9551 85.5407 97.527 84.4881 99.7204 82.8531L99.8043 82.789V82.8975L99.7599 82.8432L106.264 84.062L106.219 84.1163C105.578 82.0833 105.074 80.4994 104.739 79.4237L104.354 78.195C104.314 78.0568 104.28 77.9532 104.26 77.8792L104.231 77.7657L104.221 77.7854Z" fill="#263238"/>
<path d="M88.5291 75.7327L82.8792 69.6534L84.7098 67.956L88.613 72.1503L96.8042 64.0923L98.5559 65.8687L88.5291 75.7327Z" fill="#455A64"/>
</svg>
