<svg width="30" height="40" viewBox="0 0 30 40" fill="none" xmlns="http://www.w3.org/2000/svg">
<path fill-rule="evenodd" clip-rule="evenodd" d="M5.24986 0H18.6232L29.9575 11.8141V34.7926C29.9575 37.6712 27.6287 40 24.7601 40H5.24986C2.37131 40 0.0424805 37.6712 0.0424805 34.7926V5.20738C0.0424299 2.32883 2.37126 0 5.24986 0Z" fill="#E5252A"/>
<path opacity="0.302" fill-rule="evenodd" clip-rule="evenodd" d="M18.6128 0V11.7241H29.9571L18.6128 0Z" fill="white"/>
<path d="M5.8291 29.845V22.5387H8.93756C9.70718 22.5387 10.3169 22.7486 10.7767 23.1784C11.2364 23.5982 11.4663 24.1679 11.4663 24.8775C11.4663 25.5872 11.2364 26.1569 10.7767 26.5767C10.3169 27.0065 9.70718 27.2164 8.93756 27.2164H7.69817V29.845H5.8291ZM7.69817 25.6272H8.72767C9.00751 25.6272 9.2274 25.5672 9.37736 25.4273C9.52726 25.2974 9.60726 25.1174 9.60726 24.8776C9.60726 24.6377 9.52731 24.4578 9.37736 24.3279C9.22745 24.1879 9.00756 24.128 8.72767 24.128H7.69817V25.6272ZM12.2359 29.845V22.5387H14.8246C15.3343 22.5387 15.8141 22.6086 16.2639 22.7586C16.7136 22.9085 17.1235 23.1184 17.4832 23.4083C17.8431 23.6881 18.1329 24.0679 18.3428 24.5477C18.5427 25.0275 18.6527 25.5772 18.6527 26.1969C18.6527 26.8066 18.5428 27.3563 18.3428 27.836C18.1329 28.3158 17.8431 28.6956 17.4832 28.9755C17.1234 29.2653 16.7136 29.4752 16.2639 29.6251C15.8141 29.775 15.3343 29.845 14.8246 29.845H12.2359ZM14.065 28.2559H14.6047C14.8945 28.2559 15.1644 28.2259 15.4143 28.1559C15.6542 28.086 15.8841 27.976 16.104 27.8261C16.3139 27.6762 16.4838 27.4662 16.6037 27.1864C16.7236 26.9066 16.7836 26.5767 16.7836 26.1969C16.7836 25.8071 16.7236 25.4772 16.6037 25.1974C16.4838 24.9176 16.3139 24.7077 16.104 24.5577C15.8841 24.4078 15.6542 24.2978 15.4143 24.2279C15.1644 24.1579 14.8945 24.1279 14.6047 24.1279H14.065V28.2559ZM19.5922 29.845V22.5387H24.7896V24.1279H21.4613V25.2973H24.1199V26.8765H21.4613V29.845H19.5922Z" fill="white"/>
</svg>
