<svg width="18" height="24" viewBox="0 0 18 24" fill="none" xmlns="http://www.w3.org/2000/svg">
<path d="M7 9.99999C6.20435 9.99999 5.44129 10.3161 4.87868 10.8787C4.31607 11.4413 4 12.2043 4 13C4 13.7956 4.31607 14.5587 4.87868 15.1213C5.44129 15.6839 6.20435 16 7 16H11C11.7956 16 12.5587 15.6839 13.1213 15.1213C13.6839 14.5587 14 13.7956 14 13C14 12.2043 13.6839 11.4413 13.1213 10.8787C12.5587 10.3161 11.7956 9.99999 11 9.99999H7ZM12 13C12 13.2652 11.8946 13.5196 11.7071 13.7071C11.5196 13.8946 11.2652 14 11 14H7C6.73478 14 6.48043 13.8946 6.29289 13.7071C6.10536 13.5196 6 13.2652 6 13C6 12.7348 6.10536 12.4804 6.29289 12.2929C6.48043 12.1053 6.73478 12 7 12H11C11.2652 12 11.5196 12.1053 11.7071 12.2929C11.8946 12.4804 12 12.7348 12 13ZM14 19C14 19.2652 13.8946 19.5196 13.7071 19.7071C13.5196 19.8946 13.2652 20 13 20H5C4.73478 20 4.48043 19.8946 4.29289 19.7071C4.10536 19.5196 4 19.2652 4 19C4 18.7348 4.10536 18.4804 4.29289 18.2929C4.48043 18.1053 4.73478 18 5 18H13C13.2652 18 13.5196 18.1053 13.7071 18.2929C13.8946 18.4804 14 18.7348 14 19ZM16.536 3.12099L14.878 1.46498C14.4149 0.999236 13.864 0.629947 13.2572 0.378483C12.6504 0.127019 11.9998 -0.00162849 11.343 -1.55364e-05H5C3.67441 0.00157232 2.40356 0.528867 1.46622 1.4662C0.528882 2.40354 0.00158786 3.67439 0 4.99998V19C0.00158786 20.3256 0.528882 21.5964 1.46622 22.5338C2.40356 23.4711 3.67441 23.9984 5 24H13C14.3256 23.9984 15.5964 23.4711 16.5338 22.5338C17.4711 21.5964 17.9984 20.3256 18 19V6.65699C18.0019 6.00007 17.8735 5.34931 17.6222 4.74235C17.3709 4.1354 17.0017 3.58432 16.536 3.12099ZM15.122 4.53498C15.2627 4.67741 15.3893 4.83314 15.5 4.99998H13V2.49998C13.1671 2.60951 13.3226 2.73584 13.464 2.87698L15.122 4.53498ZM16 19C16 19.7956 15.6839 20.5587 15.1213 21.1213C14.5587 21.6839 13.7956 22 13 22H5C4.20435 22 3.44129 21.6839 2.87868 21.1213C2.31607 20.5587 2 19.7956 2 19V4.99998C2 4.20434 2.31607 3.44127 2.87868 2.87866C3.44129 2.31606 4.20435 1.99998 5 1.99998H11V4.99998C11 5.53042 11.2107 6.03913 11.5858 6.4142C11.9609 6.78927 12.4696 6.99999 13 6.99999H16V19Z" fill="#1C1C1C"/>
</svg>
