<svg width="376" height="376" viewBox="0 0 376 376" fill="none" xmlns="http://www.w3.org/2000/svg">
<path d="M303.649 160.441C303.649 160.441 309.888 204.671 278.256 239.852C246.624 275.034 196.071 285.321 155.343 294.694C114.615 304.067 78.8975 285.797 67.9845 251.319C57.0715 216.841 86.7665 201.434 96.8613 158.558C106.956 115.682 103.124 102.724 135.009 72.2406C166.894 41.7576 226.061 47.8939 263.077 85.4758C300.094 123.058 303.649 160.441 303.649 160.441Z" fill="#33B55B"/>
<path opacity="0.6" d="M303.649 160.441C303.649 160.441 309.888 204.671 278.256 239.852C246.624 275.034 196.071 285.321 155.343 294.694C114.615 304.067 78.8975 285.797 67.9845 251.319C57.0715 216.841 86.7665 201.434 96.8613 158.558C106.956 115.682 103.124 102.724 135.009 72.2406C166.894 41.7576 226.061 47.8939 263.077 85.4758C300.094 123.058 303.649 160.441 303.649 160.441Z" fill="white"/>
<path d="M63.9658 246.771H306.441" stroke="#263238" stroke-width="0.8" stroke-miterlimit="10"/>
<path d="M63.9658 200.869H306.441" stroke="#263238" stroke-width="0.8" stroke-miterlimit="10"/>
<path d="M63.9658 154.961H306.441" stroke="#263238" stroke-width="0.8" stroke-miterlimit="10"/>
<path d="M63.9658 109.053H306.441" stroke="#263238" stroke-width="0.8" stroke-miterlimit="10"/>
<path d="M119.097 82.9852V246.885" stroke="#263238" stroke-width="0.8" stroke-miterlimit="10"/>
<path d="M264.84 82.9852V246.885" stroke="#263238" stroke-width="0.8" stroke-miterlimit="10"/>
<path d="M124.505 143.741L122.706 145.642" stroke="#263238" stroke-width="0.8" stroke-miterlimit="10"/>
<path d="M155.241 111.327L126.683 141.449" stroke="#263238" stroke-width="0.8" stroke-miterlimit="10"/>
<path d="M157.021 116.23L140.977 132.719" stroke="#263238" stroke-width="0.8" stroke-miterlimit="10"/>
<path d="M271.073 143.741L269.274 145.642" stroke="#263238" stroke-width="0.8" stroke-miterlimit="10"/>
<path d="M301.808 111.327L273.25 141.449" stroke="#263238" stroke-width="0.8" stroke-miterlimit="10"/>
<path d="M303.589 116.23L287.544 132.719" stroke="#263238" stroke-width="0.8" stroke-miterlimit="10"/>
<path d="M60.3261 236.447L58.5273 238.348" stroke="#263238" stroke-width="0.8" stroke-miterlimit="10"/>
<path d="M91.0619 204.027L62.5039 234.155" stroke="#263238" stroke-width="0.8" stroke-miterlimit="10"/>
<path d="M92.8425 208.93L76.7979 225.42" stroke="#263238" stroke-width="0.8" stroke-miterlimit="10"/>
<path d="M83.9513 104.523L82.1465 106.424" stroke="#263238" stroke-width="0.8" stroke-miterlimit="10"/>
<path d="M114.681 72.1023L86.123 102.224" stroke="#263238" stroke-width="0.8" stroke-miterlimit="10"/>
<path d="M116.468 77.0054L100.423 93.4952" stroke="#263238" stroke-width="0.8" stroke-miterlimit="10"/>
<path d="M217.506 104.523L215.702 106.424" stroke="#263238" stroke-width="0.8" stroke-miterlimit="10"/>
<path d="M248.236 72.1023L219.678 102.224" stroke="#263238" stroke-width="0.8" stroke-miterlimit="10"/>
<path d="M250.023 77.0054L233.978 93.4952" stroke="#263238" stroke-width="0.8" stroke-miterlimit="10"/>
<path d="M176.206 191.43L174.408 193.331" stroke="#263238" stroke-width="0.8" stroke-miterlimit="10"/>
<path d="M206.942 159.016L178.384 189.138" stroke="#263238" stroke-width="0.8" stroke-miterlimit="10"/>
<path d="M208.723 163.918L192.678 180.408" stroke="#263238" stroke-width="0.8" stroke-miterlimit="10"/>
<path d="M159.602 129.603H193.256C196.208 129.603 199.038 130.776 201.126 132.863C203.213 134.95 204.385 137.781 204.385 140.733V237.897H148.473V140.727C148.474 137.776 149.648 134.947 151.735 132.861C153.822 130.775 156.652 129.603 159.602 129.603Z" fill="#263238" stroke="#263238" stroke-width="0.8" stroke-linecap="round" stroke-linejoin="round"/>
<path d="M210.979 294.754L181.446 286.067V276.399H179.78V240.707H174.534V276.399H172.868V285.808L143.335 294.754V296.168H143.732C143.504 296.585 143.386 297.053 143.389 297.528C143.387 298.027 143.515 298.518 143.761 298.953C144.007 299.387 144.361 299.751 144.79 300.007C145.218 300.263 145.706 300.403 146.205 300.413C146.704 300.424 147.198 300.304 147.636 300.066C148.075 299.827 148.444 299.479 148.708 299.055C148.971 298.631 149.12 298.145 149.138 297.647C149.157 297.148 149.046 296.652 148.815 296.21C148.584 295.767 148.243 295.392 147.823 295.121L147.883 295.061L174.955 291.806V295.705C174.609 296.126 174.389 296.636 174.321 297.177C174.254 297.718 174.342 298.267 174.574 298.76C174.807 299.253 175.175 299.67 175.635 299.962C176.096 300.253 176.63 300.408 177.175 300.408C177.72 300.408 178.254 300.253 178.714 299.962C179.175 299.67 179.543 299.253 179.776 298.76C180.008 298.267 180.096 297.718 180.029 297.177C179.961 296.636 179.741 296.126 179.395 295.705V291.806L206.407 295.055C205.921 295.341 205.53 295.764 205.283 296.271C205.035 296.777 204.942 297.345 205.015 297.904C205.088 298.464 205.324 298.989 205.693 299.415C206.062 299.841 206.548 300.149 207.091 300.302C207.634 300.454 208.21 300.443 208.746 300.27C209.283 300.098 209.757 299.771 210.11 299.332C210.463 298.892 210.678 298.358 210.73 297.797C210.782 297.235 210.668 296.671 210.401 296.174H211.003L210.979 294.754Z" fill="#263238" stroke="#263238" stroke-width="0.8" stroke-linecap="round" stroke-linejoin="round"/>
<path d="M202.653 237.837H151.24C148.821 237.837 146.86 239.798 146.86 242.217V246.626C146.86 249.045 148.821 251.006 151.24 251.006H202.653C205.072 251.006 207.032 249.045 207.032 246.626V242.217C207.032 239.798 205.072 237.837 202.653 237.837Z" fill="white" stroke="#263238" stroke-width="0.8" stroke-linecap="round" stroke-linejoin="round"/>
<path d="M198.345 216.48H156.552V239.72H198.345V216.48Z" fill="white" stroke="#263238" stroke-width="0.8" stroke-linecap="round" stroke-linejoin="round"/>
<path d="M173.619 149.594L167.218 152.103C167.218 152.103 169.534 166.487 172.633 173.911C175.731 181.335 187.017 193.12 187.017 193.12C187.017 193.12 192.864 184.583 194.904 177.809C196.943 171.035 194.814 152.007 194.814 152.007C193.354 151.157 191.748 150.59 190.079 150.334C187.173 149.871 173.619 149.594 173.619 149.594Z" fill="white" stroke="#263238" stroke-width="0.8" stroke-linecap="round" stroke-linejoin="round"/>
<path d="M179.84 159.713L182.8 165.398L177.891 176.233L185.778 188.109L190.602 177.25L184.755 165.188L187.817 159.894L183.455 155.532L179.84 159.713Z" fill="#263238" stroke="#263238" stroke-width="0.8" stroke-linecap="round" stroke-linejoin="round"/>
<path d="M174.552 148.945L172.506 149.504L170.557 152.933L175.37 166.577L183.263 158.414L191.89 167.227C191.89 167.227 192.913 153.493 192.913 151.916C192.913 150.34 191.523 149.781 190.506 149.51C189.489 149.239 174.552 148.945 174.552 148.945Z" fill="white" stroke="#263238" stroke-width="0.8" stroke-linecap="round" stroke-linejoin="round"/>
<path d="M172.506 149.504C172.506 149.504 173.391 161.843 178.522 172.702C181.175 178.297 186.132 186.16 186.132 185.883C186.132 185.606 191.048 171.035 191.234 166.114C191.42 161.193 192.347 150.707 192.347 150.707C192.347 150.707 201.864 154.497 204.138 155.815C207.664 157.854 212.116 158.317 212.025 160.73C211.989 161.608 212.591 167.347 213.355 174.344C213.475 175.457 219.449 185.004 219.575 186.16C220.857 197.813 216.507 202.722 216.291 202.776C215.924 202.866 208.217 202.776 208.217 202.776C208.217 202.776 212.398 221.798 213.03 222.821L213.68 223.838H180.526L179.142 219.663L177.909 223.838H143.828L148.376 203.143H143.365C143.365 203.143 142.065 200.544 143.828 190.798C145.591 181.052 151.534 156.645 151.534 155.815C151.534 154.985 170.557 151.543 172.506 149.504Z" fill="#33B55B" stroke="#263238" stroke-width="0.8" stroke-linecap="round" stroke-linejoin="round"/>
<path d="M179.593 197.722L179.142 219.663" stroke="#263238" stroke-width="0.8" stroke-linecap="round" stroke-linejoin="round"/>
<path d="M192.365 189.408C197.846 184.307 200.258 174.097 200.258 174.097L195.337 171.962L200.072 169.64L195.981 152.193C193.665 150.196 192.305 150.25 192.371 150.689C192.371 150.689 191.445 161.175 191.258 166.096C191.072 171.017 186.145 185.606 186.145 185.883C186.145 186.159 180.688 178.507 178.535 172.702C173.517 159.19 172.555 151.044 172.41 149.486C172.409 149.46 172.4 149.435 172.386 149.414C172.371 149.392 172.351 149.375 172.328 149.364C172.305 149.353 172.279 149.349 172.253 149.351C172.227 149.353 172.203 149.363 172.182 149.378C171.49 149.787 169.775 150.124 168.572 151.182C168.235 153.589 167.802 157.078 167.501 160.916C166.948 168.063 166.948 171.216 166.948 171.216L173.349 172.798L168.801 175.397C168.801 175.397 173.812 180.498 177.987 184.307C182.162 188.115 184.942 189.498 184.942 189.498L179.593 197.722C179.593 197.722 186.891 194.516 192.365 189.408Z" fill="#33B55B" stroke="#263238" stroke-width="0.8" stroke-linecap="round" stroke-linejoin="round"/>
<path d="M173.619 142.82V150.804C173.619 150.804 175.665 157.481 182.902 157.945C190.512 158.438 191.812 151.08 191.812 151.08V144.024C191.812 144.024 177.722 147.459 173.619 142.82Z" fill="white" stroke="#263238" stroke-width="0.8" stroke-linecap="round" stroke-linejoin="round"/>
<path d="M193.575 132.052C193.575 132.052 193.851 128.442 196.077 128.442C198.303 128.442 198.309 132.617 197.75 134.29C197.19 135.962 194.315 137.165 193.388 135.866" fill="white"/>
<path d="M193.575 132.052C193.575 132.052 193.851 128.442 196.077 128.442C198.303 128.442 198.309 132.617 197.75 134.29C197.19 135.962 194.315 137.165 193.388 135.866" stroke="#263238" stroke-width="0.8" stroke-linecap="round" stroke-linejoin="round"/>
<path d="M184.34 113.986C184.34 113.986 176.14 113.685 173.307 115.79C170.473 117.896 171.069 123.545 171.069 125.332C171.069 127.118 172.41 142.477 173.307 144.715C174.203 146.953 180.73 150.358 186.422 149.047C192.113 147.735 193.875 143.681 194.17 141.593C194.465 139.505 194.471 123.545 194.17 119.382C193.869 115.219 188.359 114.431 184.34 113.986Z" fill="white" stroke="#263238" stroke-width="0.8" stroke-linecap="round" stroke-linejoin="round"/>
<path d="M194.254 121.012C194.254 120.35 194.206 119.809 194.17 119.352C193.875 115.177 188.358 114.431 184.334 113.986C184.334 113.986 176.134 113.685 173.3 115.79C170.467 117.896 171.062 123.545 171.062 125.332C171.062 126.048 171.279 128.941 171.598 132.286C171.741 132.367 171.902 132.413 172.066 132.421C172.231 132.43 172.395 132.399 172.546 132.332C172.697 132.266 172.83 132.165 172.935 132.038C173.039 131.911 173.113 131.761 173.15 131.6C173.752 129.958 172.855 128.472 173.601 126.385C174.347 124.297 174.642 122.955 176.435 121.909C177.558 121.265 178.759 120.765 180.008 120.423C180.008 120.423 176.284 124.742 184.484 124.592C189.808 124.471 192.81 123.364 194.254 121.012Z" fill="#263238" stroke="#263238" stroke-width="0.8" stroke-linecap="round" stroke-linejoin="round"/>
<path d="M185.964 128.623C185.964 128.623 187.354 135.21 186.054 135.842C184.755 136.473 183.925 136.678 182.806 134.452" stroke="#263238" stroke-width="0.8" stroke-linecap="round" stroke-linejoin="round"/>
<path d="M178.727 135.763C178.727 135.763 178.444 138.832 184.665 138.362" stroke="#263238" stroke-width="0.8" stroke-linecap="round" stroke-linejoin="round"/>
<path d="M180.676 128.761C180.676 129.399 180.406 129.922 180.075 129.922C179.744 129.922 179.473 129.399 179.473 128.761C179.473 128.123 179.744 127.6 180.075 127.6C180.406 127.6 180.676 128.117 180.676 128.761Z" fill="#263238"/>
<path d="M190.001 128.761C190.001 129.399 189.73 129.922 189.399 129.922C189.069 129.922 188.798 129.399 188.798 128.761C188.798 128.123 189.069 127.6 189.399 127.6C189.73 127.6 190.001 128.117 190.001 128.761Z" fill="#263238"/>
<path d="M182.096 131.498H177.055C176.794 131.497 176.541 131.405 176.34 131.239C176.139 131.072 176.003 130.84 175.954 130.584L175.292 127.04H183.642L183.209 130.518C183.174 130.788 183.042 131.037 182.837 131.217C182.632 131.398 182.369 131.497 182.096 131.498Z" stroke="#263238" stroke-width="1.6" stroke-linecap="round" stroke-linejoin="round"/>
<path d="M192.865 131.498H187.823C187.562 131.498 187.309 131.407 187.108 131.24C186.907 131.073 186.77 130.841 186.722 130.584L186.055 127.04H194.411L193.966 130.518C193.931 130.786 193.801 131.033 193.598 131.213C193.396 131.393 193.136 131.495 192.865 131.498Z" stroke="#263238" stroke-width="1.6" stroke-linecap="round" stroke-linejoin="round"/>
<path d="M183.642 127.04H186.055" stroke="#263238" stroke-width="1.6" stroke-linecap="round" stroke-linejoin="round"/>
<path d="M175.292 127.04L171.303 128.803" stroke="#263238" stroke-width="1.6" stroke-linecap="round" stroke-linejoin="round"/>
<path d="M172.23 132.052C172.23 132.052 171.953 128.442 169.721 128.442C167.489 128.442 167.495 132.617 168.055 134.29C168.614 135.962 171.484 137.165 172.416 135.866" fill="white"/>
<path d="M172.23 132.052C172.23 132.052 171.953 128.442 169.721 128.442C167.489 128.442 167.495 132.617 168.055 134.29C168.614 135.962 171.484 137.165 172.416 135.866" stroke="#263238" stroke-width="0.8" stroke-linecap="round" stroke-linejoin="round"/>
<path d="M196.264 178.363C195.009 177.179 193.479 176.325 191.812 175.878C191.273 175.692 190.695 175.647 190.133 175.746C189.388 175.746 185.688 174.41 184.761 174.134C183.835 173.857 183.275 174.783 183.558 175.806C183.841 176.829 185.82 177.695 186.566 177.882C187.312 178.068 186.993 178.086 186.993 178.086C186.993 178.086 188.196 181.058 187.643 182.171C187.089 183.284 185.134 185.781 185.784 187.555C186.434 189.33 187.456 190.244 189.496 190.244C191.535 190.244 192.744 190.335 193.208 190.244C193.671 190.154 201.931 194.233 201.028 194.329C200.126 194.426 200.655 186.069 200.655 186.069L196.264 178.363Z" fill="white" stroke="#263238" stroke-width="0.8" stroke-linecap="round" stroke-linejoin="round"/>
<path d="M177.518 183.284C177.518 183.284 181.879 181.148 184.015 179.013C186.151 176.877 186.891 176.323 187.624 176.137C188.358 175.95 191.336 175.114 192.076 174.464C192.816 173.815 193.376 175.024 192.263 175.95C191.449 176.612 190.579 177.202 189.664 177.713C189.201 177.996 188.737 179.295 188.737 179.295C188.737 179.295 193.286 177.346 194.862 177.809C196.438 178.273 198.002 179.68 197.906 180.511C197.81 181.341 197.521 180.944 196.498 180.847C195.475 180.751 194.025 180.312 192.888 180.775C191.751 181.238 190.482 182.357 190.482 182.821C190.482 183.284 191.782 183.561 192.804 183.47C193.827 183.38 194.567 183.097 195.584 183.284C196.6 183.47 197.443 184.024 197.533 184.583C197.623 185.143 197.166 185.137 196.047 185.233C194.928 185.329 192.985 185.42 192.335 185.883C191.685 186.346 188.346 187.922 188.906 188.482C189.465 189.041 189.796 189.041 190.909 189.041C192.022 189.041 193.213 188.187 193.863 188.235C194.735 188.301 195.205 188.367 195.205 188.367C195.205 188.367 196.751 188.434 196.612 189.041C196.396 190.016 195.878 190.046 193.634 190.148C191.878 190.232 191.409 190.058 189.832 190.431C188.481 190.866 187.076 191.115 185.657 191.171C182.962 191.357 178.137 190.058 178.137 190.058L177.518 183.284Z" fill="white" stroke="#263238" stroke-width="0.8" stroke-linecap="round" stroke-linejoin="round"/>
<path d="M195.03 177.226C195.03 177.226 193.153 175.475 192.077 175.421C191 175.367 187.715 178.242 187.264 179.319C186.813 180.396 187.865 179.987 188.738 179.722C189.61 179.458 191.962 178.375 192.768 178.044C193.427 177.719 194.18 177.64 194.892 177.821" fill="white"/>
<path d="M195.03 177.226C195.03 177.226 193.153 175.475 192.077 175.421C191 175.367 187.715 178.242 187.264 179.319C186.813 180.396 187.865 179.987 188.738 179.722C189.61 179.458 191.962 178.375 192.768 178.044C193.427 177.719 194.18 177.64 194.892 177.821" stroke="#263238" stroke-width="0.8" stroke-linecap="round" stroke-linejoin="round"/>
<path d="M197.449 181.052C197.449 181.052 194.766 179.71 193.087 180.45C191.409 181.19 189.327 182.67 189.327 183.338C189.327 184.006 189.664 183.879 191.132 183.807C192.6 183.735 195.253 183.308 195.608 183.29C196.139 183.351 196.665 183.458 197.178 183.609" fill="white"/>
<path d="M197.449 181.052C197.449 181.052 194.766 179.71 193.087 180.45C191.409 181.19 189.327 182.67 189.327 183.338C189.327 184.006 189.664 183.879 191.132 183.807C192.6 183.735 195.253 183.308 195.608 183.29C196.139 183.351 196.665 183.458 197.178 183.609" stroke="#263238" stroke-width="0.8" stroke-linecap="round" stroke-linejoin="round"/>
<path d="M159.795 172.985L157.473 185.42C157.473 185.42 177.614 181.425 178.354 181.984C179.094 182.544 179.768 197.301 179.768 197.301C179.768 197.301 153.761 201.843 150.699 202.866C147.636 203.889 144.478 204.069 143.365 203.143C142.252 202.216 142.162 199.894 142.992 195.322C143.822 190.75 151.811 157.553 151.811 157.553" fill="#33B55B"/>
<path d="M159.795 172.985L157.473 185.42C157.473 185.42 177.614 181.425 178.354 181.984C179.094 182.544 179.768 197.301 179.768 197.301C179.768 197.301 153.761 201.843 150.699 202.866C147.636 203.889 144.478 204.069 143.365 203.143C142.252 202.216 142.162 199.894 142.992 195.322C143.822 190.75 151.811 157.553 151.811 157.553" stroke="#263238" stroke-width="0.8" stroke-linecap="round" stroke-linejoin="round"/>
<path d="M206.473 172.148L207.309 186.346L200.625 186.069L199.981 197.837C199.981 197.837 218.402 202.126 219.425 202.649C220.448 203.173 220.261 202.096 221.465 200.327C222.668 198.558 223.697 194.762 223.6 193.108C223.504 191.454 219.702 185.889 219.612 186.147" fill="#33B55B"/>
<path d="M206.473 172.148L207.309 186.346L200.625 186.069L199.981 197.837C199.981 197.837 218.402 202.126 219.425 202.649C220.448 203.173 220.261 202.096 221.465 200.327C222.668 198.558 223.697 194.762 223.6 193.108C223.504 191.454 219.702 185.889 219.612 186.147" stroke="#263238" stroke-width="0.8" stroke-linecap="round" stroke-linejoin="round"/>
<path d="M207.309 186.346H213.53" stroke="#263238" stroke-width="0.8" stroke-linecap="round" stroke-linejoin="round"/>
<path d="M157.472 185.42L149.212 188.295" stroke="#263238" stroke-width="0.8" stroke-linecap="round" stroke-linejoin="round"/>
<path d="M159.446 286.037C159.446 286.037 158.098 291.831 156.215 293.858C154.332 295.885 152.606 297.227 152.714 298.839L152.846 300.458H172.23V295.597C172.23 292.769 171.027 287.776 171.027 285.772C171.027 283.769 158.91 285.905 158.91 285.905" fill="#263238"/>
<path d="M159.446 286.037C159.446 286.037 158.098 291.831 156.215 293.858C154.332 295.885 152.606 297.227 152.714 298.839L152.846 300.458H172.23V295.597C172.23 292.769 171.027 287.776 171.027 285.772C171.027 283.769 158.91 285.905 158.91 285.905" stroke="#263238" stroke-width="0.8" stroke-linecap="round" stroke-linejoin="round"/>
<path d="M153.177 297.215C152.848 297.686 152.685 298.253 152.714 298.827L152.846 300.445H172.23V297.215H153.177Z" fill="#586166" stroke="#263238" stroke-width="0.8" stroke-linecap="round" stroke-linejoin="round"/>
<path d="M176.272 234.618C176.272 234.618 178.156 222.641 174.925 217.124C171.694 211.607 160.384 211.469 154.061 215.235C147.739 219.001 145.278 225.179 147.564 233.12C149.85 241.062 155.138 241.218 155.138 241.218C155.138 241.218 153.791 252.119 153.791 256.426C153.791 260.734 158.369 287.523 158.369 287.523H171.706C171.706 287.523 176.002 240.273 176.272 234.618Z" fill="#586166" stroke="#263238" stroke-width="0.8" stroke-linecap="round" stroke-linejoin="round"/>
<path d="M155.138 241.218L156.48 230.179" stroke="#263238" stroke-width="0.8" stroke-linecap="round" stroke-linejoin="round"/>
<path d="M198.628 286.037C198.628 286.037 199.975 291.831 201.858 293.858C203.741 295.885 205.468 297.227 205.36 298.839L205.227 300.458H185.844V295.597C185.844 292.769 187.047 287.776 187.047 285.772C187.047 283.769 199.163 285.905 199.163 285.905" fill="#263238"/>
<path d="M198.628 286.037C198.628 286.037 199.975 291.831 201.858 293.858C203.741 295.885 205.468 297.227 205.36 298.839L205.227 300.458H185.844V295.597C185.844 292.769 187.047 287.776 187.047 285.772C187.047 283.769 199.163 285.905 199.163 285.905" stroke="#263238" stroke-width="0.8" stroke-linecap="round" stroke-linejoin="round"/>
<path d="M204.89 297.215C205.221 297.685 205.386 298.253 205.36 298.827L205.227 300.445H185.844V297.215H204.89Z" fill="#586166" stroke="#263238" stroke-width="0.8" stroke-linecap="round" stroke-linejoin="round"/>
<path d="M181.801 234.618C181.801 234.618 179.918 222.641 183.149 217.124C186.379 211.607 197.689 211.469 204.012 215.235C210.335 219.001 212.849 225.179 210.557 233.12C208.265 241.062 202.935 241.218 202.935 241.218C202.935 241.218 204.283 252.119 204.283 256.426C204.283 260.734 199.705 287.523 199.705 287.523H186.379C186.379 287.523 182.072 240.273 181.801 234.618Z" fill="#586166" stroke="#263238" stroke-width="0.8" stroke-linecap="round" stroke-linejoin="round"/>
<path d="M202.935 241.218L201.588 230.179" stroke="#263238" stroke-width="0.8" stroke-linecap="round" stroke-linejoin="round"/>
<path d="M209.379 91.9972H236.005C236.759 91.9972 237.481 92.2964 238.013 92.8289C238.546 93.3614 238.845 94.0836 238.845 94.8367V107.194C238.845 107.947 238.546 108.669 238.013 109.201C237.481 109.734 236.759 110.033 236.005 110.033H228.01L230.098 115.688L223.522 110.033H209.379C209.006 110.033 208.636 109.96 208.292 109.817C207.947 109.674 207.634 109.465 207.371 109.201C207.107 108.938 206.898 108.625 206.755 108.28C206.613 107.936 206.539 107.567 206.539 107.194V94.8367C206.539 94.4638 206.613 94.0946 206.755 93.7501C206.898 93.4056 207.107 93.0926 207.371 92.8289C207.634 92.5652 207.947 92.356 208.292 92.2133C208.636 92.0706 209.006 91.9972 209.379 91.9972Z" fill="#263238" stroke="#263238" stroke-width="0.8" stroke-linecap="round" stroke-linejoin="round"/>
<path d="M229.358 102.224C230.212 102.224 230.904 101.532 230.904 100.678C230.904 99.8244 230.212 99.1322 229.358 99.1322C228.504 99.1322 227.812 99.8244 227.812 100.678C227.812 101.532 228.504 102.224 229.358 102.224Z" fill="#33B55B"/>
<path d="M221.952 102.224C222.806 102.224 223.498 101.532 223.498 100.678C223.498 99.8244 222.806 99.1322 221.952 99.1322C221.098 99.1322 220.406 99.8244 220.406 100.678C220.406 101.532 221.098 102.224 221.952 102.224Z" fill="#33B55B"/>
<path d="M214.552 102.224C215.406 102.224 216.099 101.532 216.099 100.678C216.099 99.8244 215.406 99.1322 214.552 99.1322C213.699 99.1322 213.006 99.8244 213.006 100.678C213.006 101.532 213.699 102.224 214.552 102.224Z" fill="#33B55B"/>
<path d="M105.934 192.543L101.259 202.415H114.513L119.187 193.024L105.934 192.543Z" fill="#263238" stroke="#263238" stroke-width="0.8" stroke-linecap="round" stroke-linejoin="round"/>
<path d="M135.033 192.543H105.934L110.614 202.415H139.707L135.033 192.543Z" fill="white" stroke="#263238" stroke-width="0.8" stroke-linecap="round" stroke-linejoin="round"/>
<path d="M83.3196 216.011H76.7622V300.409H83.3196V216.011Z" fill="#A3A3A3" stroke="#263238" stroke-width="0.8" stroke-linecap="round" stroke-linejoin="round"/>
<path d="M293.218 216.228H286.66V300.626H293.218V216.228Z" fill="#A3A3A3" stroke="#263238" stroke-width="0.8" stroke-linecap="round" stroke-linejoin="round"/>
<path d="M296.1 202.144H75.3364V283.486H296.1V202.144Z" fill="#A3A3A3" stroke="#263238" stroke-width="0.8" stroke-linecap="round" stroke-linejoin="round"/>
<path d="M296.1 202.144H75.3364V210.609H296.1V202.144Z" fill="#263238" stroke="#263238" stroke-width="0.8" stroke-linecap="round" stroke-linejoin="round"/>
<path d="M301.724 202.144H69.7173V207.192H301.724V202.144Z" fill="white" stroke="#263238" stroke-width="0.8" stroke-linecap="round" stroke-linejoin="round"/>
<path d="M78.8734 276.67C78.8734 276.67 63.9717 244.93 67.2143 244.009C70.457 243.089 77.255 248.148 77.255 248.148C77.255 248.148 57.318 194.769 62.4737 190.654C67.6294 186.539 77.255 207.673 77.255 207.673C77.255 207.673 66.9737 175.012 68.1829 162.589C69.3921 150.166 82.4529 162.132 82.4529 162.132C82.4529 162.132 71.991 117.511 81.7009 115.207C91.4107 112.903 91.0918 166.271 91.0918 166.271C91.0918 166.271 94.2803 128.093 98.1727 138.669C102.065 149.245 93.8833 184.674 93.8833 184.674C93.8833 184.674 99.2195 172.714 102.185 183.753C105.151 194.793 96.2897 239.407 96.2897 239.407C96.2897 239.407 103.822 232.05 104.526 241.248C105.229 250.447 88.9381 278.993 88.9381 278.993L79.7216 279.889L78.8734 276.67Z" fill="#33B55B"/>
<path opacity="0.6" d="M78.8734 276.67C78.8734 276.67 63.9717 244.93 67.2143 244.009C70.457 243.089 77.255 248.148 77.255 248.148C77.255 248.148 57.318 194.769 62.4737 190.654C67.6294 186.539 77.255 207.673 77.255 207.673C77.255 207.673 66.9737 175.012 68.1829 162.589C69.3921 150.166 82.4529 162.132 82.4529 162.132C82.4529 162.132 71.991 117.511 81.7009 115.207C91.4107 112.903 91.0918 166.271 91.0918 166.271C91.0918 166.271 94.2803 128.093 98.1727 138.669C102.065 149.245 93.8833 184.674 93.8833 184.674C93.8833 184.674 99.2195 172.714 102.185 183.753C105.151 194.793 96.2897 239.407 96.2897 239.407C96.2897 239.407 103.822 232.05 104.526 241.248C105.229 250.447 88.9381 278.993 88.9381 278.993L79.7216 279.889L78.8734 276.67Z" fill="white"/>
<path d="M82.068 278.048C82.068 278.048 69.645 255.969 71.9491 251.83C74.2533 247.691 81.1356 257.335 81.1356 257.335C81.1356 257.335 65.494 218.231 67.7981 214.561C70.1022 210.891 77.4237 226.978 77.4237 226.978C77.4237 226.978 74.6684 173.159 79.2646 175C83.8608 176.841 84.3541 202.589 84.3541 202.589C84.3541 202.589 81.5928 141.407 85.7378 143.248C89.8828 145.088 89.4136 213.165 89.4136 213.165C89.4136 213.165 97.7096 186.948 99.0753 198.932C100.441 210.915 88.4931 243.089 88.4931 243.089C88.4931 243.089 99.9957 217.792 101.373 231.129C102.751 244.467 92.1749 269.307 92.1749 269.307C92.1749 269.307 96.3139 259.188 96.3139 264.711C96.3139 270.233 93.0954 277.128 93.0954 277.128" stroke="#263238" stroke-width="0.8" stroke-linecap="round" stroke-linejoin="round"/>
<path d="M98.8467 277.874H72.5508V300.626H98.8467V277.874Z" fill="#263238" stroke="#263238" stroke-width="0.8" stroke-miterlimit="10"/>
<path d="M243.17 123.888C243.17 123.888 240.475 128.334 240.072 130.349C239.669 132.365 240.343 133.177 239.801 134.657C239.26 136.137 236.98 136.143 236.98 137.623C236.98 139.103 238.592 140.45 239.134 140.853C239.675 141.256 238.725 143.007 239.669 145.564C240.614 148.121 241.017 151.351 242.629 151.351C244.298 151.263 245.961 151.082 247.61 150.81L248.416 155.725L259.54 154.714C259.54 154.714 259.408 149.901 262.368 147.85C265.327 145.798 271.187 134.254 267.686 126.716C264.184 119.178 249.493 117.698 243.17 123.888Z" fill="white" stroke="#263238" stroke-width="0.8" stroke-linecap="round" stroke-linejoin="round"/>
<path d="M239.482 118.305C239.118 119.488 238.971 120.727 239.049 121.963C239.216 124.338 239.955 126.637 241.203 128.665C242.575 130.933 245.859 132.377 246.671 134.795C246.936 135.601 247.61 137.755 249.493 138.296C251.376 138.838 250.979 138.832 250.438 142.465C249.896 146.099 251.514 149.733 254.745 150.677C256.267 151.119 257.874 151.178 259.424 150.85C260.974 150.521 262.419 149.815 263.631 148.794C266.187 146.773 271.03 138.429 271.169 130.891C271.403 117.553 258.258 111.038 246.401 112.662C244.821 112.819 243.322 113.438 242.091 114.441C240.861 115.445 239.953 116.789 239.482 118.305Z" fill="#263238" stroke="#263238" stroke-width="0.8" stroke-linecap="round" stroke-linejoin="round"/>
<path d="M253.741 152.278C251.946 152.307 250.179 152.717 248.555 153.481C247.051 154.275 241.823 159.268 240.475 160.098C239.128 160.929 236.571 160.501 238.069 161.175C239.567 161.849 240.626 161.981 243.183 161.043C245.739 160.104 251.124 158.215 252.736 158.215C254.348 158.215 260.274 159.021 260.816 159.16C261.357 159.298 264.852 160.904 264.852 160.904C264.852 160.904 263.102 157.138 261.086 155.255C259.071 153.372 256.568 152.139 253.741 152.278Z" fill="white" stroke="#263238" stroke-width="0.8" stroke-linecap="round" stroke-linejoin="round"/>
<path d="M249.367 135.529C249.082 135.643 248.842 135.848 248.687 136.113C248.531 136.377 248.468 136.686 248.507 136.991C248.736 138.767 248.705 140.566 248.417 142.333C247.881 144.619 250.739 144.619 251.364 140.871C251.773 138.393 250.835 135.006 249.367 135.529Z" fill="white" stroke="#263238" stroke-width="0.8" stroke-linecap="round" stroke-linejoin="round"/>
<path d="M226.879 166.56C226.879 166.56 225.267 167.366 225.134 171.27C225.002 175.174 218.264 202.638 217.861 206.945C217.458 211.252 219.75 214.074 223.648 215.56C227.547 217.046 234.959 219.458 236.282 218.79C237.606 218.123 240.186 204.25 241.125 198.192C242.063 192.134 230.759 171.12 230.224 170.332C229.689 169.544 227.824 166.698 226.879 166.56Z" fill="white" stroke="#263238" stroke-width="0.8" stroke-linecap="round" stroke-linejoin="round"/>
<path d="M235.632 198.733L228.227 209.772" stroke="#263238" stroke-width="0.8" stroke-linecap="round" stroke-linejoin="round"/>
<path d="M249.915 247.739L259.263 299.477C259.293 299.639 259.357 299.793 259.451 299.928C259.545 300.063 259.666 300.177 259.807 300.262C259.948 300.346 260.106 300.4 260.269 300.42C260.433 300.439 260.598 300.423 260.755 300.373C261.013 300.289 261.234 300.117 261.379 299.888C261.524 299.658 261.584 299.385 261.549 299.116L254.649 246.62L249.915 247.739Z" fill="white" stroke="#263238" stroke-width="0.8" stroke-linecap="round" stroke-linejoin="round"/>
<path d="M239.537 236.435C239.537 236.435 236.035 283.679 236.035 285.027C236.035 286.374 232.426 300.506 232.426 300.506H242.093C242.093 300.506 243.032 298.623 243.032 294.718C243.032 290.814 243.441 282.47 243.441 281.664C243.441 280.858 254.21 239.125 254.21 239.125C254.21 239.125 253.668 234.949 248.416 232.507C243.164 230.064 240.343 235.359 239.537 236.435Z" fill="white" stroke="#263238" stroke-width="0.8" stroke-linecap="round" stroke-linejoin="round"/>
<path d="M243.032 294.718C243.032 291.151 243.369 283.89 243.429 282.037C238.947 279.522 236.168 282.873 236.168 282.873C236.089 284.076 236.041 284.858 236.041 285.015C236.041 286.362 232.432 300.494 232.432 300.494H242.093C242.093 300.494 243.032 298.623 243.032 294.718Z" fill="#263238" stroke="#263238" stroke-width="0.8" stroke-linecap="round" stroke-linejoin="round"/>
<path d="M242.093 300.506C242.093 300.506 243.032 298.623 243.032 294.718C243.032 293.269 243.092 291.199 243.158 289.136C242.226 288.047 240.21 286.38 238.057 288.931C237.112 290.044 234.628 297.071 233.442 300.506H242.093Z" fill="#4F4F4F" stroke="#263238" stroke-width="0.8" stroke-linecap="round" stroke-linejoin="round"/>
<path d="M238.057 288.931L238.863 300.506H241.269L243.297 288.66C243.297 288.66 240.613 285.43 238.057 288.931Z" fill="#263238" stroke="#263238" stroke-width="0.8" stroke-linecap="round" stroke-linejoin="round"/>
<path d="M219.882 230.263C219.882 230.263 215.707 234.841 215.304 238.745C214.901 242.65 229.303 283.974 229.303 283.974C228.948 285.71 228.162 287.33 227.017 288.684C224.996 291.241 222.168 294.875 221.765 297.299C221.362 299.724 221.765 300.53 221.765 300.53H231.325C231.325 300.53 234.688 291.915 236.035 289.761C237.383 287.607 236.571 283.432 236.168 281.549C235.765 279.666 232.131 236.189 232.131 236.189C232.131 236.189 229.303 227.008 219.882 230.263Z" fill="white" stroke="#263238" stroke-width="0.8" stroke-linecap="round" stroke-linejoin="round"/>
<path d="M236.036 289.737C237.203 287.866 236.751 284.479 236.342 282.386C235.84 281.967 235.246 281.671 234.609 281.522C233.972 281.373 233.309 281.374 232.673 281.525C229.845 282.199 229.304 283.932 229.304 283.932C228.948 285.668 228.162 287.288 227.018 288.642C224.996 291.199 222.169 294.833 221.766 297.257C221.362 299.682 221.766 300.488 221.766 300.488H231.325C231.325 300.488 234.688 291.891 236.036 289.737Z" fill="#263238" stroke="#263238" stroke-width="0.8" stroke-linecap="round" stroke-linejoin="round"/>
<path d="M226.41 300.506H231.325C231.325 300.506 234.333 292.841 235.789 290.164C235.067 289.502 232.883 287.812 230.783 289.466C228.227 291.488 227.956 296.469 227.288 298.352C226.969 299.236 226.65 299.97 226.41 300.506Z" fill="#4F4F4F" stroke="#263238" stroke-width="0.8" stroke-linecap="round" stroke-linejoin="round"/>
<path d="M230.784 289.466L231.325 300.506H233.07L236.03 289.737C236.03 289.737 233.34 287.048 230.784 289.466Z" fill="#263238" stroke="#263238" stroke-width="0.8" stroke-linecap="round" stroke-linejoin="round"/>
<path d="M230.747 184.806C232.985 192.362 234.995 206.53 234.995 207.853C234.995 210.26 227.956 224.175 227.956 224.175C227.956 224.175 220.135 228.211 218.264 231.039C217.396 232.289 216.886 233.753 216.792 235.272C216.697 236.791 217.022 238.306 217.729 239.654C219.076 242.343 221.092 243.558 225.55 244.364C230.007 245.171 271.313 244.364 271.313 244.364C271.313 244.364 275.621 239.112 273.599 230.768C272.661 226.882 271.638 223.507 270.507 218.79C270.507 218.79 274.947 218.923 278.177 216.228C281.408 213.532 281.546 209.363 281.546 206.271C281.546 203.179 279.513 177.322 279.513 174.771C279.513 172.221 279.393 168.984 276.986 167.095C274.58 165.206 268.877 162.282 263.751 159.563C259.72 157.439 256.755 157.812 253.524 157.812C250.293 157.812 246.389 160.219 246.389 160.219C246.389 160.219 228.485 164.929 227.138 165.735C225.79 166.541 226.271 167.36 226.765 170.331" fill="white"/>
<path d="M230.747 184.806C232.985 192.362 234.995 206.53 234.995 207.853C234.995 210.26 227.956 224.175 227.956 224.175C227.956 224.175 220.135 228.211 218.264 231.039C217.396 232.289 216.886 233.753 216.792 235.272C216.697 236.791 217.022 238.306 217.729 239.654C219.076 242.343 221.092 243.558 225.55 244.364C230.007 245.171 271.313 244.364 271.313 244.364C271.313 244.364 275.621 239.112 273.599 230.768C272.661 226.882 271.638 223.507 270.507 218.79C270.507 218.79 274.947 218.923 278.177 216.228C281.408 213.532 281.546 209.363 281.546 206.271C281.546 203.179 279.513 177.322 279.513 174.771C279.513 172.221 279.393 168.984 276.986 167.095C274.58 165.206 268.877 162.282 263.751 159.563C259.72 157.439 256.755 157.812 253.524 157.812C250.293 157.812 246.389 160.219 246.389 160.219C246.389 160.219 228.485 164.929 227.138 165.735C225.79 166.541 226.271 167.36 226.765 170.331" stroke="#263238" stroke-width="0.8" stroke-linecap="round" stroke-linejoin="round"/>
<path d="M272.649 174.098C272.649 174.098 267.138 206.115 267.138 207.865C267.138 209.616 270.495 218.79 270.495 218.79" stroke="#263238" stroke-width="0.8" stroke-linecap="round" stroke-linejoin="round"/>
<path d="M234.706 209.207C233.382 213.46 227.956 224.175 227.956 224.175C227.956 224.175 220.135 228.211 218.264 231.039C217.396 232.289 216.886 233.753 216.792 235.272C216.697 236.791 217.022 238.306 217.729 239.654C219.076 242.343 221.092 243.558 225.55 244.364C230.007 245.171 271.313 244.364 271.313 244.364C271.313 244.364 275.621 239.112 273.599 230.768C272.661 226.882 271.638 223.507 270.507 218.79L267.138 209.207H234.706Z" fill="#263238" stroke="#263238" stroke-width="0.8" stroke-miterlimit="10"/>
<path d="M223.113 247.192L216.152 299.321C216.131 299.484 216.145 299.65 216.193 299.808C216.241 299.965 216.322 300.111 216.431 300.234C216.539 300.358 216.673 300.457 216.824 300.524C216.974 300.592 217.137 300.627 217.301 300.626C217.572 300.628 217.834 300.534 218.042 300.361C218.25 300.188 218.39 299.948 218.438 299.682L227.956 247.595L223.113 247.192Z" fill="white" stroke="#263238" stroke-width="0.8" stroke-linecap="round" stroke-linejoin="round"/>
<path d="M269.165 247.192L276.126 299.321C276.147 299.484 276.134 299.65 276.086 299.808C276.038 299.965 275.956 300.111 275.848 300.234C275.739 300.358 275.605 300.457 275.455 300.524C275.304 300.592 275.142 300.627 274.977 300.626C274.706 300.628 274.444 300.534 274.236 300.361C274.028 300.188 273.888 299.948 273.84 299.682L264.353 247.595L269.165 247.192Z" fill="white" stroke="#263238" stroke-width="0.8" stroke-linecap="round" stroke-linejoin="round"/>
<path d="M242.093 247.192L235.133 299.321C235.111 299.484 235.125 299.65 235.173 299.808C235.221 299.965 235.302 300.111 235.411 300.234C235.52 300.358 235.654 300.457 235.804 300.524C235.954 300.592 236.117 300.627 236.282 300.626C236.552 300.626 236.814 300.532 237.021 300.36C237.229 300.187 237.37 299.947 237.419 299.682L246.936 247.595L242.093 247.192Z" fill="white" stroke="#263238" stroke-width="0.8" stroke-linecap="round" stroke-linejoin="round"/>
<path d="M276.686 187.549H233.208C233.208 187.549 232.005 197.777 232.673 206.53C233.34 215.283 234.826 226.449 234.556 233.602C234.285 240.755 230.248 244.641 230.248 244.641H220.556C220.327 244.64 220.099 244.685 219.887 244.772C219.674 244.86 219.481 244.988 219.319 245.15C219.156 245.312 219.027 245.505 218.939 245.717C218.851 245.929 218.806 246.156 218.806 246.386C218.806 246.616 218.851 246.843 218.939 247.056C219.027 247.268 219.156 247.461 219.318 247.624C219.481 247.786 219.674 247.915 219.886 248.003C220.099 248.091 220.326 248.136 220.556 248.136H272.896C276.068 243.019 277.616 237.06 277.335 231.045C276.932 220.818 272.896 209.237 274.237 201.025C275.579 192.813 276.686 187.549 276.686 187.549Z" fill="#33B55B" stroke="#263238" stroke-width="0.8" stroke-linecap="round" stroke-linejoin="round"/>
<path d="M265.177 125.037C265.177 125.037 262.488 126.114 262.349 128.647C262.211 131.179 261.411 139.951 258.18 144.932C254.95 149.913 258.18 157.854 266.121 159.064C274.063 160.273 280.524 148.295 277.552 135.914C274.58 123.533 267.872 123.96 265.177 125.037Z" fill="#263238" stroke="#263238" stroke-width="0.8" stroke-linecap="round" stroke-linejoin="round"/>
<path d="M50.1831 300.626H313.281" stroke="#263238" stroke-width="0.8" stroke-linecap="round" stroke-linejoin="round"/>
</svg>
