<svg width="60" height="60" viewBox="0 0 60 60" fill="none" xmlns="http://www.w3.org/2000/svg">
<path fill-rule="evenodd" clip-rule="evenodd" d="M15.3188 0H35.3813L52.3875 17.7375V52.1813C52.3875 56.4938 48.8813 60 44.5688 60H15.3188C11.0063 60 7.5 56.4938 7.5 52.1813V7.81875C7.5 3.50625 11.0063 0 15.3188 0Z" fill="#0AC963"/>
<g opacity="0.3">
<path fill-rule="evenodd" clip-rule="evenodd" d="M35.3623 0V17.5875H52.3873L35.3623 0Z" fill="white"/>
</g>
<path d="M17.475 37.7437H55.65V48.8624C55.65 50.5499 54.2812 51.8999 52.6125 51.8999H17.475C15.7875 51.8999 14.4375 50.5312 14.4375 48.8624V40.7999C14.4375 39.1124 15.8063 37.7624 17.475 37.7624V37.7437Z" fill="white"/>
<path d="M22.1439 39.8252H24.5627V46.8189C24.5627 47.4752 24.3939 48.0377 24.0939 48.5439C23.7752 49.0314 23.3627 49.4064 22.8189 49.6877C22.2752 49.9502 21.6377 50.1002 20.9252 50.1002C20.2877 50.1002 19.7252 49.9877 19.2002 49.7627C18.6939 49.5377 18.2814 49.2002 17.9627 48.7314C17.6627 48.2627 17.5127 47.6814 17.5127 46.9502H19.9502C19.9502 47.2127 20.0064 47.4377 20.1002 47.6064C20.1939 47.7752 20.3252 47.9252 20.4752 48.0189C20.6252 48.1127 20.8314 48.1502 21.0564 48.1502C21.2814 48.1502 21.4877 48.0939 21.6564 48.0002C21.8252 47.9064 21.9377 47.7564 22.0314 47.5502C22.1064 47.3439 22.1627 47.1002 22.1627 46.8189V39.8252H22.1439Z" fill="#0AC963"/>
<path d="M25.8193 49.9502V39.8252H30.0006C30.7506 39.8252 31.4068 39.9752 31.9693 40.2752C32.5131 40.5752 32.9443 40.9877 33.2443 41.5127C33.5443 42.0377 33.6943 42.6564 33.6943 43.3502C33.6943 44.0439 33.5443 44.6627 33.2443 45.1877C32.9443 45.7127 32.5131 46.1064 31.9506 46.4064C31.3881 46.6877 30.7131 46.8377 29.9443 46.8377H27.3568V44.9064H29.4756C29.8506 44.9064 30.1506 44.8502 30.3943 44.7189C30.6381 44.5877 30.8256 44.4189 30.9568 44.1752C31.0881 43.9502 31.1443 43.6689 31.1443 43.3689C31.1443 43.0689 31.0881 42.7877 30.9568 42.5627C30.8256 42.3377 30.6381 42.1502 30.3943 42.0377C30.1506 41.9064 29.8318 41.8502 29.4756 41.8502H28.2756V50.0064H25.8381L25.8193 49.9502Z" fill="#0AC963"/>
<path d="M34.6123 49.9502V39.8252H41.6623V41.8127H37.0498V43.8939H41.3061V45.8814H37.0498V47.9627H41.6623V49.9502H34.6123Z" fill="#0AC963"/>
<path d="M49.5564 43.1251C49.5002 42.9188 49.4252 42.7313 49.3127 42.5813C49.2002 42.4126 49.0689 42.2813 48.9189 42.1688C48.7689 42.0563 48.5814 41.9813 48.3752 41.9063C48.1689 41.8501 47.9439 41.8126 47.7002 41.8126C47.2127 41.8126 46.7814 41.9251 46.4252 42.1688C46.0689 42.4126 45.7877 42.7501 45.6002 43.2001C45.4127 43.6501 45.3002 44.1938 45.3002 44.8501C45.3002 45.5063 45.3939 46.0501 45.5814 46.5188C45.7689 46.9688 46.0502 47.3251 46.4064 47.5688C46.7627 47.8126 47.1939 47.9251 47.7002 47.9251C48.1502 47.9251 48.5252 47.8501 48.8439 47.7001C49.1627 47.5501 49.3877 47.3438 49.5564 47.0813C49.7252 46.8188 49.8002 46.5001 49.8002 46.1251L50.2502 46.1813H47.7939V44.4001H52.1627V45.7313C52.1627 46.6313 51.9752 47.4188 51.5814 48.0563C51.2064 48.6938 50.6627 49.2001 50.0064 49.5376C49.3314 49.8751 48.5627 50.0626 47.7002 50.0626C46.7252 50.0626 45.8814 49.8563 45.1502 49.4438C44.4189 49.0313 43.8564 48.4313 43.4439 47.6438C43.0314 46.8563 42.8252 45.9376 42.8252 44.8876C42.8252 44.0626 42.9564 43.3126 43.2002 42.6751C43.4439 42.0376 43.8002 41.4938 44.2314 41.0438C44.6814 40.5938 45.1877 40.2563 45.7689 40.0313C46.3502 39.8063 46.9877 39.6938 47.6627 39.6938C48.2439 39.6938 48.7877 39.7688 49.2939 39.9376C49.8002 40.1063 50.2502 40.3501 50.6439 40.6501C51.0377 40.9501 51.3564 41.3251 51.6002 41.7376C51.8439 42.1501 51.9939 42.6188 52.0502 43.1251H49.5752H49.5564Z" fill="#0AC963"/>
<path fill-rule="evenodd" clip-rule="evenodd" d="M55.6502 37.7438L52.3877 35.9438V37.7438H55.6502Z" fill="white"/>
</svg>
