<svg width="376" height="376" viewBox="0 0 376 376" fill="none" xmlns="http://www.w3.org/2000/svg">
<path d="M300.239 126.648C300.239 126.648 254.289 60.489 196.92 53.4536C146.278 47.2754 99.2986 71.4907 92.7261 123.825C90.3943 142.468 86.2451 163.094 78.8725 180.108C70.6026 199.191 56.4918 215.068 67.2935 251.771C78.0952 288.474 123.743 321.565 156.919 321.496C190.096 321.428 221.267 291.206 246.979 263.773C272.692 236.34 354.574 210.622 300.239 126.648Z" fill="#33B55B"/>
<path opacity="0.6" d="M300.239 126.648C300.239 126.648 254.289 60.489 196.92 53.4536C146.278 47.2754 99.2986 71.4907 92.7261 123.825C90.3943 142.468 86.2451 163.094 78.8725 180.108C70.6026 199.191 56.4918 215.068 67.2935 251.771C78.0952 288.474 123.743 321.565 156.919 321.496C190.096 321.428 221.267 291.206 246.979 263.773C272.692 236.34 354.574 210.622 300.239 126.648Z" fill="white"/>
<g opacity="0.3">
<path d="M189.536 76.1086H91.3087V199.991H189.536V76.1086Z" stroke="black" stroke-width="0.76" stroke-miterlimit="10"/>
<path d="M91.2972 173.856C99.8272 163.673 109.669 154.666 120.565 147.069C143.997 130.62 170.664 122.539 189.524 110.308" stroke="black" stroke-width="0.76" stroke-miterlimit="10"/>
<path d="M91.2972 142.759C105.882 134.518 123.468 123.15 137.407 109.788C152.919 94.9286 157.056 83.4982 157.519 76.1084" stroke="black" stroke-width="0.76" stroke-miterlimit="10"/>
<path d="M117.016 199.991C126.731 178.325 145.186 140.873 149.855 157.499C153.427 170.244 148.141 187.349 142.78 199.991" stroke="black" stroke-width="0.76" stroke-miterlimit="10"/>
<path d="M116.061 76.1086C108.243 84.5671 100.367 95.9404 108.146 101.364C118.616 108.662 132.344 92.3627 139.413 76.1086" stroke="black" stroke-width="0.76" stroke-miterlimit="10"/>
<path d="M168.487 109.783C175.462 109.783 181.117 104.128 181.117 97.1521C181.117 90.1764 175.462 84.5215 168.487 84.5215C161.511 84.5215 155.856 90.1764 155.856 97.1521C155.856 104.128 161.511 109.783 168.487 109.783Z" stroke="black" stroke-width="0.76" stroke-miterlimit="10"/>
<path d="M105.139 124.613C108.791 124.613 111.752 121.653 111.752 118.001C111.752 114.349 108.791 111.388 105.139 111.388C101.487 111.388 98.527 114.349 98.527 118.001C98.527 121.653 101.487 124.613 105.139 124.613Z" stroke="black" stroke-width="0.76" stroke-miterlimit="10"/>
<path d="M114.27 185.626C119.805 184.344 123.253 178.818 121.971 173.283C120.689 167.748 115.162 164.3 109.627 165.582C104.092 166.864 100.645 172.39 101.926 177.925C103.208 183.46 108.735 186.908 114.27 185.626Z" stroke="black" stroke-width="0.76" stroke-miterlimit="10"/>
</g>
<path d="M108.294 290.331C104.865 232.608 126.995 192.687 127.217 192.287L128.446 193.019C128.223 193.413 106.3 232.996 109.695 290.303L108.294 290.331Z" fill="#9E9E9E"/>
<path d="M107.831 285.622C105.277 242.512 112.272 185.532 112.341 184.96L113.747 185.189C113.672 185.76 106.694 242.615 109.243 285.599L107.831 285.622Z" fill="#9E9E9E"/>
<path d="M105.094 284.313C102.631 261.487 103.088 245.547 103.911 236.197C104.802 226.018 106.26 221.337 106.323 221.126L107.671 221.6C107.614 221.789 101.819 240.838 106.5 284.222L105.094 284.313Z" fill="#9E9E9E"/>
<path d="M110.34 273.077L108.934 272.877C112.718 235.82 109.146 217.897 109.106 217.72L110.489 217.485C110.529 217.663 114.158 235.768 110.34 273.077Z" fill="#9E9E9E"/>
<path d="M112.061 282.187L110.649 282.05C112.032 257.795 107.066 244.844 107.014 244.718L108.323 244.25C108.534 244.781 113.461 257.583 112.061 282.187Z" fill="#9E9E9E"/>
<path d="M112.495 191.39C108.874 184.945 106.321 177.956 104.934 170.695C102.848 159.133 107.043 149.995 112.461 144.348C117.879 138.701 126.583 134.672 131.772 130.106C136.962 125.539 145.02 119.081 145.02 119.081C145.02 119.081 141.917 135.209 141.98 149.995C142.043 164.78 133.521 173.381 127.257 177.953C120.993 182.525 112.495 191.39 112.495 191.39Z" fill="#33B55B"/>
<path d="M127.086 193.996C127.086 193.996 123.48 178.045 134.31 175.187C145.14 172.329 147.861 177.97 150.547 178.359C153.233 178.748 157.302 179.193 160.263 182.36C163.223 185.526 162.766 187.635 164.863 189.521C166.961 191.407 168.967 192.453 169.841 196.23C170.716 200.008 172.127 203.923 170.527 206.272C170.527 206.272 166.052 194.476 155.719 192.213C145.386 189.949 129.201 193.15 127.086 193.996Z" fill="#33B55B"/>
<path d="M108.98 210.747C108.98 210.747 107.317 196.231 104.322 188.704C101.327 181.177 91.9031 174.187 85.6106 171.501C79.3182 168.815 74.6832 167.186 73.2372 164.78C71.7913 162.374 68.7279 159.671 69.8081 165.854C70.8883 172.038 72.0942 181.983 75.209 186.286L78.3409 190.584C78.3409 190.584 89.6284 190.584 96.058 197.037C102.488 203.489 109.403 214.508 109.403 214.508L108.98 210.747Z" fill="#33B55B"/>
<path d="M109.403 214.508C109.403 214.508 97.3326 201.877 91.5088 197.574C85.685 193.27 78.141 192.739 73.8203 192.201C69.4996 191.664 64.9103 184.675 64.9103 184.675C64.9103 184.675 68.2537 200.803 72.9116 209.404C77.5694 218.006 89.6514 217.737 96.1038 217.737C102.556 217.737 109.403 214.508 109.403 214.508Z" fill="#33B55B"/>
<path d="M105.5 224.189C105.5 224.189 106.071 217.737 109.403 214.508C112.735 211.279 118.713 212.09 122.548 213.433C126.383 214.776 128.138 212.09 131.121 212.896C134.104 213.702 138.551 216.662 141.328 219.349C144.106 222.035 147.935 229.83 147.992 231.179C148.049 232.528 141.86 225.801 137.213 223.921C132.567 222.04 123.937 221.48 118.022 221.48C112.106 221.48 105.5 224.189 105.5 224.189Z" fill="#33B55B"/>
<path d="M108.363 241.661C108.363 241.661 106.774 235.768 101.859 233.865C96.944 231.962 89.9886 232.791 87.8682 232.791C85.7479 232.791 81.8444 230.099 77.438 234.134C74.8282 236.489 72.8262 239.44 71.6028 242.735C75.0164 239.853 79.3206 238.238 83.7876 238.163C91.0402 238.163 93.9778 237.626 97.8641 240.586C101.75 243.547 109.7 248.113 109.7 248.113L108.363 241.661Z" fill="#33B55B"/>
<path d="M110.523 261.687C110.523 261.687 111.575 247.97 113.838 244.215C116.101 240.46 124.177 233.997 128.126 231.579C132.075 229.161 137.888 227.007 137.888 227.007C136.809 232.279 134.925 237.355 132.304 242.055C128.04 249.582 117.507 254.96 116.301 257.92C115.601 259.571 115.043 261.279 114.632 263.024C114.632 263.024 114.232 259.801 121.445 258.726C128.658 257.652 134.916 259.532 137.448 262.218C139.979 264.904 143.323 267.865 144.129 267.865C144.934 267.865 150.187 271.357 150.187 271.357C150.187 271.357 146.22 272.968 140.237 271.357C134.253 269.745 129.052 267.356 125.291 267.356C121.531 267.356 114.055 268.699 114.055 268.699C114.055 268.699 125.96 270.58 127.886 271.654C129.812 272.728 136.659 275.958 136.659 275.958C136.659 275.958 128.086 276.495 123.6 278.644C119.113 280.793 117.096 284.022 116.884 285.365C116.673 286.708 116.49 288.862 116.49 288.862L116.65 292.892H98.9328C98.9328 292.892 99.0528 282.679 93.7891 278.375C88.5254 274.071 80.1641 273.803 80.1641 273.803L74.5918 275.683C74.5918 275.683 75.8205 272.723 80.8271 270.305C85.8336 267.888 89.5427 266.545 92.5032 266.545C94.1386 266.521 95.7705 266.701 97.3611 267.082C97.3611 267.082 92.0346 261.704 86.3765 261.435C80.7185 261.167 73.2201 263.298 72.4371 263.836C71.6542 264.373 86.3308 255.234 91.183 255.503C94.2131 255.723 97.1302 256.745 99.6358 258.463L97.0125 253.623C97.0125 253.623 99.2986 250.936 104.922 256.309L110.523 261.687Z" fill="#33B55B"/>
<g opacity="0.2">
<path d="M133.213 138.038C134.927 135.444 136.167 133.792 136.167 133.792" stroke="black" stroke-width="0.76" stroke-miterlimit="10"/>
<path d="M113.747 185.189C113.747 185.189 119.753 168.249 122.994 157.716C124.708 152.075 128.383 145.617 131.401 140.839" stroke="black" stroke-width="0.76" stroke-miterlimit="10"/>
<path d="M128.263 171.089C128.263 171.089 124.211 174.124 119.119 177.948C114.027 181.771 114.861 180.582 114.861 180.582L110.203 172.478" stroke="black" stroke-width="0.76" stroke-miterlimit="10"/>
<path d="M115.301 161.562C116.518 164.808 118.542 171.278 118.542 171.278L131.504 163.185" stroke="black" stroke-width="0.76" stroke-miterlimit="10"/>
<path d="M131.807 152.532L136.773 149.612" stroke="black" stroke-width="0.76" stroke-miterlimit="10"/>
<path d="M119.959 145.354L122.994 157.716L129.332 153.989" stroke="black" stroke-width="0.76" stroke-miterlimit="10"/>
<path d="M156.508 184.949C157.217 185.217 157.876 185.604 158.457 186.092C160.886 188.121 159.674 188.321 163.32 190.755C166.967 193.19 171.813 202.26 170.504 206.335" stroke="black" stroke-width="0.76" stroke-miterlimit="10"/>
<path d="M149.335 180.005C149.369 180.699 149.572 181.373 149.925 181.971C150.279 182.568 150.773 183.071 151.364 183.434C152.101 183.841 152.904 184.116 153.736 184.246" stroke="black" stroke-width="0.76" stroke-miterlimit="10"/>
<path d="M81.5815 178.616C79.1068 176.262 77.6323 174.73 77.6323 174.73" stroke="black" stroke-width="0.76" stroke-miterlimit="10"/>
<path d="M100.756 198.865C98.4699 195.305 94.9094 190.293 90.5772 186.692C88.0054 184.537 85.6679 182.451 83.719 180.645" stroke="black" stroke-width="0.76" stroke-miterlimit="10"/>
<path d="M103.339 203.306C103.339 203.306 102.865 202.369 101.99 200.888" stroke="black" stroke-width="0.76" stroke-miterlimit="10"/>
<path d="M95.6409 191.556L87.7368 177.976" stroke="black" stroke-width="0.76" stroke-miterlimit="10"/>
<path d="M86.5251 183.651L79.6326 181.623" stroke="black" stroke-width="0.76" stroke-miterlimit="10"/>
<path d="M88.6169 209.118C87.2694 208.631 85.9607 208.043 84.702 207.358C79.8383 204.501 73.9574 200.471 72.1285 198.037" stroke="black" stroke-width="0.76" stroke-miterlimit="10"/>
<path d="M106.586 214.651C106.586 214.651 98.0127 212.399 91.2688 210.078" stroke="black" stroke-width="0.76" stroke-miterlimit="10"/>
<path d="M75.5806 207.158L84.6963 207.358L80.4442 201.077" stroke="black" stroke-width="0.76" stroke-miterlimit="10"/>
<path d="M86.7252 212.222L96.4525 211.616L91.1831 204.318" stroke="black" stroke-width="0.76" stroke-miterlimit="10"/>
<path d="M129.103 216.668C129.589 216.914 130.178 217.188 130.898 217.491C134.75 219.109 134.95 217.691 138.596 220.126C142.243 222.561 143.054 224.984 144.883 227.013" stroke="black" stroke-width="0.76" stroke-miterlimit="10"/>
<path d="M126.846 215.056C126.846 215.056 126.937 215.428 128.195 216.171" stroke="black" stroke-width="0.76" stroke-miterlimit="10"/>
<path d="M126.852 238.592C127.889 237.443 128.835 236.214 129.681 234.917" stroke="black" stroke-width="0.76" stroke-miterlimit="10"/>
<path d="M112.444 255.383C112.444 255.383 118.159 246.667 122.794 242.626C123.28 242.204 123.743 241.781 124.177 241.369" stroke="black" stroke-width="0.76" stroke-miterlimit="10"/>
</g>
<path d="M323.397 292.869H56.4003" stroke="#263238" stroke-width="0.76" stroke-linecap="round" stroke-linejoin="round"/>
<path d="M304.709 204.998H238.847C238.104 204.973 237.376 205.204 236.783 205.651C236.191 206.098 235.769 206.735 235.589 207.455L217.603 292.869H290.243L307.961 208.598C308.361 206.73 306.795 204.998 304.709 204.998Z" fill="#949494" stroke="#263238" stroke-width="0.76" stroke-linecap="round" stroke-linejoin="round"/>
<path d="M222.478 146.509C222.478 146.509 213.997 152.224 214.477 156.527C214.957 160.831 219.564 164.391 219.564 164.391C219.564 164.391 225.885 149.132 226.347 148.96C226.81 148.789 222.478 146.509 222.478 146.509Z" fill="#263238" stroke="#263238" stroke-width="0.76" stroke-linecap="round" stroke-linejoin="round"/>
<path d="M218.586 182.691C218.586 182.691 220.049 189.39 219.004 192.739L217.958 196.088C217.958 196.088 227.582 199.014 230.725 197.339C233.869 195.665 234.28 194.619 234.28 194.619C234.28 194.619 222.141 181.017 218.586 182.691Z" fill="#263238" stroke="#263238" stroke-width="0.76" stroke-linecap="round" stroke-linejoin="round"/>
<path d="M216.975 215.548C216.975 215.548 233.583 214.405 241.887 215.548C250.191 216.691 251.191 216.908 251.191 216.908C251.191 216.908 243.882 242.318 239.23 252.285C234.577 262.253 223.953 270.717 223.953 270.717C223.953 270.717 207.504 242.455 216.975 215.548Z" fill="#263238" stroke="#263238" stroke-width="0.76" stroke-linecap="round" stroke-linejoin="round"/>
<path d="M224.324 147.897C224.324 147.897 219.238 158.996 218.775 161.459C218.312 163.923 218.621 168.706 218.621 170.558C218.621 172.41 217.083 179.034 217.083 180.731C217.083 182.428 223.553 195.836 225.25 196.448C226.948 197.059 229.102 196.145 229.102 196.145C229.102 196.145 229.874 201.86 229.719 203.112C229.565 204.363 225.719 206.044 225.719 206.044C225.719 206.044 220.632 216.062 221.718 219.606C222.804 223.149 226.805 226.544 234.046 225.618C241.287 224.692 244.682 222.378 246.688 216.371C248.694 210.364 250.231 204.369 250.231 204.369C250.231 204.369 247.945 204.643 247.945 202.02C247.945 199.397 248.1 186.915 248.1 186.915C248.1 186.915 250.254 165.34 243.625 156.55C236.995 147.76 226.639 143.754 224.324 147.897Z" fill="white" stroke="#263238" stroke-width="0.76" stroke-linecap="round" stroke-linejoin="round"/>
<path d="M221.398 146.2C221.398 146.2 234.497 159.613 238.967 167.317C243.436 175.022 239.43 196.756 241.127 196.756C242.824 196.756 248.557 196.591 261.833 190.27C275.11 183.949 274.784 171.621 271.549 162.682C268.314 153.744 260.399 143.251 253.312 139.73C246.225 136.21 226.639 134.798 221.398 146.2Z" fill="#263238" stroke="#263238" stroke-width="0.76" stroke-linecap="round" stroke-linejoin="round"/>
<path d="M242.584 171.41C245.042 176.433 249.848 187.264 249.02 193.579" stroke="#B2B2B2" stroke-width="0.76" stroke-linecap="round" stroke-linejoin="round"/>
<path d="M241.207 168.706C241.207 168.706 241.413 169.089 241.779 169.764" stroke="#B2B2B2" stroke-width="0.76" stroke-linecap="round" stroke-linejoin="round"/>
<path d="M263.405 182.663C263.77 184.149 263.84 185.693 263.611 187.206" stroke="#B2B2B2" stroke-width="0.76" stroke-linecap="round" stroke-linejoin="round"/>
<path d="M227.022 146.714C227.022 146.714 224.164 148.354 245.311 162.334C256.249 169.552 260.77 175.73 262.582 180.131" stroke="#B2B2B2" stroke-width="0.76" stroke-linecap="round" stroke-linejoin="round"/>
<path d="M229.874 171.187C230.664 171.833 231.625 172.236 232.64 172.346C233.654 172.455 234.679 172.267 235.589 171.804" stroke="#263238" stroke-width="0.76" stroke-linecap="round" stroke-linejoin="round"/>
<path d="M219.855 170.861C219.855 170.861 221.089 172.404 223.244 171.015" stroke="#263238" stroke-width="0.76" stroke-linecap="round" stroke-linejoin="round"/>
<path d="M222.941 165.317C222.941 165.317 224.479 169.015 224.479 170.712C224.475 171.737 224.209 172.745 223.707 173.638" stroke="#263238" stroke-width="0.76" stroke-linecap="round" stroke-linejoin="round"/>
<path d="M222.015 181.034C222.75 181.635 223.584 182.105 224.479 182.423" stroke="#263238" stroke-width="0.76" stroke-linecap="round" stroke-linejoin="round"/>
<path d="M223.553 184.903C223.553 184.903 228.639 187.189 232.188 184.44" stroke="#263238" stroke-width="0.76" stroke-linecap="round" stroke-linejoin="round"/>
<path d="M228.028 165.317C228.028 165.317 234.497 163.311 236.966 167.163" stroke="#263238" stroke-width="0.76" stroke-linecap="round" stroke-linejoin="round"/>
<path d="M219.546 164.391C219.546 164.391 221.089 163.157 222.015 164.237" stroke="#263238" stroke-width="0.76" stroke-linecap="round" stroke-linejoin="round"/>
<path d="M229.102 196.145L236.349 194.602L229.565 200.614L229.102 196.145Z" fill="#263238" stroke="#263238" stroke-width="0.76" stroke-linecap="round" stroke-linejoin="round"/>
<path d="M229.645 203.963C229.645 204.189 229.578 204.41 229.453 204.598C229.327 204.786 229.148 204.933 228.94 205.019C228.731 205.106 228.501 205.129 228.279 205.084C228.057 205.04 227.854 204.931 227.694 204.772C227.534 204.612 227.425 204.408 227.381 204.186C227.337 203.965 227.36 203.735 227.446 203.526C227.533 203.317 227.679 203.139 227.867 203.013C228.055 202.887 228.276 202.82 228.502 202.82C228.805 202.82 229.096 202.941 229.31 203.155C229.525 203.369 229.645 203.66 229.645 203.963Z" fill="white" stroke="#263238" stroke-width="0.76" stroke-linecap="round" stroke-linejoin="round"/>
<path d="M229.336 205.889C229.336 206.115 229.269 206.336 229.144 206.524C229.018 206.712 228.84 206.859 228.631 206.945C228.422 207.032 228.192 207.055 227.97 207.01C227.749 206.966 227.545 206.857 227.385 206.698C227.225 206.538 227.116 206.334 227.072 206.112C227.028 205.891 227.051 205.661 227.137 205.452C227.224 205.243 227.37 205.065 227.558 204.939C227.746 204.813 227.967 204.746 228.193 204.746C228.497 204.746 228.787 204.867 229.002 205.081C229.216 205.295 229.336 205.586 229.336 205.889Z" fill="white" stroke="#263238" stroke-width="0.76" stroke-linecap="round" stroke-linejoin="round"/>
<path d="M229.034 207.815C229.034 208.041 228.967 208.262 228.841 208.45C228.715 208.638 228.537 208.785 228.328 208.871C228.119 208.958 227.889 208.981 227.668 208.936C227.446 208.892 227.242 208.784 227.082 208.624C226.922 208.464 226.814 208.26 226.77 208.038C226.725 207.817 226.748 207.587 226.835 207.378C226.921 207.169 227.068 206.991 227.256 206.865C227.444 206.739 227.665 206.672 227.891 206.672C228.194 206.672 228.484 206.793 228.699 207.007C228.913 207.222 229.034 207.512 229.034 207.815Z" fill="white" stroke="#263238" stroke-width="0.76" stroke-linecap="round" stroke-linejoin="round"/>
<path d="M250.128 203.192C250.128 203.418 250.061 203.639 249.936 203.827C249.81 204.015 249.632 204.161 249.423 204.248C249.214 204.334 248.984 204.357 248.762 204.313C248.541 204.269 248.337 204.16 248.177 204C248.017 203.84 247.908 203.637 247.864 203.415C247.82 203.193 247.843 202.963 247.929 202.754C248.016 202.546 248.162 202.367 248.35 202.241C248.538 202.116 248.759 202.049 248.985 202.049C249.289 202.049 249.579 202.169 249.794 202.384C250.008 202.598 250.128 202.889 250.128 203.192Z" fill="white" stroke="#263238" stroke-width="0.76" stroke-linecap="round" stroke-linejoin="round"/>
<path d="M249.037 204.335C249.037 204.561 248.97 204.782 248.844 204.97C248.719 205.158 248.54 205.304 248.331 205.391C248.122 205.477 247.893 205.5 247.671 205.456C247.449 205.412 247.245 205.303 247.086 205.143C246.926 204.983 246.817 204.78 246.773 204.558C246.729 204.336 246.751 204.106 246.838 203.898C246.924 203.689 247.071 203.51 247.259 203.385C247.447 203.259 247.668 203.192 247.894 203.192C248.197 203.192 248.488 203.312 248.702 203.527C248.916 203.741 249.037 204.032 249.037 204.335Z" fill="white" stroke="#263238" stroke-width="0.76" stroke-linecap="round" stroke-linejoin="round"/>
<path d="M246.648 206.758C247.285 206.758 247.802 206.241 247.802 205.604C247.802 204.966 247.285 204.449 246.648 204.449C246.01 204.449 245.493 204.966 245.493 205.604C245.493 206.241 246.01 206.758 246.648 206.758Z" fill="white" stroke="#263238" stroke-width="0.76" stroke-linecap="round" stroke-linejoin="round"/>
<path d="M246.431 206.85C246.431 207.076 246.364 207.297 246.238 207.485C246.112 207.673 245.934 207.819 245.725 207.906C245.516 207.992 245.286 208.015 245.065 207.971C244.843 207.927 244.639 207.818 244.479 207.658C244.32 207.498 244.211 207.294 244.167 207.073C244.123 206.851 244.145 206.621 244.232 206.412C244.318 206.203 244.465 206.025 244.653 205.899C244.841 205.774 245.062 205.707 245.288 205.707C245.591 205.707 245.882 205.827 246.096 206.041C246.31 206.256 246.431 206.546 246.431 206.85Z" fill="white" stroke="#263238" stroke-width="0.76" stroke-linecap="round" stroke-linejoin="round"/>
<path d="M244.985 208.033C244.985 208.259 244.918 208.48 244.792 208.668C244.667 208.856 244.488 209.002 244.279 209.089C244.07 209.175 243.84 209.198 243.619 209.154C243.397 209.11 243.193 209.001 243.034 208.841C242.874 208.681 242.765 208.477 242.721 208.256C242.677 208.034 242.699 207.804 242.786 207.595C242.872 207.386 243.019 207.208 243.207 207.082C243.395 206.957 243.616 206.89 243.842 206.89C244.145 206.89 244.436 207.01 244.65 207.224C244.864 207.439 244.985 207.73 244.985 208.033Z" fill="white" stroke="#263238" stroke-width="0.76" stroke-linecap="round" stroke-linejoin="round"/>
<path d="M242.127 210.564C242.765 210.564 243.282 210.047 243.282 209.41C243.282 208.772 242.765 208.255 242.127 208.255C241.49 208.255 240.973 208.772 240.973 209.41C240.973 210.047 241.49 210.564 242.127 210.564Z" fill="white" stroke="#263238" stroke-width="0.76" stroke-linecap="round" stroke-linejoin="round"/>
<path d="M241.904 210.484C241.904 210.71 241.837 210.931 241.712 211.119C241.586 211.307 241.407 211.454 241.199 211.54C240.99 211.627 240.76 211.65 240.538 211.605C240.316 211.561 240.113 211.452 239.953 211.293C239.793 211.133 239.684 210.929 239.64 210.707C239.596 210.486 239.619 210.256 239.705 210.047C239.792 209.838 239.938 209.66 240.126 209.534C240.314 209.408 240.535 209.341 240.761 209.341C241.064 209.341 241.355 209.462 241.569 209.676C241.784 209.89 241.904 210.181 241.904 210.484Z" fill="white" stroke="#263238" stroke-width="0.76" stroke-linecap="round" stroke-linejoin="round"/>
<path d="M240.264 212.033C240.264 212.259 240.197 212.48 240.071 212.668C239.946 212.856 239.767 213.003 239.558 213.089C239.35 213.176 239.12 213.198 238.898 213.154C238.676 213.11 238.473 213.001 238.313 212.841C238.153 212.682 238.044 212.478 238 212.256C237.956 212.034 237.978 211.805 238.065 211.596C238.151 211.387 238.298 211.208 238.486 211.083C238.674 210.957 238.895 210.89 239.121 210.89C239.424 210.89 239.715 211.011 239.929 211.225C240.144 211.439 240.264 211.73 240.264 212.033Z" fill="white" stroke="#263238" stroke-width="0.76" stroke-linecap="round" stroke-linejoin="round"/>
<path d="M238.584 213.016C238.584 213.242 238.517 213.463 238.391 213.651C238.266 213.839 238.087 213.986 237.878 214.072C237.669 214.159 237.439 214.182 237.218 214.137C236.996 214.093 236.792 213.984 236.633 213.825C236.473 213.665 236.364 213.461 236.32 213.239C236.276 213.018 236.298 212.788 236.385 212.579C236.471 212.37 236.618 212.192 236.806 212.066C236.994 211.94 237.215 211.873 237.441 211.873C237.744 211.873 238.035 211.994 238.249 212.208C238.463 212.422 238.584 212.713 238.584 213.016Z" fill="white" stroke="#263238" stroke-width="0.76" stroke-linecap="round" stroke-linejoin="round"/>
<path d="M236.749 214.051C236.749 214.277 236.682 214.498 236.557 214.686C236.431 214.874 236.252 215.02 236.044 215.107C235.835 215.193 235.605 215.216 235.383 215.172C235.161 215.128 234.958 215.019 234.798 214.859C234.638 214.699 234.529 214.495 234.485 214.274C234.441 214.052 234.464 213.822 234.55 213.613C234.637 213.404 234.783 213.226 234.971 213.1C235.159 212.975 235.38 212.908 235.606 212.908C235.909 212.908 236.2 213.028 236.414 213.243C236.629 213.457 236.749 213.748 236.749 214.051Z" fill="white" stroke="#263238" stroke-width="0.76" stroke-linecap="round" stroke-linejoin="round"/>
<path d="M228.857 210.05C228.857 210.276 228.789 210.497 228.664 210.685C228.538 210.873 228.36 211.02 228.151 211.106C227.942 211.193 227.712 211.215 227.49 211.171C227.269 211.127 227.065 211.018 226.905 210.858C226.745 210.698 226.636 210.495 226.592 210.273C226.548 210.051 226.571 209.821 226.657 209.613C226.744 209.404 226.89 209.225 227.078 209.1C227.266 208.974 227.487 208.907 227.713 208.907C228.017 208.907 228.307 209.027 228.522 209.242C228.736 209.456 228.857 209.747 228.857 210.05Z" fill="white" stroke="#263238" stroke-width="0.76" stroke-linecap="round" stroke-linejoin="round"/>
<path d="M227.896 213.119C228.534 213.119 229.051 212.602 229.051 211.965C229.051 211.327 228.534 210.81 227.896 210.81C227.259 210.81 226.742 211.327 226.742 211.965C226.742 212.602 227.259 213.119 227.896 213.119Z" fill="white" stroke="#263238" stroke-width="0.76" stroke-linecap="round" stroke-linejoin="round"/>
<path d="M229.479 213.793C229.479 214.02 229.412 214.241 229.287 214.428C229.161 214.616 228.983 214.763 228.774 214.849C228.565 214.936 228.335 214.959 228.113 214.915C227.892 214.87 227.688 214.762 227.528 214.602C227.368 214.442 227.259 214.238 227.215 214.016C227.171 213.795 227.194 213.565 227.28 213.356C227.367 213.147 227.513 212.969 227.701 212.843C227.889 212.717 228.11 212.65 228.336 212.65C228.64 212.65 228.93 212.771 229.145 212.985C229.359 213.2 229.479 213.49 229.479 213.793Z" fill="white" stroke="#263238" stroke-width="0.76" stroke-linecap="round" stroke-linejoin="round"/>
<path d="M229.799 216.137C230.437 216.137 230.954 215.62 230.954 214.982C230.954 214.345 230.437 213.828 229.799 213.828C229.162 213.828 228.645 214.345 228.645 214.982C228.645 215.62 229.162 216.137 229.799 216.137Z" fill="white" stroke="#263238" stroke-width="0.76" stroke-linecap="round" stroke-linejoin="round"/>
<path d="M234.823 214.788C234.823 215.014 234.756 215.235 234.631 215.423C234.505 215.611 234.326 215.758 234.118 215.844C233.909 215.931 233.679 215.953 233.457 215.909C233.235 215.865 233.032 215.756 232.872 215.596C232.712 215.436 232.603 215.233 232.559 215.011C232.515 214.789 232.538 214.559 232.624 214.351C232.711 214.142 232.857 213.963 233.045 213.838C233.233 213.712 233.454 213.645 233.68 213.645C233.983 213.645 234.274 213.765 234.488 213.98C234.703 214.194 234.823 214.485 234.823 214.788Z" fill="white" stroke="#263238" stroke-width="0.76" stroke-linecap="round" stroke-linejoin="round"/>
<path d="M233.034 215.377C233.034 215.603 232.967 215.824 232.842 216.012C232.716 216.2 232.538 216.346 232.329 216.433C232.12 216.519 231.89 216.542 231.668 216.498C231.446 216.454 231.243 216.345 231.083 216.185C230.923 216.025 230.814 215.821 230.77 215.6C230.726 215.378 230.749 215.148 230.835 214.939C230.922 214.73 231.068 214.552 231.256 214.426C231.444 214.301 231.665 214.234 231.891 214.234C232.194 214.234 232.485 214.354 232.699 214.568C232.914 214.783 233.034 215.074 233.034 215.377Z" fill="white" stroke="#263238" stroke-width="0.76" stroke-linecap="round" stroke-linejoin="round"/>
<path d="M250.128 203.192C250.128 203.192 244.87 220.6 241.79 228.573C238.709 236.546 230.56 254.114 230.56 254.114C230.56 254.114 222.953 243.61 221.684 230.745C220.415 217.88 225.713 206.055 225.713 206.055C225.713 206.055 211.734 210.862 208.293 212.13C204.853 213.399 200.938 215.222 199.492 218.663C198.046 222.103 181.878 267.751 181.152 269.563C180.426 271.374 178.98 271.557 180.975 274.638C182.969 277.718 192.565 277.895 194.377 276.266C196.188 274.638 206.647 259.201 206.647 259.201L210.454 266.631L212.082 289.091L211.722 292.898H260.467L259.896 279.673C259.896 279.673 278.024 234.031 279.476 226.241C280.928 218.451 278.75 214.285 275.475 211.953C272.201 209.621 250.128 203.192 250.128 203.192Z" fill="#33B55B" stroke="#263238" stroke-width="0.76" stroke-linecap="round" stroke-linejoin="round"/>
<path d="M219.226 216.966C218.818 216.853 218.382 216.901 218.008 217.099C217.634 217.298 217.35 217.633 217.215 218.034C216.683 219.509 216.277 220.852 216.277 220.852C216.277 220.852 214.403 223.538 213.991 224.852C213.58 226.167 212.517 236.923 212.248 237.866C211.979 238.809 211.042 243.633 211.042 243.633L209.568 245.919L213.454 252.623C213.454 252.623 215.603 252.491 217.615 249.405C219.626 246.319 219.626 246.587 220.026 242.701C220.426 238.815 220.832 217.617 220.832 217.617C220.832 217.617 220.032 216.697 219.226 216.966Z" fill="white" stroke="#263238" stroke-width="0.76" stroke-linecap="round" stroke-linejoin="round"/>
<path d="M227.142 250.628C227.142 250.628 226.742 247.81 227.411 246.873C228.079 245.936 229.422 245.799 229.697 242.718C229.971 239.638 229.028 236.677 229.565 233.328C230.102 229.979 231.577 230.642 231.44 229.167C231.303 227.693 229.154 227.424 228.491 228.499C227.828 229.573 227.148 230.911 227.148 230.911C227.148 230.911 226.61 222.338 226.342 219.509C226.073 216.68 224.199 215.891 224.199 215.891C224.199 215.891 223.393 213.605 222.318 214.148C221.244 214.691 221.112 215.354 221.112 215.354C220.364 215.73 219.718 216.283 219.232 216.965C218.899 217.723 218.761 218.552 218.832 219.377C218.038 220.113 217.439 221.034 217.089 222.058C216.689 223.538 215.077 233.059 214.94 236.814C214.803 240.569 214.94 247.142 215.614 248.348C216.289 249.554 218.026 252.102 218.026 252.102L219.101 255.326C219.101 255.326 224.193 251.165 227.142 250.628Z" fill="white" stroke="#263238" stroke-width="0.76" stroke-linecap="round" stroke-linejoin="round"/>
<path d="M218.826 219.377C218.826 219.377 219.632 219.777 219.495 221.663C219.358 223.549 218.426 232.128 218.426 232.128" fill="white"/>
<path d="M218.826 219.377C218.826 219.377 219.632 219.777 219.495 221.663C219.358 223.549 218.426 232.128 218.426 232.128" stroke="#263238" stroke-width="0.76" stroke-linecap="round" stroke-linejoin="round"/>
<path d="M221.107 215.354C221.107 215.354 222.175 214.725 221.907 217.068C221.638 219.412 221.644 231.065 221.644 231.065" fill="white"/>
<path d="M221.107 215.354C221.107 215.354 222.175 214.725 221.907 217.068C221.638 219.412 221.644 231.065 221.644 231.065" stroke="#263238" stroke-width="0.76" stroke-linecap="round" stroke-linejoin="round"/>
<path d="M224.193 215.891C224.193 215.891 224.73 226.75 224.461 229.842L224.193 215.891Z" fill="white"/>
<path d="M224.193 215.891C224.193 215.891 224.73 226.75 224.461 229.842" stroke="#263238" stroke-width="0.76" stroke-linecap="round" stroke-linejoin="round"/>
<path d="M227.142 230.911C227.142 230.911 227.794 234.854 228.056 235.791L227.142 230.911Z" fill="white"/>
<path d="M227.142 230.911C227.142 230.911 227.794 234.854 228.056 235.791" stroke="#263238" stroke-width="0.76" stroke-linecap="round" stroke-linejoin="round"/>
<path d="M209.916 244.216L215.712 252.051C215.712 252.051 203.241 271.037 201.292 274.135C199.343 277.232 193.034 284.479 189.479 285.394C185.924 286.308 183.975 285.394 182.049 282.645C180.123 279.896 177.231 275.215 178.494 272.089C179.757 268.962 189.273 260.024 192.256 258.418C195.24 256.812 209.916 244.216 209.916 244.216Z" fill="#33B55B" stroke="#263238" stroke-width="0.76" stroke-linecap="round" stroke-linejoin="round"/>
<path d="M271.532 211.502C271.532 211.502 274.39 211.73 275.498 211.902C276.607 212.073 278.647 214.828 279.447 216.548C280.248 218.268 280.253 224.807 279.905 228.476C279.556 232.145 272.006 259.584 270.4 268.071C268.794 276.558 263.279 289.217 262.25 290.697C261.222 292.177 259.267 293.555 257.318 293.446C255.369 293.338 243.276 284.913 238.801 280.558C234.326 276.203 217.232 253.697 217.232 253.697C217.232 253.697 219.415 250.268 221.364 249.125C223.313 247.982 227.445 247.29 227.445 247.29C227.445 247.29 235.012 253.828 240.864 258.629C244.512 261.615 248.392 264.306 252.466 266.676C252.466 266.676 254.992 252.057 255.324 250.336C255.655 248.616 258.381 233.825 258.381 233.825" fill="#33B55B"/>
<path d="M271.532 211.502C271.532 211.502 274.39 211.73 275.498 211.902C276.607 212.073 278.647 214.828 279.447 216.548C280.248 218.268 280.253 224.807 279.905 228.476C279.556 232.145 272.006 259.584 270.4 268.071C268.794 276.558 263.279 289.217 262.25 290.697C261.222 292.177 259.267 293.555 257.318 293.446C255.369 293.338 243.276 284.913 238.801 280.558C234.326 276.203 217.232 253.697 217.232 253.697C217.232 253.697 219.415 250.268 221.364 249.125C223.313 247.982 227.445 247.29 227.445 247.29C227.445 247.29 235.012 253.828 240.864 258.629C244.512 261.615 248.392 264.306 252.466 266.676C252.466 266.676 254.992 252.057 255.324 250.336C255.655 248.616 258.381 233.825 258.381 233.825" stroke="#263238" stroke-width="0.76" stroke-linecap="round" stroke-linejoin="round"/>
<path d="M252.466 266.676C252.466 266.676 256.598 268.282 257.61 274.363" stroke="#263238" stroke-width="0.76" stroke-linecap="round" stroke-linejoin="round"/>
<path d="M252.677 268.168C252.677 268.168 255.089 269.883 254.518 273.672" stroke="#263238" stroke-width="0.76" stroke-linecap="round" stroke-linejoin="round"/>
<path d="M203.813 248.782C203.226 246.03 203.424 243.169 204.384 240.524C205.99 236.163 209.528 224.001 209.528 224.001" stroke="#263238" stroke-width="0.76" stroke-linecap="round" stroke-linejoin="round"/>
<g opacity="0.3">
<path d="M295.759 147.566C305.474 153.778 300.434 158.814 294.221 149.103C288.014 158.819 282.979 153.778 292.689 147.566C282.974 141.359 288.014 136.324 294.221 146.034C300.434 136.324 305.463 141.359 295.759 147.566Z" stroke="black" stroke-width="0.76" stroke-miterlimit="10"/>
<path d="M295.33 146.486C306.583 144.011 306.583 151.126 295.33 148.652C297.805 159.911 290.689 159.911 293.164 148.652C281.905 151.126 281.905 144.011 293.164 146.486C290.666 135.227 297.782 135.227 295.33 146.486Z" stroke="black" stroke-width="0.76" stroke-miterlimit="10"/>
</g>
<g opacity="0.3">
<path d="M218.986 118.035C225.416 122.145 222.078 125.465 217.969 119.053C213.86 125.482 210.539 122.145 216.952 118.035C210.522 113.926 213.86 110.606 217.969 117.018C222.078 110.606 225.416 113.932 218.986 118.035Z" stroke="black" stroke-width="0.76" stroke-miterlimit="10"/>
<path d="M217.969 119.058C218.531 119.058 218.986 118.603 218.986 118.041C218.986 117.479 218.531 117.024 217.969 117.024C217.407 117.024 216.952 117.479 216.952 118.041C216.952 118.603 217.407 119.058 217.969 119.058Z" stroke="black" stroke-width="0.76" stroke-miterlimit="10"/>
</g>
<g opacity="0.3">
<path d="M182.055 230.413C182.617 230.413 183.072 229.958 183.072 229.396C183.072 228.834 182.617 228.379 182.055 228.379C181.493 228.379 181.037 228.834 181.037 229.396C181.037 229.958 181.493 230.413 182.055 230.413Z" stroke="black" stroke-width="0.76" stroke-miterlimit="10"/>
<path d="M182.775 228.682C190.204 227.041 190.204 231.756 182.775 230.116C184.415 237.546 179.7 237.546 181.34 230.116C173.882 231.756 173.882 227.041 181.34 228.682C179.7 221.229 184.415 221.229 182.775 228.682Z" stroke="black" stroke-width="0.76" stroke-miterlimit="10"/>
</g>
<g opacity="0.3">
<path d="M277.333 191.893C277.895 191.893 278.35 191.437 278.35 190.875C278.35 190.314 277.895 189.858 277.333 189.858C276.771 189.858 276.315 190.314 276.315 190.875C276.315 191.437 276.771 191.893 277.333 191.893Z" stroke="black" stroke-width="0.76" stroke-miterlimit="10"/>
<path d="M277.333 191.893C277.895 191.893 278.35 191.437 278.35 190.875C278.35 190.314 277.895 189.858 277.333 189.858C276.771 189.858 276.315 190.314 276.315 190.875C276.315 191.437 276.771 191.893 277.333 191.893Z" stroke="black" stroke-width="0.76" stroke-miterlimit="10"/>
</g>
<g opacity="0.3">
<path d="M181.666 149.355C191.993 155.961 186.638 161.311 180.031 150.983C173.425 161.311 168.07 155.961 178.403 149.355C168.07 142.748 173.425 137.393 180.031 147.72C186.638 137.393 191.993 142.748 181.666 149.355Z" stroke="black" stroke-width="0.76" stroke-miterlimit="10"/>
<path d="M180.031 150.983C180.931 150.983 181.66 150.254 181.66 149.355C181.66 148.455 180.931 147.726 180.031 147.726C179.132 147.726 178.403 148.455 178.403 149.355C178.403 150.254 179.132 150.983 180.031 150.983Z" stroke="black" stroke-width="0.76" stroke-miterlimit="10"/>
</g>
<g opacity="0.3">
<path d="M300.125 112.581C304.154 97.891 295.513 82.7155 280.822 78.6857C266.132 74.6559 250.957 83.2978 246.927 97.988C242.897 112.678 251.539 127.854 266.229 131.884C280.919 135.913 296.095 127.271 300.125 112.581Z" stroke="black" stroke-width="0.76" stroke-linecap="round" stroke-linejoin="round"/>
<path d="M282.583 127.809C295.027 122.806 301.059 108.663 296.057 96.2195C291.055 83.7757 276.912 77.7433 264.468 82.7456C252.024 87.748 245.992 101.891 250.994 114.335C255.996 126.778 270.139 132.811 282.583 127.809Z" stroke="black" stroke-width="0.76" stroke-linecap="round" stroke-linejoin="round"/>
<path d="M275.218 105.285C275.218 105.624 275.118 105.955 274.929 106.237C274.741 106.519 274.473 106.739 274.16 106.869C273.846 106.998 273.502 107.032 273.169 106.966C272.836 106.9 272.531 106.737 272.291 106.497C272.051 106.257 271.888 105.952 271.822 105.619C271.756 105.287 271.79 104.942 271.919 104.628C272.049 104.315 272.269 104.047 272.551 103.859C272.833 103.671 273.164 103.57 273.503 103.57C273.958 103.57 274.394 103.751 274.716 104.072C275.037 104.394 275.218 104.83 275.218 105.285Z" stroke="black" stroke-width="0.76" stroke-linecap="round" stroke-linejoin="round"/>
<path d="M275.327 104.782L281.202 102.947" stroke="black" stroke-width="0.76" stroke-linecap="round" stroke-linejoin="round"/>
<path d="M273.526 106.976V124.613" stroke="black" stroke-width="0.76" stroke-linecap="round" stroke-linejoin="round"/>
</g>
<path d="M185.072 304.156L220.038 295.349C220.581 295.218 220.787 293.555 220.232 293.555L168.652 294.423L185.072 304.156Z" fill="white" stroke="#263238" stroke-width="0.76" stroke-linecap="round" stroke-linejoin="round"/>
<path d="M185.072 303.27L220.038 294.463C220.151 294.438 220.252 294.371 220.319 294.276C220.386 294.181 220.415 294.064 220.401 293.949C220.387 293.833 220.33 293.727 220.241 293.651C220.153 293.575 220.04 293.534 219.924 293.538H168.652L185.072 303.27Z" fill="white" stroke="#263238" stroke-width="0.76" stroke-linecap="round" stroke-linejoin="round"/>
<path d="M181.546 296.669H199.194L179.534 300.693L181.546 296.669Z" fill="#949494" stroke="#263238" stroke-width="0.76" stroke-linecap="round" stroke-linejoin="round"/>
<path d="M185.072 304.156H105.631L96.4866 256.989C96.4091 256.588 96.4212 256.175 96.5221 255.779C96.6229 255.383 96.81 255.014 97.07 254.699C97.3299 254.384 97.6563 254.13 98.0257 253.956C98.3952 253.782 98.7986 253.691 99.207 253.691H173.025C173.668 253.692 174.29 253.916 174.786 254.326C175.281 254.736 175.618 255.306 175.739 255.937L185.072 304.156Z" fill="white" stroke="#263238" stroke-width="0.76" stroke-linecap="round" stroke-linejoin="round"/>
<path d="M183.826 304.156H104.442L95.2979 256.989C95.2205 256.588 95.2325 256.176 95.333 255.78C95.4335 255.385 95.6201 255.016 95.8794 254.701C96.1387 254.386 96.4644 254.132 96.8331 253.958C97.2019 253.783 97.6046 253.692 98.0126 253.691H171.762C172.405 253.691 173.029 253.916 173.525 254.326C174.022 254.735 174.36 255.305 174.482 255.937L183.826 304.156Z" fill="#C2C2C2" stroke="#263238" stroke-width="0.76" stroke-linecap="round" stroke-linejoin="round"/>
<path d="M136.527 285.245C139.728 285.245 142.323 282.65 142.323 279.45C142.323 276.249 139.728 273.655 136.527 273.655C133.327 273.655 130.732 276.249 130.732 279.45C130.732 282.65 133.327 285.245 136.527 285.245Z" fill="#999999"/>
<path d="M296.999 279.147C296.999 279.147 300.068 277.53 301.571 278.69C303.074 279.85 304.137 282.965 304.137 285.782C304.137 288.6 302.994 291.417 300.988 292.749C298.982 294.081 295.347 293.081 295.347 293.081L295.513 290.257C295.513 290.257 298.336 291.4 299.994 289.263C301.651 287.125 300.656 282.976 299.662 281.97C298.668 280.964 296.347 283.296 296.347 283.296L296.999 279.147Z" fill="white" stroke="#263238" stroke-width="0.76" stroke-linecap="round" stroke-linejoin="round"/>
<path d="M298.445 274.363H276.916L279.07 300.973H296.296L298.445 274.363Z" fill="white" stroke="#263238" stroke-width="0.76" stroke-linecap="round" stroke-linejoin="round"/>
<path d="M282.122 255.72C282.122 259.887 279.836 259.887 279.836 264.053C279.836 268.219 282.122 268.225 282.122 272.391" stroke="#263238" stroke-width="0.76" stroke-linecap="round" stroke-linejoin="round"/>
<path d="M286.534 260.664C286.019 261.717 285.768 262.881 285.803 264.053C285.803 268.225 288.089 268.225 288.089 272.391" stroke="#263238" stroke-width="0.76" stroke-linecap="round" stroke-linejoin="round"/>
<path d="M288.089 255.72C288.116 256.723 287.937 257.721 287.563 258.652" stroke="#263238" stroke-width="0.76" stroke-linecap="round" stroke-linejoin="round"/>
<path d="M292.324 267.053C293.004 268.654 294.038 269.557 294.038 272.391" stroke="#263238" stroke-width="0.76" stroke-linecap="round" stroke-linejoin="round"/>
<path d="M294.061 255.72C294.061 259.887 291.775 259.887 291.775 264.053" stroke="#263238" stroke-width="0.76" stroke-linecap="round" stroke-linejoin="round"/>
</svg>
