<svg width="121" height="35" viewBox="0 0 121 35" fill="none" xmlns="http://www.w3.org/2000/svg">
<g clip-path="url(#clip0_2227_8809)">
<path d="M61.0855 18.9343C58.994 18.9343 57.2843 20.5278 57.2843 22.7189C57.2843 24.91 58.9885 26.5035 61.0855 26.5035C63.1825 26.5035 64.8867 24.8989 64.8867 22.7189C64.8867 20.5389 63.1825 18.9343 61.0855 18.9343ZM61.0855 25.0151C59.9402 25.0151 58.9497 24.0689 58.9497 22.7189C58.9497 21.3688 59.9402 20.4227 61.0855 20.4227C62.2308 20.4227 63.2212 21.3522 63.2212 22.7189C63.2212 24.0855 62.2308 25.0151 61.0855 25.0151ZM52.797 18.9343C50.7055 18.9343 48.9958 20.5278 48.9958 22.7189C48.9958 24.91 50.7 26.5035 52.797 26.5035C54.894 26.5035 56.5982 24.8989 56.5982 22.7189C56.5982 20.5389 54.894 18.9343 52.797 18.9343ZM52.797 25.0151C51.6517 25.0151 50.6613 24.0689 50.6613 22.7189C50.6613 21.3688 51.6517 20.4227 52.797 20.4227C53.9423 20.4227 54.9328 21.3522 54.9328 22.7189C54.9328 24.0855 53.9423 25.0151 52.797 25.0151ZM42.9371 20.0962V21.7008H46.7771C46.6609 22.6027 46.3621 23.2611 45.9028 23.7203C45.344 24.2792 44.4698 24.8934 42.9371 24.8934C40.569 24.8934 38.721 22.9845 38.721 20.6218C38.721 18.2592 40.569 16.3503 42.9371 16.3503C44.2153 16.3503 45.1448 16.8539 45.8309 17.4957L46.9652 16.3614C46.0024 15.4429 44.7298 14.7402 42.9371 14.7402C39.6948 14.7402 36.9725 17.3795 36.9725 20.6163C36.9725 23.8531 39.6948 26.4924 42.9371 26.4924C44.6856 26.4924 46.008 25.917 47.0371 24.8436C48.0995 23.7812 48.4259 22.2928 48.4259 21.0866C48.4259 20.7159 48.3982 20.3673 48.3374 20.0851H42.9316L42.9371 20.0962ZM83.2564 21.3411C82.941 20.4946 81.9782 18.9343 80.014 18.9343C78.0498 18.9343 76.4452 20.4669 76.4452 22.7189C76.4452 24.838 78.0498 26.5035 80.2021 26.5035C81.9395 26.5035 82.941 25.4411 83.3559 24.827L82.0668 23.9693C81.6352 24.6001 81.0487 25.0151 80.2021 25.0151C79.3556 25.0151 78.7525 24.6278 78.3652 23.8697L83.4279 21.7783L83.2564 21.3467V21.3411ZM78.094 22.6027C78.0498 21.142 79.2283 20.395 80.0749 20.395C80.7333 20.395 81.2921 20.727 81.4803 21.1973L78.0996 22.6027H78.094ZM73.983 26.2766H75.6484V15.1497H73.983V26.2766ZM71.2552 19.7808H71.1999C70.8292 19.3382 70.1099 18.9343 69.208 18.9343C67.3157 18.9343 65.5783 20.5997 65.5783 22.7355C65.5783 24.8712 67.3157 26.5035 69.208 26.5035C70.1099 26.5035 70.8292 26.0996 71.1999 25.6458H71.2552V26.1881C71.2552 27.6377 70.4806 28.4124 69.2356 28.4124C68.2176 28.4124 67.5868 27.682 67.3268 27.0623L65.8771 27.6654C66.2921 28.6669 67.3987 29.9007 69.2301 29.9007C71.1777 29.9007 72.8266 28.7554 72.8266 25.9557V19.1611H71.2497V19.7753L71.2552 19.7808ZM69.3518 25.0151C68.2065 25.0151 67.2438 24.0523 67.2438 22.7355C67.2438 21.4186 68.2065 20.4282 69.3518 20.4282C70.4972 20.4282 71.3714 21.402 71.3714 22.7355C71.3714 24.0689 70.4806 25.0151 69.3518 25.0151ZM91.0469 15.1497H87.0686V26.2766H88.7285V22.0604H91.0469C92.8894 22.0604 94.6987 20.727 94.6987 18.6078C94.6987 16.4887 92.8894 15.1552 91.0469 15.1552V15.1497ZM91.0911 20.5112H88.7285V16.6989H91.0911C92.3305 16.6989 93.0388 17.7281 93.0388 18.6078C93.0388 19.4876 92.3361 20.5167 91.0911 20.5167V20.5112ZM101.355 18.9121C100.154 18.9121 98.9093 19.4433 98.3947 20.6163L99.8665 21.2305C100.182 20.6163 100.768 20.4171 101.383 20.4171C102.24 20.4171 103.114 20.9317 103.131 21.8502V21.9664C102.832 21.7949 102.185 21.5348 101.399 21.5348C99.8112 21.5348 98.1955 22.409 98.1955 24.0413C98.1955 25.5297 99.4958 26.4869 100.957 26.4869C102.074 26.4869 102.688 25.9834 103.076 25.3969H103.131V26.2545H104.736V21.9885C104.736 20.0132 103.264 18.9121 101.36 18.9121H101.355ZM101.156 25.0095C100.613 25.0095 99.8554 24.7384 99.8554 24.0634C99.8554 23.2058 100.802 22.8738 101.615 22.8738C102.345 22.8738 102.688 23.0287 103.131 23.2445C103.004 24.2737 102.113 25.004 101.156 25.004V25.0095ZM110.573 19.1556L108.67 23.9804H108.614L106.639 19.1556H104.852L107.812 25.8948L106.124 29.6462H107.856L112.421 19.1556H110.573ZM95.6116 26.2766H97.2715V15.1497H95.6116V26.2766Z" fill="white"/>
<path d="M9.73354 6.29687C9.47349 6.56798 9.3241 6.99403 9.3241 7.54733V27.2117C9.3241 27.765 9.47902 28.1855 9.73354 28.4622L9.79994 28.5286L20.8162 17.5123V17.2523L9.79994 6.23047L9.73354 6.29687Z" fill="#5BC9F4"/>
<path d="M24.4902 21.1802L20.8163 17.5063V17.2462L24.4902 13.5723L24.5732 13.6221L28.9222 16.0953C30.1671 16.8036 30.1671 17.9544 28.9222 18.6627L24.5732 21.1359L24.4902 21.1857V21.1802Z" fill="url(#paint0_linear_2227_8809)"/>
<path d="M24.5729 21.13L20.8159 17.373L9.73328 28.4557C10.1427 28.8873 10.8178 28.9426 11.5813 28.511L24.5729 21.13Z" fill="url(#paint1_linear_2227_8809)"/>
<path d="M24.5729 13.6218L11.5813 6.24069C10.8178 5.80911 10.1427 5.85891 9.73328 6.29602L20.8159 17.3787L24.5729 13.6218Z" fill="url(#paint2_linear_2227_8809)"/>
<path d="M41.2509 6.9217C40.9189 6.62292 40.4763 6.4348 39.9894 6.4348C38.8939 6.4348 38.0528 7.33668 38.0528 8.44882C38.0528 9.56096 38.8939 10.4518 39.9894 10.4518C40.93 10.4518 41.6161 9.90401 41.6604 9.04085H40.172V8.42669H42.4682C42.4682 10.2637 41.4888 11.1323 39.9894 11.1323C38.4899 11.1323 37.3446 9.93167 37.3446 8.44882C37.3446 6.96597 38.501 5.75977 39.9894 5.75977C40.681 5.75977 41.3063 6.02535 41.76 6.45139L41.2509 6.9217Z" fill="white"/>
<path d="M46.5297 5.82031V6.47874H44.1339V8.14972H46.2254V8.81368H44.1339V10.3961H46.6016V11.0546H43.4257V5.82031H46.5242H46.5297Z" fill="white"/>
<path d="M51.1162 5.82031V6.48981H49.5282V11.0546H48.8144V6.48981H47.2264V5.82031H51.1162Z" fill="white"/>
<path d="M54.503 5.82031V11.0546H53.7948V5.82031H54.503Z" fill="white"/>
<path d="M59.3212 5.82031V6.48981H57.7333V11.0546H57.0195V6.48981H55.4315V5.82031H59.3212Z" fill="white"/>
<path d="M64.307 5.75977C65.8064 5.75977 66.9683 6.96043 66.9683 8.44882C66.9683 9.93721 65.8064 11.1323 64.307 11.1323C62.8075 11.1323 61.6622 9.93167 61.6622 8.44882C61.6622 6.96597 62.8186 5.75977 64.307 5.75977ZM64.307 10.4462C65.408 10.4462 66.2546 9.55543 66.2546 8.44882C66.2546 7.34221 65.4136 6.44033 64.307 6.44033C63.2004 6.44033 62.3704 7.33668 62.3704 8.44882C62.3704 9.56096 63.2114 10.4462 64.307 10.4462Z" fill="white"/>
<path d="M71.1456 11.0546L68.7608 7.10951V11.0546H68.0526V5.82031H68.7498L71.1124 9.73217V5.82031H71.8206V11.0546H71.1456Z" fill="white"/>
</g>
<path d="M1.0695 4.82883C1.0695 2.31473 3.10758 0.276652 5.62168 0.276652H115.478C117.992 0.276652 120.03 2.31473 120.03 4.82883V29.7194C120.03 32.2335 117.992 34.2716 115.478 34.2716H5.62168C3.10758 34.2716 1.0695 32.2335 1.0695 29.7194V4.82883Z" stroke="white" stroke-width="0.553303"/>
<defs>
<linearGradient id="paint0_linear_2227_8809" x1="28.1144" y1="17.3735" x2="6.60192" y2="17.3735" gradientUnits="userSpaceOnUse">
<stop stop-color="#FEE000"/>
<stop offset="0.42" stop-color="#FBBC0E"/>
<stop offset="0.78" stop-color="#F9A318"/>
<stop offset="1" stop-color="#F99B1C"/>
</linearGradient>
<linearGradient id="paint1_linear_2227_8809" x1="22.5312" y1="19.4147" x2="2.29688" y2="39.6546" gradientUnits="userSpaceOnUse">
<stop stop-color="#EF4547"/>
<stop offset="1" stop-color="#C6186D"/>
</linearGradient>
<linearGradient id="paint2_linear_2227_8809" x1="2.20282" y1="-4.99137" x2="18.73" y2="11.5303" gradientUnits="userSpaceOnUse">
<stop stop-color="#279E6F"/>
<stop offset="0.04" stop-color="#2B9F6E"/>
<stop offset="0.46" stop-color="#52B16B"/>
<stop offset="0.8" stop-color="#6BBC69"/>
<stop offset="1" stop-color="#74C169"/>
</linearGradient>
<clipPath id="clip0_2227_8809">
<path d="M0.792847 4.82883C0.792847 2.16194 2.95479 0 5.62168 0H115.478C118.144 0 120.306 2.16194 120.306 4.82883V29.7194C120.306 32.3863 118.144 34.5483 115.478 34.5483H5.62168C2.95479 34.5483 0.792847 32.3863 0.792847 29.7194V4.82883Z" fill="white"/>
</clipPath>
</defs>
</svg>
