<svg width="224" height="73" viewBox="0 0 224 73" fill="none" xmlns="http://www.w3.org/2000/svg">
<rect x="0.5" y="0.5" width="223.5" height="72" rx="12" fill="#1C1C1C"/>
<g clip-path="url(#clip0_2369_2688)">
<path d="M18.7122 20.9946C18.3504 21.3775 18.1365 21.9721 18.1365 22.7425V50.2576C18.1365 51.0286 18.3505 51.6225 18.7122 52.0055L18.8043 52.0952L34.2177 36.6819V36.3182L18.8043 20.9043L18.7122 20.9946Z" fill="url(#paint0_linear_2369_2688)"/>
<path d="M39.3553 41.8218L34.2178 36.6818V36.3181L39.3565 31.1794L39.4723 31.2455L45.5595 34.7043C47.2983 35.6921 47.2983 37.3085 45.5595 38.2969L39.4723 41.7558L39.3553 41.8218Z" fill="url(#paint1_linear_2369_2688)"/>
<path d="M39.4723 41.7551L34.2178 36.5L18.7123 52.0054C19.2856 52.6121 20.2316 52.6872 21.2977 52.0817L39.4723 41.7551Z" fill="url(#paint2_linear_2369_2688)"/>
<path d="M39.4723 31.2449L21.2977 20.9182C20.2316 20.3127 19.2856 20.3878 18.7123 20.9946L34.2178 36.5001L39.4723 31.2449Z" fill="url(#paint3_linear_2369_2688)"/>
</g>
<path d="M69.346 27.33H65.09L64.306 29.5H62.962L66.49 19.798H67.96L71.474 29.5H70.13L69.346 27.33ZM68.982 26.294L67.218 21.366L65.454 26.294H68.982ZM75.8676 28.324L78.2476 21.828H79.6056L76.5956 29.5H75.1116L72.1016 21.828H73.4736L75.8676 28.324ZM80.3833 25.636C80.3833 24.852 80.5419 24.166 80.8593 23.578C81.1766 22.9807 81.6106 22.5187 82.1613 22.192C82.7213 21.8653 83.3419 21.702 84.0233 21.702C84.6953 21.702 85.2786 21.8467 85.7733 22.136C86.2679 22.4253 86.6366 22.7893 86.8793 23.228V21.828H88.1673V29.5H86.8793V28.072C86.6273 28.52 86.2493 28.8933 85.7453 29.192C85.2506 29.4813 84.6719 29.626 84.0093 29.626C83.3279 29.626 82.7119 29.458 82.1613 29.122C81.6106 28.786 81.1766 28.3147 80.8593 27.708C80.5419 27.1013 80.3833 26.4107 80.3833 25.636ZM86.8793 25.65C86.8793 25.0713 86.7626 24.5673 86.5293 24.138C86.2959 23.7087 85.9786 23.382 85.5773 23.158C85.1853 22.9247 84.7513 22.808 84.2753 22.808C83.7993 22.808 83.3653 22.92 82.9733 23.144C82.5813 23.368 82.2686 23.6947 82.0353 24.124C81.8019 24.5533 81.6853 25.0573 81.6853 25.636C81.6853 26.224 81.8019 26.7373 82.0353 27.176C82.2686 27.6053 82.5813 27.9367 82.9733 28.17C83.3653 28.394 83.7993 28.506 84.2753 28.506C84.7513 28.506 85.1853 28.394 85.5773 28.17C85.9786 27.9367 86.2959 27.6053 86.5293 27.176C86.7626 26.7373 86.8793 26.2287 86.8793 25.65ZM90.9782 20.582C90.7355 20.582 90.5302 20.498 90.3622 20.33C90.1942 20.162 90.1102 19.9567 90.1102 19.714C90.1102 19.4713 90.1942 19.266 90.3622 19.098C90.5302 18.93 90.7355 18.846 90.9782 18.846C91.2115 18.846 91.4075 18.93 91.5662 19.098C91.7342 19.266 91.8182 19.4713 91.8182 19.714C91.8182 19.9567 91.7342 20.162 91.5662 20.33C91.4075 20.498 91.2115 20.582 90.9782 20.582ZM91.5942 21.828V29.5H90.3202V21.828H91.5942ZM95.0395 19.14V29.5H93.7655V19.14H95.0395ZM96.7348 25.636C96.7348 24.852 96.8935 24.166 97.2108 23.578C97.5281 22.9807 97.9621 22.5187 98.5128 22.192C99.0728 21.8653 99.6935 21.702 100.375 21.702C101.047 21.702 101.63 21.8467 102.125 22.136C102.619 22.4253 102.988 22.7893 103.231 23.228V21.828H104.519V29.5H103.231V28.072C102.979 28.52 102.601 28.8933 102.097 29.192C101.602 29.4813 101.023 29.626 100.361 29.626C99.6795 29.626 99.0635 29.458 98.5128 29.122C97.9621 28.786 97.5281 28.3147 97.2108 27.708C96.8935 27.1013 96.7348 26.4107 96.7348 25.636ZM103.231 25.65C103.231 25.0713 103.114 24.5673 102.881 24.138C102.647 23.7087 102.33 23.382 101.929 23.158C101.537 22.9247 101.103 22.808 100.627 22.808C100.151 22.808 99.7168 22.92 99.3248 23.144C98.9328 23.368 98.6201 23.6947 98.3868 24.124C98.1535 24.5533 98.0368 25.0573 98.0368 25.636C98.0368 26.224 98.1535 26.7373 98.3868 27.176C98.6201 27.6053 98.9328 27.9367 99.3248 28.17C99.7168 28.394 100.151 28.506 100.627 28.506C101.103 28.506 101.537 28.394 101.929 28.17C102.33 27.9367 102.647 27.6053 102.881 27.176C103.114 26.7373 103.231 26.2287 103.231 25.65ZM107.946 23.256C108.207 22.7987 108.59 22.4253 109.094 22.136C109.598 21.8467 110.172 21.702 110.816 21.702C111.506 21.702 112.127 21.8653 112.678 22.192C113.228 22.5187 113.662 22.9807 113.98 23.578C114.297 24.166 114.456 24.852 114.456 25.636C114.456 26.4107 114.297 27.1013 113.98 27.708C113.662 28.3147 113.224 28.786 112.664 29.122C112.113 29.458 111.497 29.626 110.816 29.626C110.153 29.626 109.57 29.4813 109.066 29.192C108.571 28.9027 108.198 28.534 107.946 28.086V29.5H106.672V19.14H107.946V23.256ZM113.154 25.636C113.154 25.0573 113.037 24.5533 112.804 24.124C112.57 23.6947 112.253 23.368 111.852 23.144C111.46 22.92 111.026 22.808 110.55 22.808C110.083 22.808 109.649 22.9247 109.248 23.158C108.856 23.382 108.538 23.7133 108.296 24.152C108.062 24.5813 107.946 25.0807 107.946 25.65C107.946 26.2287 108.062 26.7373 108.296 27.176C108.538 27.6053 108.856 27.9367 109.248 28.17C109.649 28.394 110.083 28.506 110.55 28.506C111.026 28.506 111.46 28.394 111.852 28.17C112.253 27.9367 112.57 27.6053 112.804 27.176C113.037 26.7373 113.154 26.224 113.154 25.636ZM117.407 19.14V29.5H116.133V19.14H117.407ZM126.578 25.37C126.578 25.6127 126.564 25.8693 126.536 26.14H120.404C120.451 26.896 120.707 27.4887 121.174 27.918C121.65 28.338 122.224 28.548 122.896 28.548C123.447 28.548 123.904 28.422 124.268 28.17C124.641 27.9087 124.903 27.5633 125.052 27.134H126.424C126.219 27.8713 125.808 28.4733 125.192 28.94C124.576 29.3973 123.811 29.626 122.896 29.626C122.168 29.626 121.515 29.4627 120.936 29.136C120.367 28.8093 119.919 28.3473 119.592 27.75C119.265 27.1433 119.102 26.4433 119.102 25.65C119.102 24.8567 119.261 24.1613 119.578 23.564C119.895 22.9667 120.339 22.5093 120.908 22.192C121.487 21.8653 122.149 21.702 122.896 21.702C123.624 21.702 124.268 21.8607 124.828 22.178C125.388 22.4953 125.817 22.934 126.116 23.494C126.424 24.0447 126.578 24.67 126.578 25.37ZM125.262 25.104C125.262 24.6187 125.155 24.2033 124.94 23.858C124.725 23.5033 124.431 23.2373 124.058 23.06C123.694 22.8733 123.288 22.78 122.84 22.78C122.196 22.78 121.645 22.9853 121.188 23.396C120.74 23.8067 120.483 24.376 120.418 25.104H125.262ZM135.73 21.688C136.663 21.688 137.419 21.9727 137.998 22.542C138.577 23.102 138.866 23.914 138.866 24.978V29.5H137.606V25.16C137.606 24.3947 137.415 23.8113 137.032 23.41C136.649 22.9993 136.127 22.794 135.464 22.794C134.792 22.794 134.255 23.004 133.854 23.424C133.462 23.844 133.266 24.4553 133.266 25.258V29.5H131.992V21.828H133.266V22.92C133.518 22.528 133.859 22.2247 134.288 22.01C134.727 21.7953 135.207 21.688 135.73 21.688ZM144.293 29.626C143.574 29.626 142.921 29.4627 142.333 29.136C141.754 28.8093 141.297 28.3473 140.961 27.75C140.634 27.1433 140.471 26.4433 140.471 25.65C140.471 24.866 140.639 24.1753 140.975 23.578C141.32 22.9713 141.787 22.5093 142.375 22.192C142.963 21.8653 143.621 21.702 144.349 21.702C145.077 21.702 145.735 21.8653 146.323 22.192C146.911 22.5093 147.373 22.9667 147.709 23.564C148.054 24.1613 148.227 24.8567 148.227 25.65C148.227 26.4433 148.05 27.1433 147.695 27.75C147.35 28.3473 146.878 28.8093 146.281 29.136C145.684 29.4627 145.021 29.626 144.293 29.626ZM144.293 28.506C144.75 28.506 145.18 28.3987 145.581 28.184C145.982 27.9693 146.304 27.6473 146.547 27.218C146.799 26.7887 146.925 26.266 146.925 25.65C146.925 25.034 146.804 24.5113 146.561 24.082C146.318 23.6527 146.001 23.3353 145.609 23.13C145.217 22.9153 144.792 22.808 144.335 22.808C143.868 22.808 143.439 22.9153 143.047 23.13C142.664 23.3353 142.356 23.6527 142.123 24.082C141.89 24.5113 141.773 25.034 141.773 25.65C141.773 26.2753 141.885 26.8027 142.109 27.232C142.342 27.6613 142.65 27.9833 143.033 28.198C143.416 28.4033 143.836 28.506 144.293 28.506ZM160.122 21.828L157.728 29.5H156.412L154.564 23.41L152.716 29.5H151.4L148.992 21.828H150.294L152.058 28.268L153.962 21.828H155.264L157.126 28.282L158.862 21.828H160.122Z" fill="#6C6C6C"/>
<path d="M71.38 44.692C71.124 44.2227 70.772 43.8653 70.324 43.62C69.876 43.3747 69.3533 43.252 68.756 43.252C68.0947 43.252 67.508 43.4013 66.996 43.7C66.484 43.9987 66.084 44.4253 65.796 44.98C65.508 45.5347 65.364 46.1747 65.364 46.9C65.364 47.6467 65.508 48.2973 65.796 48.852C66.0947 49.4067 66.5053 49.8333 67.028 50.132C67.5507 50.4307 68.1587 50.58 68.852 50.58C69.7053 50.58 70.404 50.356 70.948 49.908C71.492 49.4493 71.8493 48.8147 72.02 48.004H68.18V46.292H74.228V48.244C74.0787 49.0227 73.7587 49.7427 73.268 50.404C72.7773 51.0653 72.1427 51.5987 71.364 52.004C70.596 52.3987 69.732 52.596 68.772 52.596C67.6947 52.596 66.7187 52.356 65.844 51.876C64.98 51.3853 64.2973 50.708 63.796 49.844C63.3053 48.98 63.06 47.9987 63.06 46.9C63.06 45.8013 63.3053 44.82 63.796 43.956C64.2973 43.0813 64.98 42.404 65.844 41.924C66.7187 41.4333 67.6893 41.188 68.756 41.188C70.0147 41.188 71.108 41.4973 72.036 42.116C72.964 42.724 73.604 43.5827 73.956 44.692H71.38ZM79.8213 52.644C78.9679 52.644 78.1999 52.4573 77.5173 52.084C76.8346 51.7 76.2959 51.1613 75.9013 50.468C75.5173 49.7747 75.3253 48.9747 75.3253 48.068C75.3253 47.1613 75.5226 46.3613 75.9173 45.668C76.3226 44.9747 76.8719 44.4413 77.5653 44.068C78.2586 43.684 79.0319 43.492 79.8853 43.492C80.7386 43.492 81.5119 43.684 82.2053 44.068C82.8986 44.4413 83.4426 44.9747 83.8373 45.668C84.2426 46.3613 84.4453 47.1613 84.4453 48.068C84.4453 48.9747 84.2373 49.7747 83.8212 50.468C83.4159 51.1613 82.8613 51.7 82.1573 52.084C81.4639 52.4573 80.6853 52.644 79.8213 52.644ZM79.8213 50.692C80.2266 50.692 80.6053 50.596 80.9573 50.404C81.3199 50.2013 81.6079 49.9027 81.8213 49.508C82.0346 49.1133 82.1413 48.6333 82.1413 48.068C82.1413 47.2253 81.9173 46.58 81.4693 46.132C81.0319 45.6733 80.4933 45.444 79.8533 45.444C79.2133 45.444 78.6746 45.6733 78.2373 46.132C77.8106 46.58 77.5973 47.2253 77.5973 48.068C77.5973 48.9107 77.8053 49.5613 78.2213 50.02C78.6479 50.468 79.1813 50.692 79.8213 50.692ZM90.0244 52.644C89.171 52.644 88.403 52.4573 87.7204 52.084C87.0377 51.7 86.499 51.1613 86.1044 50.468C85.7204 49.7747 85.5284 48.9747 85.5284 48.068C85.5284 47.1613 85.7257 46.3613 86.1204 45.668C86.5257 44.9747 87.075 44.4413 87.7684 44.068C88.4617 43.684 89.235 43.492 90.0884 43.492C90.9417 43.492 91.715 43.684 92.4084 44.068C93.1017 44.4413 93.6457 44.9747 94.0404 45.668C94.4457 46.3613 94.6484 47.1613 94.6484 48.068C94.6484 48.9747 94.4404 49.7747 94.0244 50.468C93.619 51.1613 93.0644 51.7 92.3604 52.084C91.667 52.4573 90.8884 52.644 90.0244 52.644ZM90.0244 50.692C90.4297 50.692 90.8084 50.596 91.1604 50.404C91.523 50.2013 91.811 49.9027 92.0244 49.508C92.2377 49.1133 92.3444 48.6333 92.3444 48.068C92.3444 47.2253 92.1204 46.58 91.6724 46.132C91.235 45.6733 90.6964 45.444 90.0564 45.444C89.4164 45.444 88.8777 45.6733 88.4404 46.132C88.0137 46.58 87.8004 47.2253 87.8004 48.068C87.8004 48.9107 88.0084 49.5613 88.4244 50.02C88.851 50.468 89.3844 50.692 90.0244 50.692ZM99.7635 43.492C100.425 43.492 101.006 43.6253 101.508 43.892C102.009 44.148 102.404 44.484 102.692 44.9V43.636H104.948V52.564C104.948 53.3853 104.782 54.116 104.452 54.756C104.121 55.4067 103.625 55.9187 102.964 56.292C102.302 56.676 101.502 56.868 100.564 56.868C99.3048 56.868 98.2702 56.5747 97.4595 55.988C96.6595 55.4013 96.2062 54.6013 96.0995 53.588H98.3235C98.4408 53.9933 98.6915 54.3133 99.0755 54.548C99.4702 54.7933 99.9448 54.916 100.5 54.916C101.15 54.916 101.678 54.7187 102.084 54.324C102.489 53.94 102.692 53.3533 102.692 52.564V51.188C102.404 51.604 102.004 51.9507 101.492 52.228C100.99 52.5053 100.414 52.644 99.7635 52.644C99.0168 52.644 98.3342 52.452 97.7155 52.068C97.0968 51.684 96.6062 51.1453 96.2435 50.452C95.8915 49.748 95.7155 48.9427 95.7155 48.036C95.7155 47.14 95.8915 46.3453 96.2435 45.652C96.6062 44.9587 97.0915 44.4253 97.6995 44.052C98.3182 43.6787 99.0062 43.492 99.7635 43.492ZM102.692 48.068C102.692 47.524 102.585 47.06 102.372 46.676C102.158 46.2813 101.87 45.9827 101.508 45.78C101.145 45.5667 100.756 45.46 100.34 45.46C99.9235 45.46 99.5395 45.5613 99.1875 45.764C98.8355 45.9667 98.5475 46.2653 98.3235 46.66C98.1102 47.044 98.0035 47.5027 98.0035 48.036C98.0035 48.5693 98.1102 49.0387 98.3235 49.444C98.5475 49.8387 98.8355 50.1427 99.1875 50.356C99.5502 50.5693 99.9342 50.676 100.34 50.676C100.756 50.676 101.145 50.5747 101.508 50.372C101.87 50.1587 102.158 49.86 102.372 49.476C102.585 49.0813 102.692 48.612 102.692 48.068ZM109.375 40.66V52.5H107.135V40.66H109.375ZM119.828 47.876C119.828 48.196 119.807 48.484 119.764 48.74H113.284C113.338 49.38 113.562 49.8813 113.956 50.244C114.351 50.6067 114.836 50.788 115.412 50.788C116.244 50.788 116.836 50.4307 117.188 49.716H119.604C119.348 50.5693 118.858 51.2733 118.132 51.828C117.407 52.372 116.516 52.644 115.46 52.644C114.607 52.644 113.839 52.4573 113.156 52.084C112.484 51.7 111.956 51.1613 111.572 50.468C111.199 49.7747 111.012 48.9747 111.012 48.068C111.012 47.1507 111.199 46.3453 111.572 45.652C111.946 44.9587 112.468 44.4253 113.14 44.052C113.812 43.6787 114.586 43.492 115.46 43.492C116.303 43.492 117.055 43.6733 117.716 44.036C118.388 44.3987 118.906 44.916 119.268 45.588C119.642 46.2493 119.828 47.012 119.828 47.876ZM117.508 47.236C117.498 46.66 117.29 46.2013 116.884 45.86C116.479 45.508 115.983 45.332 115.396 45.332C114.842 45.332 114.372 45.5027 113.988 45.844C113.615 46.1747 113.386 46.6387 113.3 47.236H117.508ZM129.132 52.612C128.353 52.612 127.649 52.4787 127.02 52.212C126.401 51.9453 125.911 51.5613 125.548 51.06C125.185 50.5587 124.999 49.9667 124.988 49.284H127.388C127.42 49.7427 127.58 50.1053 127.868 50.372C128.167 50.6387 128.572 50.772 129.084 50.772C129.607 50.772 130.017 50.6493 130.316 50.404C130.615 50.148 130.764 49.8173 130.764 49.412C130.764 49.0813 130.663 48.8093 130.46 48.596C130.257 48.3827 130.001 48.2173 129.692 48.1C129.393 47.972 128.977 47.8333 128.444 47.684C127.719 47.4707 127.127 47.2627 126.668 47.06C126.22 46.8467 125.831 46.532 125.5 46.116C125.18 45.6893 125.02 45.124 125.02 44.42C125.02 43.7587 125.185 43.1827 125.516 42.692C125.847 42.2013 126.311 41.828 126.908 41.572C127.505 41.3053 128.188 41.172 128.956 41.172C130.108 41.172 131.041 41.4547 131.756 42.02C132.481 42.5747 132.881 43.3533 132.956 44.356H130.492C130.471 43.972 130.305 43.6573 129.996 43.412C129.697 43.156 129.297 43.028 128.796 43.028C128.359 43.028 128.007 43.14 127.74 43.364C127.484 43.588 127.356 43.9133 127.356 44.34C127.356 44.6387 127.452 44.8893 127.644 45.092C127.847 45.284 128.092 45.444 128.38 45.572C128.679 45.6893 129.095 45.828 129.628 45.988C130.353 46.2013 130.945 46.4147 131.404 46.628C131.863 46.8413 132.257 47.1613 132.588 47.588C132.919 48.0147 133.084 48.5747 133.084 49.268C133.084 49.8653 132.929 50.42 132.62 50.932C132.311 51.444 131.857 51.8547 131.26 52.164C130.663 52.4627 129.953 52.612 129.132 52.612ZM137.634 45.476V49.764C137.634 50.0627 137.703 50.2813 137.842 50.42C137.991 50.548 138.237 50.612 138.578 50.612H139.618V52.5H138.21C136.322 52.5 135.378 51.5827 135.378 49.748V45.476H134.322V43.636H135.378V41.444H137.634V43.636H139.618V45.476H137.634ZM145.165 52.644C144.312 52.644 143.544 52.4573 142.861 52.084C142.178 51.7 141.64 51.1613 141.245 50.468C140.861 49.7747 140.669 48.9747 140.669 48.068C140.669 47.1613 140.866 46.3613 141.261 45.668C141.666 44.9747 142.216 44.4413 142.909 44.068C143.602 43.684 144.376 43.492 145.229 43.492C146.082 43.492 146.856 43.684 147.549 44.068C148.242 44.4413 148.786 44.9747 149.181 45.668C149.586 46.3613 149.789 47.1613 149.789 48.068C149.789 48.9747 149.581 49.7747 149.165 50.468C148.76 51.1613 148.205 51.7 147.501 52.084C146.808 52.4573 146.029 52.644 145.165 52.644ZM145.165 50.692C145.57 50.692 145.949 50.596 146.301 50.404C146.664 50.2013 146.952 49.9027 147.165 49.508C147.378 49.1133 147.485 48.6333 147.485 48.068C147.485 47.2253 147.261 46.58 146.813 46.132C146.376 45.6733 145.837 45.444 145.197 45.444C144.557 45.444 144.018 45.6733 143.581 46.132C143.154 46.58 142.941 47.2253 142.941 48.068C142.941 48.9107 143.149 49.5613 143.565 50.02C143.992 50.468 144.525 50.692 145.165 50.692ZM153.672 45.012C153.96 44.5427 154.333 44.1747 154.792 43.908C155.261 43.6413 155.795 43.508 156.392 43.508V45.86H155.8C155.096 45.86 154.563 46.0253 154.2 46.356C153.848 46.6867 153.672 47.2627 153.672 48.084V52.5H151.432V43.636H153.672V45.012ZM166.141 47.876C166.141 48.196 166.12 48.484 166.077 48.74H159.597C159.65 49.38 159.874 49.8813 160.269 50.244C160.664 50.6067 161.149 50.788 161.725 50.788C162.557 50.788 163.149 50.4307 163.501 49.716H165.917C165.661 50.5693 165.17 51.2733 164.445 51.828C163.72 52.372 162.829 52.644 161.773 52.644C160.92 52.644 160.152 52.4573 159.469 52.084C158.797 51.7 158.269 51.1613 157.885 50.468C157.512 49.7747 157.325 48.9747 157.325 48.068C157.325 47.1507 157.512 46.3453 157.885 45.652C158.258 44.9587 158.781 44.4253 159.453 44.052C160.125 43.6787 160.898 43.492 161.773 43.492C162.616 43.492 163.368 43.6733 164.029 44.036C164.701 44.3987 165.218 44.916 165.581 45.588C165.954 46.2493 166.141 47.012 166.141 47.876ZM163.821 47.236C163.81 46.66 163.602 46.2013 163.197 45.86C162.792 45.508 162.296 45.332 161.709 45.332C161.154 45.332 160.685 45.5027 160.301 45.844C159.928 46.1747 159.698 46.6387 159.613 47.236H163.821Z" fill="white"/>
<defs>
<linearGradient id="paint0_linear_2369_2688" x1="32.8508" y1="22.4524" x2="11.9715" y2="43.3317" gradientUnits="userSpaceOnUse">
<stop stop-color="#00A0FF"/>
<stop offset="0.007" stop-color="#00A2FF"/>
<stop offset="0.26" stop-color="#00BEFF"/>
<stop offset="0.512" stop-color="#00D2FF"/>
<stop offset="0.76" stop-color="#00DFFF"/>
<stop offset="1" stop-color="#00E3FF"/>
</linearGradient>
<linearGradient id="paint1_linear_2369_2688" x1="47.8235" y1="36.5006" x2="17.7196" y2="36.5006" gradientUnits="userSpaceOnUse">
<stop stop-color="#FFE000"/>
<stop offset="0.409" stop-color="#FFBD00"/>
<stop offset="0.775" stop-color="#FFA600"/>
<stop offset="1" stop-color="#FF9C00"/>
</linearGradient>
<linearGradient id="paint2_linear_2369_2688" x1="36.6172" y1="39.3554" x2="8.30303" y2="67.6694" gradientUnits="userSpaceOnUse">
<stop stop-color="#FF3743"/>
<stop offset="1" stop-color="#E30864"/>
</linearGradient>
<linearGradient id="paint3_linear_2369_2688" x1="14.8082" y1="11.8356" x2="27.4516" y2="24.479" gradientUnits="userSpaceOnUse">
<stop stop-color="#00A06F"/>
<stop offset="0.069" stop-color="#00A86E"/>
<stop offset="0.476" stop-color="#00CF6E"/>
<stop offset="0.801" stop-color="#00E76D"/>
<stop offset="1" stop-color="#00EF6D"/>
</linearGradient>
<clipPath id="clip0_2369_2688">
<rect width="32" height="32" fill="white" transform="translate(16.5 20.5)"/>
</clipPath>
</defs>
</svg>
