<svg width="24" height="24" viewBox="0 0 24 24" fill="none" xmlns="http://www.w3.org/2000/svg">
<g clip-path="url(#clip0_2003_3517)">
<path d="M21.944 11.478L19.443 10.649C18.8297 10.448 18.1683 10.448 17.555 10.649L15.055 11.478C14.4562 11.676 13.9352 12.0579 13.566 12.5692C13.1969 13.0806 12.9985 13.6953 12.999 14.326V17.513C12.999 21.081 16.713 23.216 17.852 23.785C17.852 23.785 18.053 23.991 18.5 23.991C18.947 23.991 19.082 23.835 19.082 23.835C20.236 23.371 23.999 21.544 23.999 17.513V14.326C23.9995 13.6953 23.8011 13.0806 23.432 12.5692C23.0628 12.0579 22.5428 11.676 21.944 11.478ZM22 17.513C22 20.095 19.576 21.438 18.545 21.891C17.629 21.4 15 19.792 15 17.513V14.326C15 13.894 15.275 13.513 15.686 13.377L18.185 12.548C18.39 12.481 18.613 12.481 18.815 12.548L21.315 13.377C21.5146 13.443 21.6883 13.5702 21.8114 13.7406C21.9346 13.911 22.0009 14.1158 22.001 14.326L22 17.513ZM13 9H5C4.73478 9 4.48043 8.89464 4.29289 8.70711C4.10536 8.51957 4 8.26522 4 8C4 7.73478 4.10536 7.48043 4.29289 7.29289C4.48043 7.10536 4.73478 7 5 7H13C13.2652 7 13.5196 7.10536 13.7071 7.29289C13.8946 7.48043 14 7.73478 14 8C14 8.26522 13.8946 8.51957 13.7071 8.70711C13.5196 8.89464 13.2652 9 13 9ZM11 12C11 12.2652 10.8946 12.5196 10.7071 12.7071C10.5196 12.8946 10.2652 13 10 13H5C4.73478 13 4.48043 12.8946 4.29289 12.7071C4.10536 12.5196 4 12.2652 4 12C4 11.7348 4.10536 11.4804 4.29289 11.2929C4.48043 11.1054 4.73478 11 5 11H10C10.2652 11 10.5196 11.1054 10.7071 11.2929C10.8946 11.4804 11 11.7348 11 12ZM11 16C11 16.2652 10.8946 16.5196 10.7071 16.7071C10.5196 16.8946 10.2652 17 10 17H5C4.73478 17 4.48043 16.8946 4.29289 16.7071C4.10536 16.5196 4 16.2652 4 16C4 15.7348 4.10536 15.4804 4.29289 15.2929C4.48043 15.1054 4.73478 15 5 15H10C10.2652 15 10.5196 15.1054 10.7071 15.2929C10.8946 15.4804 11 15.7348 11 16ZM13 23C13 23.2652 12.8946 23.5196 12.7071 23.7071C12.5196 23.8946 12.2652 24 12 24H5C2.243 24 0 21.757 0 19V7C0 4.243 2.243 2 5 2H5.171C5.37858 1.41549 5.7619 0.909511 6.26839 0.551443C6.77487 0.193376 7.37973 0.000756748 8 0L10 0C11.304 0 12.416 0.836 12.829 2H13C15.757 2 18 4.243 18 7V8C18 8.26522 17.8946 8.51957 17.7071 8.70711C17.5196 8.89464 17.2652 9 17 9C16.7348 9 16.4804 8.89464 16.2929 8.70711C16.1054 8.51957 16 8.26522 16 8V7C16 5.346 14.654 4 13 4H12C11.448 4 11 3.552 11 3C11 2.448 10.551 2 10 2H8C7.449 2 7 2.449 7 3C7 3.551 6.552 4 6 4H5C3.346 4 2 5.346 2 7V19C2 20.654 3.346 22 5 22H12C12.2652 22 12.5196 22.1054 12.7071 22.2929C12.8946 22.4804 13 22.7348 13 23Z" fill="#1C1C1C"/>
</g>
<defs>
<clipPath id="clip0_2003_3517">
<rect width="24" height="24" fill="white"/>
</clipPath>
</defs>
</svg>
