<svg width="376" height="376" viewBox="0 0 376 376" fill="none" xmlns="http://www.w3.org/2000/svg">
<path d="M270.693 87.9579C270.693 87.9579 242.712 65.0971 206.322 75.2221C169.931 85.347 154.686 116.732 133.823 138.282C122.892 149.568 106.751 153.725 93.7563 162.418C52.2459 190.2 58.3822 252.658 90.3994 276.217C121.346 298.963 162.519 295.769 197.418 285.271C261.224 266.068 338.066 207.484 304.888 132.464C297.124 115.161 285.412 99.9177 270.693 87.9579Z" fill="#33B55B"/>
<path opacity="0.6" d="M270.693 87.9579C270.693 87.9579 242.712 65.0971 206.322 75.2221C169.931 85.347 154.686 116.732 133.823 138.282C122.892 149.568 106.751 153.725 93.7563 162.418C52.2459 190.2 58.3822 252.658 90.3994 276.217C121.346 298.963 162.519 295.769 197.418 285.271C261.224 266.068 338.066 207.484 304.888 132.464C297.124 115.161 285.412 99.9177 270.693 87.9579Z" fill="white"/>
<path d="M188.677 306.387C258.869 306.387 315.771 301.854 315.771 296.262C315.771 290.67 258.869 286.137 188.677 286.137C118.485 286.137 61.5828 290.67 61.5828 296.262C61.5828 301.854 118.485 306.387 188.677 306.387Z" fill="#33B55B"/>
<path opacity="0.5" d="M188.677 306.387C258.869 306.387 315.771 301.854 315.771 296.262C315.771 290.67 258.869 286.137 188.677 286.137C118.485 286.137 61.5828 290.67 61.5828 296.262C61.5828 301.854 118.485 306.387 188.677 306.387Z" fill="white"/>
<path d="M290.552 85.0701H159.06C156.206 85.0701 153.892 87.3837 153.892 90.2378V158.778C153.892 161.632 156.206 163.946 159.06 163.946H290.552C293.406 163.946 295.719 161.632 295.719 158.778V90.2378C295.719 87.3837 293.406 85.0701 290.552 85.0701Z" fill="#263238"/>
<path d="M294.751 88.0239H163.259C160.405 88.0239 158.091 90.3376 158.091 93.1917V161.732C158.091 164.586 160.405 166.9 163.259 166.9H294.751C297.605 166.9 299.919 164.586 299.919 161.732V93.1917C299.919 90.3376 297.605 88.0239 294.751 88.0239Z" fill="white" stroke="#263238" stroke-width="0.8" stroke-miterlimit="10"/>
<path d="M171.357 143.967H286.738" stroke="#263238" stroke-width="0.8" stroke-miterlimit="10"/>
<path d="M175.111 97.6196C175.111 98.5132 174.846 99.3867 174.349 100.13C173.853 100.873 173.147 101.452 172.322 101.794C171.496 102.136 170.588 102.225 169.711 102.051C168.835 101.876 168.03 101.446 167.398 100.814C166.766 100.182 166.336 99.3774 166.162 98.501C165.987 97.6246 166.077 96.7162 166.419 95.8906C166.761 95.065 167.34 94.3594 168.083 93.863C168.826 93.3665 169.699 93.1016 170.593 93.1016C171.186 93.1016 171.774 93.2184 172.322 93.4455C172.87 93.6725 173.368 94.0053 173.787 94.4249C174.207 94.8444 174.54 95.3425 174.767 95.8906C174.994 96.4388 175.111 97.0263 175.111 97.6196Z" fill="#33B55B" stroke="#263238" stroke-width="0.8" stroke-miterlimit="10"/>
<path d="M167.603 94.2327L173.619 100.965" stroke="#263238" stroke-width="0.8" stroke-miterlimit="10"/>
<path d="M174.028 94.2927L167.885 100.904" stroke="#263238" stroke-width="0.8" stroke-miterlimit="10"/>
<path d="M277.425 160.288H253.77C253.104 160.289 252.444 160.158 251.828 159.904C251.213 159.649 250.653 159.276 250.182 158.805C249.711 158.334 249.337 157.774 249.083 157.158C248.828 156.543 248.698 155.883 248.698 155.217C248.698 154.551 248.83 153.891 249.084 153.276C249.339 152.661 249.713 152.102 250.184 151.631C250.655 151.16 251.214 150.786 251.829 150.531C252.444 150.276 253.104 150.145 253.77 150.145H277.425C278.769 150.147 280.058 150.682 281.009 151.632C281.96 152.583 282.495 153.872 282.496 155.217C282.496 156.562 281.962 157.852 281.011 158.803C280.06 159.754 278.77 160.288 277.425 160.288Z" fill="#33B55B" stroke="#263238" stroke-width="0.8" stroke-miterlimit="10"/>
<path d="M254.011 155.391V153.274H254.546V155.373C254.546 156.197 254.925 156.576 255.593 156.576C256.261 156.576 256.652 156.203 256.652 155.373V153.274H257.163V155.391C257.163 155.809 256.997 156.21 256.701 156.506C256.406 156.801 256.005 156.968 255.587 156.968C255.169 156.968 254.768 156.801 254.472 156.506C254.177 156.21 254.011 155.809 254.011 155.391Z" fill="#263238"/>
<path d="M261.795 154.573C261.795 155.385 261.194 155.873 260.243 155.873H259.323V157.004H258.787V153.274H260.267C261.212 153.274 261.795 153.767 261.795 154.573ZM261.266 154.573C261.266 154.044 260.905 153.737 260.225 153.737H259.323V155.409H260.225C260.905 155.409 261.266 155.109 261.266 154.573Z" fill="#263238"/>
<path d="M263.113 153.274H264.683C264.94 153.253 265.199 153.286 265.444 153.37C265.688 153.454 265.912 153.588 266.102 153.764C266.292 153.939 266.443 154.151 266.547 154.388C266.65 154.625 266.704 154.88 266.704 155.139C266.704 155.397 266.65 155.652 266.547 155.889C266.443 156.126 266.292 156.338 266.102 156.514C265.912 156.689 265.688 156.823 265.444 156.907C265.199 156.991 264.94 157.024 264.683 157.004H263.113V153.274ZM264.647 156.54C264.842 156.558 265.038 156.536 265.224 156.473C265.41 156.411 265.58 156.311 265.725 156.179C265.87 156.047 265.986 155.886 266.065 155.707C266.144 155.528 266.185 155.334 266.185 155.139C266.185 154.943 266.144 154.749 266.065 154.57C265.986 154.391 265.87 154.23 265.725 154.098C265.58 153.966 265.41 153.866 265.224 153.804C265.038 153.742 264.842 153.719 264.647 153.737H263.642V156.54H264.647Z" fill="#263238"/>
<path d="M270.362 156.071H268.377L267.968 157.004H267.42L269.111 153.274H269.634L271.331 157.004H270.771L270.362 156.071ZM270.176 155.644L269.369 153.839L268.563 155.644H270.176Z" fill="#263238"/>
<path d="M272.967 153.737H271.698V153.274H274.778V153.737H273.502V157.004H272.973L272.967 153.737Z" fill="#263238"/>
<path d="M278.592 156.54V157.004H275.909V153.274H278.538V153.737H276.438V154.88H278.315V155.337H276.444V156.54H278.592Z" fill="#263238"/>
<g opacity="0.26">
<path d="M208.139 119.403L206.448 124.451H205.69L204.318 120.408L202.941 124.439H202.171L200.48 119.391H201.226L202.586 123.494L204.012 119.391H204.673L206.063 123.518L207.459 119.391L208.139 119.403Z" fill="#263238"/>
<path d="M213.378 122.249V124.451H212.687V122.333C212.687 121.581 212.314 121.214 211.658 121.214C211.491 121.203 211.324 121.229 211.169 121.29C211.013 121.351 210.873 121.446 210.758 121.567C210.644 121.688 210.557 121.833 210.504 121.991C210.452 122.15 210.435 122.318 210.455 122.484V124.451H209.733V119.097H210.425V121.172C210.587 120.974 210.793 120.816 211.027 120.712C211.261 120.607 211.516 120.559 211.772 120.571C211.995 120.549 212.219 120.579 212.429 120.657C212.638 120.735 212.827 120.859 212.982 121.021C213.137 121.182 213.253 121.377 213.321 121.589C213.39 121.802 213.409 122.028 213.378 122.249Z" fill="#263238"/>
<path d="M218.42 122.147V124.451H217.764V123.946C217.618 124.136 217.426 124.285 217.206 124.381C216.986 124.477 216.746 124.515 216.507 124.493C215.641 124.493 215.093 124.036 215.093 123.368C215.093 122.7 215.49 122.249 216.633 122.249H217.728V122.117C217.728 121.515 217.391 121.19 216.705 121.19C216.269 121.189 215.845 121.335 215.502 121.605L215.213 121.082C215.672 120.748 216.229 120.576 216.796 120.595C217.83 120.595 218.42 121.1 218.42 122.147ZM217.728 123.284V122.748H216.657C215.971 122.748 215.779 123.019 215.779 123.35C215.779 123.681 216.098 123.952 216.621 123.952C216.852 123.969 217.083 123.915 217.282 123.795C217.48 123.675 217.636 123.496 217.728 123.284Z" fill="#263238"/>
<path d="M222.577 124.228C222.337 124.411 222.042 124.504 221.741 124.493C221.578 124.511 221.414 124.493 221.26 124.439C221.105 124.385 220.965 124.296 220.85 124.181C220.734 124.065 220.646 123.925 220.592 123.771C220.538 123.617 220.519 123.452 220.538 123.29V121.19H219.888V120.625H220.562V119.807H221.253V120.643H222.348V121.208H221.223V123.284C221.211 123.367 221.218 123.452 221.244 123.533C221.269 123.613 221.312 123.687 221.37 123.748C221.428 123.809 221.499 123.857 221.578 123.887C221.656 123.917 221.741 123.929 221.825 123.922C222.021 123.926 222.212 123.862 222.366 123.741L222.577 124.228Z" fill="#263238"/>
<path d="M229.832 122.147V124.451H229.177V123.946C229.031 124.136 228.839 124.287 228.619 124.383C228.399 124.479 228.158 124.516 227.919 124.493C227.053 124.493 226.505 124.036 226.505 123.368C226.505 122.7 226.902 122.249 228.046 122.249H229.14V122.117C229.14 121.515 228.804 121.19 228.118 121.19C227.681 121.189 227.257 121.335 226.915 121.605L226.626 121.082C227.084 120.748 227.641 120.576 228.208 120.595C229.243 120.595 229.832 121.1 229.832 122.147ZM229.14 123.284V122.748H228.076C227.39 122.748 227.191 123.019 227.191 123.35C227.191 123.681 227.51 123.952 228.04 123.952C228.27 123.968 228.499 123.913 228.696 123.793C228.894 123.673 229.049 123.495 229.14 123.284Z" fill="#263238"/>
<path d="M233.899 120.595V121.263H233.743C233.574 121.252 233.405 121.279 233.248 121.342C233.091 121.405 232.95 121.501 232.835 121.625C232.72 121.749 232.634 121.896 232.583 122.057C232.532 122.218 232.517 122.389 232.539 122.556V124.457H231.848V120.637H232.509V121.275C232.655 121.043 232.862 120.857 233.107 120.737C233.353 120.617 233.627 120.567 233.899 120.595Z" fill="#263238"/>
<path d="M238.88 122.772H235.776C235.82 123.101 235.988 123.399 236.245 123.608C236.502 123.816 236.83 123.917 237.16 123.891C237.367 123.899 237.573 123.862 237.764 123.782C237.956 123.702 238.127 123.581 238.267 123.428L238.646 123.873C238.455 124.078 238.221 124.239 237.961 124.343C237.701 124.447 237.421 124.492 237.142 124.475C236.875 124.495 236.607 124.459 236.355 124.37C236.103 124.28 235.873 124.138 235.679 123.954C235.485 123.77 235.332 123.547 235.229 123.3C235.127 123.053 235.078 122.787 235.084 122.52C235.073 122.264 235.115 122.008 235.208 121.769C235.3 121.53 235.441 121.312 235.621 121.13C235.801 120.948 236.016 120.805 236.254 120.709C236.492 120.614 236.747 120.569 237.003 120.577C237.26 120.57 237.515 120.617 237.752 120.715C237.99 120.813 238.204 120.959 238.382 121.144C238.559 121.329 238.697 121.549 238.784 121.79C238.872 122.031 238.909 122.288 238.892 122.544C238.892 122.622 238.886 122.706 238.88 122.772ZM235.776 122.273H238.231C238.2 121.969 238.058 121.686 237.831 121.481C237.604 121.275 237.309 121.161 237.003 121.161C236.697 121.161 236.402 121.275 236.175 121.481C235.949 121.686 235.806 121.969 235.776 122.273Z" fill="#263238"/>
<path d="M246.623 120.631L244.77 124.842C244.433 125.648 243.994 125.901 243.404 125.901C243.044 125.911 242.694 125.784 242.424 125.546L242.719 125.029C242.902 125.208 243.148 125.309 243.404 125.311C243.741 125.311 243.946 125.161 244.138 124.71L244.259 124.445L242.568 120.631H243.29L244.626 123.687L245.949 120.631H246.623Z" fill="#263238"/>
<path d="M247.537 122.538C247.53 122.143 247.641 121.754 247.855 121.422C248.07 121.09 248.378 120.829 248.741 120.673C249.104 120.516 249.506 120.472 249.895 120.544C250.283 120.617 250.641 120.804 250.923 121.081C251.206 121.358 251.399 121.713 251.479 122.1C251.558 122.487 251.521 122.889 251.372 123.255C251.222 123.621 250.967 123.934 250.639 124.155C250.31 124.375 249.924 124.493 249.529 124.493C249.267 124.506 249.005 124.464 248.76 124.371C248.516 124.277 248.293 124.134 248.106 123.951C247.919 123.767 247.772 123.547 247.674 123.304C247.576 123.061 247.53 122.8 247.537 122.538ZM250.81 122.538C250.81 122.196 250.674 121.869 250.433 121.628C250.192 121.386 249.864 121.25 249.523 121.25C249.181 121.25 248.854 121.386 248.612 121.628C248.371 121.869 248.235 122.196 248.235 122.538C248.235 122.879 248.371 123.207 248.612 123.448C248.854 123.69 249.181 123.825 249.523 123.825C249.864 123.825 250.192 123.69 250.433 123.448C250.674 123.207 250.81 122.879 250.81 122.538Z" fill="#263238"/>
<path d="M256.76 120.631V124.451H256.104V123.849C255.951 124.046 255.754 124.204 255.528 124.308C255.301 124.413 255.054 124.462 254.805 124.451C254.581 124.474 254.355 124.447 254.144 124.371C253.932 124.295 253.741 124.172 253.583 124.012C253.425 123.852 253.306 123.659 253.233 123.446C253.16 123.234 253.136 123.008 253.162 122.784V120.589H253.854V122.706C253.854 123.458 254.227 123.831 254.883 123.831C255.05 123.844 255.218 123.82 255.374 123.76C255.531 123.7 255.672 123.605 255.787 123.484C255.903 123.362 255.989 123.216 256.041 123.057C256.093 122.897 256.108 122.728 256.086 122.562V120.589L256.76 120.631Z" fill="#263238"/>
<path d="M195.505 128.692H193.778V128.091H197.953V128.692H196.221V133.114H195.505V128.692Z" fill="#263238"/>
<path d="M202.989 130.912V133.114H202.297V130.996C202.297 130.244 201.924 129.877 201.268 129.877C201.102 129.867 200.935 129.892 200.779 129.953C200.624 130.014 200.484 130.109 200.369 130.23C200.254 130.351 200.167 130.496 200.115 130.654C200.062 130.813 200.045 130.981 200.065 131.147V133.114H199.373V127.76H200.065V129.835C200.228 129.637 200.436 129.479 200.671 129.375C200.906 129.27 201.162 129.222 201.419 129.234C201.639 129.217 201.859 129.25 202.065 129.33C202.271 129.41 202.455 129.535 202.606 129.696C202.757 129.858 202.869 130.05 202.936 130.261C203.002 130.471 203.02 130.694 202.989 130.912Z" fill="#263238"/>
<path d="M204.878 128.109C204.878 128.048 204.89 127.987 204.914 127.931C204.938 127.875 204.972 127.824 205.016 127.781C205.06 127.738 205.112 127.705 205.168 127.683C205.225 127.661 205.286 127.65 205.347 127.651C205.407 127.649 205.467 127.659 205.524 127.68C205.58 127.701 205.632 127.733 205.676 127.775C205.719 127.816 205.754 127.866 205.779 127.922C205.803 127.977 205.816 128.036 205.816 128.097C205.816 128.221 205.767 128.34 205.679 128.428C205.591 128.516 205.472 128.566 205.347 128.566C205.223 128.566 205.103 128.516 205.015 128.428C204.927 128.34 204.878 128.221 204.878 128.097V128.109ZM204.998 129.312H205.696V133.132H204.998V129.312Z" fill="#263238"/>
<path d="M211.363 130.912V133.114H210.671V130.996C210.671 130.244 210.298 129.877 209.643 129.877C209.476 129.866 209.309 129.892 209.154 129.953C208.998 130.014 208.858 130.108 208.743 130.23C208.628 130.351 208.542 130.496 208.489 130.654C208.437 130.813 208.42 130.981 208.439 131.147V133.114H207.748V129.294H208.415V129.895C208.579 129.691 208.791 129.53 209.03 129.426C209.27 129.321 209.532 129.276 209.793 129.294C210.007 129.279 210.222 129.31 210.423 129.387C210.624 129.464 210.805 129.583 210.955 129.738C211.104 129.892 211.218 130.077 211.289 130.28C211.359 130.482 211.385 130.698 211.363 130.912Z" fill="#263238"/>
<path d="M214.864 131.333L214.07 132.067V133.114H213.372V127.76H214.07V131.195L216.152 129.294H216.988L215.382 130.87L217.151 133.114H216.296L214.864 131.333Z" fill="#263238"/>
<path d="M218.372 128.109C218.367 128.015 218.39 127.922 218.439 127.842C218.487 127.761 218.559 127.697 218.644 127.658C218.729 127.619 218.824 127.606 218.917 127.622C219.009 127.637 219.095 127.679 219.163 127.744C219.231 127.809 219.279 127.892 219.299 127.984C219.319 128.075 219.311 128.171 219.276 128.258C219.242 128.345 219.182 128.42 219.104 128.473C219.026 128.525 218.935 128.554 218.841 128.554C218.781 128.557 218.72 128.548 218.663 128.527C218.606 128.506 218.554 128.474 218.511 128.432C218.467 128.39 218.432 128.34 218.408 128.285C218.384 128.229 218.372 128.169 218.372 128.109ZM218.492 129.312H219.184V133.132H218.492V129.312Z" fill="#263238"/>
<path d="M224.857 130.912V133.114H224.171V130.996C224.171 130.244 223.798 129.877 223.142 129.877C222.976 129.867 222.809 129.892 222.653 129.953C222.498 130.014 222.358 130.109 222.243 130.23C222.128 130.351 222.041 130.496 221.989 130.654C221.936 130.813 221.919 130.981 221.939 131.147V133.114H221.247V129.294H221.909V129.895C222.074 129.693 222.286 129.532 222.525 129.428C222.765 129.323 223.026 129.277 223.287 129.294C223.501 129.28 223.715 129.312 223.916 129.389C224.116 129.466 224.297 129.586 224.446 129.74C224.595 129.894 224.709 130.079 224.78 130.281C224.851 130.483 224.878 130.699 224.857 130.912Z" fill="#263238"/>
<path d="M230.548 129.294V132.597C230.548 133.944 229.862 134.558 228.563 134.558C227.909 134.574 227.271 134.361 226.758 133.956L227.089 133.427C227.508 133.753 228.026 133.927 228.557 133.92C229.459 133.92 229.874 133.505 229.874 132.639V132.338C229.704 132.534 229.492 132.691 229.254 132.795C229.015 132.899 228.757 132.948 228.497 132.939C228.245 132.954 227.993 132.917 227.756 132.83C227.519 132.744 227.302 132.61 227.119 132.437C226.935 132.263 226.789 132.055 226.69 131.823C226.59 131.591 226.538 131.342 226.538 131.09C226.538 130.837 226.59 130.588 226.69 130.356C226.789 130.124 226.935 129.916 227.119 129.742C227.302 129.569 227.519 129.435 227.756 129.349C227.993 129.262 228.245 129.225 228.497 129.24C228.763 129.225 229.029 129.271 229.274 129.376C229.519 129.48 229.737 129.639 229.911 129.841V129.24L230.548 129.294ZM229.868 131.099C229.883 130.835 229.818 130.573 229.682 130.347C229.546 130.121 229.345 129.941 229.106 129.83C228.866 129.72 228.599 129.683 228.339 129.726C228.078 129.769 227.837 129.889 227.646 130.071C227.454 130.253 227.322 130.488 227.266 130.745C227.209 131.003 227.232 131.272 227.33 131.517C227.428 131.761 227.598 131.971 227.816 132.119C228.035 132.266 228.293 132.345 228.557 132.344C228.727 132.359 228.898 132.338 229.059 132.283C229.221 132.227 229.368 132.137 229.492 132.02C229.616 131.903 229.714 131.761 229.779 131.603C229.844 131.445 229.874 131.275 229.868 131.105V131.099Z" fill="#263238"/>
<path d="M238.285 130.81V133.114H237.629V132.609C237.484 132.799 237.293 132.948 237.074 133.044C236.855 133.14 236.616 133.179 236.378 133.156C235.511 133.156 234.958 132.699 234.958 132.031C234.958 131.363 235.355 130.912 236.498 130.912H237.593V130.78C237.593 130.178 237.256 129.853 236.57 129.853C236.134 129.853 235.71 129.999 235.367 130.268L235.078 129.745C235.537 129.411 236.093 129.239 236.66 129.258C237.695 129.258 238.285 129.763 238.285 130.81ZM237.593 131.947V131.411H236.528C235.842 131.411 235.644 131.682 235.644 132.013C235.644 132.344 235.963 132.615 236.492 132.615C236.722 132.631 236.952 132.576 237.149 132.456C237.346 132.336 237.501 132.159 237.593 131.947Z" fill="#263238"/>
<path d="M244.259 131.201C244.272 131.46 244.232 131.719 244.139 131.961C244.047 132.203 243.905 132.423 243.723 132.607C243.54 132.791 243.321 132.935 243.08 133.03C242.839 133.124 242.58 133.167 242.321 133.156C242.059 133.168 241.798 133.116 241.561 133.004C241.324 132.892 241.118 132.723 240.962 132.512V133.114H240.294V127.76H241.016V129.871C241.176 129.673 241.38 129.515 241.612 129.411C241.844 129.306 242.097 129.258 242.352 129.27C242.606 129.262 242.86 129.307 243.096 129.402C243.332 129.496 243.547 129.639 243.726 129.82C243.905 130.001 244.044 130.217 244.136 130.455C244.228 130.692 244.269 130.946 244.259 131.201ZM243.555 131.201C243.542 130.95 243.455 130.707 243.306 130.505C243.157 130.302 242.952 130.147 242.716 130.06C242.48 129.972 242.223 129.956 241.978 130.013C241.733 130.07 241.51 130.197 241.336 130.38C241.163 130.562 241.046 130.792 241.002 131.039C240.957 131.287 240.986 131.542 241.086 131.774C241.185 132.005 241.349 132.203 241.559 132.341C241.769 132.48 242.016 132.554 242.267 132.555C242.443 132.559 242.618 132.527 242.781 132.46C242.944 132.392 243.091 132.292 243.212 132.164C243.334 132.037 243.427 131.885 243.486 131.719C243.545 131.553 243.568 131.377 243.555 131.201Z" fill="#263238"/>
<path d="M245.588 131.201C245.581 130.806 245.692 130.417 245.906 130.085C246.12 129.753 246.429 129.492 246.792 129.336C247.155 129.179 247.557 129.135 247.945 129.208C248.334 129.28 248.692 129.467 248.974 129.744C249.256 130.021 249.45 130.376 249.529 130.763C249.609 131.15 249.572 131.552 249.422 131.918C249.273 132.284 249.018 132.597 248.689 132.818C248.361 133.038 247.975 133.156 247.579 133.156C247.318 133.169 247.056 133.127 246.811 133.034C246.566 132.94 246.343 132.797 246.156 132.614C245.969 132.43 245.822 132.21 245.725 131.967C245.627 131.724 245.58 131.463 245.588 131.201ZM248.861 131.201C248.861 131.032 248.828 130.865 248.763 130.708C248.698 130.552 248.603 130.41 248.484 130.291C248.364 130.171 248.222 130.076 248.066 130.012C247.91 129.947 247.743 129.914 247.573 129.914C247.404 129.914 247.237 129.947 247.081 130.012C246.925 130.076 246.783 130.171 246.663 130.291C246.544 130.41 246.449 130.552 246.384 130.708C246.319 130.865 246.286 131.032 246.286 131.201C246.286 131.37 246.319 131.537 246.384 131.694C246.449 131.85 246.544 131.992 246.663 132.111C246.783 132.231 246.925 132.326 247.081 132.39C247.237 132.455 247.404 132.488 247.573 132.488C247.743 132.488 247.91 132.455 248.066 132.39C248.222 132.326 248.364 132.231 248.484 132.111C248.603 131.992 248.698 131.85 248.763 131.694C248.828 131.537 248.861 131.37 248.861 131.201Z" fill="#263238"/>
<path d="M254.811 129.294V133.114H254.155V132.512C254.002 132.709 253.805 132.867 253.578 132.971C253.352 133.076 253.104 133.125 252.855 133.114C252.632 133.137 252.406 133.11 252.195 133.034C251.983 132.958 251.791 132.836 251.634 132.676C251.476 132.515 251.356 132.322 251.284 132.109C251.211 131.897 251.187 131.671 251.213 131.448V129.252H251.905V131.369C251.905 132.121 252.278 132.494 252.934 132.494C253.101 132.507 253.269 132.483 253.425 132.423C253.582 132.363 253.723 132.268 253.838 132.147C253.953 132.025 254.04 131.879 254.092 131.72C254.144 131.56 254.159 131.391 254.137 131.225V129.252L254.811 129.294Z" fill="#263238"/>
<path d="M259.004 132.891C258.765 133.075 258.469 133.169 258.168 133.156C258.005 133.174 257.841 133.156 257.687 133.102C257.532 133.048 257.392 132.96 257.277 132.844C257.161 132.728 257.073 132.588 257.019 132.434C256.965 132.28 256.946 132.115 256.964 131.953V129.853H256.315V129.288H256.964V128.452H257.656V129.288H258.751V129.853H257.656V131.929C257.644 132.012 257.651 132.097 257.677 132.178C257.702 132.258 257.745 132.332 257.803 132.393C257.861 132.454 257.932 132.502 258.011 132.532C258.089 132.562 258.174 132.574 258.258 132.567C258.454 132.571 258.645 132.507 258.799 132.386L259.004 132.891Z" fill="#263238"/>
<path d="M262.704 129.432C262.704 128.969 262.319 128.65 261.669 128.65C261.424 128.636 261.18 128.68 260.956 128.779C260.732 128.879 260.535 129.03 260.382 129.222L259.852 128.849C260.077 128.574 260.364 128.358 260.689 128.216C261.015 128.075 261.369 128.013 261.723 128.036C262.758 128.036 263.432 128.524 263.432 129.324C263.432 130.527 262.156 130.605 262.156 131.55H261.434C261.434 130.389 262.704 130.232 262.704 129.432ZM261.332 132.729C261.33 132.636 261.355 132.544 261.405 132.465C261.455 132.386 261.528 132.324 261.613 132.287C261.699 132.25 261.793 132.239 261.885 132.255C261.977 132.272 262.062 132.316 262.129 132.381C262.195 132.446 262.241 132.53 262.26 132.621C262.28 132.712 262.271 132.807 262.236 132.894C262.201 132.98 262.141 133.054 262.063 133.106C261.986 133.158 261.895 133.186 261.801 133.186C261.737 133.189 261.674 133.178 261.614 133.154C261.555 133.131 261.501 133.094 261.457 133.048C261.412 133.002 261.378 132.947 261.357 132.887C261.335 132.827 261.327 132.763 261.332 132.699V132.729Z" fill="#263238"/>
</g>
<path d="M197.466 118.315V124.686" stroke="#263238" stroke-width="0.8" stroke-miterlimit="10"/>
<path d="M203.536 96.2781V101.332H202.935L199.927 97.5655V101.332H199.205V96.2781H199.806L202.814 100.044V96.2781H203.536Z" fill="black"/>
<path d="M205.552 96.3442C205.552 96.2198 205.601 96.1004 205.689 96.0124C205.777 95.9244 205.896 95.875 206.021 95.875C206.145 95.875 206.265 95.9244 206.353 96.0124C206.441 96.1004 206.49 96.2198 206.49 96.3442C206.491 96.4058 206.479 96.4669 206.456 96.5239C206.433 96.5809 206.398 96.6325 206.354 96.6758C206.31 96.7191 206.258 96.753 206.201 96.7757C206.144 96.7983 206.082 96.8091 206.021 96.8075C205.959 96.81 205.898 96.7997 205.84 96.7774C205.782 96.7551 205.73 96.7212 205.686 96.6777C205.642 96.6343 205.607 96.5823 205.584 96.5249C205.561 96.4676 205.55 96.4061 205.552 96.3442ZM205.672 97.5474H206.364V101.374H205.672V97.5474Z" fill="black"/>
<path d="M208.054 99.4183C208.049 99.1547 208.098 98.8928 208.199 98.6491C208.299 98.4054 208.449 98.1851 208.639 98.002C208.829 97.819 209.054 97.6772 209.302 97.5855C209.549 97.4938 209.812 97.4542 210.076 97.4692C210.385 97.4507 210.694 97.5171 210.969 97.6613C211.243 97.8055 211.473 98.022 211.634 98.2873L211.11 98.6242C210.998 98.4515 210.844 98.3105 210.661 98.2147C210.479 98.1188 210.275 98.0713 210.07 98.0768C209.729 98.0996 209.409 98.2512 209.175 98.5008C208.942 98.7505 208.812 99.0795 208.812 99.4213C208.812 99.7632 208.942 100.092 209.175 100.342C209.409 100.592 209.729 100.743 210.07 100.766C210.275 100.771 210.479 100.724 210.661 100.628C210.844 100.532 210.998 100.391 211.11 100.218L211.634 100.549C211.474 100.815 211.244 101.033 210.969 101.178C210.695 101.323 210.386 101.391 210.076 101.374C209.812 101.388 209.548 101.347 209.301 101.255C209.054 101.162 208.828 101.02 208.639 100.837C208.449 100.653 208.299 100.432 208.199 100.188C208.098 99.9444 208.049 99.6822 208.054 99.4183Z" fill="black"/>
<path d="M214.69 99.5508L213.896 100.285V101.332H213.204V95.9773H213.896V99.4124L215.983 97.5054H216.82L215.207 99.0876L216.976 101.332H216.128L214.69 99.5508Z" fill="black"/>
<path d="M221.951 99.1296V101.331H221.259V99.2078C221.259 98.4558 220.88 98.0888 220.225 98.0888C220.058 98.0769 219.89 98.102 219.734 98.1626C219.578 98.2231 219.438 98.3175 219.323 98.4389C219.208 98.5603 219.121 98.7057 219.069 98.8647C219.017 99.0237 219.001 99.1922 219.021 99.3582V101.331H218.33V97.5053H218.991V98.1069C219.156 97.9038 219.367 97.7432 219.607 97.6385C219.847 97.5339 220.108 97.4882 220.369 97.5053C220.585 97.4893 220.801 97.5206 221.003 97.5972C221.205 97.6738 221.388 97.7937 221.539 97.9485C221.69 98.1033 221.805 98.2893 221.876 98.4934C221.947 98.6974 221.973 98.9146 221.951 99.1296Z" fill="black"/>
<path d="M226.993 99.0213V101.331H226.331V100.826C226.185 101.015 225.994 101.164 225.775 101.26C225.557 101.356 225.317 101.395 225.08 101.374C224.213 101.374 223.666 100.91 223.666 100.249C223.666 99.5868 224.063 99.1295 225.2 99.1295H226.301V98.9912C226.301 98.3896 225.958 98.0707 225.272 98.0707C224.836 98.067 224.412 98.2112 224.069 98.4798L223.78 97.9624C224.235 97.6261 224.791 97.4524 225.356 97.4691C226.397 97.4691 226.993 97.9745 226.993 99.0213ZM226.301 100.158V99.6289H225.23C224.544 99.6289 224.352 99.8936 224.352 100.23C224.352 100.567 224.664 100.832 225.194 100.832C225.426 100.849 225.657 100.794 225.856 100.673C226.054 100.552 226.21 100.372 226.301 100.158Z" fill="black"/>
<path d="M235.349 99.1296V101.331H234.657V99.2078C234.657 98.4558 234.296 98.0889 233.67 98.0889C233.507 98.0808 233.344 98.1092 233.192 98.1719C233.041 98.2346 232.905 98.3302 232.796 98.4516C232.686 98.573 232.604 98.7173 232.557 98.8741C232.509 99.0309 232.497 99.1962 232.521 99.3582V101.331H231.83V99.2078C231.83 98.4558 231.469 98.0889 230.837 98.0889C230.205 98.0889 229.694 98.528 229.694 99.3582V101.331H228.984V97.5053H229.646V98.0768C229.799 97.8762 230 97.7164 230.229 97.6115C230.459 97.5066 230.711 97.4598 230.963 97.4752C231.229 97.4561 231.495 97.5126 231.731 97.6382C231.966 97.7638 232.161 97.9534 232.293 98.1851C232.461 97.9541 232.683 97.7684 232.94 97.6445C233.198 97.5206 233.482 97.4625 233.767 97.4752C233.986 97.4562 234.206 97.4866 234.412 97.5641C234.617 97.6416 234.803 97.7643 234.954 97.9231C235.106 98.0818 235.221 98.2727 235.289 98.4815C235.357 98.6903 235.378 98.9118 235.349 99.1296Z" fill="black"/>
<path d="M240.817 99.647H237.713C237.755 99.9757 237.923 100.276 238.181 100.484C238.438 100.692 238.767 100.793 239.097 100.766C239.304 100.773 239.51 100.736 239.701 100.656C239.892 100.576 240.064 100.455 240.204 100.303L240.583 100.754C240.301 101.041 239.941 101.24 239.548 101.326C239.155 101.413 238.745 101.384 238.368 101.243C237.991 101.102 237.664 100.854 237.425 100.53C237.185 100.206 237.045 99.8201 237.021 99.4184C237.011 99.162 237.053 98.9063 237.145 98.6669C237.237 98.4275 237.377 98.2096 237.557 98.0268C237.737 97.844 237.953 97.7002 238.191 97.6043C238.429 97.5083 238.684 97.4623 238.94 97.4692C239.198 97.4627 239.453 97.51 239.691 97.608C239.929 97.706 240.143 97.8526 240.321 98.0383C240.499 98.2241 240.636 98.4449 240.724 98.6867C240.811 98.9285 240.847 99.1859 240.83 99.4424C240.83 99.4966 240.824 99.5868 240.817 99.647ZM237.713 99.1536H240.168C240.138 98.8491 239.995 98.5667 239.768 98.3613C239.542 98.1558 239.247 98.042 238.94 98.042C238.634 98.042 238.339 98.1558 238.113 98.3613C237.886 98.5667 237.743 98.8491 237.713 99.1536Z" fill="black"/>
<path d="M314.223 98.2211C318.068 82.2918 308.272 66.2616 292.343 62.4167C276.413 58.5718 260.383 68.3682 256.538 84.2975C252.693 100.227 262.49 116.257 278.419 120.102C294.348 123.947 310.378 114.15 314.223 98.2211Z" fill="#263238"/>
<path d="M315.986 95.0477C318.549 79.4954 308.02 64.8096 292.467 62.2461C276.915 59.6826 262.229 70.2121 259.666 85.7644C257.102 101.317 267.632 116.002 283.184 118.566C298.736 121.129 313.422 110.6 315.986 95.0477Z" fill="white" stroke="#263238" stroke-width="0.8" stroke-miterlimit="10"/>
<path d="M309.418 109.038C306.766 112.12 303.486 114.599 299.797 116.308C296.108 118.018 292.097 118.919 288.031 118.95C283.965 118.981 279.94 118.143 276.226 116.49C272.511 114.837 269.193 112.409 266.494 109.369C267.643 107.492 269.442 105.813 271.481 105.47C272.303 105.33 273.116 105.145 273.918 104.917C274.11 104.869 274.297 104.815 274.483 104.754C275.012 104.592 275.536 104.412 276.047 104.213C276.306 104.111 276.559 104.008 276.811 103.894C277.064 103.78 277.377 103.648 277.659 103.515C277.942 103.383 278.213 103.238 278.484 103.094C278.754 102.95 279.025 102.799 279.29 102.643C279.555 102.486 279.819 102.324 280.078 102.156C280.337 101.987 280.505 101.873 280.716 101.722C280.791 101.676 280.863 101.626 280.932 101.572C281.149 101.416 281.359 101.253 281.57 101.091C281.817 100.898 282.051 100.706 282.286 100.489C282.52 100.273 282.743 100.08 282.972 99.8875C283.411 99.4664 283.838 99.0212 284.241 98.552L285.829 98.2813L286.07 98.2391L292.146 97.1984L294.125 96.8555L294.637 96.7712C295.304 98.2572 296.712 99.2198 298.246 99.8514L298.445 99.9357C298.818 100.086 299.197 100.212 299.576 100.327C301.585 100.928 303.721 101.283 305.465 102.444C307.679 103.9 308.852 106.391 309.418 109.038Z" fill="#33B55B"/>
<path d="M284.367 98.0527C283.35 99.2261 281.988 100.049 280.476 100.404C278.964 100.76 277.379 100.629 275.945 100.032C275.821 100.451 275.785 100.892 275.84 101.326C275.895 101.76 276.039 102.177 276.264 102.553C275.786 102.298 275.385 101.922 275.099 101.463C274.814 101.003 274.655 100.476 274.639 99.9357C274.261 100.763 274.025 101.647 273.942 102.553C271.096 103.1 268.076 101.44 266.662 98.907C265.997 97.6075 265.637 96.173 265.611 94.7132C265.585 93.2535 265.893 91.8071 266.512 90.4846L264.912 92.5842C264.394 91.3148 264.821 89.8529 265.513 88.6798C266.205 87.5067 267.18 86.508 267.883 85.3349C269.748 82.1946 269.502 78.2962 270.091 74.6986C270.23 73.342 270.731 72.0475 271.541 70.9507C272.413 69.9159 273.911 69.2963 275.151 69.7956C275.373 68.1051 277.503 67.317 279.085 66.6733C281.702 65.6205 284.5 64.5857 287.279 65.073C291.737 65.8551 294.709 70.2408 298.974 71.7388C301.182 72.5148 303.594 72.4667 305.85 73.0863C308.106 73.706 310.393 75.3544 310.537 77.6886L308.13 76.4312C309.877 78.6844 310.897 81.4154 311.055 84.2617C311.213 87.108 310.501 89.9351 309.015 92.3676L308.564 90.1477C308.816 91.2246 307.926 92.2112 307.06 92.903C304.683 94.7981 301.699 96.1998 298.679 95.8509C297.789 95.7486 296.917 95.4959 296.026 95.3516C293.436 94.9622 290.79 95.4854 288.542 96.8315C287.296 97.6283 285.847 98.052 284.367 98.0527Z" fill="#263238"/>
<path d="M285.426 92.9811C284.566 94.1843 283.176 97.7939 282.851 100.802C282.526 103.81 282.851 108.743 283.603 108.743C284.355 108.743 285.643 102.306 285.643 102.306C285.643 102.306 286.178 104.772 287.447 105.524C288.717 106.276 290.985 111.312 290.985 111.312C290.985 111.312 293.993 105.843 294.414 104.02C294.835 102.198 294.955 101.343 295.491 101.981C296.445 103.483 297.27 105.063 297.957 106.704C298.493 107.991 298.92 102.492 298.168 99.4844C297.416 96.4764 295.701 94.449 295.491 93.697C295.28 92.945 294.095 92.193 294.095 92.193C289.932 87.8314 286.286 91.802 285.426 92.9811Z" fill="white" stroke="#263238" stroke-width="0.8" stroke-linecap="round" stroke-linejoin="round"/>
<path d="M284.566 94.804C285.412 96.7385 286.059 98.7543 286.497 100.82C287.032 103.72 290.467 110.049 291.003 111.33C291.538 112.611 293.151 107.257 293.788 103.611C294.426 99.9658 293.644 91.1343 293.644 91.1343C290.642 95.0928 284.566 94.804 284.566 94.804Z" fill="white" stroke="#263238" stroke-width="0.8" stroke-linecap="round" stroke-linejoin="round"/>
<path d="M278.279 74.8852C277.745 76.1756 277.142 77.4367 276.474 78.6633C275.915 79.7522 275.145 80.8952 275.271 82.1706C275.397 83.446 278.941 90.593 280.445 92.2233C281.949 93.8537 287.129 97.9205 289.367 96.3984C294.318 93.0295 293.873 83.0489 293.343 81.4186C292.814 79.7882 292.14 80.2154 292.14 80.2154C291.863 80.3898 291.147 79.8123 290.883 79.704C289.355 79.0603 287.682 79.0182 286.136 78.3865C284.48 77.7373 282.991 76.7236 281.78 75.4206C280.818 74.3378 279.976 73.0924 278.49 72.6833C278.947 72.8097 278.67 73.8625 278.279 74.8852Z" fill="white" stroke="#263238" stroke-width="0.8" stroke-linecap="round" stroke-linejoin="round"/>
<path d="M279.278 83.1991C279.437 82.931 279.65 82.6988 279.904 82.517C280.157 82.3352 280.446 82.2078 280.751 82.1429C281.056 82.0779 281.371 82.0767 281.677 82.1394C281.982 82.2021 282.272 82.3274 282.526 82.5073" stroke="#263238" stroke-width="0.8" stroke-linecap="round" stroke-linejoin="round"/>
<path d="M288.542 79.9205C285.709 79.0361 285.276 81.244 285.276 81.244" stroke="#263238" stroke-width="0.8" stroke-linecap="round" stroke-linejoin="round"/>
<path d="M282.641 85.1604C282.755 85.6477 282.671 86.0869 282.448 86.141C282.226 86.1952 281.949 85.8402 281.847 85.3469C281.744 84.8536 281.817 84.4204 282.039 84.3663C282.262 84.3122 282.526 84.6671 282.641 85.1604Z" fill="#263238"/>
<path d="M288.44 83.7106C288.554 84.2039 288.47 84.6431 288.248 84.6972C288.025 84.7514 287.748 84.3904 287.646 83.9031C287.544 83.4158 287.616 82.9706 287.839 82.9225C288.061 82.8744 288.32 83.2354 288.44 83.7106Z" fill="#263238"/>
<path d="M285.3 82.6277C285.3 85.5394 287.231 87.3984 287.105 88.4271C287.102 88.4506 287.094 88.4731 287.081 88.4928C287.068 88.5125 287.05 88.5289 287.03 88.5406C287.009 88.5523 286.986 88.559 286.963 88.5602C286.939 88.5614 286.916 88.557 286.894 88.5474C286.449 88.3128 285.919 87.9458 285.48 87.7172" stroke="#263238" stroke-width="0.8" stroke-linecap="round" stroke-linejoin="round"/>
<path d="M283.399 90.2078C283.822 90.739 284.381 91.147 285.015 91.3892C285.65 91.6315 286.338 91.6993 287.008 91.5854" stroke="#263238" stroke-width="0.8" stroke-linecap="round" stroke-linejoin="round"/>
<path d="M285.131 96.1758C285.131 96.1758 287.688 102.065 289.806 101.554C291.923 101.043 293.169 91.375 293.169 91.375C293.169 91.375 290.654 96.0976 288.554 96.8315C286.81 97.4451 285.131 96.1758 285.131 96.1758Z" fill="#263238"/>
<path d="M282.978 99.8755C282.755 100.086 282.526 100.297 282.292 100.477C282.057 100.658 281.823 100.88 281.576 101.079C281.371 101.247 281.155 101.404 280.938 101.56C280.869 101.614 280.797 101.664 280.722 101.71C280.511 101.867 280.3 102.005 280.084 102.144C279.867 102.282 279.567 102.48 279.296 102.631C279.025 102.781 278.76 102.944 278.49 103.082C278.219 103.22 277.942 103.371 277.665 103.503C277.389 103.635 277.106 103.768 276.817 103.882C276.528 103.996 276.312 104.105 276.053 104.201C275.542 104.4 275.018 104.58 274.489 104.742C274.303 104.803 274.11 104.857 273.924 104.905C273.122 105.133 272.309 105.318 271.487 105.458C269.448 105.801 267.649 107.48 266.5 109.357" stroke="#263238" stroke-width="0.8" stroke-linecap="round" stroke-linejoin="round"/>
<path d="M309.418 109.038C308.852 106.391 307.679 103.9 305.477 102.42C303.733 101.259 301.597 100.91 299.588 100.303C299.209 100.188 298.83 100.062 298.457 99.9117L298.258 99.8335" stroke="#263238" stroke-width="0.8" stroke-linecap="round" stroke-linejoin="round"/>
<path d="M292.32 114.753C292.32 115.421 291.947 115.956 291.49 115.956C291.033 115.956 290.66 115.421 290.66 114.753C290.66 114.085 291.033 113.55 291.49 113.55C291.947 113.55 292.32 114.085 292.32 114.753Z" fill="#263238"/>
<path d="M274.495 109.134C275.897 111.612 276.937 114.278 277.581 117.051" stroke="#263238" stroke-width="0.8" stroke-linecap="round" stroke-linejoin="round"/>
<path d="M277.329 109.417L278.123 113.785" stroke="#263238" stroke-width="0.8" stroke-linecap="round" stroke-linejoin="round"/>
<path d="M315.986 95.0477C318.549 79.4954 308.02 64.8096 292.467 62.2461C276.915 59.6826 262.229 70.2121 259.666 85.7644C257.102 101.317 267.632 116.002 283.184 118.566C298.736 121.129 313.422 110.6 315.986 95.0477Z" stroke="#263238" stroke-width="0.8" stroke-miterlimit="10"/>
<path d="M232.106 274.574V295.732C232.106 297.249 245.215 300.81 261.885 300.81C278.556 300.81 292.471 297.249 292.471 295.732V274.574H232.106Z" fill="white" stroke="#263238" stroke-width="0.8" stroke-miterlimit="10"/>
<path d="M232.106 287.695C232.106 289.211 245.215 292.779 261.885 292.779C278.556 292.779 292.471 289.211 292.471 287.695" fill="white"/>
<path d="M232.106 287.695C232.106 289.211 245.215 292.779 261.885 292.779C278.556 292.779 292.471 289.211 292.471 287.695" stroke="#263238" stroke-width="1.6" stroke-miterlimit="10"/>
<path d="M292.471 274.574C292.471 275.236 289.914 276.078 285.649 276.812C270.16 279.138 254.411 279.138 238.922 276.812C234.663 276.078 232.106 275.236 232.106 274.574C232.106 273.052 245.618 271.831 262.283 271.831C278.947 271.831 292.471 273.052 292.471 274.574Z" fill="#33B55B" stroke="#263238" stroke-width="0.8" stroke-miterlimit="10"/>
<path d="M285.649 276.824C270.16 279.15 254.411 279.15 238.922 276.824C243.32 276.054 252.158 275.531 262.283 275.531C272.407 275.531 281.251 276.042 285.649 276.824Z" fill="#263238"/>
<path d="M273.081 181.134C273.081 181.134 273.081 178.017 268.72 173.662C264.358 169.306 261.561 166.803 261.561 166.803C261.561 166.803 259.377 173.969 263.426 178.336C266.403 181.409 269.633 184.226 273.081 186.759V181.134Z" fill="#33B55B"/>
<path d="M266.752 200.589C266.752 200.589 266.752 197.473 262.391 193.118C258.029 188.762 255.226 186.259 255.226 186.259C255.226 186.259 253.048 193.424 257.097 197.786C260.063 200.859 263.283 203.676 266.722 206.208L266.752 200.589Z" fill="#33B55B"/>
<path d="M272.804 186.446C272.804 186.446 273.141 183.341 277.936 179.467C282.731 175.593 285.757 173.409 285.757 173.409C285.757 173.409 287.171 180.767 282.683 184.671C279.404 187.402 275.903 189.853 272.215 191.998L272.804 186.446Z" fill="#33B55B"/>
<path d="M265.164 209.445C265.164 209.445 265.814 206.401 270.994 203.05C276.173 199.699 279.416 197.846 279.416 197.846C279.416 197.846 280.048 205.312 275.175 208.729C271.62 211.107 267.873 213.184 263.973 214.937L265.164 209.445Z" fill="#33B55B"/>
<path d="M266.602 234.465C266.602 234.465 266.602 231.349 270.958 226.987C275.313 222.626 278.123 220.135 278.123 220.135C278.123 220.135 280.306 227.3 276.258 231.656C273.282 234.73 270.052 237.548 266.602 240.078V234.465Z" fill="#33B55B"/>
<path d="M266.53 240.578C266.53 240.578 266.969 237.491 263.275 232.558C259.581 227.625 257.175 224.738 257.175 224.738C257.175 224.738 253.992 231.512 257.385 236.385C259.896 239.846 262.694 243.09 265.748 246.082L266.53 240.578Z" fill="#33B55B"/>
<path d="M262.222 258.722C262.222 258.722 262.222 255.606 266.59 251.25C270.958 246.894 273.749 244.392 273.749 244.392C273.749 244.392 275.909 251.557 271.878 255.919C268.899 258.99 265.67 261.807 262.222 264.341V258.722Z" fill="#33B55B"/>
<path d="M273.767 270.008C272.108 272.934 270.259 275.747 268.232 278.43C267.667 278.43 267.089 278.473 266.512 278.485H266.018L265.182 275.284L265.134 275.104C264.976 274.153 265.017 273.18 265.254 272.246C265.517 270.967 265.944 269.728 266.524 268.558C266.788 267.999 267.125 267.403 267.462 266.783C270.579 261.483 272.654 258.361 272.654 258.361C272.654 258.361 276.583 264.738 273.767 270.008Z" fill="#33B55B"/>
<path d="M265.874 278.515C265.573 277.51 265.272 276.481 264.978 275.453C264.749 274.652 264.526 273.852 264.304 273.046C264.081 272.24 263.883 271.512 263.702 270.766C263.035 268.257 262.499 266.007 262.228 264.401C261.955 262.681 261.955 260.929 262.228 259.209C262.349 258.391 262.517 257.567 262.722 256.731C263.486 253.554 264.713 250.155 265.627 245.962C265.826 245.072 266.006 244.157 266.163 243.195V243.08C266.247 242.545 266.331 241.992 266.403 241.426C266.403 241.282 266.44 241.143 266.452 240.999C266.482 240.74 266.512 240.481 266.53 240.217V240.187C266.56 239.898 266.578 239.585 266.59 239.32C266.647 238.194 266.647 237.066 266.59 235.939C266.229 228.359 263.69 220.996 264.184 214.781C264.237 214.075 264.338 213.374 264.484 212.682C264.855 210.995 265.338 209.335 265.928 207.712C266.121 207.153 266.331 206.599 266.53 206.046C266.53 206.01 266.53 205.974 266.572 205.932C266.614 205.889 266.656 205.721 266.692 205.619C268.647 200.722 271.048 196.095 272.227 189.977C272.371 189.183 272.504 188.395 272.624 187.601V187.571C272.672 187.222 272.726 186.873 272.774 186.524C272.774 186.331 272.829 186.133 272.853 185.922C272.919 185.465 272.973 184.996 273.021 184.539C273.19 183.125 273.316 181.705 273.418 180.285" stroke="#263238" stroke-width="0.8" stroke-linecap="round" stroke-linejoin="round"/>
<path d="M272.762 188.509L277.467 184.906" stroke="#263238" stroke-width="0.8" stroke-linecap="round" stroke-linejoin="round"/>
<path d="M272.985 184.358L271.018 180.857" stroke="#263238" stroke-width="0.8" stroke-linecap="round" stroke-linejoin="round"/>
<path d="M264.785 212.338C264.785 212.338 268.72 209.385 272.762 206.437" stroke="#263238" stroke-width="0.8" stroke-linecap="round" stroke-linejoin="round"/>
<path d="M266.752 206.196C266.752 206.196 263.474 199.771 259.756 195.5" stroke="#263238" stroke-width="0.8" stroke-linecap="round" stroke-linejoin="round"/>
<path d="M266.758 238.923C269.006 234.79 271.843 231.007 275.181 227.691" stroke="#263238" stroke-width="0.8" stroke-linecap="round" stroke-linejoin="round"/>
<path d="M265.988 243.267C264.796 240.457 263.37 237.752 261.723 235.181C259.431 231.794 259.1 231.355 259.1 231.355" stroke="#263238" stroke-width="0.8" stroke-linecap="round" stroke-linejoin="round"/>
<path d="M262.222 264.425C263.221 261.951 264.405 259.556 265.766 257.26C267.128 255.131 268.665 253.118 270.362 251.244" stroke="#263238" stroke-width="0.8" stroke-linecap="round" stroke-linejoin="round"/>
<path d="M266.512 278.502C266.568 276.82 266.978 275.167 267.715 273.654C269.381 270.483 271.216 266.326 271.98 264.69" stroke="#263238" stroke-width="0.8" stroke-linecap="round" stroke-linejoin="round"/>
<path d="M244.529 222.752C244.529 222.752 244.186 220.797 246.448 217.59C248.71 214.384 250.196 212.513 250.196 212.513C250.196 212.513 252.344 216.766 250.275 219.949C248.74 222.195 247.02 224.308 245.131 226.266L244.529 222.752Z" fill="#33B55B"/>
<path d="M250.605 234.261C250.605 234.261 250.269 232.306 252.531 229.105C254.793 225.905 256.279 224.022 256.279 224.022C256.279 224.022 258.42 228.281 256.357 231.451C254.832 233.699 253.122 235.814 251.243 237.774L250.605 234.261Z" fill="#33B55B"/>
<path d="M245.269 226.049C245.269 226.049 244.716 224.136 241.299 222.229C237.882 220.322 235.722 219.287 235.722 219.287C235.722 219.287 235.638 224.052 238.904 226.001C241.259 227.362 243.724 228.521 246.274 229.466L245.269 226.049Z" fill="#33B55B"/>
<path d="M252.561 239.621C252.561 239.621 251.821 237.786 248.211 236.246C244.601 234.706 242.352 233.9 242.352 233.9C242.352 233.9 242.767 238.647 246.19 240.259C248.674 241.363 251.245 242.259 253.878 242.936L252.561 239.621Z" fill="#33B55B"/>
<path d="M254.377 255.491C254.377 255.491 254.041 253.53 250.834 251.28C247.628 249.03 245.6 247.761 245.6 247.761C245.6 247.761 244.999 252.489 248.007 254.787C250.211 256.378 252.54 257.786 254.973 258.999L254.377 255.491Z" fill="#33B55B"/>
<path d="M255.087 259.312C255.087 259.312 254.486 257.423 256.254 253.933C258.023 250.444 259.262 248.386 259.262 248.386C259.262 248.386 261.994 252.297 260.375 255.726C259.168 258.169 257.759 260.507 256.164 262.717L255.087 259.312Z" fill="#33B55B"/>
<path d="M260.562 275.068C260.562 275.068 260.791 273.1 263.889 270.628C266.987 268.155 268.918 266.82 268.918 266.82C268.918 266.82 269.778 271.506 266.903 273.967C264.796 275.692 262.548 277.237 260.183 278.587L260.562 275.068Z" fill="#33B55B"/>
<path d="M259.75 270.206C259.75 270.206 259.413 268.257 256.206 265.995C253 263.733 250.972 262.476 250.972 262.476C250.972 262.476 250.371 267.204 253.379 269.497C255.582 271.092 257.914 272.5 260.351 273.708L259.75 270.206Z" fill="#33B55B"/>
<path d="M259.106 278.527C258.288 278.527 257.47 278.491 256.67 278.461C255.623 278.43 254.6 278.382 253.595 278.334C251.478 275.368 253.174 271.115 253.174 271.115C253.174 271.115 254.811 272.836 257.343 275.85C258.045 276.661 258.638 277.561 259.106 278.527Z" fill="#33B55B"/>
<path opacity="0.2" d="M273.081 181.134C273.081 181.134 273.081 178.017 268.72 173.662C264.358 169.306 261.561 166.803 261.561 166.803C261.561 166.803 259.377 173.969 263.426 178.336C266.403 181.409 269.633 184.226 273.081 186.759V181.134Z" fill="black"/>
<path opacity="0.2" d="M266.752 200.589C266.752 200.589 266.752 197.473 262.391 193.118C258.029 188.762 255.226 186.259 255.226 186.259C255.226 186.259 253.048 193.424 257.097 197.786C260.063 200.859 263.283 203.676 266.722 206.208L266.752 200.589Z" fill="black"/>
<path opacity="0.2" d="M272.804 186.446C272.804 186.446 273.141 183.341 277.936 179.467C282.731 175.593 285.757 173.409 285.757 173.409C285.757 173.409 287.171 180.767 282.683 184.671C279.404 187.402 275.903 189.853 272.215 191.998L272.804 186.446Z" fill="black"/>
<path opacity="0.2" d="M265.164 209.445C265.164 209.445 265.814 206.401 270.994 203.05C276.173 199.699 279.416 197.846 279.416 197.846C279.416 197.846 280.048 205.312 275.175 208.729C271.62 211.107 267.873 213.184 263.973 214.937L265.164 209.445Z" fill="black"/>
<path opacity="0.2" d="M266.602 234.465C266.602 234.465 266.602 231.349 270.958 226.987C275.313 222.626 278.123 220.135 278.123 220.135C278.123 220.135 280.306 227.3 276.258 231.656C273.282 234.73 270.052 237.548 266.602 240.078V234.465Z" fill="black"/>
<path opacity="0.2" d="M262.222 258.722C262.222 258.722 262.222 255.606 266.59 251.25C270.958 246.894 273.749 244.392 273.749 244.392C273.749 244.392 275.909 251.557 271.878 255.919C268.899 258.99 265.67 261.807 262.222 264.341V258.722Z" fill="black"/>
<path opacity="0.2" d="M244.529 222.752C244.529 222.752 244.186 220.797 246.448 217.59C248.71 214.384 250.196 212.513 250.196 212.513C250.196 212.513 252.344 216.766 250.275 219.949C248.74 222.195 247.02 224.308 245.131 226.266L244.529 222.752Z" fill="black"/>
<path opacity="0.2" d="M263.275 232.558C259.575 227.619 257.175 224.738 257.175 224.738C257.175 224.738 257.037 225.026 256.85 225.526C256.703 225.001 256.512 224.49 256.279 223.998C256.279 223.998 254.793 225.875 252.531 229.081C250.269 232.288 250.605 234.237 250.605 234.237L251.207 237.75C252.901 235.989 254.459 234.102 255.869 232.107C255.992 233.64 256.513 235.114 257.379 236.385C259.89 239.846 262.688 243.09 265.742 246.082L266.524 240.554C266.524 240.554 266.969 237.491 263.275 232.558Z" fill="black"/>
<path opacity="0.2" d="M245.269 226.049C245.269 226.049 244.716 224.136 241.299 222.229C237.882 220.322 235.722 219.287 235.722 219.287C235.722 219.287 235.638 224.052 238.904 226.001C241.259 227.362 243.724 228.521 246.274 229.466L245.269 226.049Z" fill="black"/>
<path opacity="0.2" d="M252.561 239.621C252.561 239.621 251.821 237.786 248.211 236.246C244.601 234.706 242.352 233.9 242.352 233.9C242.352 233.9 242.767 238.647 246.19 240.259C248.674 241.363 251.245 242.259 253.878 242.936L252.561 239.621Z" fill="black"/>
<path opacity="0.2" d="M254.377 255.491C254.377 255.491 254.041 253.53 250.834 251.28C247.628 249.03 245.6 247.761 245.6 247.761C245.6 247.761 244.999 252.489 248.007 254.787C250.211 256.378 252.54 257.786 254.973 258.999L254.377 255.491Z" fill="black"/>
<path opacity="0.2" d="M255.087 259.312C255.087 259.312 254.486 257.423 256.254 253.933C258.023 250.444 259.262 248.386 259.262 248.386C259.262 248.386 261.994 252.297 260.375 255.726C259.168 258.169 257.759 260.507 256.164 262.717L255.087 259.312Z" fill="black"/>
<path opacity="0.2" d="M272.654 258.361C272.654 258.361 270.579 261.507 267.462 266.783C267.101 267.385 266.788 267.987 266.524 268.558C265.784 269.118 264.899 269.798 263.889 270.604C260.791 273.076 260.562 275.043 260.562 275.043L260.183 278.563C261.915 277.573 263.584 276.478 265.182 275.284L266.018 278.485H266.512C267.113 278.485 267.667 278.455 268.232 278.43C270.259 275.747 272.108 272.934 273.767 270.008C276.583 264.738 272.654 258.361 272.654 258.361Z" fill="black"/>
<path opacity="0.2" d="M259.75 270.206C259.75 270.206 259.413 268.257 256.206 265.995C253 263.733 250.972 262.476 250.972 262.476C250.972 262.476 250.371 267.204 253.379 269.497C255.582 271.092 257.914 272.5 260.351 273.708L259.75 270.206Z" fill="black"/>
<path opacity="0.2" d="M259.106 278.527C258.288 278.527 257.47 278.491 256.67 278.461C255.623 278.43 254.6 278.382 253.595 278.334C251.478 275.368 253.174 271.115 253.174 271.115C253.174 271.115 254.811 272.836 257.343 275.85C258.045 276.661 258.638 277.561 259.106 278.527Z" fill="black"/>
<path d="M260.087 278.539C260.261 276.656 260.375 274.929 260.369 273.798C260.352 272.704 260.163 271.62 259.81 270.585C259.648 270.068 259.437 269.545 259.208 269.015C258.378 267.12 257.247 265.135 256.23 262.626C255.978 262.025 255.737 261.387 255.521 260.707C255.424 260.43 255.328 260.142 255.238 259.853C255.241 259.811 255.241 259.769 255.238 259.726C255.172 259.516 255.117 259.305 255.057 259.095C255.003 258.908 254.961 258.716 254.919 258.493C254.781 257.892 254.678 257.254 254.594 256.628C253.956 251.779 254.769 246.798 253.758 242.9C253.644 242.465 253.505 242.037 253.343 241.618C252.929 240.605 252.449 239.62 251.905 238.67C251.718 238.334 251.526 238.009 251.303 237.69C251.294 237.667 251.284 237.645 251.273 237.624C251.231 237.552 251.195 237.491 251.153 237.431C249.402 234.568 247.393 231.933 245.991 228.227C245.811 227.745 245.642 227.258 245.48 226.759C245.467 226.734 245.457 226.708 245.45 226.681C245.39 226.494 245.329 226.314 245.275 226.121C245.239 226.025 245.203 225.923 245.173 225.82C245.077 225.52 244.987 225.219 244.896 224.918C244.638 224.052 244.403 223.179 244.186 222.295" stroke="#263238" stroke-width="0.8" stroke-linecap="round" stroke-linejoin="round"/>
<path d="M245.528 227.336L242.189 225.586" stroke="#263238" stroke-width="0.8" stroke-linecap="round" stroke-linejoin="round"/>
<path d="M244.938 224.762L245.793 222.355" stroke="#263238" stroke-width="0.8" stroke-linecap="round" stroke-linejoin="round"/>
<path d="M253.114 241.414C253.114 241.414 250.341 239.994 247.471 238.58" stroke="#263238" stroke-width="0.8" stroke-linecap="round" stroke-linejoin="round"/>
<path d="M251.243 237.774C252.061 235.185 253.139 232.686 254.462 230.314" stroke="#263238" stroke-width="0.8" stroke-linecap="round" stroke-linejoin="round"/>
<path d="M254.762 258.283C252.905 255.937 250.716 253.874 248.265 252.158" stroke="#263238" stroke-width="0.8" stroke-linecap="round" stroke-linejoin="round"/>
<path d="M255.719 260.942C256.164 259.045 256.768 257.19 257.524 255.395C258.601 253.025 258.727 252.712 258.727 252.712" stroke="#263238" stroke-width="0.8" stroke-linecap="round" stroke-linejoin="round"/>
<path d="M260.225 277.173C261.316 275.827 262.524 274.581 263.835 273.449C264.666 272.835 265.447 272.155 266.169 271.416" stroke="#263238" stroke-width="0.8" stroke-linecap="round" stroke-linejoin="round"/>
<path d="M260.369 273.816C259.474 272.371 258.469 270.997 257.361 269.707C256.277 268.522 255.096 267.429 253.83 266.44" stroke="#263238" stroke-width="0.8" stroke-linecap="round" stroke-linejoin="round"/>
<path d="M254.287 275.019C254.75 275.681 255.683 277.065 256.694 278.454" stroke="#263238" stroke-width="0.8" stroke-linecap="round" stroke-linejoin="round"/>
<path d="M203.807 291.323C198.345 287.491 192.046 281.288 189.97 272.258C188.307 276.554 186.064 280.602 183.305 284.29C179.412 289.329 174.019 293.001 167.904 294.776C166.406 295.233 165.563 295.745 165.563 296.286C165.563 298.205 176.139 299.763 189.188 299.763C202.237 299.763 212.819 298.205 212.819 296.286C212.819 295.817 212.169 295.359 211.014 294.95C208.457 294.076 206.032 292.856 203.807 291.323Z" fill="white" stroke="#263238" stroke-width="0.8" stroke-miterlimit="10"/>
<path d="M187.582 193.803L182.685 276.481L189.351 286.137L195.926 277.799L192.142 194.032L187.582 193.803Z" fill="white" stroke="#263238" stroke-width="0.8" stroke-miterlimit="10"/>
<path d="M216.429 186.729H150.932V191.048C150.932 194.339 168.295 197.01 189.712 197.01C211.129 197.01 228.491 194.339 228.491 191.048V186.729H216.429Z" fill="#263238"/>
<path d="M189.712 192.69C211.129 192.69 228.491 190.021 228.491 186.728C228.491 183.436 211.129 180.767 189.712 180.767C168.294 180.767 150.932 183.436 150.932 186.728C150.932 190.021 168.294 192.69 189.712 192.69Z" fill="#33B55B"/>
<path d="M189.712 192.69C211.129 192.69 228.491 190.021 228.491 186.728C228.491 183.436 211.129 180.767 189.712 180.767C168.294 180.767 150.932 183.436 150.932 186.728C150.932 190.021 168.294 192.69 189.712 192.69Z" stroke="#263238" stroke-width="0.8" stroke-linecap="round" stroke-linejoin="round"/>
<path d="M216.164 174.793H196.311C196.311 174.793 196.311 180.123 199.115 187.096C199.115 188.431 202.321 189.502 206.28 189.502C210.238 189.502 213.439 188.425 213.439 187.096C213.445 187.03 213.445 186.963 213.439 186.897C216.134 180.021 216.164 174.793 216.164 174.793Z" fill="white" stroke="#263238" stroke-width="0.8" stroke-linecap="round" stroke-linejoin="round"/>
<path d="M206.304 177.687C211.809 177.687 216.272 176.391 216.272 174.793C216.272 173.195 211.809 171.899 206.304 171.899C200.798 171.899 196.335 173.195 196.335 174.793C196.335 176.391 200.798 177.687 206.304 177.687Z" fill="white" stroke="#263238" stroke-width="0.8" stroke-linecap="round" stroke-linejoin="round"/>
<path d="M206.304 177.211C211.244 177.211 215.249 176.129 215.249 174.793C215.249 173.457 211.244 172.375 206.304 172.375C201.363 172.375 197.358 173.457 197.358 174.793C197.358 176.129 201.363 177.211 206.304 177.211Z" fill="white" stroke="#263238" stroke-width="0.8" stroke-linecap="round" stroke-linejoin="round"/>
<path d="M198.2 175.815C199.632 176.64 202.718 177.205 206.304 177.205C209.889 177.205 212.975 176.64 214.401 175.815C212.975 174.997 209.883 174.426 206.304 174.426C202.724 174.426 199.632 174.997 198.2 175.815Z" fill="#263238" stroke="#263238" stroke-width="0.8" stroke-linecap="round" stroke-linejoin="round"/>
<path d="M202.135 176.044C202.135 176.044 199.542 169.571 200.3 167.844C201.058 166.118 203.536 166.334 204.403 168.061C205.269 169.787 205.696 176.261 205.696 176.261C205.696 176.261 203.115 177.127 202.135 176.044Z" fill="#33B55B" stroke="#263238" stroke-width="0.8" stroke-miterlimit="10"/>
<path d="M204.403 176.694C204.403 176.694 202.351 165.264 202.887 163.098C203.422 160.932 206.129 160.18 208.066 161.798C210.004 163.417 209.27 171.622 209.27 172.808C209.27 173.993 209.161 176.477 209.161 176.477C207.623 176.974 205.98 177.049 204.403 176.694Z" fill="#33B55B" stroke="#263238" stroke-width="0.8" stroke-miterlimit="10"/>
<path d="M208.608 176.477C208.608 176.477 207.008 172.049 207.964 170.323C208.921 168.596 210.876 169.246 210.876 170.648C210.876 172.049 210.984 175.4 210.768 176.152C210.551 176.904 209.366 177.127 208.608 176.477Z" fill="#33B55B" stroke="#263238" stroke-width="0.8" stroke-miterlimit="10"/>
<path d="M206.238 176.357C203.536 166.13 205.804 161.034 205.804 161.034C205.804 161.034 209.041 166.647 207.314 176.357" stroke="#263238" stroke-width="0.8" stroke-linecap="round" stroke-linejoin="round"/>
<path d="M201.81 167.628C201.81 167.628 199.325 167.736 203.428 176.261" stroke="#263238" stroke-width="0.8" stroke-linecap="round" stroke-linejoin="round"/>
<path d="M142.775 292.328C137.312 288.947 131.013 283.484 128.938 275.525C127.244 279.359 124.999 282.924 122.272 286.107C118.44 290.589 112.965 293.717 106.871 295.348C105.373 295.751 104.531 296.202 104.531 296.677C104.531 298.368 115.107 299.739 128.156 299.739C141.205 299.739 151.787 298.368 151.787 296.677C151.787 296.262 151.137 295.859 149.982 295.474C147.457 294.732 145.035 293.675 142.775 292.328Z" fill="white" stroke="#263238" stroke-width="0.8" stroke-miterlimit="10"/>
<path d="M126.55 206.401L121.653 279.243L128.318 287.755L134.894 280.41L131.11 206.605L126.55 206.401Z" fill="white" stroke="#263238" stroke-width="0.8" stroke-miterlimit="10"/>
<path d="M154.897 209.746H89.4128V214.071C89.4128 217.356 106.775 220.027 128.192 220.027C149.609 220.027 166.971 217.356 166.971 214.071V209.746H154.897Z" fill="#263238"/>
<path d="M128.186 215.714C149.603 215.714 166.965 213.045 166.965 209.752C166.965 206.459 149.603 203.79 128.186 203.79C106.769 203.79 89.4068 206.459 89.4068 209.752C89.4068 213.045 106.769 215.714 128.186 215.714Z" fill="#33B55B" stroke="#263238" stroke-width="0.8" stroke-miterlimit="10"/>
<path d="M190.361 280.662C189.062 282.106 186.752 282.1 184.947 281.535C182.131 280.668 179.713 278.815 176.94 277.841C173.535 276.638 169.498 276.686 166.851 274.231C165.525 272.906 164.651 271.197 164.354 269.346L164.282 268.937C164.048 266.951 164.034 264.946 164.24 262.957L170.827 259.113C175.171 265.279 182.559 271.109 186.788 274.52C187.864 275.333 188.881 276.222 189.832 277.179C191.354 279.068 190.361 280.662 190.361 280.662Z" fill="white"/>
<path d="M164.216 262.951C164.01 264.94 164.024 266.946 164.258 268.931C164.505 270.932 165.408 272.793 166.827 274.225C169.474 276.686 173.51 276.632 176.915 277.835C179.689 278.809 182.107 280.662 184.923 281.529C186.776 282.094 189.062 282.1 190.337 280.656C190.337 280.656 191.33 279.062 189.784 277.167C188.238 275.272 176.693 267.493 170.779 259.119L164.216 262.951Z" stroke="#263238" stroke-width="0.8" stroke-miterlimit="10"/>
<path d="M110.397 184.827C110.397 184.827 102.792 192.6 103.484 201.967C104.176 211.334 116.316 215.491 124.336 218.698C129.32 220.739 133.925 223.607 137.956 227.18C137.956 227.18 135.339 234.514 142.215 243.676C149.091 252.838 164.679 264.305 164.679 264.305C166.114 264.29 167.511 263.845 168.691 263.028C169.871 262.211 170.778 261.059 171.297 259.721C171.297 259.721 156.257 233.365 152.545 222.367C152.545 222.367 151.853 213.945 148.388 210.907C148.388 210.907 152.984 205.998 152.942 200.481C152.9 194.964 147.768 186.362 141.752 182.373L141.307 183.751L135.892 188.148C135.892 188.148 123.56 189.123 115.005 182.024V179.967L114.325 180.821L110.397 184.827Z" fill="#263238"/>
<path d="M146.601 208.362C147.252 209.174 147.855 210.024 148.406 210.907" stroke="white" stroke-width="0.8" stroke-linecap="round" stroke-linejoin="round"/>
<path d="M131.435 194.038C131.435 194.038 139.484 200.253 144.953 206.407" stroke="white" stroke-width="0.8" stroke-linecap="round" stroke-linejoin="round"/>
<path d="M137.956 199.507C137.956 199.507 140.807 196.775 141.331 194.038" stroke="white" stroke-width="0.8" stroke-linecap="round" stroke-linejoin="round"/>
<path d="M190.361 280.662C189.062 282.106 186.752 282.1 184.947 281.535C182.131 280.668 179.713 278.815 176.94 277.841C173.535 276.638 169.498 276.686 166.851 274.231C165.491 272.968 164.264 270.146 164.089 266.735C165.692 268.38 167.536 269.769 169.558 270.856C171.603 271.927 173.769 273.191 175.797 274.297C177.879 275.531 180.175 276.359 182.565 276.74C183.271 276.817 183.986 276.737 184.658 276.505C186.361 275.765 186.096 274.622 186.138 274.033C187.424 275.016 188.657 276.066 189.832 277.179C191.354 279.068 190.361 280.662 190.361 280.662Z" fill="#263238"/>
<path d="M134.07 289.061C134.07 293.783 132.65 298.686 129.353 302.043C128.811 302.688 128.07 303.137 127.247 303.319C126.71 303.337 126.176 303.223 125.693 302.986C125.21 302.749 124.794 302.396 124.48 301.959C123.157 300.347 122.747 298.145 122.838 296.057C122.928 293.97 123.439 291.93 123.77 289.867C123.903 289.007 124.005 288.146 124.071 287.28C124.222 285.215 124.178 283.14 123.939 281.084C123.68 278.864 123.187 276.656 124.817 274.959C126.062 273.666 128.427 271.723 130.231 273.197C130.793 273.751 131.183 274.454 131.356 275.224C131.633 276.084 131.91 276.945 132.169 277.817C133.346 281.452 133.986 285.24 134.07 289.061Z" fill="white"/>
<path d="M123.939 281.084C124.28 284.006 124.223 286.96 123.77 289.867C123.445 291.93 122.922 293.97 122.838 296.057C122.753 298.145 123.157 300.347 124.48 301.959C124.794 302.396 125.21 302.749 125.693 302.986C126.176 303.223 126.71 303.337 127.247 303.319C128.07 303.137 128.811 302.688 129.353 302.043C132.65 298.662 134.064 293.783 134.07 289.061C134.076 284.338 132.794 279.712 131.332 275.224C131.159 274.454 130.769 273.751 130.207 273.197C128.402 271.723 126.062 273.666 124.793 274.959C123.187 276.656 123.704 278.864 123.939 281.084Z" stroke="#263238" stroke-width="0.8" stroke-miterlimit="10"/>
<path d="M123.842 278.027C123.842 278.027 127.229 283.111 132.15 278.027C132.15 278.027 131.471 263.781 132.993 256.412C134.515 249.042 140.284 225.983 132.15 218.018C124.017 210.053 116.719 217.506 115.366 223.949C114.012 230.393 118.247 248.699 120.78 257.176C123.313 265.652 123.842 278.027 123.842 278.027Z" fill="#263238"/>
<path d="M134.785 222.133C134.785 222.133 129.72 208.844 118.927 216.532" stroke="white" stroke-width="0.8" stroke-linecap="round" stroke-linejoin="round"/>
<path d="M134.07 289.061C134.07 293.783 132.65 298.686 129.353 302.043C128.811 302.688 128.07 303.137 127.247 303.319C126.71 303.337 126.176 303.223 125.693 302.986C125.21 302.749 124.794 302.396 124.48 301.959C123.157 300.347 122.747 298.145 122.838 296.057C122.928 293.97 123.439 291.93 123.77 289.867C123.903 289.007 124.005 288.146 124.071 287.28C124.45 289.085 124.522 293.073 124.576 293.813C124.597 294.544 124.722 295.267 124.949 295.961C125.066 296.307 125.256 296.624 125.506 296.89C125.756 297.156 126.061 297.364 126.399 297.501C126.841 297.621 127.306 297.616 127.746 297.489C128.185 297.362 128.581 297.116 128.89 296.779C129.5 296.097 129.951 295.288 130.207 294.409C131.832 289.825 132.048 284.874 131.982 280.013C131.942 279.277 131.997 278.539 132.144 277.817C133.33 281.451 133.979 285.239 134.07 289.061Z" fill="#263238"/>
<path d="M112.797 125.221C112.233 126.533 112.018 127.968 112.171 129.388C112.325 130.808 112.843 132.164 113.675 133.325C116.551 137.421 125.401 141.26 130.52 139.082C135.64 136.904 144.856 137.018 149.079 139.683C153.303 142.349 169.179 140.52 169.179 130.888C169.179 130.888 171.357 132.801 170.845 135.605C170.845 135.605 177.884 129.378 169.564 120.131C169.564 120.131 171.922 115.866 166.965 115.234C162.008 114.603 161.551 111.914 161.075 109.098C160.6 106.283 160.714 99.4124 154.554 99.4725C154.554 99.4725 144.604 89.6183 133.498 94.4793C122.393 99.3402 125.076 106.511 119.854 105.495C119.639 106.116 119.639 106.792 119.854 107.414C119.854 107.414 121.52 111.252 119.09 113.045C116.659 114.837 110.198 118.044 109.873 126.881C110.156 126.358 110.58 125.925 111.097 125.632C111.614 125.338 112.203 125.196 112.797 125.221Z" fill="#263238"/>
<path d="M129.04 134.811L130.917 133.812V129.186C130.917 129.186 133.805 134.486 137.09 135.045C140.374 135.605 144.182 129.871 144.182 129.871C144.182 129.871 143.533 133.559 144.182 134.486C144.832 135.412 150.265 138.252 150.265 138.252C150.265 138.252 141.92 146.103 140.037 152.088C140.037 152.088 139.436 146.433 135.537 143.455C132.559 141.285 130.297 138.275 129.04 134.811Z" fill="white"/>
<path d="M129.04 134.811C126.838 135.462 124.524 135.64 122.248 135.334C118.969 134.732 113.609 132.795 109.723 135.605C105.836 138.414 106.558 149.694 106.113 152.853C105.668 156.011 105.301 159.091 102.6 161.81C99.8987 164.53 98.0879 172.332 98.7978 175.214C98.7978 175.214 96.8065 177.915 98.2563 182.926C99.7062 187.938 100.867 187.005 100.867 187.005C100.867 187.005 106.811 187.24 109.891 185.381C109.891 185.381 112.971 182.878 114 180.815C115.029 178.751 113.308 175.214 113.308 175.214L115.023 177.019V182.042C115.023 182.042 121.46 186.741 128.066 187.667C135.886 188.166 135.628 188.154 135.628 188.154L141.162 184.25C141.162 184.25 143.569 176.76 145.861 174.053C148.153 171.346 153.537 166.695 153.88 163.946C154.223 161.197 153.05 154.699 153.05 154.699C153.05 154.699 156.979 158.808 157.893 163.459C158.807 168.109 171.128 158.706 171.128 158.706C171.128 158.706 167.488 151.812 166.532 148.1C165.575 144.388 164.126 140.026 160.552 139.497C156.979 138.968 149.97 138.456 149.97 138.456C149.97 138.456 142.239 145.675 140.092 152.407C140.092 152.407 139.279 147.185 135.513 143.48C131.747 139.774 129.148 137.409 129.04 134.811Z" fill="#33B55B"/>
<path opacity="0.6" d="M150.265 138.252C150.265 138.252 141.932 146.307 140.254 151.433C140.254 151.433 138.148 146.018 134.954 142.884C131.759 139.75 130.183 137.307 129.04 134.811L127.512 135.334C127.512 135.334 126.032 138.907 125.792 140.58L130.117 142.896L129.762 150.837C129.762 150.837 137.39 158.694 138.185 163.471L140.278 164.674C140.278 164.674 141.301 158.724 140.814 155.488C140.814 155.488 142.017 153.875 144.977 152.684C147.936 151.493 149.952 150.44 149.952 150.44L149.11 145.339C151.281 144.805 153.387 144.035 155.39 143.04L151.63 138.552L150.265 138.252Z" fill="white"/>
<path opacity="0.2" d="M163.494 160.451C163.494 160.451 161.087 153.592 151.39 149.135L151.907 151.18L149.458 150.861C149.458 150.861 150.06 161.293 146.511 164.698C142.961 168.103 129.305 165.354 125.755 168.41L131.958 168.897C131.958 168.897 126.604 170.365 126.321 172.206C126.038 174.047 133.685 173.09 136.747 174.528C136.747 174.528 137.463 183.552 134.761 188.076L135.634 188.136L141.307 183.751C141.307 183.751 144.736 174.384 147.323 172.206C149.91 170.028 153.832 166.4 153.772 163.477C153.712 160.553 153.231 154.453 153.231 154.453C153.231 154.453 156.545 158.604 157.442 161.925C158.338 165.245 163.494 160.451 163.494 160.451Z" fill="black"/>
<path d="M163.151 172.483C163.151 172.483 165.184 181.025 172.987 180.815C172.987 180.815 173.901 181.23 174.924 178.884C175.947 176.538 176.994 174.119 176.019 169.517C175.045 164.915 171.832 159.819 171.832 159.819L162.489 165.077L163.151 172.483Z" fill="white"/>
<path d="M149.573 115.252C149.573 115.252 148.971 104.694 141.15 102.21C133.33 99.7251 126.525 105.819 125.009 114.121C125.009 114.121 126.814 122.905 127.939 124.998C129.064 127.092 133.612 134.203 136.867 135.051C140.122 135.899 144.646 129.498 146.45 126.731C148.255 123.964 149.543 119.307 149.807 115.252" fill="white"/>
<path d="M149.573 115.252C149.573 115.252 148.971 104.694 141.15 102.21C133.33 99.7251 126.525 105.819 125.009 114.121C125.009 114.121 126.814 122.905 127.939 124.998C129.064 127.092 133.612 134.203 136.867 135.051C140.122 135.899 144.646 129.498 146.45 126.731C148.255 123.964 149.543 119.307 149.807 115.252" stroke="#263238" stroke-width="0.8" stroke-miterlimit="10"/>
<path d="M136.729 126.791C136.908 127.096 137.131 127.374 137.39 127.615C138.305 128.464 138.594 127.116 138.594 126.412C138.544 124.727 138.835 123.049 139.448 121.479" stroke="#263238" stroke-width="0.8" stroke-linecap="round" stroke-linejoin="round"/>
<path d="M140.579 119.897C141.307 118.784 143.154 117.491 144.928 118.694" stroke="#263238" stroke-width="0.8" stroke-linecap="round" stroke-linejoin="round"/>
<path d="M131.158 118.2C133.107 116.997 135.417 117.719 135.796 119.307" stroke="#263238" stroke-width="0.8" stroke-linecap="round" stroke-linejoin="round"/>
<path d="M142.354 122.815C142.323 123.519 142.041 124.078 141.722 124.066C141.403 124.054 141.168 123.464 141.192 122.767C141.217 122.069 141.505 121.497 141.824 121.509C142.143 121.521 142.354 122.099 142.354 122.815Z" fill="#263238"/>
<path d="M134.268 122.616C134.238 123.32 133.955 123.88 133.636 123.868C133.318 123.856 133.077 123.266 133.107 122.568C133.137 121.87 133.42 121.299 133.739 121.311C134.057 121.323 134.298 121.906 134.268 122.616Z" fill="#263238"/>
<path d="M148.4 122.737C148.4 122.737 149.043 123.085 150.577 121.75C152.112 120.414 153.417 117.821 152.791 116.739C152.166 115.656 150.265 117.226 150.265 117.226L148.4 122.737Z" fill="white" stroke="#263238" stroke-width="0.8" stroke-miterlimit="10"/>
<path d="M125.184 115.758C125.184 115.758 123.554 114.777 122.609 115.559C121.562 116.42 123.084 119.313 123.608 120.137C124.27 121.178 125.569 122.063 126.67 121.112L125.184 115.758Z" fill="white" stroke="#263238" stroke-width="0.8" stroke-miterlimit="10"/>
<path d="M133.522 127.892C133.767 128.521 134.161 129.082 134.67 129.525C135.18 129.968 135.789 130.281 136.446 130.437" stroke="#263238" stroke-width="0.8" stroke-linecap="round" stroke-linejoin="round"/>
<path d="M144.549 129.39C143.605 131.502 143.653 133.361 144.213 135.605" stroke="#263238" stroke-width="0.8" stroke-linecap="round" stroke-linejoin="round"/>
<path d="M130.719 129.186C130.893 130.526 130.96 131.878 130.917 133.228C130.979 134.125 130.852 135.025 130.544 135.869" stroke="#263238" stroke-width="0.8" stroke-linecap="round" stroke-linejoin="round"/>
<path d="M124.462 114.663C124.462 114.663 133.366 114.308 135.417 105.068C135.417 105.068 139.316 114.91 150.674 115.758C150.674 115.758 152.701 108.761 151.558 104.273C150.415 99.7855 144.82 95.9051 137.312 96.5248C129.804 97.1444 123.602 99.8697 124.462 114.663Z" fill="#263238"/>
<path d="M115.029 177.007V182.03C115.029 182.03 123.969 188.834 135.916 188.154L141.15 184.238C141.15 184.238 142.907 177.65 146.481 173.205C150.054 168.759 154.482 166.761 153.802 161.209C153.122 155.656 152.936 153.785 152.936 153.785" stroke="#263238" stroke-width="0.8" stroke-linecap="round" stroke-linejoin="round"/>
<path d="M130.719 134.245C130.719 134.245 125.605 136.224 120.377 135.063C115.149 133.902 111.54 133.631 108.592 136.579C105.644 139.527 107.256 155.229 104.711 158.748C102.167 162.268 97.3298 169.342 98.8037 175.232" stroke="#263238" stroke-width="0.8" stroke-linecap="round" stroke-linejoin="round"/>
<path d="M113.982 178.059C115.384 180.604 112.466 182.872 110.373 184.827C108.279 186.783 102.323 187.234 100.482 186.897C98.6413 186.56 97.378 180.117 97.7209 178.047C98.0638 175.978 99.2189 174.023 100.945 173.205C102.672 172.386 103.953 167.008 105.223 166.274C106.492 165.54 107.25 167.929 107.25 167.929" stroke="#263238" stroke-width="0.8" stroke-miterlimit="10"/>
<path d="M130.201 168.687L141.908 170.112C143.015 170.245 144.225 170.437 144.953 171.279" stroke="#263238" stroke-width="0.8" stroke-linecap="round" stroke-linejoin="round"/>
<path d="M116.81 159.596C116.81 159.596 117.52 153.623 116.81 150.837" stroke="#263238" stroke-width="0.8" stroke-linecap="round" stroke-linejoin="round"/>
<path d="M117.122 157.419C118.395 156.144 119.433 154.655 120.191 153.021" stroke="#263238" stroke-width="0.8" stroke-linecap="round" stroke-linejoin="round"/>
<path d="M160.516 159.608C159.733 159.481 158.996 159.154 158.377 158.658C157.758 158.163 157.278 157.516 156.982 156.78C156.687 156.044 156.587 155.244 156.691 154.458C156.796 153.672 157.102 152.926 157.58 152.293C158.182 151.463 159.09 150.855 159.674 149.995C160.013 149.483 160.23 148.899 160.308 148.29C160.386 147.681 160.324 147.062 160.125 146.481C159.926 145.899 159.597 145.372 159.162 144.938C158.727 144.504 158.198 144.176 157.616 143.979C158.772 143.879 159.934 143.892 161.087 144.015C163.458 144.358 164.896 146.012 164.396 148.503C163.897 150.993 160.979 151.324 159.247 152.714C158.798 153.031 158.435 153.454 158.188 153.945C157.942 154.436 157.82 154.98 157.833 155.53C157.876 156.387 158.147 157.217 158.619 157.934C159.091 158.652 159.746 159.23 160.516 159.608Z" fill="white" stroke="#263238" stroke-width="0.8" stroke-miterlimit="10"/>
<path d="M143.906 134.245C146.131 136.35 148.904 137.786 151.907 138.39C156.599 139.184 161.821 138.956 163.566 141.019C165.311 143.083 167.916 154.104 171.309 159.025C174.702 163.946 179.557 174.246 173.637 180.568C173.637 180.568 167.236 182.662 163.584 173.951" stroke="#263238" stroke-width="0.8" stroke-linecap="round" stroke-linejoin="round"/>
<path d="M151.907 152.546C151.907 152.546 155.625 156.865 157.189 161.209" stroke="#263238" stroke-width="0.8" stroke-linecap="round" stroke-linejoin="round"/>
<path d="M159.8 173.205C161.443 172.149 163.399 171.688 165.341 171.899C168.541 172.278 168.246 173.175 167.687 173.403C167.127 173.632 158.573 175.587 158.29 175.082C158.007 174.576 159.8 173.205 159.8 173.205Z" fill="white" stroke="#263238" stroke-width="0.8" stroke-miterlimit="10"/>
<path d="M129.04 134.811C129.311 137.644 131.669 139.744 133.745 141.699C135.466 143.229 136.956 145.003 138.166 146.963C141.301 152.413 140.609 159.169 139.821 165.408" stroke="#263238" stroke-width="0.8" stroke-linecap="round" stroke-linejoin="round"/>
<path d="M127.915 134.781C126.907 136.451 126.195 138.282 125.81 140.195C125.767 140.326 125.767 140.467 125.81 140.598C125.882 140.71 125.987 140.796 126.11 140.845L130.135 142.914C129.762 144.84 129.611 146.802 129.684 148.762C129.681 149.117 129.734 149.47 129.84 149.808C130.024 150.237 130.287 150.627 130.616 150.958C133.883 154.681 137.408 158.61 138.178 163.501" stroke="#263238" stroke-width="0.8" stroke-linecap="round" stroke-linejoin="round"/>
<path d="M150.65 138.029C149.811 138.513 149.05 139.122 148.394 139.834C144.9 143.348 142.134 147.516 140.254 152.1" stroke="#263238" stroke-width="0.8" stroke-linecap="round" stroke-linejoin="round"/>
<path d="M151.155 138.077C152.611 139.681 154.015 141.346 155.366 143.07C153.494 144.342 151.336 145.132 149.085 145.369C149.368 146.909 149.645 148.449 149.928 149.983C149.973 150.142 149.973 150.311 149.928 150.47C149.824 150.653 149.657 150.792 149.458 150.861C146.481 152.311 142.883 152.943 140.789 155.518" stroke="#263238" stroke-width="0.8" stroke-linecap="round" stroke-linejoin="round"/>
<path d="M135.417 105.067C135.417 105.067 135.941 116.973 150.265 117.226" stroke="#263238" stroke-width="0.8" stroke-linecap="round" stroke-linejoin="round"/>
<path d="M166.959 159.596C167.879 161.963 168.415 164.461 168.547 166.996C168.638 170.744 165.184 172.759 162.73 173.205C160.275 173.65 157.279 173.511 155.282 170.997C153.285 168.482 152.581 163.122 152.581 163.122L166.959 159.596Z" fill="white" stroke="#263238" stroke-width="0.8" stroke-miterlimit="10"/>
<path d="M170.208 158.73C169.73 158.755 169.264 158.878 168.836 159.091C166.618 160.025 164.49 161.159 162.477 162.478C162.297 162.599 162.092 162.749 162.074 162.965C162.074 163.302 162.453 163.489 162.784 163.567C164.715 163.928 166.7 163.501 168.613 163.074C169.172 162.976 169.716 162.806 170.232 162.568C171.832 161.75 172.897 158.766 170.208 158.73Z" fill="white" stroke="#263238" stroke-width="0.8" stroke-miterlimit="10"/>
<path d="M171.297 163.122C169.68 163.312 168.082 163.638 166.52 164.097C166.024 164.191 165.551 164.383 165.13 164.662C165.053 164.707 164.988 164.77 164.941 164.845C164.894 164.921 164.866 165.006 164.859 165.095C164.859 165.312 165.076 165.45 165.269 165.54C165.96 165.812 166.688 165.981 167.428 166.04C169.233 166.268 171.411 166.557 172.969 165.402C174.684 164.151 172.71 163.02 171.297 163.122Z" fill="white" stroke="#263238" stroke-width="0.8" stroke-miterlimit="10"/>
<path d="M166.592 167.068C166.058 167.065 165.531 167.2 165.064 167.459C164.919 167.539 164.802 167.661 164.727 167.808C164.676 167.966 164.677 168.136 164.73 168.293C164.783 168.451 164.885 168.586 165.022 168.681C165.297 168.861 165.61 168.979 165.936 169.024L169.191 169.727C169.865 169.872 170.677 169.98 171.098 169.306C171.24 169.071 171.315 168.802 171.315 168.527C171.315 168.253 171.24 167.983 171.098 167.748C170.298 166.768 167.687 166.996 166.592 167.068Z" fill="white" stroke="#263238" stroke-width="0.8" stroke-miterlimit="10"/>
<path d="M101.475 172.747C100.464 174.69 100.356 176.959 100.272 179.136" stroke="#263238" stroke-width="0.8" stroke-linecap="round" stroke-linejoin="round"/>
<path d="M102.191 174.041C102.207 176.289 102.883 178.483 104.134 180.351C105.385 182.22 107.157 183.68 109.23 184.551" stroke="#263238" stroke-width="0.8" stroke-linecap="round" stroke-linejoin="round"/>
<path d="M143.172 172.007C139.947 171.773 136.675 171.544 133.516 172.212" stroke="#263238" stroke-width="0.8" stroke-linecap="round" stroke-linejoin="round"/>
<path d="M135.513 143.468L123.734 143.913L126.062 165.408L137.047 164.704L135.513 143.468Z" fill="white" stroke="#263238" stroke-width="0.8" stroke-miterlimit="10"/>
<path d="M135.622 149.622L136.277 150.759L132.92 156.895C134.725 156.462 137.655 153.238 138.142 153.887C138.63 154.537 130.322 162.725 128.288 163.236C126.833 163.527 125.334 163.527 123.878 163.236C122.26 165.131 113.218 179.967 113.218 179.967C113.218 179.967 103.984 178.968 105.806 168.837C105.806 168.837 117.189 159.56 120.528 156.595C120.528 156.595 121.863 151.403 123.933 150.843L124.667 152.648C124.667 152.648 135.76 147.577 136.097 147.95C136.434 148.323 136.097 149.183 136.097 149.183C136.097 149.183 129.9 154.874 128.415 155.199" fill="white"/>
<path d="M135.622 149.622L136.277 150.759L132.92 156.895C134.725 156.462 137.655 153.238 138.142 153.887C138.63 154.537 130.322 162.725 128.288 163.236C126.833 163.527 125.334 163.527 123.878 163.236C122.26 165.131 113.218 179.967 113.218 179.967C113.218 179.967 103.984 178.968 105.806 168.837C105.806 168.837 117.189 159.56 120.528 156.595C120.528 156.595 121.863 151.24 123.933 150.843L124.667 152.648C124.667 152.648 135.76 147.577 136.097 147.95C136.434 148.323 136.097 149.183 136.097 149.183C136.097 149.183 129.9 154.874 128.415 155.199" stroke="#263238" stroke-width="0.8" stroke-miterlimit="10"/>
<path opacity="0.2" d="M135.88 102.799C137.321 104.432 138.934 105.902 140.693 107.185C141.487 107.706 142.311 108.18 143.16 108.605C145.94 110.02 148.841 111.183 151.829 112.082" stroke="white" stroke-width="0.6" stroke-linecap="round" stroke-linejoin="round"/>
<path opacity="0.2" d="M136.488 100.387C140.688 102.945 145.24 104.873 150 106.108" stroke="white" stroke-width="0.6" stroke-linecap="round" stroke-linejoin="round"/>
<path d="M131.158 129.787C131.158 129.787 132.854 137.385 136.729 138.077C140.603 138.769 143.689 130.557 143.689 130.557C143.689 130.557 139.845 135.075 137.42 135.039C134.996 135.003 131.158 129.787 131.158 129.787Z" fill="#263238"/>
<path d="M126.429 147.366C126.928 147.366 127.332 146.962 127.332 146.463C127.332 145.965 126.928 145.561 126.429 145.561C125.931 145.561 125.527 145.965 125.527 146.463C125.527 146.962 125.931 147.366 126.429 147.366Z" fill="white" stroke="#263238" stroke-width="0.8" stroke-miterlimit="10"/>
</svg>
