<svg width="376" height="376" viewBox="0 0 376 376" fill="none" xmlns="http://www.w3.org/2000/svg">
<path d="M352.938 200.365C352.938 200.365 345.92 125.667 289.269 96.5894C232.618 67.512 203.04 76.536 166.944 93.08C130.848 109.624 117.277 139.463 86.229 153.741C55.1814 168.019 10.0263 177.805 8.021 211.896C6.01567 245.987 18.0477 269.048 35.093 278.072C52.1383 287.096 68.6823 287.096 68.6823 287.096H330.378C330.378 287.096 362.965 270.552 352.938 200.365Z" fill="#33B55B"/>
<path opacity="0.7" d="M352.938 200.365C352.938 200.365 345.92 125.667 289.269 96.5894C232.618 67.512 203.04 76.536 166.944 93.08C130.848 109.624 117.277 139.463 86.229 153.741C55.1814 168.019 10.0263 177.805 8.021 211.896C6.01567 245.987 18.0477 269.048 35.093 278.072C52.1383 287.096 68.6823 287.096 68.6823 287.096H330.378C330.378 287.096 362.965 270.552 352.938 200.365Z" fill="white"/>
<g opacity="0.3">
<path d="M76.2031 84.056C76.2031 84.056 76.4388 83.9557 76.9 83.7753" stroke="black" stroke-linecap="round" stroke-linejoin="round"/>
<path d="M79.2412 82.918C87.6085 80.0454 112.369 73.1521 142.379 80.0454C183.448 89.4805 250.266 165.092 307.819 146.723C344.637 134.971 340.697 83.7051 300.299 80.2559C252.988 76.2152 238.219 99.457 234.935 106.28" stroke="black" stroke-linecap="round" stroke-linejoin="round" stroke-dasharray="2.99 4.98"/>
<path d="M234.394 107.418C234.203 107.869 234.123 108.12 234.123 108.12" stroke="black" stroke-linecap="round" stroke-linejoin="round"/>
</g>
<g opacity="0.3">
<path d="M233.23 271.705L234.769 274.823L238.214 275.325L235.722 277.751L236.309 281.18L233.23 279.566L230.147 281.18L230.739 277.751L228.247 275.325L231.691 274.823L233.23 271.705Z" stroke="black" stroke-linecap="round" stroke-linejoin="round"/>
<path d="M247.965 271.705L249.504 274.823L252.948 275.325L250.456 277.751L251.043 281.18L247.965 279.566L244.887 281.18L245.473 277.751L242.981 275.325L246.426 274.823L247.965 271.705Z" stroke="black" stroke-linecap="round" stroke-linejoin="round"/>
<path d="M262.699 271.705L264.238 274.823L267.682 275.325L265.191 277.751L265.777 281.18L262.699 279.566L259.621 281.18L260.207 277.751L257.716 275.325L261.16 274.823L262.699 271.705Z" stroke="black" stroke-linecap="round" stroke-linejoin="round"/>
<path d="M277.432 271.705L278.972 274.823L282.416 275.325L279.924 277.751L280.511 281.18L277.432 279.566L274.354 281.18L274.941 277.751L272.449 275.325L275.893 274.823L277.432 271.705Z" stroke="black" stroke-linecap="round" stroke-linejoin="round"/>
<path d="M292.167 271.705L293.706 274.823L297.15 275.325L294.658 277.751L295.245 281.18L292.167 279.566L289.089 281.18L289.675 277.751L287.184 275.325L290.628 274.823L292.167 271.705Z" stroke="black" stroke-linecap="round" stroke-linejoin="round"/>
</g>
<g opacity="0.3">
<path d="M353.159 77.283H318.888V103.187H353.159V77.283Z" stroke="black" stroke-linecap="round" stroke-linejoin="round"/>
<path d="M353.159 77.283H318.888V81.3287H353.159V77.283Z" stroke="black" stroke-linecap="round" stroke-linejoin="round"/>
<path d="M331.907 88.0666C331.907 87.4261 331.717 86.7999 331.361 86.2673C331.005 85.7348 330.499 85.3197 329.908 85.0745C329.316 84.8294 328.665 84.7653 328.036 84.8902C327.408 85.0152 326.831 85.3236 326.378 85.7766C325.925 86.2295 325.617 86.8066 325.492 87.4348C325.367 88.063 325.431 88.7142 325.676 89.306C325.921 89.8978 326.336 90.4036 326.869 90.7594C327.402 91.1153 328.028 91.3052 328.668 91.3052C329.527 91.3052 330.351 90.964 330.958 90.3567C331.566 89.7493 331.907 88.9256 331.907 88.0666Z" stroke="black" stroke-linecap="round" stroke-linejoin="round"/>
<path d="M327.872 93.2053H329.491C330.6 93.2053 331.664 93.6459 332.448 94.43C333.232 95.2141 333.672 96.2776 333.672 97.3865V100.49H323.676V97.3865C323.676 96.8361 323.784 96.2912 323.995 95.7829C324.207 95.2747 324.516 94.8131 324.906 94.4246C325.296 94.0362 325.758 93.7285 326.267 93.5193C326.776 93.3101 327.322 93.2034 327.872 93.2053Z" stroke="black" stroke-linecap="round" stroke-linejoin="round"/>
<path d="M338.585 86.9988H350.998" stroke="black" stroke-linecap="round" stroke-linejoin="round"/>
<path d="M338.585 90.5032H350.998" stroke="black" stroke-linecap="round" stroke-linejoin="round"/>
<path d="M338.585 94.0125H350.998" stroke="black" stroke-linecap="round" stroke-linejoin="round"/>
<path d="M338.585 97.5217H350.998" stroke="black" stroke-linecap="round" stroke-linejoin="round"/>
</g>
<g opacity="0.3">
<path d="M28.0747 249.496H9.52539V223.928H25.2021L28.0747 227.818V249.496Z" stroke="black" stroke-linecap="round" stroke-linejoin="round"/>
<path d="M25.2021 223.928V227.818H28.0748" stroke="black" stroke-linecap="round" stroke-linejoin="round"/>
<path d="M13.9268 231.012H23.9233" stroke="black" stroke-linecap="round" stroke-linejoin="round"/>
<path d="M13.9268 234.837H23.9233" stroke="black" stroke-linecap="round" stroke-linejoin="round"/>
<path d="M13.9268 238.667H23.9233" stroke="black" stroke-linecap="round" stroke-linejoin="round"/>
<path d="M13.9268 242.497H23.9233" stroke="black" stroke-linecap="round" stroke-linejoin="round"/>
</g>
<g opacity="0.3">
<path d="M65.9214 75.4388L29.6865 93.5918L40.6134 115.403L76.8483 97.2497L65.9214 75.4388Z" fill="white" stroke="black" stroke-linecap="round" stroke-linejoin="round"/>
<path d="M29.6836 93.5914L54.8756 98.6348L65.92 75.4381" stroke="black" stroke-linecap="round" stroke-linejoin="round"/>
<path d="M40.6123 115.404L47.8415 97.3715" stroke="black" stroke-linecap="round" stroke-linejoin="round"/>
<path d="M76.8442 97.2512L58.5957 91.4858" stroke="black" stroke-linecap="round" stroke-linejoin="round"/>
</g>
<path d="M308.32 287.096H353.44" stroke="#263238" stroke-linecap="round" stroke-linejoin="round"/>
<path d="M84.7256 287.096H302.806" stroke="#263238" stroke-linecap="round" stroke-linejoin="round"/>
<path d="M16.043 287.096H80.2136" stroke="#263238" stroke-linecap="round" stroke-linejoin="round"/>
<path d="M185.995 298.627C277.919 298.627 352.438 297.055 352.438 295.117C352.438 293.179 277.919 291.608 185.995 291.608C94.0717 291.608 19.5527 293.179 19.5527 295.117C19.5527 297.055 94.0717 298.627 185.995 298.627Z" fill="#CCCCCC"/>
<path d="M303.462 223.547C303.462 223.547 316.677 234.04 323.014 244.974C329.351 255.908 329.141 263.318 329.141 263.318C329.141 263.318 310.476 249.997 306.25 240.973C303.721 235.536 302.756 229.502 303.462 223.547Z" fill="#33B55B"/>
<path d="M359.306 208.918C359.306 208.918 362.199 227.758 355.265 239.359C348.332 250.96 329.251 263.032 329.251 263.032C329.251 263.032 326.509 254.564 336.51 241.7C346.512 228.836 359.306 208.918 359.306 208.918Z" fill="#33B55B"/>
<path d="M328.248 242.131C328.248 242.131 328.434 227.633 337.432 212.693C346.431 197.753 357.215 182.613 359.747 176.176C361.43 171.724 362.792 167.156 363.823 162.51C363.823 162.51 367.568 174.933 360.559 191.462C353.55 207.991 328.248 242.131 328.248 242.131Z" fill="#33B55B"/>
<path d="M328.93 236.176C328.93 236.176 318.306 222.665 310.967 207.213C303.627 191.762 304.811 175.72 304.811 175.72C304.811 175.72 318.587 193.577 322.969 207.524C327.35 221.471 328.93 236.176 328.93 236.176Z" fill="#33B55B"/>
<path d="M331.035 205.629C331.035 205.629 333.542 183.43 339.518 171.113C345.494 158.795 357.751 139.759 357.751 139.759C357.751 139.759 359.255 161.071 349.625 178.076C339.994 195.081 331.035 205.629 331.035 205.629Z" fill="#33B55B"/>
<path d="M331.527 192.88C331.527 192.88 319.074 174.331 315.675 161.066C312.276 147.801 309.323 125.361 309.323 125.361C309.323 125.361 324.253 140.641 327.903 159.838C331.552 179.034 331.527 192.88 331.527 192.88Z" fill="#33B55B"/>
<path d="M325.365 112.823C325.365 112.823 337.056 121.445 335.206 139.549C333.356 157.652 331.572 163.768 331.572 163.768C333.387 151.365 325.365 112.823 325.365 112.823Z" fill="#33B55B"/>
<path d="M329.466 269.073C329.466 269.073 328.373 266.21 328.373 244.372C328.373 222.534 331.236 213.946 331.236 192.469C331.236 170.992 332.669 150.944 332.669 150.944" stroke="#263238" stroke-width="0.75" stroke-miterlimit="10"/>
<path d="M331.105 203.514C331.105 203.514 338.886 186.749 342.18 180.452C345.233 174.627 348.767 165.182 348.767 165.182" stroke="#263238" stroke-width="0.75" stroke-miterlimit="10"/>
<path d="M345.92 210.392C341.132 219.246 330.218 239.349 328.248 242.141" stroke="#263238" stroke-width="0.75" stroke-miterlimit="10"/>
<path d="M348.171 206.206L346.812 208.712" stroke="#263238" stroke-width="0.75" stroke-miterlimit="10"/>
<path d="M316.923 206.071L314.341 199.919" stroke="#263238" stroke-width="0.75" stroke-miterlimit="10"/>
<path d="M328.409 233.448L318.066 208.803" stroke="#263238" stroke-width="0.75" stroke-miterlimit="10"/>
<path d="M320.242 252.138C318.021 249.376 315.685 246.297 313.725 243.33" stroke="#263238" stroke-width="0.75" stroke-miterlimit="10"/>
<path d="M341.268 247.325C336.084 253.572 328.409 261.593 328.409 261.593C328.409 261.593 325.712 258.71 322.338 254.685" stroke="#263238" stroke-width="0.75" stroke-miterlimit="10"/>
<path d="M345.173 242.131C344.581 243.07 343.94 243.977 343.253 244.849" stroke="#263238" stroke-width="0.75" stroke-miterlimit="10"/>
<path d="M324.173 166.305L322.423 160.404" stroke="#263238" stroke-width="0.75" stroke-miterlimit="10"/>
<path d="M331.106 189.742L325.095 169.438" stroke="#263238" stroke-width="0.75" stroke-miterlimit="10"/>
<path d="M314.07 258.63H345.313V269.79H342.366L338.56 294.34H320.818L317.018 269.79H314.07V258.63Z" fill="#263238"/>
<path d="M177.386 260.57C177.386 260.57 182.801 283.852 180.444 287.678C177.361 292.691 144.544 295.699 144.544 295.699H216.911C216.911 295.699 225.981 293.157 223.253 285.863C221.143 280.223 211.021 260.57 211.021 260.57H177.386Z" fill="white" stroke="#263238" stroke-linecap="round" stroke-linejoin="round"/>
<path d="M175.802 260.57C175.802 260.57 181.577 284.048 178.86 287.678C176.143 291.307 144.544 294.085 144.544 294.085H217.237C217.237 294.085 223.354 291.613 221.654 285.863C219.954 280.112 209.421 260.57 209.421 260.57H175.802Z" fill="white" stroke="#263238" stroke-linecap="round" stroke-linejoin="round"/>
<path d="M209.437 260.57H175.803C175.803 260.57 179.222 274.482 179.558 282.544H220.406C217.103 274.793 209.437 260.57 209.437 260.57Z" fill="#263238" stroke="#263238" stroke-linecap="round" stroke-linejoin="round"/>
<path d="M216.911 294.205H144.544V295.699H216.911V294.205Z" fill="white" stroke="#263238" stroke-linecap="round" stroke-linejoin="round"/>
<path d="M300.008 99.0959H90.1546C87.8067 99.0959 85.9033 100.999 85.9033 103.347V258.615C85.9033 260.963 87.8067 262.867 90.1546 262.867H300.008C302.356 262.867 304.259 260.963 304.259 258.615V103.347C304.259 100.999 302.356 99.0959 300.008 99.0959Z" fill="white" stroke="#263238" stroke-linecap="round" stroke-linejoin="round"/>
<path d="M294.864 99.0959H85.0111C82.6631 99.0959 80.7598 100.999 80.7598 103.347V258.615C80.7598 260.963 82.6631 262.867 85.0111 262.867H294.864C297.212 262.867 299.115 260.963 299.115 258.615V103.347C299.115 100.999 297.212 99.0959 294.864 99.0959Z" fill="#263238" stroke="#263238" stroke-linecap="round" stroke-linejoin="round"/>
<path d="M80.7598 237.409H299.115V258.61C299.115 259.738 298.668 260.819 297.87 261.616C297.073 262.414 295.992 262.862 294.864 262.862H85.0111C83.8836 262.862 82.8022 262.414 82.0049 261.616C81.2077 260.819 80.7598 259.738 80.7598 258.61V237.409Z" fill="white" stroke="#263238" stroke-linecap="round" stroke-linejoin="round"/>
<path d="M193.966 250.138C193.966 249.344 193.73 248.569 193.29 247.909C192.849 247.25 192.223 246.736 191.49 246.432C190.757 246.129 189.951 246.049 189.173 246.204C188.395 246.359 187.68 246.741 187.119 247.302C186.558 247.863 186.176 248.577 186.021 249.355C185.867 250.133 185.946 250.94 186.25 251.672C186.553 252.405 187.067 253.032 187.727 253.472C188.386 253.913 189.162 254.148 189.955 254.148C191.019 254.148 192.039 253.726 192.791 252.974C193.543 252.221 193.966 251.201 193.966 250.138Z" fill="#263238" stroke="#263238" stroke-linecap="round" stroke-linejoin="round"/>
<path d="M288.132 109.283H91.7393V224.986H288.132V109.283Z" fill="#949494" stroke="#263238" stroke-linejoin="round"/>
<path d="M265.691 109.283H162.056V224.986H265.691V109.283Z" fill="#EDEDED" stroke="#263238" stroke-miterlimit="10"/>
<path d="M210.255 172.241C211.78 172.241 213.017 171.004 213.017 169.478C213.017 167.953 211.78 166.716 210.255 166.716C208.729 166.716 207.492 167.953 207.492 169.478C207.492 171.004 208.729 172.241 210.255 172.241Z" fill="white" stroke="#263238" stroke-linecap="round" stroke-linejoin="round"/>
<path d="M221.996 172.241C223.521 172.241 224.758 171.004 224.758 169.478C224.758 167.953 223.521 166.716 221.996 166.716C220.47 166.716 219.233 167.953 219.233 169.478C219.233 171.004 220.47 172.241 221.996 172.241Z" fill="white" stroke="#263238" stroke-linecap="round" stroke-linejoin="round"/>
<path d="M233.737 172.241C235.263 172.241 236.499 171.004 236.499 169.478C236.499 167.953 235.263 166.716 233.737 166.716C232.211 166.716 230.975 167.953 230.975 169.478C230.975 171.004 232.211 172.241 233.737 172.241Z" fill="white" stroke="#263238" stroke-linecap="round" stroke-linejoin="round"/>
<path d="M245.478 172.241C247.004 172.241 248.241 171.004 248.241 169.478C248.241 167.953 247.004 166.716 245.478 166.716C243.953 166.716 242.716 167.953 242.716 169.478C242.716 171.004 243.953 172.241 245.478 172.241Z" fill="white" stroke="#263238" stroke-linecap="round" stroke-linejoin="round"/>
<path d="M176.479 109.283H113.291V224.986H176.479V109.283Z" fill="white" stroke="#263238" stroke-linecap="round" stroke-linejoin="round"/>
<path d="M265.686 109.283H113.291V150.177H265.686V109.283Z" fill="#33B55B" stroke="#263238" stroke-linecap="round" stroke-linejoin="round"/>
<path d="M176.469 109.283H113.291V150.177H176.469V109.283Z" fill="#263238" stroke="#263238" stroke-linecap="round" stroke-linejoin="round"/>
<path d="M288.131 109.283H282.752V224.986H288.131V109.283Z" fill="#D4D4D4" stroke="#263238" stroke-linejoin="round"/>
<path d="M288.131 153.24H282.752V183.32H288.131V153.24Z" fill="#949494" stroke="#263238" stroke-linejoin="round"/>
<path d="M288.132 109.283H91.7393V118.638H288.132V109.283Z" fill="#D4D4D4" stroke="#263238" stroke-linejoin="round"/>
<path d="M196.497 111.704H106.804V116.798H196.497V111.704Z" fill="white" stroke="#263238" stroke-linecap="round" stroke-linejoin="round"/>
<path d="M155.002 155.457C161.88 148.579 161.88 137.428 155.002 130.55C148.124 123.672 136.973 123.672 130.095 130.55C123.217 137.428 123.217 148.579 130.095 155.457C136.973 162.335 148.124 162.335 155.002 155.457Z" fill="white" stroke="#263238" stroke-linecap="round" stroke-linejoin="round"/>
<path d="M142.549 160.615C145.569 160.618 148.54 159.843 151.174 158.365C153.808 156.887 156.017 154.756 157.589 152.177L147.347 149.304L138.087 149.44L129.529 154.834C131.175 156.654 133.184 158.109 135.426 159.105C137.669 160.101 140.095 160.615 142.549 160.615Z" fill="white" stroke="#263238" stroke-linecap="round" stroke-linejoin="round"/>
<path d="M142.98 160.6C143.582 160.587 144.182 160.543 144.78 160.469L144.514 159.376L146.259 155.867L144.108 152.508L140.599 156.133L143.15 159.221L142.98 160.6Z" fill="#263238" stroke="#263238" stroke-linecap="round" stroke-linejoin="round"/>
<path d="M140.208 160.459L137.732 149.655L129.515 154.834C132.301 157.916 136.09 159.909 140.208 160.459Z" fill="#33B55B" stroke="#263238" stroke-linecap="round" stroke-linejoin="round"/>
<path d="M157.574 152.177L150.179 150.107L148.174 159.692C152.091 158.367 155.418 155.707 157.574 152.177Z" fill="#33B55B" stroke="#263238" stroke-linecap="round" stroke-linejoin="round"/>
<path d="M143.612 155.04L139.456 158.168L136.127 150.036L137.997 147.139L148.174 146.622L150.58 149.866L148.6 157.256L143.612 155.04Z" fill="white" stroke="#263238" stroke-linecap="round" stroke-linejoin="round"/>
<path d="M138.845 144.015L139.782 149.179L143.612 155.04L147.132 148.131L146.906 143.77L138.845 144.015Z" fill="white" stroke="#263238" stroke-linecap="round" stroke-linejoin="round"/>
<path d="M146.981 145.219L146.92 144.066L145.853 143.82L138.834 144.031L139.771 149.194L140.318 150.031C143.281 148.803 145.747 146.497 146.981 145.219Z" fill="#263238" stroke="#263238" stroke-linecap="round" stroke-linejoin="round"/>
<path d="M135.601 137.974C135.601 137.974 134.192 136.47 134.006 137.573C133.821 138.676 134.397 140.581 135.28 141.258C136.162 141.935 136.954 140.812 136.954 140.812L135.601 137.974Z" fill="white" stroke="#263238" stroke-linecap="round" stroke-linejoin="round"/>
<path d="M148.936 137.298C148.936 137.298 150.184 135.663 150.48 136.736C150.776 137.809 150.39 139.744 149.583 140.531C148.775 141.318 147.873 140.255 147.873 140.255L148.936 137.298Z" fill="white" stroke="#263238" stroke-linecap="round" stroke-linejoin="round"/>
<path d="M136.162 139.523L134.809 136.696C133.726 135.171 132.978 133.436 132.613 131.602C131.971 128.489 133.049 125.892 134.458 125.085C135.249 124.61 136.184 124.433 137.095 124.584C137.095 124.584 137.365 122.754 141.767 121.2C146.169 119.646 151.027 122.423 150.951 123.396C150.876 124.368 149.693 124.789 149.693 124.789C149.693 124.789 153.147 126.068 151.899 127.702C151.13 128.699 150.133 129.497 148.991 130.028C149.24 130.852 149.445 131.689 149.603 132.535C149.778 133.618 148.806 138.265 148.806 138.265L146.414 131.748L138.929 132.129C138.929 132.129 138.488 135.297 137.696 136.425C137.19 137.284 136.907 138.256 136.874 139.253C136.874 139.253 136.573 140.466 136.162 139.523Z" fill="#696969" stroke="#263238" stroke-linejoin="round"/>
<path d="M137.496 127.712C137.481 129.664 137.338 131.614 137.07 133.548C136.91 134.623 136.354 135.599 135.511 136.285C135.511 136.285 136.463 140.717 137.671 143.073C138.88 145.429 141.401 147.364 143.928 147.114C146.455 146.863 148.49 143.975 148.731 141.544C148.972 139.112 147.783 130.098 147.783 130.098C147.783 130.098 139.872 131.467 137.496 127.712Z" fill="white" stroke="#263238" stroke-linecap="round" stroke-linejoin="round"/>
<path d="M141.025 141.669C141.025 141.669 142.389 142.842 145.447 141.8" stroke="#263238" stroke-linecap="round" stroke-linejoin="round"/>
<path d="M138.062 134.791C138.062 134.791 138.218 133.437 140.454 133.322" stroke="#263238" stroke-linecap="round" stroke-linejoin="round"/>
<path d="M144.033 133.026C144.54 132.817 145.101 132.776 145.633 132.911C146.165 133.045 146.64 133.348 146.986 133.773" stroke="#263238" stroke-linecap="round" stroke-linejoin="round"/>
<path d="M143.246 135.192C143.246 135.192 143.607 137.864 143.622 138.2C143.637 138.536 144.765 138.591 144.464 139.283C144.164 139.975 143.186 140.707 142.379 140.205" stroke="#263238" stroke-linecap="round" stroke-linejoin="round"/>
<path d="M146.204 136.059C146.229 136.561 146.003 136.967 145.702 136.982C145.401 136.997 145.121 136.611 145.096 136.119C145.071 135.628 145.301 135.207 145.597 135.192C145.893 135.177 146.178 135.568 146.204 136.059Z" fill="#263238"/>
<path d="M140.404 136.586C140.429 137.087 140.198 137.493 139.902 137.508C139.607 137.523 139.321 137.137 139.296 136.641C139.271 136.144 139.501 135.733 139.797 135.718C140.093 135.703 140.374 136.089 140.404 136.586Z" fill="#263238"/>
<path d="M181.984 129.432H238.76" stroke="#263238" stroke-linecap="round" stroke-linejoin="round"/>
<path d="M181.984 134.781H220.833" stroke="#263238" stroke-linecap="round" stroke-linejoin="round"/>
<path d="M181.984 143.469H259.185" stroke="#263238" stroke-linecap="round" stroke-linejoin="round"/>
<path d="M119.553 167.884C120.21 167.884 120.495 168.275 120.495 168.887V169.388C120.495 170.055 120.185 170.391 119.493 170.391H119.082V172.05H118.61V167.839L119.553 167.884ZM119.513 170.015C119.864 170.015 120.014 169.849 120.014 169.448V168.887C120.014 168.506 119.874 168.31 119.513 168.31H119.062V170.015H119.513Z" fill="#263238"/>
<path d="M122.361 169.749V170.17H121.358V171.674H122.621V172.1H120.887V167.889H122.621V168.315H121.323V169.754L122.361 169.749Z" fill="#263238"/>
<path d="M123.964 167.884C124.626 167.884 124.902 168.22 124.902 168.846V169.187C124.902 169.654 124.741 169.939 124.4 170.055C124.786 170.17 124.932 170.481 124.932 170.932V171.589C124.919 171.76 124.947 171.931 125.012 172.09H124.541C124.475 171.932 124.447 171.76 124.461 171.589V170.927C124.461 170.426 124.24 170.3 123.849 170.3H123.518V172.1H123.047V167.889L123.964 167.884ZM123.844 169.889C124.22 169.889 124.441 169.769 124.441 169.313V168.907C124.441 168.531 124.305 168.33 123.939 168.33H123.483V169.889H123.844Z" fill="#263238"/>
<path d="M127.218 168.897V169.007H126.777V168.871C126.777 168.49 126.632 168.27 126.276 168.27C125.92 168.27 125.774 168.49 125.774 168.866C125.774 169.809 127.188 169.899 127.188 171.082C127.188 171.719 126.877 172.135 126.235 172.135C125.594 172.135 125.293 171.719 125.293 171.082V170.842H125.729V171.107C125.729 171.488 125.89 171.709 126.23 171.709C126.571 171.709 126.732 171.488 126.732 171.107C126.732 170.17 125.323 170.105 125.323 168.897C125.323 168.245 125.624 167.844 126.256 167.844C126.887 167.844 127.218 168.28 127.218 168.897Z" fill="#263238"/>
<path d="M127.6 168.902C127.6 168.255 127.92 167.844 128.562 167.844C129.204 167.844 129.53 168.255 129.53 168.902V171.077C129.53 171.714 129.214 172.135 128.562 172.135C127.91 172.135 127.6 171.714 127.6 171.077V168.902ZM128.066 171.102C128.066 171.488 128.226 171.709 128.567 171.709C128.908 171.709 129.069 171.488 129.069 171.102V168.876C129.069 168.5 128.908 168.27 128.567 168.27C128.226 168.27 128.066 168.5 128.066 168.876V171.102Z" fill="#263238"/>
<path d="M130.392 172.095H129.971V167.884H130.567L131.54 170.927V167.884H131.956V172.095H131.455L130.377 168.691L130.392 172.095Z" fill="#263238"/>
<path d="M132.913 171.248L132.748 172.095H132.316L133.124 167.884H133.8L134.608 172.095H134.136L133.976 171.248H132.913ZM132.973 170.842H133.911L133.434 168.415L132.973 170.842Z" fill="#263238"/>
<path d="M136.829 167.884C137.491 167.884 137.772 168.275 137.772 168.887V169.388C137.772 170.055 137.461 170.391 136.794 170.391H136.363V172.05H135.892V167.839L136.829 167.884ZM136.794 170.015C137.14 170.015 137.295 169.849 137.295 169.448V168.887C137.295 168.506 137.155 168.31 136.794 168.31H136.363V170.015H136.794Z" fill="#263238"/>
<path d="M139.08 167.884C139.742 167.884 140.017 168.22 140.017 168.846V169.187C140.046 169.371 140.009 169.558 139.912 169.717C139.816 169.876 139.667 169.995 139.491 170.055C139.877 170.17 140.022 170.481 140.022 170.932V171.589C140.009 171.76 140.038 171.933 140.107 172.09H139.606C139.54 171.932 139.513 171.76 139.526 171.589V170.927C139.526 170.426 139.305 170.3 138.914 170.3H138.583V172.1H138.117V167.889L139.08 167.884ZM138.959 169.889C139.33 169.889 139.551 169.769 139.551 169.313V168.907C139.551 168.531 139.416 168.33 139.05 168.33H138.593V169.889H138.959Z" fill="#263238"/>
<path d="M140.474 168.902C140.474 168.255 140.794 167.844 141.436 167.844C142.078 167.844 142.404 168.255 142.404 168.902V171.077C142.404 171.714 142.088 172.135 141.436 172.135C140.784 172.135 140.474 171.714 140.474 171.077V168.902ZM140.94 171.102C140.94 171.488 141.1 171.709 141.441 171.709C141.782 171.709 141.943 171.488 141.943 171.102V168.876C141.943 168.5 141.782 168.27 141.441 168.27C141.1 168.27 140.94 168.5 140.94 168.876V171.102Z" fill="#263238"/>
<path d="M144.288 169.844V170.285H143.321V172.11H142.85V167.899H144.524V168.325H143.321V169.859L144.288 169.844Z" fill="#263238"/>
<path d="M145.387 167.884V172.095H144.886V167.884H145.387Z" fill="#263238"/>
<path d="M145.848 172.095V167.884H146.314V171.669H147.517V172.095H145.848Z" fill="#263238"/>
<path d="M149.398 169.749V170.17H148.345V171.674H149.608V172.1H147.894V167.889H149.628V168.315H148.345V169.754L149.398 169.749Z" fill="#263238"/>
<path d="M182.786 168.897V169.007H182.34V168.871C182.34 168.49 182.2 168.27 181.839 168.27C181.478 168.27 181.338 168.49 181.338 168.866C181.338 169.809 182.751 169.899 182.751 171.082C182.751 171.719 182.446 172.135 181.804 172.135C181.162 172.135 180.861 171.719 180.861 171.082V170.842H181.297V171.107C181.297 171.488 181.453 171.709 181.799 171.709C182.145 171.709 182.3 171.488 182.3 171.107C182.3 170.17 180.891 170.105 180.891 168.897C180.891 168.245 181.192 167.844 181.824 167.844C182.456 167.844 182.786 168.28 182.786 168.897Z" fill="#263238"/>
<path d="M183.919 170.285L183.673 170.701V172.115H183.202V167.904H183.673V169.939L184.791 167.904H185.263L184.2 169.784L185.303 172.075H184.801L183.919 170.285Z" fill="#263238"/>
<path d="M186.135 167.884V172.095H185.664V167.884H186.135Z" fill="#263238"/>
<path d="M186.616 172.095V167.884H187.082V171.669H188.286V172.095H186.616Z" fill="#263238"/>
<path d="M188.642 172.095V167.884H189.108V171.669H190.311V172.095H188.642Z" fill="#263238"/>
<path d="M192.512 168.897V169.007H192.066V168.871C192.066 168.49 191.921 168.27 191.565 168.27C191.209 168.27 191.063 168.49 191.063 168.866C191.063 169.809 192.477 169.899 192.477 171.082C192.477 171.719 192.171 172.135 191.525 172.135C190.878 172.135 190.582 171.719 190.582 171.082V170.842H191.023V171.107C191.023 171.488 191.179 171.709 191.525 171.709C191.87 171.709 192.026 171.488 192.026 171.107C192.026 170.17 190.622 170.105 190.622 168.897C190.622 168.245 190.923 167.844 191.555 167.844C192.186 167.844 192.512 168.28 192.512 168.897Z" fill="#263238"/>
<path d="M120.491 199.864V200.24H120.045V199.839C120.045 199.458 119.894 199.232 119.543 199.232C119.192 199.232 119.042 199.458 119.042 199.839V202.065C119.042 202.441 119.197 202.671 119.543 202.671C119.889 202.671 120.045 202.441 120.045 202.065V201.518H120.491V202.02C120.491 202.656 120.19 203.078 119.538 203.078C118.886 203.078 118.596 202.656 118.596 202.02V199.864C118.596 199.227 118.897 198.806 119.538 198.806C120.18 198.806 120.491 199.222 120.491 199.864Z" fill="#263238"/>
<path d="M120.882 199.864C120.882 199.217 121.198 198.806 121.844 198.806C122.491 198.806 122.827 199.212 122.827 199.864V202.04C122.846 202.175 122.836 202.314 122.795 202.445C122.755 202.576 122.686 202.696 122.593 202.797C122.501 202.899 122.387 202.978 122.26 203.03C122.133 203.082 121.996 203.105 121.859 203.098C121.213 203.098 120.897 202.676 120.897 202.04L120.882 199.864ZM121.343 202.065C121.343 202.446 121.509 202.671 121.844 202.671C122.18 202.671 122.346 202.446 122.346 202.065V199.839C122.346 199.458 122.19 199.232 121.844 199.232C121.498 199.232 121.343 199.458 121.343 199.839V202.065Z" fill="#263238"/>
<path d="M123.674 203.052H123.253V198.861H123.829L124.832 201.869V198.861H125.248V203.073H124.747L123.674 199.668V203.052Z" fill="#263238"/>
<path d="M126.336 203.052V199.267H125.559V198.861H127.564V199.287H126.787V203.073L126.336 203.052Z" fill="#263238"/>
<path d="M128.131 202.205L127.965 203.052H127.534L128.341 198.861H129.018L129.825 203.073H129.344L129.184 202.225L128.131 202.205ZM128.191 201.799H129.128L128.652 199.373L128.191 201.799Z" fill="#263238"/>
<path d="M132.046 199.864V200.24H131.6V199.839C131.6 199.458 131.45 199.232 131.099 199.232C130.748 199.232 130.598 199.458 130.598 199.839V202.065C130.598 202.441 130.758 202.671 131.099 202.671C131.44 202.671 131.6 202.441 131.6 202.065V201.518H132.046V202.02C132.046 202.656 131.746 203.078 131.094 203.078C130.442 203.078 130.151 202.656 130.151 202.02V199.864C130.151 199.227 130.452 198.806 131.094 198.806C131.736 198.806 132.046 199.222 132.046 199.864Z" fill="#263238"/>
<path d="M133.079 203.052V199.267H132.307V198.861H134.312V199.287H133.54V203.073L133.079 203.052Z" fill="#263238"/>
<path d="M182.085 203.052H181.438L180.861 198.841H181.323L181.824 202.426L182.29 198.846H182.756L183.218 202.431L183.694 198.841H184.1L183.533 203.052H182.912L182.511 200.195L182.085 203.052Z" fill="#263238"/>
<path d="M184.436 199.864C184.436 199.217 184.756 198.806 185.398 198.806C186.04 198.806 186.366 199.217 186.366 199.864V202.04C186.366 202.676 186.05 203.098 185.398 203.098C184.746 203.098 184.436 202.676 184.436 202.04V199.864ZM184.902 202.065C184.902 202.446 185.062 202.671 185.403 202.671C185.744 202.671 185.904 202.446 185.904 202.065V199.839C185.904 199.458 185.744 199.232 185.403 199.232C185.062 199.232 184.902 199.458 184.902 199.839V202.065Z" fill="#263238"/>
<path d="M187.749 198.861C188.411 198.861 188.687 199.197 188.687 199.824V200.165C188.687 200.631 188.527 200.917 188.186 201.032C188.572 201.147 188.717 201.458 188.717 201.909V202.566C188.704 202.737 188.732 202.909 188.797 203.068H188.326C188.26 202.909 188.233 202.737 188.246 202.566V201.869C188.246 201.393 188.025 201.243 187.634 201.243H187.303V203.042H186.832V198.861H187.749ZM187.629 200.867C188.005 200.867 188.226 200.746 188.226 200.29V199.864C188.226 199.488 188.085 199.287 187.724 199.287H187.268V200.847L187.629 200.867Z" fill="#263238"/>
<path d="M189.901 201.223L189.65 201.639V203.052H189.184V198.861H189.65V200.867L190.773 198.831H191.244L190.181 200.751L191.279 203.042H190.778L189.901 201.223Z" fill="#263238"/>
<path d="M194.071 200.706V201.127H193.043V202.631H194.307V203.057H192.577V198.861H194.307V199.287H193.043V200.726L194.071 200.706Z" fill="#263238"/>
<path d="M195.786 201.233L195.084 203.052H194.638L195.485 200.882L194.693 198.861H195.194L195.846 200.546L196.503 198.861H196.939L196.137 200.867L196.979 203.037H196.478L195.786 201.233Z" fill="#263238"/>
<path d="M198.277 198.861C198.939 198.861 199.225 199.252 199.225 199.889V200.39C199.225 201.057 198.909 201.393 198.222 201.393H197.806V203.052H197.34V198.861H198.277ZM198.242 200.992C198.593 200.992 198.744 200.827 198.744 200.425V199.864C198.744 199.483 198.608 199.287 198.242 199.287H197.791V200.992H198.242Z" fill="#263238"/>
<path d="M201.09 200.706V201.127H200.057V202.631H201.32V203.057H199.591V198.861H201.32V199.287H200.057V200.726L201.09 200.706Z" fill="#263238"/>
<path d="M202.694 198.861C203.356 198.861 203.631 199.197 203.631 199.824V200.165C203.631 200.631 203.471 200.917 203.13 201.032C203.516 201.147 203.656 201.458 203.656 201.909V202.566C203.643 202.738 203.672 202.91 203.742 203.068H203.265C203.204 202.908 203.179 202.737 203.19 202.566V201.869C203.19 201.393 202.965 201.243 202.573 201.243H202.243V203.042H201.776V198.861H202.694ZM202.573 200.867C202.944 200.867 203.17 200.746 203.17 200.29V199.864C203.17 199.488 203.03 199.287 202.669 199.287H202.208V200.847L202.573 200.867Z" fill="#263238"/>
<path d="M204.594 198.861V203.073H204.128V198.861H204.594Z" fill="#263238"/>
<path d="M206.574 200.706V201.127H205.546V202.631H206.81V203.057H205.075V198.861H206.81V199.287H205.546V200.726L206.574 200.706Z" fill="#263238"/>
<path d="M207.657 203.052H207.236V198.861H207.833L208.806 201.869V198.861H209.222V203.073H208.72L207.642 199.668L207.657 203.052Z" fill="#263238"/>
<path d="M211.563 199.864V200.24H211.117V199.839C211.117 199.458 210.966 199.232 210.615 199.232C210.265 199.232 210.114 199.458 210.114 199.839V202.065C210.114 202.441 210.27 202.671 210.615 202.671C210.961 202.671 211.117 202.441 211.117 202.065V201.518H211.563V202.02C211.563 202.656 211.262 203.078 210.61 203.078C209.959 203.078 209.668 202.656 209.668 202.02V199.864C209.668 199.227 209.969 198.806 210.61 198.806C211.252 198.806 211.563 199.222 211.563 199.864Z" fill="#263238"/>
<path d="M213.488 200.706V201.127H212.485V202.631H213.743V203.057H212.014V198.861H213.743V199.287H212.485V200.726L213.488 200.706Z" fill="#263238"/>
<path d="M181.348 178.357H255.44" stroke="#263238" stroke-linecap="round" stroke-linejoin="round"/>
<path d="M181.348 184.267H255.44" stroke="#263238" stroke-linecap="round" stroke-linejoin="round"/>
<path d="M181.348 190.183H255.44" stroke="#263238" stroke-linecap="round" stroke-linejoin="round"/>
<path d="M118.044 178.357H169.872" stroke="#263238" stroke-linecap="round" stroke-linejoin="round"/>
<path d="M118.044 184.267H169.872" stroke="#263238" stroke-linecap="round" stroke-linejoin="round"/>
<path d="M118.044 190.183H169.872" stroke="#263238" stroke-linecap="round" stroke-linejoin="round"/>
<path d="M181.348 207.574H255.44" stroke="#263238" stroke-linecap="round" stroke-linejoin="round"/>
<path d="M181.348 213.485H255.44" stroke="#263238" stroke-linecap="round" stroke-linejoin="round"/>
<path d="M181.348 219.401H255.44" stroke="#263238" stroke-linecap="round" stroke-linejoin="round"/>
<path d="M118.044 207.574H169.872" stroke="#263238" stroke-linecap="round" stroke-linejoin="round"/>
<path d="M118.044 213.485H169.872" stroke="#263238" stroke-linecap="round" stroke-linejoin="round"/>
<path d="M118.044 219.401H169.872" stroke="#263238" stroke-linecap="round" stroke-linejoin="round"/>
<path d="M40.6084 204.877L31.3888 287.477C31.3888 287.477 24.6208 293.368 25.2124 295.744C25.804 298.12 33.6248 294.355 34.7027 292.37C35.7805 290.385 36.322 287.226 36.322 287.226L55.7687 225.126L70.7184 291.748C70.7184 291.748 77.1104 296.967 80.6348 296.787C84.1592 296.606 82.9109 295.223 80.8955 292.676C78.8802 290.129 74.3331 288.665 74.3331 288.665L72.0921 202.807L40.6084 204.877Z" fill="#263238" stroke="#263238" stroke-linecap="round" stroke-linejoin="round"/>
<path d="M71.7611 205.584L40.4277 205.745L40.523 202.927L71.5455 201.353L71.7611 205.584Z" fill="#696969" stroke="#263238" stroke-linejoin="round"/>
<path d="M59.4183 202.842H54.3398V205.504H59.4183V202.842Z" fill="white" stroke="#263238" stroke-linecap="round" stroke-linejoin="round"/>
<path d="M54.4551 160.635L42.7891 164.054L44.2379 203.032L71.5957 202.351L68.1365 162.058L54.4551 160.635Z" fill="white" stroke="#263238" stroke-linecap="round" stroke-linejoin="round"/>
<path d="M49.3514 161.071L47.7822 227.593L33.8301 223.577L39.46 199.388L35.0082 163.918L49.3514 161.071Z" fill="#33B55B" stroke="#263238" stroke-linecap="round" stroke-linejoin="round"/>
<path d="M39.4901 205.8L46.9349 206.968L46.6391 208.136L39.3447 206.677" fill="#33B55B"/>
<path d="M39.4901 205.8L46.9349 206.968L46.6391 208.136L39.3447 206.677" stroke="#263238" stroke-linecap="round" stroke-linejoin="round"/>
<path d="M49.3508 161.071L43.4902 162.234L48.4584 199.007L49.3508 161.071Z" fill="#33B55B" stroke="#263238" stroke-linecap="round" stroke-linejoin="round"/>
<path d="M52.3242 168.516L54.6354 172.291L52.7854 198.535L57.1771 203.729L59.4482 197.488L55.9338 172.341L58.1046 168.696L54.9512 164.615L52.3242 168.516Z" fill="#263238" stroke="#263238" stroke-linecap="round" stroke-linejoin="round"/>
<path d="M61.1621 160.469L69.4642 226.495L80.3431 223.316L74.8886 197.588L75.7208 161.853L61.1621 160.469Z" fill="#33B55B" stroke="#263238" stroke-linecap="round" stroke-linejoin="round"/>
<path d="M75.6913 205.654L68.828 207.259L68.6826 208.281L75.8366 206.532" fill="#33B55B"/>
<path d="M75.6913 205.654L68.828 207.259L68.6826 208.281L75.8366 206.532" stroke="#263238" stroke-linecap="round" stroke-linejoin="round"/>
<path d="M65.5187 195.101L65.9097 198.936L65.9047 160.92L61.1621 160.469L65.5187 195.101Z" fill="#33B55B" stroke="#263238" stroke-linecap="round" stroke-linejoin="round"/>
<path d="M55.1814 168.019L50.8147 171.303L47.3154 162.765L49.2857 159.717L59.9741 159.176L62.5058 162.58L60.4253 170.345L55.1814 168.019Z" fill="white" stroke="#263238" stroke-linecap="round" stroke-linejoin="round"/>
<path d="M50.1787 156.433L51.1613 161.863L55.182 168.019L58.8768 160.765L58.6462 156.183L50.1787 156.433Z" fill="white" stroke="#263238" stroke-linecap="round" stroke-linejoin="round"/>
<path d="M58.7365 157.953L58.7014 157.211L54.806 156.293L50.1787 156.433L51.1814 161.863L52.2292 163.467C52.3593 163.421 52.4865 163.368 52.6102 163.307C55.0617 162.068 57.6536 159.206 58.7365 157.953Z" fill="#263238" stroke="#263238" stroke-linecap="round" stroke-linejoin="round"/>
<path d="M35.008 163.918L15.1953 187.897L28.3553 203.489L33.6594 200.039L27.1521 186.759L36.868 179.73L35.008 163.918Z" fill="#33B55B" stroke="#263238" stroke-linecap="round" stroke-linejoin="round"/>
<path d="M27.1572 186.759L22.0186 184.067" stroke="#263238" stroke-linecap="round" stroke-linejoin="round"/>
<path d="M33.6591 200.039L34.4562 201.764L29.9893 204.286L29.3877 202.907L33.6591 200.039Z" fill="white" stroke="#263238" stroke-linecap="round" stroke-linejoin="round"/>
<path d="M34.4566 201.764L38.9987 207.72L37.4947 209.56L36.4068 209.089L34.2059 210.964C34.2059 210.964 32.5916 210.517 32.3911 209.996C32.1906 209.475 29.9997 208.176 29.9546 207.294C29.9095 206.411 29.9546 204.286 29.9546 204.286L34.4566 201.764Z" fill="white" stroke="#263238" stroke-linecap="round" stroke-linejoin="round"/>
<path d="M86.7559 166.53C86.7559 166.53 87.2572 165.172 86.9264 164.334C86.5955 163.497 85.8836 160.584 86.024 159.627C86.1643 158.669 87.6132 157.266 87.7435 156.022C87.8739 154.779 87.7185 153.646 87.7786 152.974C87.8388 152.302 88.666 151.791 89.3729 152.608C90.0797 153.425 90.5059 154.263 90.17 155.115C89.8341 155.967 89.8441 158.083 89.8441 158.083C89.8441 158.083 90.9671 159.642 91.5938 160.655C92.2204 161.667 92.1603 164.334 91.7392 165.402C91.3491 166.196 90.8016 166.902 90.1299 167.478L90.2001 169.323L86.7559 166.53Z" fill="white" stroke="#263238" stroke-linecap="round" stroke-linejoin="round"/>
<path d="M88.8164 156.634C88.8164 156.634 88.3151 158.083 89.1924 158.419C90.0698 158.755 93.6092 159.241 93.6493 158.098C93.6894 156.955 93.7495 156.383 93.183 156.408C92.6165 156.433 89.9494 156.408 89.9494 156.408C89.9494 156.408 88.7362 156.353 88.8164 156.634Z" fill="white" stroke="#263238" stroke-linecap="round" stroke-linejoin="round"/>
<path d="M89.2376 163.768C89.2376 163.768 88.8817 164.851 89.5134 165.102C90.145 165.352 92.6918 165.718 92.7169 164.866C92.7419 164.014 92.7921 163.592 92.381 163.613C91.9699 163.633 90.0498 163.613 90.0498 163.613C90.0498 163.613 89.1424 163.537 89.2376 163.768Z" fill="white" stroke="#263238" stroke-linecap="round" stroke-linejoin="round"/>
<path d="M88.7359 161.457C88.7359 161.457 88.3248 162.705 89.0518 162.996C89.7787 163.287 92.7366 163.713 92.7666 162.73C92.7967 161.748 92.8519 161.226 92.3756 161.271C91.8993 161.316 89.6784 161.246 89.6784 161.246C89.6784 161.246 88.6557 161.216 88.7359 161.457Z" fill="white" stroke="#263238" stroke-linecap="round" stroke-linejoin="round"/>
<path d="M88.4756 159.216C88.4756 159.216 87.9743 160.67 88.8516 161.006C89.7289 161.342 93.2684 161.828 93.3035 160.685C93.3385 159.542 93.4087 158.965 92.8372 158.995C92.2657 159.025 89.6036 158.995 89.6036 158.995C89.6036 158.995 88.3653 158.935 88.4756 159.216Z" fill="white" stroke="#263238" stroke-linecap="round" stroke-linejoin="round"/>
<path d="M86.3545 167.979L86.906 165.763L90.7311 168.039L90.0894 170.451L86.3545 167.979Z" fill="white" stroke="#263238" stroke-linecap="round" stroke-linejoin="round"/>
<path d="M75.7015 161.853L83.031 177.439L86.6306 167.413L90.1399 170.766L86.5303 189.371C86.4034 189.927 86.121 190.435 85.7162 190.837C85.3113 191.239 84.8005 191.517 84.2435 191.639C83.6865 191.762 83.1061 191.723 82.5701 191.529C82.0341 191.334 81.5646 190.991 81.2162 190.539L75.3506 182.367L75.7015 161.853Z" fill="#33B55B" stroke="#263238" stroke-linecap="round" stroke-linejoin="round"/>
<path d="M83.0506 177.439L80.9951 182.282" stroke="#263238" stroke-linecap="round" stroke-linejoin="round"/>
<path d="M75.511 175.424L79.0805 187.085L75.3506 182.367L75.511 175.424Z" fill="#263238" stroke="#263238" stroke-linecap="round" stroke-linejoin="round"/>
<path d="M46.7644 150.092C46.7644 150.092 45.2604 148.512 45.09 149.67C44.9195 150.829 45.5061 152.824 46.4285 153.541C47.351 154.258 48.1882 153.07 48.1882 153.07L46.7644 150.092Z" fill="white" stroke="#263238" stroke-linecap="round" stroke-linejoin="round"/>
<path d="M60.777 149.38C60.777 149.38 62.0855 147.66 62.4013 148.788C62.7172 149.916 62.3061 151.972 61.4588 152.799C60.6116 153.626 59.6641 152.508 59.6641 152.508L60.777 149.38Z" fill="white" stroke="#263238" stroke-linecap="round" stroke-linejoin="round"/>
<path d="M47.3556 151.736L45.9318 148.728C44.7928 147.129 44.0036 145.308 43.6157 143.384C42.9389 140.115 44.0719 137.368 45.5558 136.546C46.3916 136.056 47.3739 135.878 48.3282 136.044C48.3282 136.044 48.609 134.124 53.2312 132.49C57.8535 130.855 62.9621 133.778 62.8869 134.796C62.8117 135.814 61.5634 136.265 61.5634 136.265C61.5634 136.265 65.1931 137.603 63.8796 139.323C63.07 140.369 62.0236 141.207 60.8265 141.769C61.0882 142.636 61.3024 143.516 61.4682 144.406C61.6536 145.539 60.6309 150.422 60.6309 150.422L58.1243 143.559L50.2583 143.955C50.2583 143.955 49.7921 147.289 48.9649 148.467C48.4426 149.366 48.1547 150.381 48.1277 151.42C48.1277 151.42 47.7868 152.709 47.3556 151.736Z" fill="#696969" stroke="#263238" stroke-linejoin="round"/>
<path d="M48.7594 139.308C48.7418 141.358 48.5911 143.404 48.3082 145.434C48.1402 146.565 47.5576 147.592 46.6738 148.317C46.6738 148.317 47.6765 152.969 48.9449 155.446C50.2132 157.922 52.8603 159.958 55.5173 159.692C58.1744 159.426 60.3101 156.398 60.5608 153.842C60.8114 151.285 59.5581 141.81 59.5581 141.81C59.5581 141.81 51.246 143.253 48.7594 139.308Z" fill="white" stroke="#263238" stroke-linecap="round" stroke-linejoin="round"/>
<path d="M52.4648 153.972C52.4648 153.972 53.9037 155.205 57.1122 154.112" stroke="#263238" stroke-linecap="round" stroke-linejoin="round"/>
<path d="M49.4561 148.863C49.4561 148.863 50.9601 147.961 52.2786 148.718" stroke="#263238" stroke-linecap="round" stroke-linejoin="round"/>
<path d="M49.3516 146.723C49.3516 146.723 49.517 145.299 51.8582 145.183" stroke="#263238" stroke-linecap="round" stroke-linejoin="round"/>
<path d="M55.6475 144.893C56.1813 144.673 56.772 144.63 57.3319 144.772C57.8917 144.914 58.391 145.232 58.7557 145.68" stroke="#263238" stroke-linecap="round" stroke-linejoin="round"/>
<path d="M54.7952 147.174C54.7952 147.174 55.1762 149.986 55.1913 150.337C55.2063 150.688 56.3945 150.748 56.0787 151.475C55.7628 152.202 54.7351 152.979 53.8828 152.408" stroke="#263238" stroke-linecap="round" stroke-linejoin="round"/>
<path d="M57.9091 148.076C57.9091 148.577 57.6936 149.034 57.3677 149.049C57.0418 149.064 56.7611 148.658 56.731 148.136C56.7009 147.615 56.9466 147.184 57.2724 147.169C57.5983 147.154 57.8841 147.56 57.9091 148.076Z" fill="#263238"/>
</svg>
