<svg width="22" height="27" viewBox="0 0 22 27" fill="none" xmlns="http://www.w3.org/2000/svg">
<g clip-path="url(#clip0_1693_2140)" filter="url(#filter0_d_1693_2140)">
<path d="M11 9.5C11.89 9.5 12.76 9.23608 13.5001 8.74162C14.2401 8.24715 14.8169 7.54434 15.1575 6.72208C15.4981 5.89981 15.5872 4.99501 15.4135 4.1221C15.2399 3.24918 14.8113 2.44736 14.182 1.81802C13.5526 1.18869 12.7508 0.760102 11.8779 0.586468C11.005 0.412835 10.1002 0.50195 9.27792 0.842544C8.45566 1.18314 7.75285 1.75991 7.25839 2.49994C6.76392 3.23996 6.5 4.10999 6.5 5C6.50119 6.19311 6.97568 7.33701 7.81934 8.18067C8.66299 9.02432 9.80689 9.49881 11 9.5ZM11 2C11.5933 2 12.1734 2.17595 12.6667 2.50559C13.1601 2.83524 13.5446 3.30377 13.7716 3.85195C13.9987 4.40013 14.0581 5.00333 13.9424 5.58527C13.8266 6.16722 13.5409 6.70177 13.1213 7.12132C12.7018 7.54088 12.1672 7.8266 11.5853 7.94236C11.0033 8.05811 10.4001 7.9987 9.85195 7.77164C9.30377 7.54458 8.83524 7.16006 8.50559 6.66671C8.17595 6.17337 8 5.59335 8 5C8 4.20435 8.31607 3.44129 8.87868 2.87868C9.44129 2.31607 10.2044 2 11 2Z" fill="#1C1C1C"/>
<path d="M11 11C9.2104 11.002 7.49466 11.7138 6.22922 12.9792C4.96378 14.2447 4.25199 15.9604 4.25 17.75C4.25 17.9489 4.32902 18.1397 4.46967 18.2803C4.61032 18.421 4.80109 18.5 5 18.5C5.19891 18.5 5.38968 18.421 5.53033 18.2803C5.67098 18.1397 5.75 17.9489 5.75 17.75C5.75 16.3576 6.30312 15.0223 7.28769 14.0377C8.27226 13.0531 9.60761 12.5 11 12.5C12.3924 12.5 13.7277 13.0531 14.7123 14.0377C15.6969 15.0223 16.25 16.3576 16.25 17.75C16.25 17.9489 16.329 18.1397 16.4697 18.2803C16.6103 18.421 16.8011 18.5 17 18.5C17.1989 18.5 17.3897 18.421 17.5303 18.2803C17.671 18.1397 17.75 17.9489 17.75 17.75C17.748 15.9604 17.0362 14.2447 15.7708 12.9792C14.5053 11.7138 12.7896 11.002 11 11Z" fill="#1C1C1C"/>
</g>
<defs>
<filter id="filter0_d_1693_2140" x="-2" y="0.5" width="26" height="26" filterUnits="userSpaceOnUse" color-interpolation-filters="sRGB">
<feFlood flood-opacity="0" result="BackgroundImageFix"/>
<feColorMatrix in="SourceAlpha" type="matrix" values="0 0 0 0 0 0 0 0 0 0 0 0 0 0 0 0 0 0 127 0" result="hardAlpha"/>
<feOffset dy="4"/>
<feGaussianBlur stdDeviation="2"/>
<feComposite in2="hardAlpha" operator="out"/>
<feColorMatrix type="matrix" values="0 0 0 0 0 0 0 0 0 0 0 0 0 0 0 0 0 0 0.25 0"/>
<feBlend mode="normal" in2="BackgroundImageFix" result="effect1_dropShadow_1693_2140"/>
<feBlend mode="normal" in="SourceGraphic" in2="effect1_dropShadow_1693_2140" result="shape"/>
</filter>
<clipPath id="clip0_1693_2140">
<rect width="18" height="18" fill="white" transform="translate(2 0.5)"/>
</clipPath>
</defs>
</svg>
