<svg width="452" height="582" viewBox="0 0 452 582" fill="none" xmlns="http://www.w3.org/2000/svg">
<path opacity="0.2" d="M73.5028 445.364C25.6113 392.313 -3.15561 318.948 1.36808 240.162L1.37782 240.169C5.98944 159.924 38.7284 77.4731 97.263 34.5286C155.703 -8.35588 227.71 -5.05164 293.663 11.6044C359.005 32.7304 540.654 156.014 586.964 214.493C628.351 276.289 659.324 356.243 633.497 434.839C616.71 485.924 580.37 525.553 538.873 548.872C495.172 573.424 445.164 582.344 397.162 581.585C329.63 580.515 260.7 561.016 204.214 535.908C156.723 514.796 110.698 486.564 73.5028 445.364Z" fill="#BBF8DC"/>
</svg>
