<svg width="453" height="582" viewBox="0 0 453 582" fill="none" xmlns="http://www.w3.org/2000/svg">
<path opacity="0.2" d="M-116.878 445.364C-164.77 392.313 -193.536 318.948 -189.013 240.162L-189.003 240.169C-184.391 159.924 -151.652 77.4731 -93.1179 34.5286C-34.6777 -8.35588 37.3295 -5.05164 103.282 11.6044C168.624 32.7304 350.273 156.014 396.584 214.493C437.97 276.289 468.943 356.243 443.116 434.839C426.329 485.924 389.989 525.553 348.492 548.872C304.791 573.424 254.783 582.344 206.781 581.585C139.249 580.515 70.3189 561.016 13.8331 535.908C-33.6582 514.796 -79.6825 486.564 -116.878 445.364Z" fill="#BBF8DC"/>
</svg>
