<svg width="232" height="457" viewBox="0 0 232 457" fill="none" xmlns="http://www.w3.org/2000/svg">
<path opacity="0.5" d="M33.7788 451.038C-9.52945 463.254 -58.0125 454.07 -99.2925 419.556L-99.2858 419.552C-141.329 384.396 -176.001 328.783 -181.427 270.943C-186.849 213.192 -163.132 164.386 -134.029 125.109C-102.692 88.0376 19.3773 10.6777 65.1429 1.7237C111.205 -2.48244 163.927 7.78843 198.617 57.055C221.164 89.0774 231.554 130.149 231.543 168.317C231.528 208.51 221.128 246.87 206.099 279.981C184.954 326.561 153.405 366.778 122.609 396.1C96.7153 420.753 67.4136 441.55 33.7788 451.038Z" fill="#FDFFDD"/>
</svg>
