<svg width="452" height="582" viewBox="0 0 452 582" fill="none" xmlns="http://www.w3.org/2000/svg">
<path opacity="0.2" d="M73.5031 445.283C25.6116 392.232 -3.15536 318.867 1.36833 240.081L1.37806 240.088C5.98969 159.842 38.7286 77.3918 97.2632 34.4473C155.703 -8.43718 227.711 -5.13294 293.664 11.5231C359.005 32.6491 540.655 155.933 586.965 214.412C628.351 276.208 659.324 356.162 633.497 434.757C616.71 485.843 580.37 525.472 538.874 548.791C495.172 573.343 445.164 582.263 397.162 581.504C329.63 580.433 260.7 560.934 204.214 535.827C156.723 514.715 110.699 486.483 73.5031 445.283Z" fill="white"/>
</svg>
