<svg width="595" height="598" viewBox="0 0 595 598" fill="none" xmlns="http://www.w3.org/2000/svg">
<path opacity="0.5" d="M286.051 585.659C223.76 606.407 156.347 600.287 101.662 560.805L101.671 560.799C45.9749 520.582 2.74803 453.24 0.974437 379.618C-0.802884 306.11 37.589 240.678 82.6047 186.85C130.546 135.592 310.482 21.9999 375.906 5.15217C441.266 -5.63471 514.544 1.38535 558.44 60.5779C586.972 99.052 597.446 150.566 593.553 199.567C589.45 251.17 570.893 301.634 546.343 345.899C511.803 408.173 463.244 463.495 416.853 504.741C377.848 539.418 334.429 569.544 286.051 585.659Z" fill="#FDFFDD"/>
</svg>
